M48
; DRILL file {KiCad (5.1.6)-1} date 02/01/21 12:11:53
; FORMAT={-:-/ absolute / inch / decimal}
; #@! TF.CreationDate,2021-02-01T12:11:53-05:00
; #@! TF.GenerationSoftware,Kicad,Pcbnew,(5.1.6)-1
; #@! TF.FileFunction,Plated,1,2,PTH
FMAT,2
INCH
T1C0.0157
T2C0.0295
T3C0.0394
T4C0.0591
T5C0.0598
%
G90
G05
T1
X3.9567Y-2.4213
X4.0256Y-1.9882
X4.0846Y-2.313
X4.0945Y-2.4902
X4.1929Y-2.2835
X4.2323Y-2.3031
X4.2618Y-2.1063
X4.2913Y-2.4606
X4.3893Y-2.0369
X4.3898Y-2.2441
X4.4183Y-2.0079
X4.4291Y-2.1358
X4.4685Y-2.3721
X4.4856Y-2.4124
X4.4882Y-2.6181
X4.5079Y-2.0669
X4.5079Y-2.4705
X4.5276Y-2.5394
X4.5276Y-2.6476
X4.5379Y-2.1452
X4.5906Y-2.7989
X4.6Y-2.9859
X4.6457Y-2.4902
X4.6457Y-2.8579
X4.6555Y-2.2146
X4.6585Y-2.0396
X4.6639Y-1.9582
X4.6643Y-2.5439
X4.6654Y-2.1063
X4.6949Y-1.6043
X4.7Y-2.9859
X4.7074Y-2.5466
X4.7085Y-2.5055
X4.7146Y-2.2736
X4.7231Y-2.8258
X4.7436Y-1.9894
X4.7633Y-2.717
X4.8Y-2.9859
X4.8031Y-2.7165
X4.8228Y-2.6575
X4.828Y-1.9783
X4.8342Y-2.5827
X4.8343Y-1.9323
X4.843Y-2.5389
X4.8524Y-1.5758
X4.8565Y-2.1555
X4.8622Y-1.8996
X4.8622Y-2.1949
X4.8622Y-2.2933
X4.9Y-2.9859
X4.9277Y-1.7618
X4.9277Y-1.8406
X4.9315Y-2.7456
X4.9705Y-1.8996
X4.9793Y-1.9395
X4.9818Y-1.7122
X5.0098Y-1.5768
X5.0252Y-2.9089
X5.0295Y-2.4213
X5.1476Y-1.5256
X5.15Y-2.624
X5.1673Y-1.5945
X5.1673Y-1.6535
X5.3051Y-2.372
T2
X3.7976Y-2.3228
X3.8476Y-2.3228
X3.8976Y-2.3228
T3
X5.1Y-2.75
X5.1Y-2.85
X5.1Y-2.95
X5.2Y-2.75
X5.2Y-2.85
X5.2Y-2.95
T4
X4.1618Y-1.337
X4.1618Y-1.537
X4.2618Y-1.437
X4.3618Y-1.337
X4.3618Y-1.537
T5
X4.5669Y-1.4469
X4.7669Y-1.4469
X4.9669Y-1.4469
X3.8976Y-1.7358
X3.8976Y-1.9358
X3.8976Y-2.1358
X5.4528Y-2.4311
X5.4528Y-2.6311
X5.4528Y-2.8311
X3.8976Y-2.5394
X3.8976Y-2.7394
X3.8976Y-2.9394
T3
G00X5.0492Y-2.1654
M15
G01X5.0492Y-2.0866
M16
G05
G00X5.2067Y-1.9409
M15
G01X5.128Y-1.9409
M16
G05
G00X5.2854Y-2.1654
M15
G01X5.2854Y-2.0866
M16
G05
T0
M30
