%TF.GenerationSoftware,KiCad,Pcbnew,(5.1.9)-1*%
%TF.CreationDate,2021-02-24T17:00:30-05:00*%
%TF.ProjectId,Module Central,4d6f6475-6c65-4204-9365-6e7472616c2e,rev?*%
%TF.SameCoordinates,Original*%
%TF.FileFunction,Soldermask,Top*%
%TF.FilePolarity,Negative*%
%FSLAX46Y46*%
G04 Gerber Fmt 4.6, Leading zero omitted, Abs format (unit mm)*
G04 Created by KiCad (PCBNEW (5.1.9)-1) date 2021-02-24 17:00:30*
%MOMM*%
%LPD*%
G01*
G04 APERTURE LIST*
%ADD10R,3.500000X3.500000*%
%ADD11R,1.700000X1.700000*%
%ADD12O,1.700000X1.700000*%
%ADD13C,2.250000*%
%ADD14R,2.000000X0.500000*%
%ADD15R,1.700000X2.000000*%
%ADD16C,1.000000*%
%ADD17R,3.000000X3.000000*%
%ADD18C,3.000000*%
%ADD19R,1.000000X1.500000*%
%ADD20R,3.800000X2.000000*%
%ADD21R,1.500000X2.000000*%
%ADD22R,1.600000X0.550000*%
%ADD23R,0.550000X1.600000*%
%ADD24R,3.000000X1.200000*%
%ADD25O,1.050000X1.500000*%
%ADD26R,1.050000X1.500000*%
%ADD27R,2.000000X4.500000*%
G04 APERTURE END LIST*
%TO.C,C102*%
G36*
G01*
X113505000Y-63050000D02*
X112555000Y-63050000D01*
G75*
G02*
X112305000Y-62800000I0J250000D01*
G01*
X112305000Y-62300000D01*
G75*
G02*
X112555000Y-62050000I250000J0D01*
G01*
X113505000Y-62050000D01*
G75*
G02*
X113755000Y-62300000I0J-250000D01*
G01*
X113755000Y-62800000D01*
G75*
G02*
X113505000Y-63050000I-250000J0D01*
G01*
G37*
G36*
G01*
X113505000Y-64950000D02*
X112555000Y-64950000D01*
G75*
G02*
X112305000Y-64700000I0J250000D01*
G01*
X112305000Y-64200000D01*
G75*
G02*
X112555000Y-63950000I250000J0D01*
G01*
X113505000Y-63950000D01*
G75*
G02*
X113755000Y-64200000I0J-250000D01*
G01*
X113755000Y-64700000D01*
G75*
G02*
X113505000Y-64950000I-250000J0D01*
G01*
G37*
%TD*%
%TO.C,C106*%
G36*
G01*
X124235000Y-48270000D02*
X125185000Y-48270000D01*
G75*
G02*
X125435000Y-48520000I0J-250000D01*
G01*
X125435000Y-49020000D01*
G75*
G02*
X125185000Y-49270000I-250000J0D01*
G01*
X124235000Y-49270000D01*
G75*
G02*
X123985000Y-49020000I0J250000D01*
G01*
X123985000Y-48520000D01*
G75*
G02*
X124235000Y-48270000I250000J0D01*
G01*
G37*
G36*
G01*
X124235000Y-50170000D02*
X125185000Y-50170000D01*
G75*
G02*
X125435000Y-50420000I0J-250000D01*
G01*
X125435000Y-50920000D01*
G75*
G02*
X125185000Y-51170000I-250000J0D01*
G01*
X124235000Y-51170000D01*
G75*
G02*
X123985000Y-50920000I0J250000D01*
G01*
X123985000Y-50420000D01*
G75*
G02*
X124235000Y-50170000I250000J0D01*
G01*
G37*
%TD*%
%TO.C,C107*%
G36*
G01*
X110015000Y-63950000D02*
X110965000Y-63950000D01*
G75*
G02*
X111215000Y-64200000I0J-250000D01*
G01*
X111215000Y-64700000D01*
G75*
G02*
X110965000Y-64950000I-250000J0D01*
G01*
X110015000Y-64950000D01*
G75*
G02*
X109765000Y-64700000I0J250000D01*
G01*
X109765000Y-64200000D01*
G75*
G02*
X110015000Y-63950000I250000J0D01*
G01*
G37*
G36*
G01*
X110015000Y-62050000D02*
X110965000Y-62050000D01*
G75*
G02*
X111215000Y-62300000I0J-250000D01*
G01*
X111215000Y-62800000D01*
G75*
G02*
X110965000Y-63050000I-250000J0D01*
G01*
X110015000Y-63050000D01*
G75*
G02*
X109765000Y-62800000I0J250000D01*
G01*
X109765000Y-62300000D01*
G75*
G02*
X110015000Y-62050000I250000J0D01*
G01*
G37*
%TD*%
%TO.C,C108*%
G36*
G01*
X110965000Y-75110000D02*
X110015000Y-75110000D01*
G75*
G02*
X109765000Y-74860000I0J250000D01*
G01*
X109765000Y-74360000D01*
G75*
G02*
X110015000Y-74110000I250000J0D01*
G01*
X110965000Y-74110000D01*
G75*
G02*
X111215000Y-74360000I0J-250000D01*
G01*
X111215000Y-74860000D01*
G75*
G02*
X110965000Y-75110000I-250000J0D01*
G01*
G37*
G36*
G01*
X110965000Y-73210000D02*
X110015000Y-73210000D01*
G75*
G02*
X109765000Y-72960000I0J250000D01*
G01*
X109765000Y-72460000D01*
G75*
G02*
X110015000Y-72210000I250000J0D01*
G01*
X110965000Y-72210000D01*
G75*
G02*
X111215000Y-72460000I0J-250000D01*
G01*
X111215000Y-72960000D01*
G75*
G02*
X110965000Y-73210000I-250000J0D01*
G01*
G37*
%TD*%
%TO.C,C110*%
G36*
G01*
X125225000Y-53300000D02*
X124275000Y-53300000D01*
G75*
G02*
X124025000Y-53050000I0J250000D01*
G01*
X124025000Y-52550000D01*
G75*
G02*
X124275000Y-52300000I250000J0D01*
G01*
X125225000Y-52300000D01*
G75*
G02*
X125475000Y-52550000I0J-250000D01*
G01*
X125475000Y-53050000D01*
G75*
G02*
X125225000Y-53300000I-250000J0D01*
G01*
G37*
G36*
G01*
X125225000Y-55200000D02*
X124275000Y-55200000D01*
G75*
G02*
X124025000Y-54950000I0J250000D01*
G01*
X124025000Y-54450000D01*
G75*
G02*
X124275000Y-54200000I250000J0D01*
G01*
X125225000Y-54200000D01*
G75*
G02*
X125475000Y-54450000I0J-250000D01*
G01*
X125475000Y-54950000D01*
G75*
G02*
X125225000Y-55200000I-250000J0D01*
G01*
G37*
%TD*%
%TO.C,D101*%
G36*
G01*
X117296250Y-74480000D02*
X116383750Y-74480000D01*
G75*
G02*
X116140000Y-74236250I0J243750D01*
G01*
X116140000Y-73748750D01*
G75*
G02*
X116383750Y-73505000I243750J0D01*
G01*
X117296250Y-73505000D01*
G75*
G02*
X117540000Y-73748750I0J-243750D01*
G01*
X117540000Y-74236250D01*
G75*
G02*
X117296250Y-74480000I-243750J0D01*
G01*
G37*
G36*
G01*
X117296250Y-76355000D02*
X116383750Y-76355000D01*
G75*
G02*
X116140000Y-76111250I0J243750D01*
G01*
X116140000Y-75623750D01*
G75*
G02*
X116383750Y-75380000I243750J0D01*
G01*
X117296250Y-75380000D01*
G75*
G02*
X117540000Y-75623750I0J-243750D01*
G01*
X117540000Y-76111250D01*
G75*
G02*
X117296250Y-76355000I-243750J0D01*
G01*
G37*
%TD*%
%TO.C,D102*%
G36*
G01*
X119836250Y-74480000D02*
X118923750Y-74480000D01*
G75*
G02*
X118680000Y-74236250I0J243750D01*
G01*
X118680000Y-73748750D01*
G75*
G02*
X118923750Y-73505000I243750J0D01*
G01*
X119836250Y-73505000D01*
G75*
G02*
X120080000Y-73748750I0J-243750D01*
G01*
X120080000Y-74236250D01*
G75*
G02*
X119836250Y-74480000I-243750J0D01*
G01*
G37*
G36*
G01*
X119836250Y-76355000D02*
X118923750Y-76355000D01*
G75*
G02*
X118680000Y-76111250I0J243750D01*
G01*
X118680000Y-75623750D01*
G75*
G02*
X118923750Y-75380000I243750J0D01*
G01*
X119836250Y-75380000D01*
G75*
G02*
X120080000Y-75623750I0J-243750D01*
G01*
X120080000Y-76111250D01*
G75*
G02*
X119836250Y-76355000I-243750J0D01*
G01*
G37*
%TD*%
%TO.C,D103*%
G36*
G01*
X122376250Y-76355000D02*
X121463750Y-76355000D01*
G75*
G02*
X121220000Y-76111250I0J243750D01*
G01*
X121220000Y-75623750D01*
G75*
G02*
X121463750Y-75380000I243750J0D01*
G01*
X122376250Y-75380000D01*
G75*
G02*
X122620000Y-75623750I0J-243750D01*
G01*
X122620000Y-76111250D01*
G75*
G02*
X122376250Y-76355000I-243750J0D01*
G01*
G37*
G36*
G01*
X122376250Y-74480000D02*
X121463750Y-74480000D01*
G75*
G02*
X121220000Y-74236250I0J243750D01*
G01*
X121220000Y-73748750D01*
G75*
G02*
X121463750Y-73505000I243750J0D01*
G01*
X122376250Y-73505000D01*
G75*
G02*
X122620000Y-73748750I0J-243750D01*
G01*
X122620000Y-74236250D01*
G75*
G02*
X122376250Y-74480000I-243750J0D01*
G01*
G37*
%TD*%
%TO.C,D104*%
G36*
G01*
X124916250Y-76355000D02*
X124003750Y-76355000D01*
G75*
G02*
X123760000Y-76111250I0J243750D01*
G01*
X123760000Y-75623750D01*
G75*
G02*
X124003750Y-75380000I243750J0D01*
G01*
X124916250Y-75380000D01*
G75*
G02*
X125160000Y-75623750I0J-243750D01*
G01*
X125160000Y-76111250D01*
G75*
G02*
X124916250Y-76355000I-243750J0D01*
G01*
G37*
G36*
G01*
X124916250Y-74480000D02*
X124003750Y-74480000D01*
G75*
G02*
X123760000Y-74236250I0J243750D01*
G01*
X123760000Y-73748750D01*
G75*
G02*
X124003750Y-73505000I243750J0D01*
G01*
X124916250Y-73505000D01*
G75*
G02*
X125160000Y-73748750I0J-243750D01*
G01*
X125160000Y-74236250D01*
G75*
G02*
X124916250Y-74480000I-243750J0D01*
G01*
G37*
%TD*%
%TO.C,D203*%
G36*
G01*
X122825000Y-47206250D02*
X122825000Y-46293750D01*
G75*
G02*
X123068750Y-46050000I243750J0D01*
G01*
X123556250Y-46050000D01*
G75*
G02*
X123800000Y-46293750I0J-243750D01*
G01*
X123800000Y-47206250D01*
G75*
G02*
X123556250Y-47450000I-243750J0D01*
G01*
X123068750Y-47450000D01*
G75*
G02*
X122825000Y-47206250I0J243750D01*
G01*
G37*
G36*
G01*
X124700000Y-47206250D02*
X124700000Y-46293750D01*
G75*
G02*
X124943750Y-46050000I243750J0D01*
G01*
X125431250Y-46050000D01*
G75*
G02*
X125675000Y-46293750I0J-243750D01*
G01*
X125675000Y-47206250D01*
G75*
G02*
X125431250Y-47450000I-243750J0D01*
G01*
X124943750Y-47450000D01*
G75*
G02*
X124700000Y-47206250I0J243750D01*
G01*
G37*
%TD*%
%TO.C,D204*%
G36*
G01*
X124700000Y-45206250D02*
X124700000Y-44293750D01*
G75*
G02*
X124943750Y-44050000I243750J0D01*
G01*
X125431250Y-44050000D01*
G75*
G02*
X125675000Y-44293750I0J-243750D01*
G01*
X125675000Y-45206250D01*
G75*
G02*
X125431250Y-45450000I-243750J0D01*
G01*
X124943750Y-45450000D01*
G75*
G02*
X124700000Y-45206250I0J243750D01*
G01*
G37*
G36*
G01*
X122825000Y-45206250D02*
X122825000Y-44293750D01*
G75*
G02*
X123068750Y-44050000I243750J0D01*
G01*
X123556250Y-44050000D01*
G75*
G02*
X123800000Y-44293750I0J-243750D01*
G01*
X123800000Y-45206250D01*
G75*
G02*
X123556250Y-45450000I-243750J0D01*
G01*
X123068750Y-45450000D01*
G75*
G02*
X122825000Y-45206250I0J243750D01*
G01*
G37*
%TD*%
D10*
%TO.C,J101*%
X128250000Y-54000000D03*
G36*
G01*
X135750000Y-53000000D02*
X135750000Y-55000000D01*
G75*
G02*
X135000000Y-55750000I-750000J0D01*
G01*
X133500000Y-55750000D01*
G75*
G02*
X132750000Y-55000000I0J750000D01*
G01*
X132750000Y-53000000D01*
G75*
G02*
X133500000Y-52250000I750000J0D01*
G01*
X135000000Y-52250000D01*
G75*
G02*
X135750000Y-53000000I0J-750000D01*
G01*
G37*
G36*
G01*
X133000000Y-48425000D02*
X133000000Y-50175000D01*
G75*
G02*
X132125000Y-51050000I-875000J0D01*
G01*
X130375000Y-51050000D01*
G75*
G02*
X129500000Y-50175000I0J875000D01*
G01*
X129500000Y-48425000D01*
G75*
G02*
X130375000Y-47550000I875000J0D01*
G01*
X132125000Y-47550000D01*
G75*
G02*
X133000000Y-48425000I0J-875000D01*
G01*
G37*
%TD*%
D11*
%TO.C,J102*%
X129540000Y-74930000D03*
D12*
X132080000Y-74930000D03*
X129540000Y-72390000D03*
X132080000Y-72390000D03*
X129540000Y-69850000D03*
X132080000Y-69850000D03*
%TD*%
D13*
%TO.C,J103*%
X110790000Y-38540000D03*
X105710000Y-38540000D03*
X105710000Y-33460000D03*
X110790000Y-33460000D03*
X108250000Y-36000000D03*
%TD*%
D14*
%TO.C,J201*%
X133550000Y-42100000D03*
X133550000Y-41300000D03*
X133550000Y-40500000D03*
X133550000Y-39700000D03*
X133550000Y-38900000D03*
D15*
X133650000Y-44950000D03*
X139100000Y-44950000D03*
X133650000Y-36050000D03*
X139100000Y-36050000D03*
D16*
X136250000Y-42700000D03*
X136250000Y-38300000D03*
%TD*%
D17*
%TO.C,J301*%
X99000000Y-74660000D03*
D18*
X99000000Y-69580000D03*
X99000000Y-64500000D03*
%TD*%
%TO.C,J302*%
X138500000Y-71910000D03*
X138500000Y-66830000D03*
D17*
X138500000Y-61750000D03*
%TD*%
%TO.C,J303*%
X99000000Y-54250000D03*
D18*
X99000000Y-49170000D03*
X99000000Y-44090000D03*
%TD*%
%TO.C,J304*%
X126160000Y-36750000D03*
X121080000Y-36750000D03*
D17*
X116000000Y-36750000D03*
%TD*%
D19*
%TO.C,JP101*%
X108500000Y-59750000D03*
X109800000Y-59750000D03*
%TD*%
%TO.C,JP102*%
X106060000Y-59690000D03*
X104760000Y-59690000D03*
%TD*%
%TO.C,R101*%
G36*
G01*
X111309999Y-67155000D02*
X112210001Y-67155000D01*
G75*
G02*
X112460000Y-67404999I0J-249999D01*
G01*
X112460000Y-67930001D01*
G75*
G02*
X112210001Y-68180000I-249999J0D01*
G01*
X111309999Y-68180000D01*
G75*
G02*
X111060000Y-67930001I0J249999D01*
G01*
X111060000Y-67404999D01*
G75*
G02*
X111309999Y-67155000I249999J0D01*
G01*
G37*
G36*
G01*
X111309999Y-68980000D02*
X112210001Y-68980000D01*
G75*
G02*
X112460000Y-69229999I0J-249999D01*
G01*
X112460000Y-69755001D01*
G75*
G02*
X112210001Y-70005000I-249999J0D01*
G01*
X111309999Y-70005000D01*
G75*
G02*
X111060000Y-69755001I0J249999D01*
G01*
X111060000Y-69229999D01*
G75*
G02*
X111309999Y-68980000I249999J0D01*
G01*
G37*
%TD*%
%TO.C,R203*%
G36*
G01*
X119675000Y-58799999D02*
X119675000Y-59700001D01*
G75*
G02*
X119425001Y-59950000I-249999J0D01*
G01*
X118899999Y-59950000D01*
G75*
G02*
X118650000Y-59700001I0J249999D01*
G01*
X118650000Y-58799999D01*
G75*
G02*
X118899999Y-58550000I249999J0D01*
G01*
X119425001Y-58550000D01*
G75*
G02*
X119675000Y-58799999I0J-249999D01*
G01*
G37*
G36*
G01*
X117850000Y-58799999D02*
X117850000Y-59700001D01*
G75*
G02*
X117600001Y-59950000I-249999J0D01*
G01*
X117074999Y-59950000D01*
G75*
G02*
X116825000Y-59700001I0J249999D01*
G01*
X116825000Y-58799999D01*
G75*
G02*
X117074999Y-58550000I249999J0D01*
G01*
X117600001Y-58550000D01*
G75*
G02*
X117850000Y-58799999I0J-249999D01*
G01*
G37*
%TD*%
%TO.C,R301*%
G36*
G01*
X103200001Y-58350000D02*
X102299999Y-58350000D01*
G75*
G02*
X102050000Y-58100001I0J249999D01*
G01*
X102050000Y-57574999D01*
G75*
G02*
X102299999Y-57325000I249999J0D01*
G01*
X103200001Y-57325000D01*
G75*
G02*
X103450000Y-57574999I0J-249999D01*
G01*
X103450000Y-58100001D01*
G75*
G02*
X103200001Y-58350000I-249999J0D01*
G01*
G37*
G36*
G01*
X103200001Y-60175000D02*
X102299999Y-60175000D01*
G75*
G02*
X102050000Y-59925001I0J249999D01*
G01*
X102050000Y-59399999D01*
G75*
G02*
X102299999Y-59150000I249999J0D01*
G01*
X103200001Y-59150000D01*
G75*
G02*
X103450000Y-59399999I0J-249999D01*
G01*
X103450000Y-59925001D01*
G75*
G02*
X103200001Y-60175000I-249999J0D01*
G01*
G37*
%TD*%
D20*
%TO.C,U101*%
X130810000Y-66650000D03*
D21*
X130810000Y-60350000D03*
X128510000Y-60350000D03*
X133110000Y-60350000D03*
%TD*%
D22*
%TO.C,U102*%
X116400000Y-63240000D03*
X116400000Y-64040000D03*
X116400000Y-64840000D03*
X116400000Y-65640000D03*
X116400000Y-66440000D03*
X116400000Y-67240000D03*
X116400000Y-68040000D03*
X116400000Y-68840000D03*
D23*
X117850000Y-70290000D03*
X118650000Y-70290000D03*
X119450000Y-70290000D03*
X120250000Y-70290000D03*
X121050000Y-70290000D03*
X121850000Y-70290000D03*
X122650000Y-70290000D03*
X123450000Y-70290000D03*
D22*
X124900000Y-68840000D03*
X124900000Y-68040000D03*
X124900000Y-67240000D03*
X124900000Y-66440000D03*
X124900000Y-65640000D03*
X124900000Y-64840000D03*
X124900000Y-64040000D03*
X124900000Y-63240000D03*
D23*
X123450000Y-61790000D03*
X122650000Y-61790000D03*
X121850000Y-61790000D03*
X121050000Y-61790000D03*
X120250000Y-61790000D03*
X119450000Y-61790000D03*
X118650000Y-61790000D03*
X117850000Y-61790000D03*
%TD*%
D24*
%TO.C,U103*%
X120530000Y-56530000D03*
X120530000Y-54530000D03*
X120530000Y-52530000D03*
X120530000Y-50530000D03*
X120530000Y-48530000D03*
X120530000Y-46530000D03*
X120530000Y-44530000D03*
X120530000Y-42530000D03*
X105530000Y-42530000D03*
X105530000Y-44530000D03*
X105530000Y-46530000D03*
X105530000Y-48530000D03*
X105530000Y-50530000D03*
X105530000Y-52530000D03*
X105530000Y-54530000D03*
X105530000Y-56530000D03*
%TD*%
D25*
%TO.C,U301*%
X97730000Y-59000000D03*
X96460000Y-59000000D03*
D26*
X99000000Y-59000000D03*
%TD*%
D27*
%TO.C,Y101*%
X106500000Y-72830000D03*
X106500000Y-64330000D03*
%TD*%
%TO.C,D105*%
G36*
G01*
X131456250Y-46175000D02*
X130543750Y-46175000D01*
G75*
G02*
X130300000Y-45931250I0J243750D01*
G01*
X130300000Y-45443750D01*
G75*
G02*
X130543750Y-45200000I243750J0D01*
G01*
X131456250Y-45200000D01*
G75*
G02*
X131700000Y-45443750I0J-243750D01*
G01*
X131700000Y-45931250D01*
G75*
G02*
X131456250Y-46175000I-243750J0D01*
G01*
G37*
G36*
G01*
X131456250Y-44300000D02*
X130543750Y-44300000D01*
G75*
G02*
X130300000Y-44056250I0J243750D01*
G01*
X130300000Y-43568750D01*
G75*
G02*
X130543750Y-43325000I243750J0D01*
G01*
X131456250Y-43325000D01*
G75*
G02*
X131700000Y-43568750I0J-243750D01*
G01*
X131700000Y-44056250D01*
G75*
G02*
X131456250Y-44300000I-243750J0D01*
G01*
G37*
%TD*%
M02*
