%TF.GenerationSoftware,KiCad,Pcbnew,(5.1.9)-1*%
%TF.CreationDate,2021-02-24T17:00:30-05:00*%
%TF.ProjectId,Module Central,4d6f6475-6c65-4204-9365-6e7472616c2e,rev?*%
%TF.SameCoordinates,Original*%
%TF.FileFunction,Copper,L2,Bot*%
%TF.FilePolarity,Positive*%
%FSLAX46Y46*%
G04 Gerber Fmt 4.6, Leading zero omitted, Abs format (unit mm)*
G04 Created by KiCad (PCBNEW (5.1.9)-1) date 2021-02-24 17:00:30*
%MOMM*%
%LPD*%
G01*
G04 APERTURE LIST*
%TA.AperFunction,SMDPad,CuDef*%
%ADD10R,2.900000X1.000000*%
%TD*%
%TA.AperFunction,SMDPad,CuDef*%
%ADD11R,0.240000X0.900000*%
%TD*%
%TA.AperFunction,SMDPad,CuDef*%
%ADD12R,0.900000X0.240000*%
%TD*%
%TA.AperFunction,ComponentPad*%
%ADD13R,3.500000X3.500000*%
%TD*%
%TA.AperFunction,ComponentPad*%
%ADD14R,1.700000X1.700000*%
%TD*%
%TA.AperFunction,ComponentPad*%
%ADD15O,1.700000X1.700000*%
%TD*%
%TA.AperFunction,ComponentPad*%
%ADD16C,2.250000*%
%TD*%
%TA.AperFunction,ComponentPad*%
%ADD17R,3.000000X3.000000*%
%TD*%
%TA.AperFunction,ComponentPad*%
%ADD18C,3.000000*%
%TD*%
%TA.AperFunction,SMDPad,CuDef*%
%ADD19R,1.750000X0.450000*%
%TD*%
%TA.AperFunction,ComponentPad*%
%ADD20O,1.050000X1.500000*%
%TD*%
%TA.AperFunction,ComponentPad*%
%ADD21R,1.050000X1.500000*%
%TD*%
%TA.AperFunction,ViaPad*%
%ADD22C,0.800000*%
%TD*%
%TA.AperFunction,Conductor*%
%ADD23C,0.250000*%
%TD*%
%TA.AperFunction,Conductor*%
%ADD24C,0.254000*%
%TD*%
%TA.AperFunction,Conductor*%
%ADD25C,0.100000*%
%TD*%
G04 APERTURE END LIST*
D10*
%TO.P,U104,21*%
%TO.N,Net-(U104-Pad21)*%
X122500000Y-58000000D03*
D11*
%TO.P,U104,12*%
%TO.N,Net-(U104-Pad12)*%
X120750000Y-56700000D03*
%TO.P,U104,13*%
%TO.N,Net-(U104-Pad13)*%
X121250000Y-56700000D03*
%TO.P,U104,14*%
%TO.N,Net-(U103-Pad4)*%
X121750000Y-56700000D03*
%TO.P,U104,15*%
%TO.N,Net-(U103-Pad6)*%
X122250000Y-56700000D03*
%TO.P,U104,16*%
%TO.N,Net-(U103-Pad5)*%
X122750000Y-56700000D03*
%TO.P,U104,17*%
%TO.N,Net-(U103-Pad3)*%
X123250000Y-56700000D03*
%TO.P,U104,18*%
%TO.N,Net-(U103-Pad2)*%
X123750000Y-56700000D03*
%TO.P,U104,19*%
%TO.N,Net-(U103-Pad14)*%
X124250000Y-56700000D03*
%TO.P,U104,9*%
%TO.N,Net-(U104-Pad9)*%
X120750000Y-59300000D03*
%TO.P,U104,8*%
%TO.N,Net-(U104-Pad8)*%
X121250000Y-59300000D03*
%TO.P,U104,7*%
%TO.N,/SCK_D13*%
X121750000Y-59300000D03*
%TO.P,U104,6*%
%TO.N,/D9*%
X122250000Y-59300000D03*
%TO.P,U104,5*%
%TO.N,/D10*%
X122750000Y-59300000D03*
%TO.P,U104,4*%
%TO.N,Net-(JP102-Pad2)*%
X123250000Y-59300000D03*
%TO.P,U104,3*%
%TO.N,Net-(JP101-Pad2)*%
X123750000Y-59300000D03*
%TO.P,U104,2*%
%TO.N,Net-(U102-Pad32)*%
X124250000Y-59300000D03*
D12*
%TO.P,U104,11*%
%TO.N,GND*%
X120200000Y-57750000D03*
%TO.P,U104,10*%
X120200000Y-58250000D03*
%TO.P,U104,20*%
%TO.N,3V3*%
X124800000Y-57750000D03*
%TO.P,U104,1*%
%TO.N,5V*%
X124800000Y-58250000D03*
%TD*%
%TO.P,R201,2*%
%TO.N,DTR*%
%TA.AperFunction,SMDPad,CuDef*%
G36*
G01*
X105450000Y-57206250D02*
X105450000Y-56293750D01*
G75*
G02*
X105693750Y-56050000I243750J0D01*
G01*
X106181250Y-56050000D01*
G75*
G02*
X106425000Y-56293750I0J-243750D01*
G01*
X106425000Y-57206250D01*
G75*
G02*
X106181250Y-57450000I-243750J0D01*
G01*
X105693750Y-57450000D01*
G75*
G02*
X105450000Y-57206250I0J243750D01*
G01*
G37*
%TD.AperFunction*%
%TO.P,R201,1*%
%TO.N,5V*%
%TA.AperFunction,SMDPad,CuDef*%
G36*
G01*
X103575000Y-57206250D02*
X103575000Y-56293750D01*
G75*
G02*
X103818750Y-56050000I243750J0D01*
G01*
X104306250Y-56050000D01*
G75*
G02*
X104550000Y-56293750I0J-243750D01*
G01*
X104550000Y-57206250D01*
G75*
G02*
X104306250Y-57450000I-243750J0D01*
G01*
X103818750Y-57450000D01*
G75*
G02*
X103575000Y-57206250I0J243750D01*
G01*
G37*
%TD.AperFunction*%
%TD*%
%TO.P,C101,1*%
%TO.N,5V*%
%TA.AperFunction,SMDPad,CuDef*%
G36*
G01*
X132875000Y-62050000D02*
X133825000Y-62050000D01*
G75*
G02*
X134075000Y-62300000I0J-250000D01*
G01*
X134075000Y-62800000D01*
G75*
G02*
X133825000Y-63050000I-250000J0D01*
G01*
X132875000Y-63050000D01*
G75*
G02*
X132625000Y-62800000I0J250000D01*
G01*
X132625000Y-62300000D01*
G75*
G02*
X132875000Y-62050000I250000J0D01*
G01*
G37*
%TD.AperFunction*%
%TO.P,C101,2*%
%TO.N,GND*%
%TA.AperFunction,SMDPad,CuDef*%
G36*
G01*
X132875000Y-63950000D02*
X133825000Y-63950000D01*
G75*
G02*
X134075000Y-64200000I0J-250000D01*
G01*
X134075000Y-64700000D01*
G75*
G02*
X133825000Y-64950000I-250000J0D01*
G01*
X132875000Y-64950000D01*
G75*
G02*
X132625000Y-64700000I0J250000D01*
G01*
X132625000Y-64200000D01*
G75*
G02*
X132875000Y-63950000I250000J0D01*
G01*
G37*
%TD.AperFunction*%
%TD*%
%TO.P,C103,1*%
%TO.N,5V*%
%TA.AperFunction,SMDPad,CuDef*%
G36*
G01*
X128090000Y-60165000D02*
X128090000Y-59215000D01*
G75*
G02*
X128340000Y-58965000I250000J0D01*
G01*
X128840000Y-58965000D01*
G75*
G02*
X129090000Y-59215000I0J-250000D01*
G01*
X129090000Y-60165000D01*
G75*
G02*
X128840000Y-60415000I-250000J0D01*
G01*
X128340000Y-60415000D01*
G75*
G02*
X128090000Y-60165000I0J250000D01*
G01*
G37*
%TD.AperFunction*%
%TO.P,C103,2*%
%TO.N,GND*%
%TA.AperFunction,SMDPad,CuDef*%
G36*
G01*
X129990000Y-60165000D02*
X129990000Y-59215000D01*
G75*
G02*
X130240000Y-58965000I250000J0D01*
G01*
X130740000Y-58965000D01*
G75*
G02*
X130990000Y-59215000I0J-250000D01*
G01*
X130990000Y-60165000D01*
G75*
G02*
X130740000Y-60415000I-250000J0D01*
G01*
X130240000Y-60415000D01*
G75*
G02*
X129990000Y-60165000I0J250000D01*
G01*
G37*
%TD.AperFunction*%
%TD*%
%TO.P,C104,1*%
%TO.N,3V3*%
%TA.AperFunction,SMDPad,CuDef*%
G36*
G01*
X128090000Y-62705000D02*
X128090000Y-61755000D01*
G75*
G02*
X128340000Y-61505000I250000J0D01*
G01*
X128840000Y-61505000D01*
G75*
G02*
X129090000Y-61755000I0J-250000D01*
G01*
X129090000Y-62705000D01*
G75*
G02*
X128840000Y-62955000I-250000J0D01*
G01*
X128340000Y-62955000D01*
G75*
G02*
X128090000Y-62705000I0J250000D01*
G01*
G37*
%TD.AperFunction*%
%TO.P,C104,2*%
%TO.N,GND*%
%TA.AperFunction,SMDPad,CuDef*%
G36*
G01*
X129990000Y-62705000D02*
X129990000Y-61755000D01*
G75*
G02*
X130240000Y-61505000I250000J0D01*
G01*
X130740000Y-61505000D01*
G75*
G02*
X130990000Y-61755000I0J-250000D01*
G01*
X130990000Y-62705000D01*
G75*
G02*
X130740000Y-62955000I-250000J0D01*
G01*
X130240000Y-62955000D01*
G75*
G02*
X129990000Y-62705000I0J250000D01*
G01*
G37*
%TD.AperFunction*%
%TD*%
%TO.P,C105,2*%
%TO.N,GND*%
%TA.AperFunction,SMDPad,CuDef*%
G36*
G01*
X113480000Y-65245000D02*
X113480000Y-64295000D01*
G75*
G02*
X113730000Y-64045000I250000J0D01*
G01*
X114230000Y-64045000D01*
G75*
G02*
X114480000Y-64295000I0J-250000D01*
G01*
X114480000Y-65245000D01*
G75*
G02*
X114230000Y-65495000I-250000J0D01*
G01*
X113730000Y-65495000D01*
G75*
G02*
X113480000Y-65245000I0J250000D01*
G01*
G37*
%TD.AperFunction*%
%TO.P,C105,1*%
%TO.N,5V*%
%TA.AperFunction,SMDPad,CuDef*%
G36*
G01*
X111580000Y-65245000D02*
X111580000Y-64295000D01*
G75*
G02*
X111830000Y-64045000I250000J0D01*
G01*
X112330000Y-64045000D01*
G75*
G02*
X112580000Y-64295000I0J-250000D01*
G01*
X112580000Y-65245000D01*
G75*
G02*
X112330000Y-65495000I-250000J0D01*
G01*
X111830000Y-65495000D01*
G75*
G02*
X111580000Y-65245000I0J250000D01*
G01*
G37*
%TD.AperFunction*%
%TD*%
%TO.P,C109,1*%
%TO.N,3V3*%
%TA.AperFunction,SMDPad,CuDef*%
G36*
G01*
X128000000Y-64975000D02*
X128000000Y-64025000D01*
G75*
G02*
X128250000Y-63775000I250000J0D01*
G01*
X128750000Y-63775000D01*
G75*
G02*
X129000000Y-64025000I0J-250000D01*
G01*
X129000000Y-64975000D01*
G75*
G02*
X128750000Y-65225000I-250000J0D01*
G01*
X128250000Y-65225000D01*
G75*
G02*
X128000000Y-64975000I0J250000D01*
G01*
G37*
%TD.AperFunction*%
%TO.P,C109,2*%
%TO.N,GND*%
%TA.AperFunction,SMDPad,CuDef*%
G36*
G01*
X129900000Y-64975000D02*
X129900000Y-64025000D01*
G75*
G02*
X130150000Y-63775000I250000J0D01*
G01*
X130650000Y-63775000D01*
G75*
G02*
X130900000Y-64025000I0J-250000D01*
G01*
X130900000Y-64975000D01*
G75*
G02*
X130650000Y-65225000I-250000J0D01*
G01*
X130150000Y-65225000D01*
G75*
G02*
X129900000Y-64975000I0J250000D01*
G01*
G37*
%TD.AperFunction*%
%TD*%
%TO.P,C203,2*%
%TO.N,Net-(C203-Pad2)*%
%TA.AperFunction,SMDPad,CuDef*%
G36*
G01*
X109950000Y-57225000D02*
X109950000Y-56275000D01*
G75*
G02*
X110200000Y-56025000I250000J0D01*
G01*
X110700000Y-56025000D01*
G75*
G02*
X110950000Y-56275000I0J-250000D01*
G01*
X110950000Y-57225000D01*
G75*
G02*
X110700000Y-57475000I-250000J0D01*
G01*
X110200000Y-57475000D01*
G75*
G02*
X109950000Y-57225000I0J250000D01*
G01*
G37*
%TD.AperFunction*%
%TO.P,C203,1*%
%TO.N,DTR*%
%TA.AperFunction,SMDPad,CuDef*%
G36*
G01*
X108050000Y-57225000D02*
X108050000Y-56275000D01*
G75*
G02*
X108300000Y-56025000I250000J0D01*
G01*
X108800000Y-56025000D01*
G75*
G02*
X109050000Y-56275000I0J-250000D01*
G01*
X109050000Y-57225000D01*
G75*
G02*
X108800000Y-57475000I-250000J0D01*
G01*
X108300000Y-57475000D01*
G75*
G02*
X108050000Y-57225000I0J250000D01*
G01*
G37*
%TD.AperFunction*%
%TD*%
%TO.P,D201,1*%
%TO.N,5V*%
%TA.AperFunction,SMDPad,CuDef*%
G36*
G01*
X118825000Y-42706250D02*
X118825000Y-41793750D01*
G75*
G02*
X119068750Y-41550000I243750J0D01*
G01*
X119556250Y-41550000D01*
G75*
G02*
X119800000Y-41793750I0J-243750D01*
G01*
X119800000Y-42706250D01*
G75*
G02*
X119556250Y-42950000I-243750J0D01*
G01*
X119068750Y-42950000D01*
G75*
G02*
X118825000Y-42706250I0J243750D01*
G01*
G37*
%TD.AperFunction*%
%TO.P,D201,2*%
%TO.N,Net-(D201-Pad2)*%
%TA.AperFunction,SMDPad,CuDef*%
G36*
G01*
X120700000Y-42706250D02*
X120700000Y-41793750D01*
G75*
G02*
X120943750Y-41550000I243750J0D01*
G01*
X121431250Y-41550000D01*
G75*
G02*
X121675000Y-41793750I0J-243750D01*
G01*
X121675000Y-42706250D01*
G75*
G02*
X121431250Y-42950000I-243750J0D01*
G01*
X120943750Y-42950000D01*
G75*
G02*
X120700000Y-42706250I0J243750D01*
G01*
G37*
%TD.AperFunction*%
%TD*%
%TO.P,D202,2*%
%TO.N,Net-(D202-Pad2)*%
%TA.AperFunction,SMDPad,CuDef*%
G36*
G01*
X119956250Y-46550000D02*
X119043750Y-46550000D01*
G75*
G02*
X118800000Y-46306250I0J243750D01*
G01*
X118800000Y-45818750D01*
G75*
G02*
X119043750Y-45575000I243750J0D01*
G01*
X119956250Y-45575000D01*
G75*
G02*
X120200000Y-45818750I0J-243750D01*
G01*
X120200000Y-46306250D01*
G75*
G02*
X119956250Y-46550000I-243750J0D01*
G01*
G37*
%TD.AperFunction*%
%TO.P,D202,1*%
%TO.N,3V3*%
%TA.AperFunction,SMDPad,CuDef*%
G36*
G01*
X119956250Y-48425000D02*
X119043750Y-48425000D01*
G75*
G02*
X118800000Y-48181250I0J243750D01*
G01*
X118800000Y-47693750D01*
G75*
G02*
X119043750Y-47450000I243750J0D01*
G01*
X119956250Y-47450000D01*
G75*
G02*
X120200000Y-47693750I0J-243750D01*
G01*
X120200000Y-48181250D01*
G75*
G02*
X119956250Y-48425000I-243750J0D01*
G01*
G37*
%TD.AperFunction*%
%TD*%
D13*
%TO.P,J101,1*%
%TO.N,5V*%
X128250000Y-54000000D03*
%TO.P,J101,2*%
%TO.N,GND*%
%TA.AperFunction,ComponentPad*%
G36*
G01*
X135750000Y-53000000D02*
X135750000Y-55000000D01*
G75*
G02*
X135000000Y-55750000I-750000J0D01*
G01*
X133500000Y-55750000D01*
G75*
G02*
X132750000Y-55000000I0J750000D01*
G01*
X132750000Y-53000000D01*
G75*
G02*
X133500000Y-52250000I750000J0D01*
G01*
X135000000Y-52250000D01*
G75*
G02*
X135750000Y-53000000I0J-750000D01*
G01*
G37*
%TD.AperFunction*%
%TO.P,J101,3*%
%TO.N,N/C*%
%TA.AperFunction,ComponentPad*%
G36*
G01*
X133000000Y-48425000D02*
X133000000Y-50175000D01*
G75*
G02*
X132125000Y-51050000I-875000J0D01*
G01*
X130375000Y-51050000D01*
G75*
G02*
X129500000Y-50175000I0J875000D01*
G01*
X129500000Y-48425000D01*
G75*
G02*
X130375000Y-47550000I875000J0D01*
G01*
X132125000Y-47550000D01*
G75*
G02*
X133000000Y-48425000I0J-875000D01*
G01*
G37*
%TD.AperFunction*%
%TD*%
D14*
%TO.P,J102,1*%
%TO.N,/MISO_D12*%
X129540000Y-74930000D03*
D15*
%TO.P,J102,2*%
%TO.N,5V*%
X132080000Y-74930000D03*
%TO.P,J102,3*%
%TO.N,/SCK_D13*%
X129540000Y-72390000D03*
%TO.P,J102,4*%
%TO.N,/MOSI_D11*%
X132080000Y-72390000D03*
%TO.P,J102,5*%
%TO.N,DTR*%
X129540000Y-69850000D03*
%TO.P,J102,6*%
%TO.N,GND*%
X132080000Y-69850000D03*
%TD*%
D16*
%TO.P,J103,2*%
%TO.N,GND*%
X110790000Y-38540000D03*
X105710000Y-38540000D03*
X105710000Y-33460000D03*
X110790000Y-33460000D03*
%TO.P,J103,1*%
%TO.N,Net-(J103-Pad1)*%
X108250000Y-36000000D03*
%TD*%
D17*
%TO.P,J301,1*%
%TO.N,5V*%
X99000000Y-74660000D03*
D18*
%TO.P,J301,2*%
%TO.N,1-Wire*%
X99000000Y-69580000D03*
%TO.P,J301,3*%
%TO.N,GND*%
X99000000Y-64500000D03*
%TD*%
%TO.P,J302,3*%
%TO.N,GND*%
X138500000Y-71910000D03*
%TO.P,J302,2*%
%TO.N,1-Wire*%
X138500000Y-66830000D03*
D17*
%TO.P,J302,1*%
%TO.N,5V*%
X138500000Y-61750000D03*
%TD*%
%TO.P,J303,1*%
%TO.N,5V*%
X99000000Y-54250000D03*
D18*
%TO.P,J303,2*%
%TO.N,1-Wire*%
X99000000Y-49170000D03*
%TO.P,J303,3*%
%TO.N,GND*%
X99000000Y-44090000D03*
%TD*%
%TO.P,J304,3*%
%TO.N,GND*%
X126160000Y-36750000D03*
%TO.P,J304,2*%
%TO.N,1-Wire*%
X121080000Y-36750000D03*
D17*
%TO.P,J304,1*%
%TO.N,5V*%
X116000000Y-36750000D03*
%TD*%
%TO.P,R102,1*%
%TO.N,Net-(D101-Pad1)*%
%TA.AperFunction,SMDPad,CuDef*%
G36*
G01*
X117290001Y-76355000D02*
X116389999Y-76355000D01*
G75*
G02*
X116140000Y-76105001I0J249999D01*
G01*
X116140000Y-75579999D01*
G75*
G02*
X116389999Y-75330000I249999J0D01*
G01*
X117290001Y-75330000D01*
G75*
G02*
X117540000Y-75579999I0J-249999D01*
G01*
X117540000Y-76105001D01*
G75*
G02*
X117290001Y-76355000I-249999J0D01*
G01*
G37*
%TD.AperFunction*%
%TO.P,R102,2*%
%TO.N,GND*%
%TA.AperFunction,SMDPad,CuDef*%
G36*
G01*
X117290001Y-74530000D02*
X116389999Y-74530000D01*
G75*
G02*
X116140000Y-74280001I0J249999D01*
G01*
X116140000Y-73754999D01*
G75*
G02*
X116389999Y-73505000I249999J0D01*
G01*
X117290001Y-73505000D01*
G75*
G02*
X117540000Y-73754999I0J-249999D01*
G01*
X117540000Y-74280001D01*
G75*
G02*
X117290001Y-74530000I-249999J0D01*
G01*
G37*
%TD.AperFunction*%
%TD*%
%TO.P,R103,2*%
%TO.N,GND*%
%TA.AperFunction,SMDPad,CuDef*%
G36*
G01*
X119830001Y-74530000D02*
X118929999Y-74530000D01*
G75*
G02*
X118680000Y-74280001I0J249999D01*
G01*
X118680000Y-73754999D01*
G75*
G02*
X118929999Y-73505000I249999J0D01*
G01*
X119830001Y-73505000D01*
G75*
G02*
X120080000Y-73754999I0J-249999D01*
G01*
X120080000Y-74280001D01*
G75*
G02*
X119830001Y-74530000I-249999J0D01*
G01*
G37*
%TD.AperFunction*%
%TO.P,R103,1*%
%TO.N,Net-(D102-Pad1)*%
%TA.AperFunction,SMDPad,CuDef*%
G36*
G01*
X119830001Y-76355000D02*
X118929999Y-76355000D01*
G75*
G02*
X118680000Y-76105001I0J249999D01*
G01*
X118680000Y-75579999D01*
G75*
G02*
X118929999Y-75330000I249999J0D01*
G01*
X119830001Y-75330000D01*
G75*
G02*
X120080000Y-75579999I0J-249999D01*
G01*
X120080000Y-76105001D01*
G75*
G02*
X119830001Y-76355000I-249999J0D01*
G01*
G37*
%TD.AperFunction*%
%TD*%
%TO.P,R104,1*%
%TO.N,Net-(D103-Pad1)*%
%TA.AperFunction,SMDPad,CuDef*%
G36*
G01*
X122370001Y-76355000D02*
X121469999Y-76355000D01*
G75*
G02*
X121220000Y-76105001I0J249999D01*
G01*
X121220000Y-75579999D01*
G75*
G02*
X121469999Y-75330000I249999J0D01*
G01*
X122370001Y-75330000D01*
G75*
G02*
X122620000Y-75579999I0J-249999D01*
G01*
X122620000Y-76105001D01*
G75*
G02*
X122370001Y-76355000I-249999J0D01*
G01*
G37*
%TD.AperFunction*%
%TO.P,R104,2*%
%TO.N,GND*%
%TA.AperFunction,SMDPad,CuDef*%
G36*
G01*
X122370001Y-74530000D02*
X121469999Y-74530000D01*
G75*
G02*
X121220000Y-74280001I0J249999D01*
G01*
X121220000Y-73754999D01*
G75*
G02*
X121469999Y-73505000I249999J0D01*
G01*
X122370001Y-73505000D01*
G75*
G02*
X122620000Y-73754999I0J-249999D01*
G01*
X122620000Y-74280001D01*
G75*
G02*
X122370001Y-74530000I-249999J0D01*
G01*
G37*
%TD.AperFunction*%
%TD*%
%TO.P,R105,2*%
%TO.N,GND*%
%TA.AperFunction,SMDPad,CuDef*%
G36*
G01*
X124910001Y-74530000D02*
X124009999Y-74530000D01*
G75*
G02*
X123760000Y-74280001I0J249999D01*
G01*
X123760000Y-73754999D01*
G75*
G02*
X124009999Y-73505000I249999J0D01*
G01*
X124910001Y-73505000D01*
G75*
G02*
X125160000Y-73754999I0J-249999D01*
G01*
X125160000Y-74280001D01*
G75*
G02*
X124910001Y-74530000I-249999J0D01*
G01*
G37*
%TD.AperFunction*%
%TO.P,R105,1*%
%TO.N,Net-(D104-Pad1)*%
%TA.AperFunction,SMDPad,CuDef*%
G36*
G01*
X124910001Y-76355000D02*
X124009999Y-76355000D01*
G75*
G02*
X123760000Y-76105001I0J249999D01*
G01*
X123760000Y-75579999D01*
G75*
G02*
X124009999Y-75330000I249999J0D01*
G01*
X124910001Y-75330000D01*
G75*
G02*
X125160000Y-75579999I0J-249999D01*
G01*
X125160000Y-76105001D01*
G75*
G02*
X124910001Y-76355000I-249999J0D01*
G01*
G37*
%TD.AperFunction*%
%TD*%
%TO.P,R204,1*%
%TO.N,Net-(D203-Pad2)*%
%TA.AperFunction,SMDPad,CuDef*%
G36*
G01*
X125675000Y-46299999D02*
X125675000Y-47200001D01*
G75*
G02*
X125425001Y-47450000I-249999J0D01*
G01*
X124899999Y-47450000D01*
G75*
G02*
X124650000Y-47200001I0J249999D01*
G01*
X124650000Y-46299999D01*
G75*
G02*
X124899999Y-46050000I249999J0D01*
G01*
X125425001Y-46050000D01*
G75*
G02*
X125675000Y-46299999I0J-249999D01*
G01*
G37*
%TD.AperFunction*%
%TO.P,R204,2*%
%TO.N,5V*%
%TA.AperFunction,SMDPad,CuDef*%
G36*
G01*
X123850000Y-46299999D02*
X123850000Y-47200001D01*
G75*
G02*
X123600001Y-47450000I-249999J0D01*
G01*
X123074999Y-47450000D01*
G75*
G02*
X122825000Y-47200001I0J249999D01*
G01*
X122825000Y-46299999D01*
G75*
G02*
X123074999Y-46050000I249999J0D01*
G01*
X123600001Y-46050000D01*
G75*
G02*
X123850000Y-46299999I0J-249999D01*
G01*
G37*
%TD.AperFunction*%
%TD*%
%TO.P,R205,2*%
%TO.N,5V*%
%TA.AperFunction,SMDPad,CuDef*%
G36*
G01*
X123850000Y-44299999D02*
X123850000Y-45200001D01*
G75*
G02*
X123600001Y-45450000I-249999J0D01*
G01*
X123074999Y-45450000D01*
G75*
G02*
X122825000Y-45200001I0J249999D01*
G01*
X122825000Y-44299999D01*
G75*
G02*
X123074999Y-44050000I249999J0D01*
G01*
X123600001Y-44050000D01*
G75*
G02*
X123850000Y-44299999I0J-249999D01*
G01*
G37*
%TD.AperFunction*%
%TO.P,R205,1*%
%TO.N,Net-(D204-Pad2)*%
%TA.AperFunction,SMDPad,CuDef*%
G36*
G01*
X125675000Y-44299999D02*
X125675000Y-45200001D01*
G75*
G02*
X125425001Y-45450000I-249999J0D01*
G01*
X124899999Y-45450000D01*
G75*
G02*
X124650000Y-45200001I0J249999D01*
G01*
X124650000Y-44299999D01*
G75*
G02*
X124899999Y-44050000I249999J0D01*
G01*
X125425001Y-44050000D01*
G75*
G02*
X125675000Y-44299999I0J-249999D01*
G01*
G37*
%TD.AperFunction*%
%TD*%
D19*
%TO.P,U201,1*%
%TO.N,Net-(R203-Pad2)*%
X109650000Y-54225000D03*
%TO.P,U201,2*%
%TO.N,Net-(C203-Pad2)*%
X109650000Y-53575000D03*
%TO.P,U201,3*%
%TO.N,Net-(U201-Pad3)*%
X109650000Y-52925000D03*
%TO.P,U201,4*%
%TO.N,5V*%
X109650000Y-52275000D03*
%TO.P,U201,5*%
%TO.N,TX*%
X109650000Y-51625000D03*
%TO.P,U201,6*%
%TO.N,Net-(U201-Pad6)*%
X109650000Y-50975000D03*
%TO.P,U201,7*%
%TO.N,GND*%
X109650000Y-50325000D03*
%TO.P,U201,8*%
%TO.N,N/C*%
X109650000Y-49675000D03*
%TO.P,U201,9*%
%TO.N,Net-(U201-Pad9)*%
X109650000Y-49025000D03*
%TO.P,U201,10*%
%TO.N,Net-(U201-Pad10)*%
X109650000Y-48375000D03*
%TO.P,U201,11*%
%TO.N,Net-(U201-Pad11)*%
X109650000Y-47725000D03*
%TO.P,U201,12*%
%TO.N,Net-(U201-Pad12)*%
X109650000Y-47075000D03*
%TO.P,U201,13*%
%TO.N,Net-(U201-Pad13)*%
X109650000Y-46425000D03*
%TO.P,U201,14*%
%TO.N,Net-(U201-Pad14)*%
X109650000Y-45775000D03*
%TO.P,U201,15*%
%TO.N,Net-(J201-Pad3)*%
X116850000Y-45775000D03*
%TO.P,U201,16*%
%TO.N,Net-(J201-Pad2)*%
X116850000Y-46425000D03*
%TO.P,U201,17*%
%TO.N,Net-(D202-Pad2)*%
X116850000Y-47075000D03*
%TO.P,U201,18*%
%TO.N,GND*%
X116850000Y-47725000D03*
%TO.P,U201,19*%
%TO.N,Net-(U201-Pad19)*%
X116850000Y-48375000D03*
%TO.P,U201,20*%
%TO.N,5V*%
X116850000Y-49025000D03*
%TO.P,U201,21*%
%TO.N,GND*%
X116850000Y-49675000D03*
%TO.P,U201,22*%
%TO.N,Net-(D204-Pad1)*%
X116850000Y-50325000D03*
%TO.P,U201,23*%
%TO.N,Net-(D203-Pad1)*%
X116850000Y-50975000D03*
%TO.P,U201,24*%
%TO.N,N/C*%
X116850000Y-51625000D03*
%TO.P,U201,25*%
%TO.N,GND*%
X116850000Y-52275000D03*
%TO.P,U201,26*%
%TO.N,Net-(U201-Pad26)*%
X116850000Y-52925000D03*
%TO.P,U201,27*%
%TO.N,Net-(U201-Pad27)*%
X116850000Y-53575000D03*
%TO.P,U201,28*%
%TO.N,Net-(U201-Pad28)*%
X116850000Y-54225000D03*
%TD*%
D20*
%TO.P,U301,2*%
%TO.N,1-Wire*%
X97730000Y-59000000D03*
%TO.P,U301,3*%
%TO.N,5V*%
X96460000Y-59000000D03*
D21*
%TO.P,U301,1*%
%TO.N,GND*%
X99000000Y-59000000D03*
%TD*%
%TO.P,R106,1*%
%TO.N,Net-(D105-Pad1)*%
%TA.AperFunction,SMDPad,CuDef*%
G36*
G01*
X131293750Y-43325000D02*
X132206250Y-43325000D01*
G75*
G02*
X132450000Y-43568750I0J-243750D01*
G01*
X132450000Y-44056250D01*
G75*
G02*
X132206250Y-44300000I-243750J0D01*
G01*
X131293750Y-44300000D01*
G75*
G02*
X131050000Y-44056250I0J243750D01*
G01*
X131050000Y-43568750D01*
G75*
G02*
X131293750Y-43325000I243750J0D01*
G01*
G37*
%TD.AperFunction*%
%TO.P,R106,2*%
%TO.N,GND*%
%TA.AperFunction,SMDPad,CuDef*%
G36*
G01*
X131293750Y-45200000D02*
X132206250Y-45200000D01*
G75*
G02*
X132450000Y-45443750I0J-243750D01*
G01*
X132450000Y-45931250D01*
G75*
G02*
X132206250Y-46175000I-243750J0D01*
G01*
X131293750Y-46175000D01*
G75*
G02*
X131050000Y-45931250I0J243750D01*
G01*
X131050000Y-45443750D01*
G75*
G02*
X131293750Y-45200000I243750J0D01*
G01*
G37*
%TD.AperFunction*%
%TD*%
D22*
%TO.N,5V*%
X114000000Y-66500000D03*
X134750000Y-60250000D03*
X126538080Y-43491136D03*
X119250000Y-40750000D03*
X123012653Y-64487347D03*
X122500000Y-67500000D03*
%TO.N,GND*%
X102250000Y-50500000D03*
X114500000Y-52500000D03*
X130810000Y-66650000D03*
X115000000Y-64500000D03*
X115000000Y-67250000D03*
X112225009Y-50999685D03*
X127250000Y-40050000D03*
X123250000Y-40025000D03*
X100500000Y-61500000D03*
X104000000Y-63250000D03*
X120029998Y-56530000D03*
X114547519Y-62858909D03*
X107750000Y-58250000D03*
X127250000Y-50750000D03*
%TO.N,3V3*%
X123500000Y-48250000D03*
X118461862Y-49737041D03*
X127750000Y-61500000D03*
X124805026Y-54700000D03*
%TO.N,Net-(C203-Pad2)*%
X111500000Y-57000000D03*
X108250000Y-53500000D03*
%TO.N,DTR*%
X122789255Y-65599977D03*
X117800001Y-63461730D03*
%TO.N,Net-(D101-Pad1)*%
X116840000Y-75842500D03*
%TO.N,Net-(D102-Pad1)*%
X119380000Y-75842500D03*
%TO.N,Net-(D103-Pad1)*%
X121920000Y-75842500D03*
%TO.N,Net-(D103-Pad2)*%
X118000000Y-72590062D03*
X116602383Y-71091786D03*
%TO.N,Net-(D104-Pad1)*%
X124460000Y-75842500D03*
%TO.N,Net-(D104-Pad2)*%
X119967059Y-71774954D03*
X118472147Y-64614406D03*
%TO.N,Net-(D201-Pad2)*%
X125750000Y-41500000D03*
%TO.N,Net-(D203-Pad1)*%
X118325002Y-51805000D03*
X126250000Y-48250000D03*
X123000000Y-51750000D03*
%TO.N,Net-(D203-Pad2)*%
X125162500Y-46750000D03*
%TO.N,Net-(D204-Pad2)*%
X125162500Y-44750000D03*
%TO.N,Net-(D204-Pad1)*%
X118500000Y-53500000D03*
X126475000Y-49262653D03*
X122515066Y-53483165D03*
%TO.N,/MISO_D12*%
X113499998Y-60250365D03*
X119596068Y-63640005D03*
X127639989Y-73885055D03*
%TO.N,/SCK_D13*%
X125260136Y-69738101D03*
X126500000Y-62750000D03*
X121360018Y-60389998D03*
%TO.N,/MOSI_D11*%
X119567539Y-64683863D03*
X113909576Y-61469396D03*
%TO.N,Net-(J201-Pad2)*%
X131237340Y-40512660D03*
%TO.N,Net-(J201-Pad3)*%
X131000004Y-39250000D03*
%TO.N,1-Wire*%
X109000000Y-62500000D03*
X106500000Y-58000000D03*
%TO.N,Net-(JP101-Pad2)*%
X125645092Y-61000000D03*
X113026912Y-57398056D03*
X114532946Y-56217054D03*
%TO.N,Net-(JP102-Pad2)*%
X103750000Y-58750000D03*
X124775058Y-61914989D03*
X116000032Y-58000000D03*
%TO.N,Net-(R203-Pad2)*%
X112500000Y-54250000D03*
%TO.N,/D9*%
X120987342Y-69012658D03*
%TO.N,/D10*%
X122000003Y-69000000D03*
%TO.N,TX*%
X111487340Y-51737340D03*
%TO.N,Net-(D105-Pad1)*%
X129500000Y-44750000D03*
%TO.N,Net-(U102-Pad32)*%
X125000000Y-59250000D03*
X120250000Y-60250000D03*
X115749999Y-60425020D03*
%TO.N,Net-(U103-Pad2)*%
X125449985Y-56000000D03*
%TO.N,Net-(U103-Pad3)*%
X123250000Y-54250000D03*
%TO.N,Net-(U103-Pad5)*%
X122915889Y-50753532D03*
%TO.N,Net-(U103-Pad6)*%
X122630044Y-48750000D03*
%TO.N,Net-(U103-Pad14)*%
X124750000Y-56824989D03*
X115250000Y-54250000D03*
X105530000Y-52530000D03*
%TO.N,Net-(U103-Pad4)*%
X120530000Y-50530000D03*
%TD*%
D23*
%TO.N,5V*%
X112270000Y-64770000D02*
X112080000Y-64770000D01*
X114000000Y-66500000D02*
X112270000Y-64770000D01*
X134150000Y-61750000D02*
X133350000Y-62550000D01*
X138250000Y-61750000D02*
X134150000Y-61750000D01*
X128250000Y-59350000D02*
X128590000Y-59690000D01*
X128250000Y-54000000D02*
X128250000Y-59350000D01*
X131540010Y-60740010D02*
X133350000Y-62550000D01*
X129640010Y-60740010D02*
X131540010Y-60740010D01*
X128590000Y-59690000D02*
X129640010Y-60740010D01*
X133350000Y-61650000D02*
X133350000Y-62550000D01*
X134750000Y-60250000D02*
X133350000Y-61650000D01*
X123337500Y-46750000D02*
X123337500Y-44750000D01*
X126304226Y-43724990D02*
X126538080Y-43491136D01*
X124362510Y-43724990D02*
X126304226Y-43724990D01*
X123337500Y-44750000D02*
X124362510Y-43724990D01*
X119250000Y-42187500D02*
X119312500Y-42250000D01*
X119250000Y-40750000D02*
X119250000Y-42187500D01*
X117775001Y-49025000D02*
X116850000Y-49025000D01*
X118050001Y-48750000D02*
X117775001Y-49025000D01*
X118050001Y-47883149D02*
X118050001Y-48750000D01*
X118808160Y-47124990D02*
X118050001Y-47883149D01*
X120962510Y-47124990D02*
X118808160Y-47124990D01*
X123337500Y-44750000D02*
X120962510Y-47124990D01*
X119250000Y-40000000D02*
X116000000Y-36750000D01*
X119250000Y-40750000D02*
X119250000Y-40000000D01*
X129325010Y-65213180D02*
X128988180Y-65550010D01*
X124075316Y-65550010D02*
X123012653Y-64487347D01*
X129325010Y-63924990D02*
X129325010Y-65213180D01*
X128988180Y-65550010D02*
X124075316Y-65550010D01*
X129640010Y-63609990D02*
X129325010Y-63924990D01*
X129640010Y-60740010D02*
X129640010Y-63609990D01*
X121850001Y-66850001D02*
X122500000Y-67500000D01*
X122446968Y-64487347D02*
X121850001Y-65084314D01*
X123012653Y-64487347D02*
X122446968Y-64487347D01*
X121850001Y-65084314D02*
X121850001Y-66850001D01*
X111160002Y-52750000D02*
X110685002Y-52275000D01*
X115225000Y-49025000D02*
X111500000Y-52750000D01*
X110685002Y-52275000D02*
X109650000Y-52275000D01*
X116850000Y-49025000D02*
X115225000Y-49025000D01*
X111500000Y-52750000D02*
X111160002Y-52750000D01*
X101562500Y-54250000D02*
X104062500Y-56750000D01*
X99000000Y-54250000D02*
X101562500Y-54250000D01*
X127150000Y-58250000D02*
X128590000Y-59690000D01*
X124800000Y-58250000D02*
X127150000Y-58250000D01*
X101750000Y-51500000D02*
X99000000Y-54250000D01*
X107839998Y-51500000D02*
X101750000Y-51500000D01*
X108514999Y-52175001D02*
X107839998Y-51500000D01*
X109550001Y-52175001D02*
X108514999Y-52175001D01*
X109650000Y-52275000D02*
X109550001Y-52175001D01*
%TO.N,GND*%
X109650000Y-50325000D02*
X110925000Y-50325000D01*
X115814998Y-52275000D02*
X116850000Y-52275000D01*
X115649999Y-52110001D02*
X115814998Y-52275000D01*
X115649999Y-49839999D02*
X115649999Y-52110001D01*
X115814998Y-49675000D02*
X115649999Y-49839999D01*
X116850000Y-49675000D02*
X115814998Y-49675000D01*
X114889999Y-52110001D02*
X114500000Y-52500000D01*
X115649999Y-52110001D02*
X114889999Y-52110001D01*
X114250000Y-64500000D02*
X113980000Y-64770000D01*
X115000000Y-64500000D02*
X114250000Y-64500000D01*
X115000000Y-65790000D02*
X113980000Y-64770000D01*
X115000000Y-67250000D02*
X115000000Y-65790000D01*
X113525000Y-47725000D02*
X110925000Y-50325000D01*
X116850000Y-47725000D02*
X113525000Y-47725000D01*
X111550324Y-50325000D02*
X112225009Y-50999685D01*
X110925000Y-50325000D02*
X111550324Y-50325000D01*
X102250000Y-61500000D02*
X104000000Y-63250000D01*
X100500000Y-61500000D02*
X102250000Y-61500000D01*
X120200000Y-58250000D02*
X120200000Y-57750000D01*
X120200000Y-56700002D02*
X120029998Y-56530000D01*
X120200000Y-57750000D02*
X120200000Y-56700002D01*
X113980000Y-64770000D02*
X114547519Y-64202481D01*
X114547519Y-64202481D02*
X114547519Y-62858909D01*
%TO.N,3V3*%
X128590000Y-64410000D02*
X128500000Y-64500000D01*
X128590000Y-62230000D02*
X128590000Y-64410000D01*
X119500000Y-47937500D02*
X118461862Y-48975638D01*
X118461862Y-48975638D02*
X118461862Y-49737041D01*
X127860000Y-61500000D02*
X127750000Y-61500000D01*
X128590000Y-62230000D02*
X127860000Y-61500000D01*
X123500000Y-48250000D02*
X123187500Y-47937500D01*
X123187500Y-47937500D02*
X119500000Y-47937500D01*
X125370711Y-54700000D02*
X124805026Y-54700000D01*
X126174990Y-55504279D02*
X125370711Y-54700000D01*
X126174990Y-57575010D02*
X126174990Y-55504279D01*
X126000000Y-57750000D02*
X126174990Y-57575010D01*
X124800000Y-57750000D02*
X126000000Y-57750000D01*
%TO.N,Net-(C203-Pad2)*%
X111250000Y-56750000D02*
X111500000Y-57000000D01*
X110450000Y-56750000D02*
X111250000Y-56750000D01*
X109575000Y-53500000D02*
X109650000Y-53575000D01*
X108250000Y-53500000D02*
X109575000Y-53500000D01*
%TO.N,DTR*%
X127039278Y-69850000D02*
X122789255Y-65599977D01*
X129540000Y-69850000D02*
X127039278Y-69850000D01*
X105937500Y-56750000D02*
X108550000Y-56750000D01*
X108550000Y-56750000D02*
X108550000Y-57475000D01*
X114257578Y-62194398D02*
X114401933Y-62050043D01*
X116388314Y-62050043D02*
X117800001Y-63461730D01*
X108550000Y-57475000D02*
X113269398Y-62194398D01*
X113269398Y-62194398D02*
X114257578Y-62194398D01*
X114401933Y-62050043D02*
X116388314Y-62050043D01*
%TO.N,Net-(D103-Pad2)*%
X116602383Y-71091786D02*
X118000000Y-72489403D01*
X118000000Y-72489403D02*
X118000000Y-72590062D01*
%TO.N,Net-(D104-Pad2)*%
X119967059Y-71774954D02*
X118472147Y-70280042D01*
X118472147Y-70280042D02*
X118472147Y-64614406D01*
%TO.N,Net-(D201-Pad2)*%
X121937500Y-41500000D02*
X121187500Y-42250000D01*
X125750000Y-41500000D02*
X121937500Y-41500000D01*
%TO.N,Net-(D202-Pad2)*%
X118987500Y-46062500D02*
X119500000Y-46062500D01*
X117975000Y-47075000D02*
X118987500Y-46062500D01*
X116850000Y-47075000D02*
X117975000Y-47075000D01*
%TO.N,Net-(D203-Pad1)*%
X118325002Y-51325002D02*
X118325002Y-51805000D01*
X117975000Y-50975000D02*
X118325002Y-51325002D01*
X116850000Y-50975000D02*
X117975000Y-50975000D01*
X125750000Y-49000000D02*
X123000000Y-51750000D01*
X125750000Y-48750000D02*
X125750000Y-49000000D01*
X126250000Y-48250000D02*
X125750000Y-48750000D01*
%TO.N,Net-(D204-Pad1)*%
X119050003Y-51400003D02*
X119050003Y-52949997D01*
X117975000Y-50325000D02*
X119050003Y-51400003D01*
X119050003Y-52949997D02*
X118500000Y-53500000D01*
X116850000Y-50325000D02*
X117975000Y-50325000D01*
X123582520Y-53483165D02*
X122515066Y-53483165D01*
X126475000Y-50590685D02*
X123582520Y-53483165D01*
X126475000Y-49262653D02*
X126475000Y-50590685D01*
%TO.N,/MISO_D12*%
X129540000Y-74930000D02*
X128684934Y-74930000D01*
X128684934Y-74930000D02*
X127639989Y-73885055D01*
X114502342Y-60250365D02*
X115401998Y-61150021D01*
X115401998Y-61150021D02*
X117671769Y-61150021D01*
X117671769Y-61150021D02*
X119596068Y-63074320D01*
X119596068Y-63074320D02*
X119596068Y-63640005D01*
X113499998Y-60250365D02*
X114502342Y-60250365D01*
%TO.N,/SCK_D13*%
X121399992Y-67472994D02*
X121399992Y-64784323D01*
X122151999Y-68225001D02*
X121399992Y-67472994D01*
X125260136Y-69738101D02*
X123747036Y-68225001D01*
X123434315Y-62750000D02*
X126500000Y-62750000D01*
X123747036Y-68225001D02*
X122151999Y-68225001D01*
X121399992Y-64784323D02*
X123434315Y-62750000D01*
X121750000Y-60000016D02*
X121360018Y-60389998D01*
X121750000Y-59300000D02*
X121750000Y-60000016D01*
%TO.N,/MOSI_D11*%
X119567539Y-64683863D02*
X118871067Y-63987391D01*
X114040212Y-61600032D02*
X113909576Y-61469396D01*
X118871067Y-63987391D02*
X118871067Y-63507477D01*
X116963622Y-61600032D02*
X114040212Y-61600032D01*
X118871067Y-63507477D02*
X116963622Y-61600032D01*
%TO.N,Net-(J201-Pad2)*%
X118050001Y-46349999D02*
X118050001Y-45211409D01*
X122086410Y-43750000D02*
X123070275Y-42766135D01*
X123070275Y-42766135D02*
X128983865Y-42766135D01*
X116850000Y-46425000D02*
X117975000Y-46425000D01*
X118050001Y-45211409D02*
X119511410Y-43750000D01*
X119511410Y-43750000D02*
X122086410Y-43750000D01*
X128983865Y-42766135D02*
X131237340Y-40512660D01*
X117975000Y-46425000D02*
X118050001Y-46349999D01*
%TO.N,Net-(J201-Pad3)*%
X127933878Y-42316126D02*
X131000004Y-39250000D01*
X122883874Y-42316126D02*
X127933878Y-42316126D01*
X121924990Y-43275010D02*
X122883874Y-42316126D01*
X116850000Y-45775000D02*
X119349990Y-43275010D01*
X119349990Y-43275010D02*
X121924990Y-43275010D01*
%TO.N,1-Wire*%
X109000000Y-62500000D02*
X106500000Y-60000000D01*
X106500000Y-60000000D02*
X106500000Y-58000000D01*
X109000000Y-67703190D02*
X109000000Y-62500000D01*
X125148180Y-74855010D02*
X116151820Y-74855010D01*
X125485010Y-74518180D02*
X125148180Y-74855010D01*
X116151820Y-74855010D02*
X109000000Y-67703190D01*
X125485010Y-74514990D02*
X125485010Y-74518180D01*
X128974999Y-71025001D02*
X125485010Y-74514990D01*
X134054999Y-71025001D02*
X128974999Y-71025001D01*
X138250000Y-66830000D02*
X134054999Y-71025001D01*
%TO.N,Net-(JP101-Pad2)*%
X124750000Y-61000000D02*
X125645092Y-61000000D01*
X123750000Y-60000000D02*
X124750000Y-61000000D01*
X123750000Y-59300000D02*
X123750000Y-60000000D01*
X114207914Y-56217054D02*
X113026912Y-57398056D01*
X114532946Y-56217054D02*
X114207914Y-56217054D01*
%TO.N,Net-(JP102-Pad2)*%
X123250000Y-60389931D02*
X124775058Y-61914989D01*
X123250000Y-59300000D02*
X123250000Y-60389931D01*
X115600033Y-58399999D02*
X116000032Y-58000000D01*
X103750000Y-58750000D02*
X104875010Y-57624990D01*
X109624990Y-56286800D02*
X109624990Y-57463180D01*
X104875010Y-56308140D02*
X105483160Y-55699990D01*
X110561809Y-58399999D02*
X115600033Y-58399999D01*
X104875010Y-57624990D02*
X104875010Y-56308140D01*
X109624990Y-57463180D02*
X110561809Y-58399999D01*
X105483160Y-55699990D02*
X109038180Y-55699990D01*
X109038180Y-55699990D02*
X109624990Y-56286800D01*
%TO.N,Net-(R203-Pad2)*%
X109675000Y-54250000D02*
X109650000Y-54225000D01*
X112500000Y-54250000D02*
X109675000Y-54250000D01*
%TO.N,/D9*%
X122250000Y-61863589D02*
X122250000Y-60250000D01*
X120299989Y-63813600D02*
X122250000Y-61863589D01*
X120299989Y-68325305D02*
X120299989Y-63813600D01*
X120987342Y-69012658D02*
X120299989Y-68325305D01*
X122250000Y-60250000D02*
X122250000Y-59300000D01*
%TO.N,/D10*%
X122000003Y-69000000D02*
X120750000Y-67749997D01*
X120750000Y-67749997D02*
X120750000Y-64000000D01*
X120750000Y-64000000D02*
X122750000Y-62000000D01*
X122750000Y-62000000D02*
X122750000Y-59300000D01*
%TO.N,TX*%
X109650000Y-51625000D02*
X111375000Y-51625000D01*
X111375000Y-51625000D02*
X111487340Y-51737340D01*
%TO.N,Net-(D105-Pad1)*%
X130437500Y-43812500D02*
X131750000Y-43812500D01*
X129500000Y-44750000D02*
X130437500Y-43812500D01*
%TO.N,Net-(U102-Pad32)*%
X124250000Y-59300000D02*
X124250000Y-59250000D01*
X124250000Y-59250000D02*
X125000000Y-59250000D01*
X115925019Y-60250000D02*
X115749999Y-60425020D01*
X120250000Y-60250000D02*
X115925019Y-60250000D01*
%TO.N,Net-(U103-Pad2)*%
X124149999Y-55600001D02*
X125049986Y-55600001D01*
X123750000Y-56000000D02*
X124149999Y-55600001D01*
X123750000Y-56700000D02*
X123750000Y-56000000D01*
X125049986Y-55600001D02*
X125449985Y-56000000D01*
%TO.N,Net-(U103-Pad3)*%
X123250000Y-56700000D02*
X123250000Y-54250000D01*
%TO.N,Net-(U103-Pad5)*%
X122750000Y-55692992D02*
X121752407Y-54695399D01*
X122750000Y-56700000D02*
X122750000Y-55692992D01*
X121752407Y-51917014D02*
X122915889Y-50753532D01*
X121752407Y-54695399D02*
X121752407Y-51917014D01*
%TO.N,Net-(U103-Pad6)*%
X121250000Y-50130044D02*
X122630044Y-48750000D01*
X122250000Y-56700000D02*
X122200009Y-56650009D01*
X122200009Y-56650009D02*
X122200009Y-56513599D01*
X121250000Y-50883002D02*
X121255001Y-50878001D01*
X122200009Y-56513599D02*
X122195001Y-56508591D01*
X122195001Y-56508591D02*
X122195001Y-55989999D01*
X121816401Y-55474989D02*
X121250000Y-55474989D01*
X121255001Y-50878001D02*
X121255001Y-50181999D01*
X122195001Y-55989999D02*
X122145011Y-55940009D01*
X122145011Y-55940009D02*
X122145010Y-55803598D01*
X122145010Y-55803598D02*
X121816401Y-55474989D01*
X121250000Y-55474989D02*
X121250000Y-50883002D01*
X121255001Y-50181999D02*
X121250000Y-50176998D01*
X121250000Y-50176998D02*
X121250000Y-50130044D01*
%TO.N,Net-(U103-Pad14)*%
X124625011Y-56700000D02*
X124750000Y-56824989D01*
X124250000Y-56700000D02*
X124625011Y-56700000D01*
X114524999Y-54975001D02*
X107975001Y-54975001D01*
X115250000Y-54250000D02*
X114524999Y-54975001D01*
X107975001Y-54975001D02*
X105530000Y-52530000D01*
%TO.N,Net-(U103-Pad4)*%
X120500000Y-50560000D02*
X120530000Y-50530000D01*
X120500000Y-55450000D02*
X120500000Y-50560000D01*
X120974999Y-55924999D02*
X120500000Y-55450000D01*
X121695001Y-56645001D02*
X121695001Y-55989999D01*
X121630001Y-55924999D02*
X120974999Y-55924999D01*
X121695001Y-55989999D02*
X121630001Y-55924999D01*
X121750000Y-56700000D02*
X121695001Y-56645001D01*
%TD*%
D24*
%TO.N,GND*%
X104208286Y-32525921D02*
X104054911Y-32836840D01*
X103965140Y-33171705D01*
X103942424Y-33517650D01*
X103987634Y-33861380D01*
X104099034Y-34189685D01*
X104208286Y-34394079D01*
X104485469Y-34504926D01*
X105530395Y-33460000D01*
X105516253Y-33445858D01*
X105695858Y-33266253D01*
X105710000Y-33280395D01*
X105724143Y-33266253D01*
X105903748Y-33445858D01*
X105889605Y-33460000D01*
X106934531Y-34504926D01*
X107211714Y-34394079D01*
X107365089Y-34083160D01*
X107454860Y-33748295D01*
X107477576Y-33402350D01*
X107432366Y-33058620D01*
X107320966Y-32730315D01*
X107211714Y-32525921D01*
X106984358Y-32435000D01*
X109515642Y-32435000D01*
X109288286Y-32525921D01*
X109134911Y-32836840D01*
X109045140Y-33171705D01*
X109022424Y-33517650D01*
X109067634Y-33861380D01*
X109179034Y-34189685D01*
X109288286Y-34394079D01*
X109565469Y-34504926D01*
X110610395Y-33460000D01*
X110596253Y-33445858D01*
X110775858Y-33266253D01*
X110790000Y-33280395D01*
X110804143Y-33266253D01*
X110983748Y-33445858D01*
X110969605Y-33460000D01*
X112014531Y-34504926D01*
X112291714Y-34394079D01*
X112445089Y-34083160D01*
X112534860Y-33748295D01*
X112557576Y-33402350D01*
X112512366Y-33058620D01*
X112400966Y-32730315D01*
X112291714Y-32525921D01*
X112064358Y-32435000D01*
X142315000Y-32435000D01*
X142315001Y-76815000D01*
X125437999Y-76815000D01*
X125537962Y-76732962D01*
X125648405Y-76598387D01*
X125730472Y-76444851D01*
X125781008Y-76278255D01*
X125798072Y-76105001D01*
X125798072Y-75579999D01*
X125781008Y-75406745D01*
X125755462Y-75322529D01*
X125996007Y-75081984D01*
X126025011Y-75058181D01*
X126063411Y-75011390D01*
X126715961Y-74358840D01*
X126722784Y-74375311D01*
X126836052Y-74544829D01*
X126980215Y-74688992D01*
X127149733Y-74802260D01*
X127338091Y-74880281D01*
X127538050Y-74920055D01*
X127600187Y-74920055D01*
X128051928Y-75371797D01*
X128051928Y-75780000D01*
X128064188Y-75904482D01*
X128100498Y-76024180D01*
X128159463Y-76134494D01*
X128238815Y-76231185D01*
X128335506Y-76310537D01*
X128445820Y-76369502D01*
X128565518Y-76405812D01*
X128690000Y-76418072D01*
X130390000Y-76418072D01*
X130514482Y-76405812D01*
X130634180Y-76369502D01*
X130744494Y-76310537D01*
X130841185Y-76231185D01*
X130920537Y-76134494D01*
X130979502Y-76024180D01*
X131001513Y-75951620D01*
X131133368Y-76083475D01*
X131376589Y-76245990D01*
X131646842Y-76357932D01*
X131933740Y-76415000D01*
X132226260Y-76415000D01*
X132513158Y-76357932D01*
X132783411Y-76245990D01*
X133026632Y-76083475D01*
X133233475Y-75876632D01*
X133395990Y-75633411D01*
X133507932Y-75363158D01*
X133565000Y-75076260D01*
X133565000Y-74783740D01*
X133507932Y-74496842D01*
X133395990Y-74226589D01*
X133233475Y-73983368D01*
X133026632Y-73776525D01*
X132852240Y-73660000D01*
X133026632Y-73543475D01*
X133168454Y-73401653D01*
X137187952Y-73401653D01*
X137343962Y-73717214D01*
X137718745Y-73908020D01*
X138123551Y-74022044D01*
X138542824Y-74054902D01*
X138960451Y-74005334D01*
X139360383Y-73875243D01*
X139656038Y-73717214D01*
X139812048Y-73401653D01*
X138500000Y-72089605D01*
X137187952Y-73401653D01*
X133168454Y-73401653D01*
X133233475Y-73336632D01*
X133395990Y-73093411D01*
X133507932Y-72823158D01*
X133565000Y-72536260D01*
X133565000Y-72243740D01*
X133507932Y-71956842D01*
X133506268Y-71952824D01*
X136355098Y-71952824D01*
X136404666Y-72370451D01*
X136534757Y-72770383D01*
X136692786Y-73066038D01*
X137008347Y-73222048D01*
X138320395Y-71910000D01*
X138679605Y-71910000D01*
X139991653Y-73222048D01*
X140307214Y-73066038D01*
X140498020Y-72691255D01*
X140612044Y-72286449D01*
X140644902Y-71867176D01*
X140595334Y-71449549D01*
X140465243Y-71049617D01*
X140307214Y-70753962D01*
X139991653Y-70597952D01*
X138679605Y-71910000D01*
X138320395Y-71910000D01*
X137008347Y-70597952D01*
X136692786Y-70753962D01*
X136501980Y-71128745D01*
X136387956Y-71533551D01*
X136355098Y-71952824D01*
X133506268Y-71952824D01*
X133436753Y-71785001D01*
X134017677Y-71785001D01*
X134054999Y-71788677D01*
X134092321Y-71785001D01*
X134092332Y-71785001D01*
X134203985Y-71774004D01*
X134347246Y-71730547D01*
X134479275Y-71659975D01*
X134595000Y-71565002D01*
X134618803Y-71535998D01*
X135736454Y-70418347D01*
X137187952Y-70418347D01*
X138500000Y-71730395D01*
X139812048Y-70418347D01*
X139656038Y-70102786D01*
X139281255Y-69911980D01*
X138876449Y-69797956D01*
X138457176Y-69765098D01*
X138039549Y-69814666D01*
X137639617Y-69944757D01*
X137343962Y-70102786D01*
X137187952Y-70418347D01*
X135736454Y-70418347D01*
X137455183Y-68699618D01*
X137488698Y-68722012D01*
X137877244Y-68882953D01*
X138289721Y-68965000D01*
X138710279Y-68965000D01*
X139122756Y-68882953D01*
X139511302Y-68722012D01*
X139860983Y-68488363D01*
X140158363Y-68190983D01*
X140392012Y-67841302D01*
X140552953Y-67452756D01*
X140635000Y-67040279D01*
X140635000Y-66619721D01*
X140552953Y-66207244D01*
X140392012Y-65818698D01*
X140158363Y-65469017D01*
X139860983Y-65171637D01*
X139511302Y-64937988D01*
X139122756Y-64777047D01*
X138710279Y-64695000D01*
X138289721Y-64695000D01*
X137877244Y-64777047D01*
X137488698Y-64937988D01*
X137139017Y-65171637D01*
X136841637Y-65469017D01*
X136607988Y-65818698D01*
X136447047Y-66207244D01*
X136365000Y-66619721D01*
X136365000Y-67040279D01*
X136447047Y-67452756D01*
X136477917Y-67527282D01*
X133740198Y-70265001D01*
X133503850Y-70265001D01*
X133521476Y-70206890D01*
X133400155Y-69977000D01*
X132207000Y-69977000D01*
X132207000Y-69997000D01*
X131953000Y-69997000D01*
X131953000Y-69977000D01*
X131933000Y-69977000D01*
X131933000Y-69723000D01*
X131953000Y-69723000D01*
X131953000Y-68529186D01*
X132207000Y-68529186D01*
X132207000Y-69723000D01*
X133400155Y-69723000D01*
X133521476Y-69493110D01*
X133476825Y-69345901D01*
X133351641Y-69083080D01*
X133177588Y-68849731D01*
X132961355Y-68654822D01*
X132711252Y-68505843D01*
X132436891Y-68408519D01*
X132207000Y-68529186D01*
X131953000Y-68529186D01*
X131723109Y-68408519D01*
X131448748Y-68505843D01*
X131198645Y-68654822D01*
X130982412Y-68849731D01*
X130811100Y-69079406D01*
X130693475Y-68903368D01*
X130486632Y-68696525D01*
X130243411Y-68534010D01*
X129973158Y-68422068D01*
X129686260Y-68365000D01*
X129393740Y-68365000D01*
X129106842Y-68422068D01*
X128836589Y-68534010D01*
X128593368Y-68696525D01*
X128386525Y-68903368D01*
X128261822Y-69090000D01*
X127354080Y-69090000D01*
X124574089Y-66310010D01*
X128950858Y-66310010D01*
X128988180Y-66313686D01*
X129025502Y-66310010D01*
X129025513Y-66310010D01*
X129137166Y-66299013D01*
X129280427Y-66255556D01*
X129412456Y-66184984D01*
X129528181Y-66090011D01*
X129551984Y-66061007D01*
X129765284Y-65847707D01*
X129775518Y-65850812D01*
X129900000Y-65863072D01*
X130114250Y-65860000D01*
X130273000Y-65701250D01*
X130273000Y-64627000D01*
X130527000Y-64627000D01*
X130527000Y-65701250D01*
X130685750Y-65860000D01*
X130900000Y-65863072D01*
X131024482Y-65850812D01*
X131144180Y-65814502D01*
X131254494Y-65755537D01*
X131351185Y-65676185D01*
X131430537Y-65579494D01*
X131489502Y-65469180D01*
X131525812Y-65349482D01*
X131538072Y-65225000D01*
X131536149Y-64950000D01*
X131986928Y-64950000D01*
X131999188Y-65074482D01*
X132035498Y-65194180D01*
X132094463Y-65304494D01*
X132173815Y-65401185D01*
X132270506Y-65480537D01*
X132380820Y-65539502D01*
X132500518Y-65575812D01*
X132625000Y-65588072D01*
X133064250Y-65585000D01*
X133223000Y-65426250D01*
X133223000Y-64577000D01*
X133477000Y-64577000D01*
X133477000Y-65426250D01*
X133635750Y-65585000D01*
X134075000Y-65588072D01*
X134199482Y-65575812D01*
X134319180Y-65539502D01*
X134429494Y-65480537D01*
X134526185Y-65401185D01*
X134605537Y-65304494D01*
X134664502Y-65194180D01*
X134700812Y-65074482D01*
X134713072Y-64950000D01*
X134710000Y-64735750D01*
X134551250Y-64577000D01*
X133477000Y-64577000D01*
X133223000Y-64577000D01*
X132148750Y-64577000D01*
X131990000Y-64735750D01*
X131986928Y-64950000D01*
X131536149Y-64950000D01*
X131535000Y-64785750D01*
X131376250Y-64627000D01*
X130527000Y-64627000D01*
X130273000Y-64627000D01*
X130253000Y-64627000D01*
X130253000Y-64373000D01*
X130273000Y-64373000D01*
X130273000Y-64353000D01*
X130527000Y-64353000D01*
X130527000Y-64373000D01*
X131376250Y-64373000D01*
X131535000Y-64214250D01*
X131538072Y-63775000D01*
X131525812Y-63650518D01*
X131489502Y-63530820D01*
X131430537Y-63420506D01*
X131427799Y-63417170D01*
X131441185Y-63406185D01*
X131520537Y-63309494D01*
X131579502Y-63199180D01*
X131615812Y-63079482D01*
X131628072Y-62955000D01*
X131625000Y-62515750D01*
X131466250Y-62357000D01*
X130617000Y-62357000D01*
X130617000Y-63208750D01*
X130527002Y-63298748D01*
X130527002Y-63140000D01*
X130400010Y-63140000D01*
X130400010Y-62083000D01*
X130617000Y-62083000D01*
X130617000Y-62103000D01*
X131466250Y-62103000D01*
X131625000Y-61944250D01*
X131625309Y-61900110D01*
X131990359Y-62265161D01*
X131986928Y-62300000D01*
X131986928Y-62800000D01*
X132003992Y-62973254D01*
X132054528Y-63139850D01*
X132136595Y-63293386D01*
X132247038Y-63427962D01*
X132253594Y-63433342D01*
X132173815Y-63498815D01*
X132094463Y-63595506D01*
X132035498Y-63705820D01*
X131999188Y-63825518D01*
X131986928Y-63950000D01*
X131990000Y-64164250D01*
X132148750Y-64323000D01*
X133223000Y-64323000D01*
X133223000Y-64303000D01*
X133477000Y-64303000D01*
X133477000Y-64323000D01*
X134551250Y-64323000D01*
X134710000Y-64164250D01*
X134713072Y-63950000D01*
X134700812Y-63825518D01*
X134664502Y-63705820D01*
X134605537Y-63595506D01*
X134526185Y-63498815D01*
X134446406Y-63433342D01*
X134452962Y-63427962D01*
X134563405Y-63293386D01*
X134645472Y-63139850D01*
X134696008Y-62973254D01*
X134713072Y-62800000D01*
X134713072Y-62510000D01*
X136361928Y-62510000D01*
X136361928Y-63250000D01*
X136374188Y-63374482D01*
X136410498Y-63494180D01*
X136469463Y-63604494D01*
X136548815Y-63701185D01*
X136645506Y-63780537D01*
X136755820Y-63839502D01*
X136875518Y-63875812D01*
X137000000Y-63888072D01*
X140000000Y-63888072D01*
X140124482Y-63875812D01*
X140244180Y-63839502D01*
X140354494Y-63780537D01*
X140451185Y-63701185D01*
X140530537Y-63604494D01*
X140589502Y-63494180D01*
X140625812Y-63374482D01*
X140638072Y-63250000D01*
X140638072Y-60250000D01*
X140625812Y-60125518D01*
X140589502Y-60005820D01*
X140530537Y-59895506D01*
X140451185Y-59798815D01*
X140354494Y-59719463D01*
X140244180Y-59660498D01*
X140124482Y-59624188D01*
X140000000Y-59611928D01*
X137000000Y-59611928D01*
X136875518Y-59624188D01*
X136755820Y-59660498D01*
X136645506Y-59719463D01*
X136548815Y-59798815D01*
X136469463Y-59895506D01*
X136410498Y-60005820D01*
X136374188Y-60125518D01*
X136361928Y-60250000D01*
X136361928Y-60990000D01*
X135473711Y-60990000D01*
X135553937Y-60909774D01*
X135667205Y-60740256D01*
X135745226Y-60551898D01*
X135785000Y-60351939D01*
X135785000Y-60148061D01*
X135745226Y-59948102D01*
X135667205Y-59759744D01*
X135553937Y-59590226D01*
X135409774Y-59446063D01*
X135240256Y-59332795D01*
X135051898Y-59254774D01*
X134851939Y-59215000D01*
X134648061Y-59215000D01*
X134448102Y-59254774D01*
X134259744Y-59332795D01*
X134090226Y-59446063D01*
X133946063Y-59590226D01*
X133832795Y-59759744D01*
X133754774Y-59948102D01*
X133715000Y-60148061D01*
X133715000Y-60210198D01*
X132900000Y-61025199D01*
X132103813Y-60229012D01*
X132080011Y-60200009D01*
X131964286Y-60105036D01*
X131832257Y-60034464D01*
X131688996Y-59991007D01*
X131625063Y-59984710D01*
X131625000Y-59975750D01*
X131466250Y-59817000D01*
X130617000Y-59817000D01*
X130617000Y-59837000D01*
X130363000Y-59837000D01*
X130363000Y-59817000D01*
X130343000Y-59817000D01*
X130343000Y-59563000D01*
X130363000Y-59563000D01*
X130363000Y-58488750D01*
X130617000Y-58488750D01*
X130617000Y-59563000D01*
X131466250Y-59563000D01*
X131625000Y-59404250D01*
X131628072Y-58965000D01*
X131615812Y-58840518D01*
X131579502Y-58720820D01*
X131520537Y-58610506D01*
X131441185Y-58513815D01*
X131344494Y-58434463D01*
X131234180Y-58375498D01*
X131114482Y-58339188D01*
X130990000Y-58326928D01*
X130775750Y-58330000D01*
X130617000Y-58488750D01*
X130363000Y-58488750D01*
X130204250Y-58330000D01*
X129990000Y-58326928D01*
X129865518Y-58339188D01*
X129745820Y-58375498D01*
X129635506Y-58434463D01*
X129538815Y-58513815D01*
X129473342Y-58593594D01*
X129467962Y-58587038D01*
X129333386Y-58476595D01*
X129179850Y-58394528D01*
X129013254Y-58343992D01*
X129010000Y-58343672D01*
X129010000Y-56388072D01*
X130000000Y-56388072D01*
X130124482Y-56375812D01*
X130244180Y-56339502D01*
X130354494Y-56280537D01*
X130451185Y-56201185D01*
X130530537Y-56104494D01*
X130589502Y-55994180D01*
X130625812Y-55874482D01*
X130638072Y-55750000D01*
X132111928Y-55750000D01*
X132124188Y-55874482D01*
X132160498Y-55994180D01*
X132219463Y-56104494D01*
X132298815Y-56201185D01*
X132395506Y-56280537D01*
X132505820Y-56339502D01*
X132625518Y-56375812D01*
X132750000Y-56388072D01*
X133964250Y-56385000D01*
X134123000Y-56226250D01*
X134123000Y-54127000D01*
X134377000Y-54127000D01*
X134377000Y-56226250D01*
X134535750Y-56385000D01*
X135750000Y-56388072D01*
X135874482Y-56375812D01*
X135994180Y-56339502D01*
X136104494Y-56280537D01*
X136201185Y-56201185D01*
X136280537Y-56104494D01*
X136339502Y-55994180D01*
X136375812Y-55874482D01*
X136388072Y-55750000D01*
X136385000Y-54285750D01*
X136226250Y-54127000D01*
X134377000Y-54127000D01*
X134123000Y-54127000D01*
X132273750Y-54127000D01*
X132115000Y-54285750D01*
X132111928Y-55750000D01*
X130638072Y-55750000D01*
X130638072Y-52250000D01*
X132111928Y-52250000D01*
X132115000Y-53714250D01*
X132273750Y-53873000D01*
X134123000Y-53873000D01*
X134123000Y-51773750D01*
X134377000Y-51773750D01*
X134377000Y-53873000D01*
X136226250Y-53873000D01*
X136385000Y-53714250D01*
X136388072Y-52250000D01*
X136375812Y-52125518D01*
X136339502Y-52005820D01*
X136280537Y-51895506D01*
X136201185Y-51798815D01*
X136104494Y-51719463D01*
X135994180Y-51660498D01*
X135874482Y-51624188D01*
X135750000Y-51611928D01*
X134535750Y-51615000D01*
X134377000Y-51773750D01*
X134123000Y-51773750D01*
X133964250Y-51615000D01*
X132750000Y-51611928D01*
X132625518Y-51624188D01*
X132505820Y-51660498D01*
X132395506Y-51719463D01*
X132298815Y-51798815D01*
X132219463Y-51895506D01*
X132160498Y-52005820D01*
X132124188Y-52125518D01*
X132111928Y-52250000D01*
X130638072Y-52250000D01*
X130625812Y-52125518D01*
X130589502Y-52005820D01*
X130530537Y-51895506D01*
X130451185Y-51798815D01*
X130354494Y-51719463D01*
X130277869Y-51678506D01*
X130375000Y-51688072D01*
X132125000Y-51688072D01*
X132420186Y-51658999D01*
X132704028Y-51572896D01*
X132965618Y-51433073D01*
X133194903Y-51244903D01*
X133383073Y-51015618D01*
X133522896Y-50754028D01*
X133608999Y-50470186D01*
X133638072Y-50175000D01*
X133638072Y-48425000D01*
X133608999Y-48129814D01*
X133522896Y-47845972D01*
X133383073Y-47584382D01*
X133194903Y-47355097D01*
X132965618Y-47166927D01*
X132704028Y-47027104D01*
X132420186Y-46941001D01*
X132125000Y-46911928D01*
X130375000Y-46911928D01*
X130079814Y-46941001D01*
X129795972Y-47027104D01*
X129534382Y-47166927D01*
X129305097Y-47355097D01*
X129116927Y-47584382D01*
X128977104Y-47845972D01*
X128891001Y-48129814D01*
X128861928Y-48425000D01*
X128861928Y-50175000D01*
X128891001Y-50470186D01*
X128977104Y-50754028D01*
X129116927Y-51015618D01*
X129305097Y-51244903D01*
X129534382Y-51433073D01*
X129795972Y-51572896D01*
X129924643Y-51611928D01*
X126528560Y-51611928D01*
X126986008Y-51154480D01*
X127015001Y-51130686D01*
X127038795Y-51101693D01*
X127038799Y-51101689D01*
X127097184Y-51030546D01*
X127109974Y-51014961D01*
X127180546Y-50882932D01*
X127224003Y-50739671D01*
X127235000Y-50628018D01*
X127235000Y-50628009D01*
X127238676Y-50590686D01*
X127235000Y-50553363D01*
X127235000Y-49966364D01*
X127278937Y-49922427D01*
X127392205Y-49752909D01*
X127470226Y-49564551D01*
X127510000Y-49364592D01*
X127510000Y-49160714D01*
X127470226Y-48960755D01*
X127392205Y-48772397D01*
X127278937Y-48602879D01*
X127240168Y-48564110D01*
X127245226Y-48551898D01*
X127285000Y-48351939D01*
X127285000Y-48148061D01*
X127245226Y-47948102D01*
X127167205Y-47759744D01*
X127053937Y-47590226D01*
X126909774Y-47446063D01*
X126740256Y-47332795D01*
X126551898Y-47254774D01*
X126351939Y-47215000D01*
X126311595Y-47215000D01*
X126313072Y-47200001D01*
X126313072Y-46299999D01*
X126300761Y-46175000D01*
X130411928Y-46175000D01*
X130424188Y-46299482D01*
X130460498Y-46419180D01*
X130519463Y-46529494D01*
X130598815Y-46626185D01*
X130695506Y-46705537D01*
X130805820Y-46764502D01*
X130925518Y-46800812D01*
X131050000Y-46813072D01*
X131464250Y-46810000D01*
X131623000Y-46651250D01*
X131623000Y-45814500D01*
X131877000Y-45814500D01*
X131877000Y-46651250D01*
X132035750Y-46810000D01*
X132450000Y-46813072D01*
X132574482Y-46800812D01*
X132694180Y-46764502D01*
X132804494Y-46705537D01*
X132901185Y-46626185D01*
X132980537Y-46529494D01*
X133039502Y-46419180D01*
X133075812Y-46299482D01*
X133088072Y-46175000D01*
X133085000Y-45973250D01*
X132926250Y-45814500D01*
X131877000Y-45814500D01*
X131623000Y-45814500D01*
X130573750Y-45814500D01*
X130415000Y-45973250D01*
X130411928Y-46175000D01*
X126300761Y-46175000D01*
X126296008Y-46126745D01*
X126245472Y-45960149D01*
X126163405Y-45806613D01*
X126116944Y-45750000D01*
X126163405Y-45693387D01*
X126245472Y-45539851D01*
X126296008Y-45373255D01*
X126313072Y-45200001D01*
X126313072Y-44648061D01*
X128465000Y-44648061D01*
X128465000Y-44851939D01*
X128504774Y-45051898D01*
X128582795Y-45240256D01*
X128696063Y-45409774D01*
X128840226Y-45553937D01*
X129009744Y-45667205D01*
X129198102Y-45745226D01*
X129398061Y-45785000D01*
X129601939Y-45785000D01*
X129801898Y-45745226D01*
X129990256Y-45667205D01*
X130159774Y-45553937D01*
X130303937Y-45409774D01*
X130412645Y-45247081D01*
X130415000Y-45401750D01*
X130573750Y-45560500D01*
X131623000Y-45560500D01*
X131623000Y-45540500D01*
X131877000Y-45540500D01*
X131877000Y-45560500D01*
X132926250Y-45560500D01*
X133085000Y-45401750D01*
X133088072Y-45200000D01*
X133075812Y-45075518D01*
X133039502Y-44955820D01*
X132980537Y-44845506D01*
X132901185Y-44748815D01*
X132823436Y-44685008D01*
X132829792Y-44679792D01*
X132939458Y-44546164D01*
X133020947Y-44393709D01*
X133071128Y-44228285D01*
X133088072Y-44056250D01*
X133088072Y-43568750D01*
X133071128Y-43396715D01*
X133020947Y-43231291D01*
X132939458Y-43078836D01*
X132829792Y-42945208D01*
X132696164Y-42835542D01*
X132543709Y-42754053D01*
X132378285Y-42703872D01*
X132206250Y-42686928D01*
X131293750Y-42686928D01*
X131121715Y-42703872D01*
X130956291Y-42754053D01*
X130803836Y-42835542D01*
X130670208Y-42945208D01*
X130582155Y-43052500D01*
X130474822Y-43052500D01*
X130437499Y-43048824D01*
X130400176Y-43052500D01*
X130400167Y-43052500D01*
X130288514Y-43063497D01*
X130145253Y-43106954D01*
X130013224Y-43177526D01*
X129897499Y-43272499D01*
X129873701Y-43301497D01*
X129460198Y-43715000D01*
X129398061Y-43715000D01*
X129198102Y-43754774D01*
X129009744Y-43832795D01*
X128840226Y-43946063D01*
X128696063Y-44090226D01*
X128582795Y-44259744D01*
X128504774Y-44448102D01*
X128465000Y-44648061D01*
X126313072Y-44648061D01*
X126313072Y-44501656D01*
X126436141Y-44526136D01*
X126640019Y-44526136D01*
X126839978Y-44486362D01*
X127028336Y-44408341D01*
X127197854Y-44295073D01*
X127342017Y-44150910D01*
X127455285Y-43981392D01*
X127533306Y-43793034D01*
X127573080Y-43593075D01*
X127573080Y-43526135D01*
X128946543Y-43526135D01*
X128983865Y-43529811D01*
X129021187Y-43526135D01*
X129021198Y-43526135D01*
X129132851Y-43515138D01*
X129276112Y-43471681D01*
X129408141Y-43401109D01*
X129523866Y-43306136D01*
X129547669Y-43277132D01*
X130236589Y-42588212D01*
X135115000Y-42588212D01*
X135115000Y-42811788D01*
X135158617Y-43031067D01*
X135244176Y-43237624D01*
X135368388Y-43423520D01*
X135526480Y-43581612D01*
X135712376Y-43705824D01*
X135918933Y-43791383D01*
X136138212Y-43835000D01*
X136361788Y-43835000D01*
X136581067Y-43791383D01*
X136787624Y-43705824D01*
X136973520Y-43581612D01*
X137131612Y-43423520D01*
X137255824Y-43237624D01*
X137341383Y-43031067D01*
X137385000Y-42811788D01*
X137385000Y-42588212D01*
X137341383Y-42368933D01*
X137255824Y-42162376D01*
X137131612Y-41976480D01*
X136973520Y-41818388D01*
X136787624Y-41694176D01*
X136581067Y-41608617D01*
X136361788Y-41565000D01*
X136138212Y-41565000D01*
X135918933Y-41608617D01*
X135712376Y-41694176D01*
X135526480Y-41818388D01*
X135368388Y-41976480D01*
X135244176Y-42162376D01*
X135158617Y-42368933D01*
X135115000Y-42588212D01*
X130236589Y-42588212D01*
X131277142Y-41547660D01*
X131339279Y-41547660D01*
X131539238Y-41507886D01*
X131727596Y-41429865D01*
X131897114Y-41316597D01*
X132041277Y-41172434D01*
X132154545Y-41002916D01*
X132232566Y-40814558D01*
X132272340Y-40614599D01*
X132272340Y-40410721D01*
X132232566Y-40210762D01*
X132154545Y-40022404D01*
X132041277Y-39852886D01*
X131920559Y-39732168D01*
X131995230Y-39551898D01*
X132035004Y-39351939D01*
X132035004Y-39148061D01*
X131995230Y-38948102D01*
X131917209Y-38759744D01*
X131803941Y-38590226D01*
X131659778Y-38446063D01*
X131490260Y-38332795D01*
X131301902Y-38254774D01*
X131101943Y-38215000D01*
X130898065Y-38215000D01*
X130698106Y-38254774D01*
X130509748Y-38332795D01*
X130340230Y-38446063D01*
X130196067Y-38590226D01*
X130082799Y-38759744D01*
X130004778Y-38948102D01*
X129965004Y-39148061D01*
X129965004Y-39210198D01*
X127619077Y-41556126D01*
X126785000Y-41556126D01*
X126785000Y-41398061D01*
X126745226Y-41198102D01*
X126667205Y-41009744D01*
X126553937Y-40840226D01*
X126409774Y-40696063D01*
X126240256Y-40582795D01*
X126051898Y-40504774D01*
X125851939Y-40465000D01*
X125648061Y-40465000D01*
X125448102Y-40504774D01*
X125259744Y-40582795D01*
X125090226Y-40696063D01*
X125046289Y-40740000D01*
X121974822Y-40740000D01*
X121937499Y-40736324D01*
X121900176Y-40740000D01*
X121900167Y-40740000D01*
X121788514Y-40750997D01*
X121645253Y-40794454D01*
X121513224Y-40865026D01*
X121453414Y-40914111D01*
X121431250Y-40911928D01*
X120943750Y-40911928D01*
X120771715Y-40928872D01*
X120606291Y-40979053D01*
X120453836Y-41060542D01*
X120320208Y-41170208D01*
X120250000Y-41255756D01*
X120190710Y-41183511D01*
X120245226Y-41051898D01*
X120285000Y-40851939D01*
X120285000Y-40648061D01*
X120245226Y-40448102D01*
X120167205Y-40259744D01*
X120053937Y-40090226D01*
X120010000Y-40046289D01*
X120010000Y-40037322D01*
X120013676Y-39999999D01*
X120010000Y-39962676D01*
X120010000Y-39962667D01*
X119999003Y-39851014D01*
X119955546Y-39707753D01*
X119884974Y-39575723D01*
X119813799Y-39488997D01*
X119790001Y-39459999D01*
X119761003Y-39436201D01*
X118138072Y-37813271D01*
X118138072Y-36539721D01*
X118945000Y-36539721D01*
X118945000Y-36960279D01*
X119027047Y-37372756D01*
X119187988Y-37761302D01*
X119421637Y-38110983D01*
X119719017Y-38408363D01*
X120068698Y-38642012D01*
X120457244Y-38802953D01*
X120869721Y-38885000D01*
X121290279Y-38885000D01*
X121702756Y-38802953D01*
X122091302Y-38642012D01*
X122440983Y-38408363D01*
X122607693Y-38241653D01*
X124847952Y-38241653D01*
X125003962Y-38557214D01*
X125378745Y-38748020D01*
X125783551Y-38862044D01*
X126202824Y-38894902D01*
X126620451Y-38845334D01*
X127020383Y-38715243D01*
X127316038Y-38557214D01*
X127472048Y-38241653D01*
X127418607Y-38188212D01*
X135115000Y-38188212D01*
X135115000Y-38411788D01*
X135158617Y-38631067D01*
X135244176Y-38837624D01*
X135368388Y-39023520D01*
X135526480Y-39181612D01*
X135712376Y-39305824D01*
X135918933Y-39391383D01*
X136138212Y-39435000D01*
X136361788Y-39435000D01*
X136581067Y-39391383D01*
X136787624Y-39305824D01*
X136973520Y-39181612D01*
X137131612Y-39023520D01*
X137255824Y-38837624D01*
X137341383Y-38631067D01*
X137385000Y-38411788D01*
X137385000Y-38188212D01*
X137341383Y-37968933D01*
X137255824Y-37762376D01*
X137131612Y-37576480D01*
X136973520Y-37418388D01*
X136787624Y-37294176D01*
X136581067Y-37208617D01*
X136361788Y-37165000D01*
X136138212Y-37165000D01*
X135918933Y-37208617D01*
X135712376Y-37294176D01*
X135526480Y-37418388D01*
X135368388Y-37576480D01*
X135244176Y-37762376D01*
X135158617Y-37968933D01*
X135115000Y-38188212D01*
X127418607Y-38188212D01*
X126160000Y-36929605D01*
X124847952Y-38241653D01*
X122607693Y-38241653D01*
X122738363Y-38110983D01*
X122972012Y-37761302D01*
X123132953Y-37372756D01*
X123215000Y-36960279D01*
X123215000Y-36792824D01*
X124015098Y-36792824D01*
X124064666Y-37210451D01*
X124194757Y-37610383D01*
X124352786Y-37906038D01*
X124668347Y-38062048D01*
X125980395Y-36750000D01*
X126339605Y-36750000D01*
X127651653Y-38062048D01*
X127967214Y-37906038D01*
X128158020Y-37531255D01*
X128272044Y-37126449D01*
X128304902Y-36707176D01*
X128255334Y-36289549D01*
X128125243Y-35889617D01*
X127967214Y-35593962D01*
X127651653Y-35437952D01*
X126339605Y-36750000D01*
X125980395Y-36750000D01*
X124668347Y-35437952D01*
X124352786Y-35593962D01*
X124161980Y-35968745D01*
X124047956Y-36373551D01*
X124015098Y-36792824D01*
X123215000Y-36792824D01*
X123215000Y-36539721D01*
X123132953Y-36127244D01*
X122972012Y-35738698D01*
X122738363Y-35389017D01*
X122607693Y-35258347D01*
X124847952Y-35258347D01*
X126160000Y-36570395D01*
X127472048Y-35258347D01*
X127316038Y-34942786D01*
X126941255Y-34751980D01*
X126536449Y-34637956D01*
X126117176Y-34605098D01*
X125699549Y-34654666D01*
X125299617Y-34784757D01*
X125003962Y-34942786D01*
X124847952Y-35258347D01*
X122607693Y-35258347D01*
X122440983Y-35091637D01*
X122091302Y-34857988D01*
X121702756Y-34697047D01*
X121290279Y-34615000D01*
X120869721Y-34615000D01*
X120457244Y-34697047D01*
X120068698Y-34857988D01*
X119719017Y-35091637D01*
X119421637Y-35389017D01*
X119187988Y-35738698D01*
X119027047Y-36127244D01*
X118945000Y-36539721D01*
X118138072Y-36539721D01*
X118138072Y-35250000D01*
X118125812Y-35125518D01*
X118089502Y-35005820D01*
X118030537Y-34895506D01*
X117951185Y-34798815D01*
X117854494Y-34719463D01*
X117744180Y-34660498D01*
X117624482Y-34624188D01*
X117500000Y-34611928D01*
X114500000Y-34611928D01*
X114375518Y-34624188D01*
X114255820Y-34660498D01*
X114145506Y-34719463D01*
X114048815Y-34798815D01*
X113969463Y-34895506D01*
X113910498Y-35005820D01*
X113874188Y-35125518D01*
X113861928Y-35250000D01*
X113861928Y-38250000D01*
X113874188Y-38374482D01*
X113910498Y-38494180D01*
X113969463Y-38604494D01*
X114048815Y-38701185D01*
X114145506Y-38780537D01*
X114255820Y-38839502D01*
X114375518Y-38875812D01*
X114500000Y-38888072D01*
X117063271Y-38888072D01*
X118373709Y-40198511D01*
X118332795Y-40259744D01*
X118254774Y-40448102D01*
X118215000Y-40648061D01*
X118215000Y-40851939D01*
X118254774Y-41051898D01*
X118332795Y-41240256D01*
X118357445Y-41277147D01*
X118335542Y-41303836D01*
X118254053Y-41456291D01*
X118203872Y-41621715D01*
X118186928Y-41793750D01*
X118186928Y-42706250D01*
X118203872Y-42878285D01*
X118254053Y-43043709D01*
X118335542Y-43196164D01*
X118343877Y-43206321D01*
X116638271Y-44911928D01*
X115975000Y-44911928D01*
X115850518Y-44924188D01*
X115730820Y-44960498D01*
X115620506Y-45019463D01*
X115523815Y-45098815D01*
X115444463Y-45195506D01*
X115385498Y-45305820D01*
X115349188Y-45425518D01*
X115336928Y-45550000D01*
X115336928Y-46000000D01*
X115346777Y-46100000D01*
X115336928Y-46200000D01*
X115336928Y-46650000D01*
X115346777Y-46750000D01*
X115336928Y-46850000D01*
X115336928Y-47300000D01*
X115347056Y-47402838D01*
X115340000Y-47468250D01*
X115372247Y-47500497D01*
X115385498Y-47544180D01*
X115444463Y-47654494D01*
X115502326Y-47725000D01*
X115444463Y-47795506D01*
X115385498Y-47905820D01*
X115372247Y-47949503D01*
X115340000Y-47981750D01*
X115347056Y-48047162D01*
X115336928Y-48150000D01*
X115336928Y-48265000D01*
X115262333Y-48265000D01*
X115225000Y-48261323D01*
X115187667Y-48265000D01*
X115076014Y-48275997D01*
X114932753Y-48319454D01*
X114800724Y-48390026D01*
X114684999Y-48484999D01*
X114661201Y-48513997D01*
X112194455Y-50980744D01*
X112147114Y-50933403D01*
X111977596Y-50820135D01*
X111789238Y-50742114D01*
X111589279Y-50702340D01*
X111385401Y-50702340D01*
X111185442Y-50742114D01*
X111163072Y-50751380D01*
X111163072Y-50750000D01*
X111152944Y-50647162D01*
X111160000Y-50581750D01*
X111127753Y-50549503D01*
X111114502Y-50505820D01*
X111055537Y-50395506D01*
X110997674Y-50325000D01*
X111055537Y-50254494D01*
X111114502Y-50144180D01*
X111127753Y-50100497D01*
X111160000Y-50068250D01*
X111152944Y-50002838D01*
X111163072Y-49900000D01*
X111163072Y-49450000D01*
X111153223Y-49350000D01*
X111163072Y-49250000D01*
X111163072Y-48800000D01*
X111153223Y-48700000D01*
X111163072Y-48600000D01*
X111163072Y-48150000D01*
X111153223Y-48050000D01*
X111163072Y-47950000D01*
X111163072Y-47500000D01*
X111153223Y-47400000D01*
X111163072Y-47300000D01*
X111163072Y-46850000D01*
X111153223Y-46750000D01*
X111163072Y-46650000D01*
X111163072Y-46200000D01*
X111153223Y-46100000D01*
X111163072Y-46000000D01*
X111163072Y-45550000D01*
X111150812Y-45425518D01*
X111114502Y-45305820D01*
X111055537Y-45195506D01*
X110976185Y-45098815D01*
X110879494Y-45019463D01*
X110769180Y-44960498D01*
X110649482Y-44924188D01*
X110525000Y-44911928D01*
X108775000Y-44911928D01*
X108650518Y-44924188D01*
X108530820Y-44960498D01*
X108420506Y-45019463D01*
X108323815Y-45098815D01*
X108244463Y-45195506D01*
X108185498Y-45305820D01*
X108149188Y-45425518D01*
X108136928Y-45550000D01*
X108136928Y-46000000D01*
X108146777Y-46100000D01*
X108136928Y-46200000D01*
X108136928Y-46650000D01*
X108146777Y-46750000D01*
X108136928Y-46850000D01*
X108136928Y-47300000D01*
X108146777Y-47400000D01*
X108136928Y-47500000D01*
X108136928Y-47950000D01*
X108146777Y-48050000D01*
X108136928Y-48150000D01*
X108136928Y-48600000D01*
X108146777Y-48700000D01*
X108136928Y-48800000D01*
X108136928Y-49250000D01*
X108146777Y-49350000D01*
X108136928Y-49450000D01*
X108136928Y-49900000D01*
X108147056Y-50002838D01*
X108140000Y-50068250D01*
X108172247Y-50100497D01*
X108185498Y-50144180D01*
X108244463Y-50254494D01*
X108302326Y-50325000D01*
X108244463Y-50395506D01*
X108185498Y-50505820D01*
X108172247Y-50549503D01*
X108140000Y-50581750D01*
X108147056Y-50647162D01*
X108136928Y-50750000D01*
X108136928Y-50796957D01*
X108132245Y-50794454D01*
X107988984Y-50750997D01*
X107877331Y-50740000D01*
X107877320Y-50740000D01*
X107839998Y-50736324D01*
X107802676Y-50740000D01*
X101787322Y-50740000D01*
X101749999Y-50736324D01*
X101712676Y-50740000D01*
X101712667Y-50740000D01*
X101601014Y-50750997D01*
X101457753Y-50794454D01*
X101325724Y-50865026D01*
X101209999Y-50959999D01*
X101186201Y-50988997D01*
X100063270Y-52111928D01*
X97500000Y-52111928D01*
X97375518Y-52124188D01*
X97255820Y-52160498D01*
X97145506Y-52219463D01*
X97048815Y-52298815D01*
X96969463Y-52395506D01*
X96910498Y-52505820D01*
X96874188Y-52625518D01*
X96861928Y-52750000D01*
X96861928Y-55750000D01*
X96874188Y-55874482D01*
X96910498Y-55994180D01*
X96969463Y-56104494D01*
X97048815Y-56201185D01*
X97145506Y-56280537D01*
X97255820Y-56339502D01*
X97375518Y-56375812D01*
X97500000Y-56388072D01*
X100500000Y-56388072D01*
X100624482Y-56375812D01*
X100744180Y-56339502D01*
X100854494Y-56280537D01*
X100951185Y-56201185D01*
X101030537Y-56104494D01*
X101089502Y-55994180D01*
X101125812Y-55874482D01*
X101138072Y-55750000D01*
X101138072Y-55010000D01*
X101247699Y-55010000D01*
X102936928Y-56699230D01*
X102936928Y-57206250D01*
X102953872Y-57378285D01*
X103004053Y-57543709D01*
X103085542Y-57696164D01*
X103195208Y-57829792D01*
X103226188Y-57855217D01*
X103090226Y-57946063D01*
X102946063Y-58090226D01*
X102832795Y-58259744D01*
X102754774Y-58448102D01*
X102715000Y-58648061D01*
X102715000Y-58851939D01*
X102754774Y-59051898D01*
X102832795Y-59240256D01*
X102946063Y-59409774D01*
X103090226Y-59553937D01*
X103259744Y-59667205D01*
X103448102Y-59745226D01*
X103648061Y-59785000D01*
X103851939Y-59785000D01*
X104051898Y-59745226D01*
X104240256Y-59667205D01*
X104409774Y-59553937D01*
X104553937Y-59409774D01*
X104667205Y-59240256D01*
X104745226Y-59051898D01*
X104785000Y-58851939D01*
X104785000Y-58789802D01*
X105386019Y-58188784D01*
X105415011Y-58164991D01*
X105438805Y-58135998D01*
X105438809Y-58135994D01*
X105465343Y-58103662D01*
X105504774Y-58301898D01*
X105582795Y-58490256D01*
X105696063Y-58659774D01*
X105740001Y-58703712D01*
X105740000Y-59962677D01*
X105736324Y-60000000D01*
X105740000Y-60037322D01*
X105740000Y-60037332D01*
X105750997Y-60148985D01*
X105789537Y-60276035D01*
X105794454Y-60292246D01*
X105865026Y-60424276D01*
X105898448Y-60465000D01*
X105959999Y-60540001D01*
X105989003Y-60563804D01*
X107965000Y-62539802D01*
X107965000Y-62601939D01*
X108004774Y-62801898D01*
X108082795Y-62990256D01*
X108196063Y-63159774D01*
X108240001Y-63203712D01*
X108240000Y-67665867D01*
X108236324Y-67703190D01*
X108240000Y-67740512D01*
X108240000Y-67740522D01*
X108250997Y-67852175D01*
X108289061Y-67977658D01*
X108294454Y-67995436D01*
X108365026Y-68127466D01*
X108391541Y-68159774D01*
X108459999Y-68243191D01*
X108489003Y-68266994D01*
X115544538Y-75322530D01*
X115518992Y-75406745D01*
X115501928Y-75579999D01*
X115501928Y-76105001D01*
X115518992Y-76278255D01*
X115569528Y-76444851D01*
X115651595Y-76598387D01*
X115762038Y-76732962D01*
X115862001Y-76815000D01*
X95435000Y-76815000D01*
X95435000Y-73160000D01*
X96861928Y-73160000D01*
X96861928Y-76160000D01*
X96874188Y-76284482D01*
X96910498Y-76404180D01*
X96969463Y-76514494D01*
X97048815Y-76611185D01*
X97145506Y-76690537D01*
X97255820Y-76749502D01*
X97375518Y-76785812D01*
X97500000Y-76798072D01*
X100500000Y-76798072D01*
X100624482Y-76785812D01*
X100744180Y-76749502D01*
X100854494Y-76690537D01*
X100951185Y-76611185D01*
X101030537Y-76514494D01*
X101089502Y-76404180D01*
X101125812Y-76284482D01*
X101138072Y-76160000D01*
X101138072Y-73160000D01*
X101125812Y-73035518D01*
X101089502Y-72915820D01*
X101030537Y-72805506D01*
X100951185Y-72708815D01*
X100854494Y-72629463D01*
X100744180Y-72570498D01*
X100624482Y-72534188D01*
X100500000Y-72521928D01*
X97500000Y-72521928D01*
X97375518Y-72534188D01*
X97255820Y-72570498D01*
X97145506Y-72629463D01*
X97048815Y-72708815D01*
X96969463Y-72805506D01*
X96910498Y-72915820D01*
X96874188Y-73035518D01*
X96861928Y-73160000D01*
X95435000Y-73160000D01*
X95435000Y-69369721D01*
X96865000Y-69369721D01*
X96865000Y-69790279D01*
X96947047Y-70202756D01*
X97107988Y-70591302D01*
X97341637Y-70940983D01*
X97639017Y-71238363D01*
X97988698Y-71472012D01*
X98377244Y-71632953D01*
X98789721Y-71715000D01*
X99210279Y-71715000D01*
X99622756Y-71632953D01*
X100011302Y-71472012D01*
X100360983Y-71238363D01*
X100658363Y-70940983D01*
X100892012Y-70591302D01*
X101052953Y-70202756D01*
X101135000Y-69790279D01*
X101135000Y-69369721D01*
X101052953Y-68957244D01*
X100892012Y-68568698D01*
X100658363Y-68219017D01*
X100360983Y-67921637D01*
X100011302Y-67687988D01*
X99622756Y-67527047D01*
X99210279Y-67445000D01*
X98789721Y-67445000D01*
X98377244Y-67527047D01*
X97988698Y-67687988D01*
X97639017Y-67921637D01*
X97341637Y-68219017D01*
X97107988Y-68568698D01*
X96947047Y-68957244D01*
X96865000Y-69369721D01*
X95435000Y-69369721D01*
X95435000Y-65991653D01*
X97687952Y-65991653D01*
X97843962Y-66307214D01*
X98218745Y-66498020D01*
X98623551Y-66612044D01*
X99042824Y-66644902D01*
X99460451Y-66595334D01*
X99860383Y-66465243D01*
X100156038Y-66307214D01*
X100312048Y-65991653D01*
X99000000Y-64679605D01*
X97687952Y-65991653D01*
X95435000Y-65991653D01*
X95435000Y-64542824D01*
X96855098Y-64542824D01*
X96904666Y-64960451D01*
X97034757Y-65360383D01*
X97192786Y-65656038D01*
X97508347Y-65812048D01*
X98820395Y-64500000D01*
X99179605Y-64500000D01*
X100491653Y-65812048D01*
X100807214Y-65656038D01*
X100998020Y-65281255D01*
X101112044Y-64876449D01*
X101144902Y-64457176D01*
X101095334Y-64039549D01*
X100965243Y-63639617D01*
X100807214Y-63343962D01*
X100491653Y-63187952D01*
X99179605Y-64500000D01*
X98820395Y-64500000D01*
X97508347Y-63187952D01*
X97192786Y-63343962D01*
X97001980Y-63718745D01*
X96887956Y-64123551D01*
X96855098Y-64542824D01*
X95435000Y-64542824D01*
X95435000Y-63008347D01*
X97687952Y-63008347D01*
X99000000Y-64320395D01*
X100312048Y-63008347D01*
X100156038Y-62692786D01*
X99781255Y-62501980D01*
X99376449Y-62387956D01*
X98957176Y-62355098D01*
X98539549Y-62404666D01*
X98139617Y-62534757D01*
X97843962Y-62692786D01*
X97687952Y-63008347D01*
X95435000Y-63008347D01*
X95435000Y-59768129D01*
X95490829Y-59872578D01*
X95635788Y-60049212D01*
X95812421Y-60194171D01*
X96013940Y-60301885D01*
X96232600Y-60368215D01*
X96460000Y-60390612D01*
X96687399Y-60368215D01*
X96906059Y-60301885D01*
X97095000Y-60200894D01*
X97283940Y-60301885D01*
X97502600Y-60368215D01*
X97730000Y-60390612D01*
X97957399Y-60368215D01*
X98166098Y-60304907D01*
X98230820Y-60339502D01*
X98350518Y-60375812D01*
X98475000Y-60388072D01*
X98714250Y-60385000D01*
X98873000Y-60226250D01*
X98873000Y-59453109D01*
X98873215Y-59452400D01*
X98890000Y-59281979D01*
X98890000Y-59127000D01*
X99127000Y-59127000D01*
X99127000Y-60226250D01*
X99285750Y-60385000D01*
X99525000Y-60388072D01*
X99649482Y-60375812D01*
X99769180Y-60339502D01*
X99879494Y-60280537D01*
X99976185Y-60201185D01*
X100055537Y-60104494D01*
X100114502Y-59994180D01*
X100150812Y-59874482D01*
X100163072Y-59750000D01*
X100160000Y-59285750D01*
X100001250Y-59127000D01*
X99127000Y-59127000D01*
X98890000Y-59127000D01*
X98890000Y-58718022D01*
X98873215Y-58547601D01*
X98873000Y-58546892D01*
X98873000Y-57773750D01*
X99127000Y-57773750D01*
X99127000Y-58873000D01*
X100001250Y-58873000D01*
X100160000Y-58714250D01*
X100163072Y-58250000D01*
X100150812Y-58125518D01*
X100114502Y-58005820D01*
X100055537Y-57895506D01*
X99976185Y-57798815D01*
X99879494Y-57719463D01*
X99769180Y-57660498D01*
X99649482Y-57624188D01*
X99525000Y-57611928D01*
X99285750Y-57615000D01*
X99127000Y-57773750D01*
X98873000Y-57773750D01*
X98714250Y-57615000D01*
X98475000Y-57611928D01*
X98350518Y-57624188D01*
X98230820Y-57660498D01*
X98166098Y-57695093D01*
X97957400Y-57631785D01*
X97730000Y-57609388D01*
X97502601Y-57631785D01*
X97283941Y-57698115D01*
X97095001Y-57799106D01*
X96906060Y-57698115D01*
X96687400Y-57631785D01*
X96460000Y-57609388D01*
X96232601Y-57631785D01*
X96013941Y-57698115D01*
X95812422Y-57805829D01*
X95635789Y-57950788D01*
X95490830Y-58127421D01*
X95435000Y-58231871D01*
X95435000Y-48959721D01*
X96865000Y-48959721D01*
X96865000Y-49380279D01*
X96947047Y-49792756D01*
X97107988Y-50181302D01*
X97341637Y-50530983D01*
X97639017Y-50828363D01*
X97988698Y-51062012D01*
X98377244Y-51222953D01*
X98789721Y-51305000D01*
X99210279Y-51305000D01*
X99622756Y-51222953D01*
X100011302Y-51062012D01*
X100360983Y-50828363D01*
X100658363Y-50530983D01*
X100892012Y-50181302D01*
X101052953Y-49792756D01*
X101135000Y-49380279D01*
X101135000Y-48959721D01*
X101052953Y-48547244D01*
X100892012Y-48158698D01*
X100658363Y-47809017D01*
X100360983Y-47511637D01*
X100011302Y-47277988D01*
X99622756Y-47117047D01*
X99210279Y-47035000D01*
X98789721Y-47035000D01*
X98377244Y-47117047D01*
X97988698Y-47277988D01*
X97639017Y-47511637D01*
X97341637Y-47809017D01*
X97107988Y-48158698D01*
X96947047Y-48547244D01*
X96865000Y-48959721D01*
X95435000Y-48959721D01*
X95435000Y-45581653D01*
X97687952Y-45581653D01*
X97843962Y-45897214D01*
X98218745Y-46088020D01*
X98623551Y-46202044D01*
X99042824Y-46234902D01*
X99460451Y-46185334D01*
X99860383Y-46055243D01*
X100156038Y-45897214D01*
X100312048Y-45581653D01*
X99000000Y-44269605D01*
X97687952Y-45581653D01*
X95435000Y-45581653D01*
X95435000Y-44132824D01*
X96855098Y-44132824D01*
X96904666Y-44550451D01*
X97034757Y-44950383D01*
X97192786Y-45246038D01*
X97508347Y-45402048D01*
X98820395Y-44090000D01*
X99179605Y-44090000D01*
X100491653Y-45402048D01*
X100807214Y-45246038D01*
X100998020Y-44871255D01*
X101112044Y-44466449D01*
X101144902Y-44047176D01*
X101095334Y-43629549D01*
X100965243Y-43229617D01*
X100807214Y-42933962D01*
X100491653Y-42777952D01*
X99179605Y-44090000D01*
X98820395Y-44090000D01*
X97508347Y-42777952D01*
X97192786Y-42933962D01*
X97001980Y-43308745D01*
X96887956Y-43713551D01*
X96855098Y-44132824D01*
X95435000Y-44132824D01*
X95435000Y-42598347D01*
X97687952Y-42598347D01*
X99000000Y-43910395D01*
X100312048Y-42598347D01*
X100156038Y-42282786D01*
X99781255Y-42091980D01*
X99376449Y-41977956D01*
X98957176Y-41945098D01*
X98539549Y-41994666D01*
X98139617Y-42124757D01*
X97843962Y-42282786D01*
X97687952Y-42598347D01*
X95435000Y-42598347D01*
X95435000Y-39764531D01*
X104665074Y-39764531D01*
X104775921Y-40041714D01*
X105086840Y-40195089D01*
X105421705Y-40284860D01*
X105767650Y-40307576D01*
X106111380Y-40262366D01*
X106439685Y-40150966D01*
X106644079Y-40041714D01*
X106754926Y-39764531D01*
X109745074Y-39764531D01*
X109855921Y-40041714D01*
X110166840Y-40195089D01*
X110501705Y-40284860D01*
X110847650Y-40307576D01*
X111191380Y-40262366D01*
X111519685Y-40150966D01*
X111724079Y-40041714D01*
X111834926Y-39764531D01*
X110790000Y-38719605D01*
X109745074Y-39764531D01*
X106754926Y-39764531D01*
X105710000Y-38719605D01*
X104665074Y-39764531D01*
X95435000Y-39764531D01*
X95435000Y-38597650D01*
X103942424Y-38597650D01*
X103987634Y-38941380D01*
X104099034Y-39269685D01*
X104208286Y-39474079D01*
X104485469Y-39584926D01*
X105530395Y-38540000D01*
X105889605Y-38540000D01*
X106934531Y-39584926D01*
X107211714Y-39474079D01*
X107365089Y-39163160D01*
X107454860Y-38828295D01*
X107470004Y-38597650D01*
X109022424Y-38597650D01*
X109067634Y-38941380D01*
X109179034Y-39269685D01*
X109288286Y-39474079D01*
X109565469Y-39584926D01*
X110610395Y-38540000D01*
X110969605Y-38540000D01*
X112014531Y-39584926D01*
X112291714Y-39474079D01*
X112445089Y-39163160D01*
X112534860Y-38828295D01*
X112557576Y-38482350D01*
X112512366Y-38138620D01*
X112400966Y-37810315D01*
X112291714Y-37605921D01*
X112014531Y-37495074D01*
X110969605Y-38540000D01*
X110610395Y-38540000D01*
X109565469Y-37495074D01*
X109288286Y-37605921D01*
X109134911Y-37916840D01*
X109045140Y-38251705D01*
X109022424Y-38597650D01*
X107470004Y-38597650D01*
X107477576Y-38482350D01*
X107432366Y-38138620D01*
X107320966Y-37810315D01*
X107211714Y-37605921D01*
X106934531Y-37495074D01*
X105889605Y-38540000D01*
X105530395Y-38540000D01*
X104485469Y-37495074D01*
X104208286Y-37605921D01*
X104054911Y-37916840D01*
X103965140Y-38251705D01*
X103942424Y-38597650D01*
X95435000Y-38597650D01*
X95435000Y-37315469D01*
X104665074Y-37315469D01*
X105710000Y-38360395D01*
X106754926Y-37315469D01*
X106644079Y-37038286D01*
X106333160Y-36884911D01*
X105998295Y-36795140D01*
X105652350Y-36772424D01*
X105308620Y-36817634D01*
X104980315Y-36929034D01*
X104775921Y-37038286D01*
X104665074Y-37315469D01*
X95435000Y-37315469D01*
X95435000Y-35826655D01*
X106490000Y-35826655D01*
X106490000Y-36173345D01*
X106557636Y-36513373D01*
X106690308Y-36833673D01*
X106882919Y-37121935D01*
X107128065Y-37367081D01*
X107416327Y-37559692D01*
X107736627Y-37692364D01*
X108076655Y-37760000D01*
X108423345Y-37760000D01*
X108763373Y-37692364D01*
X109083673Y-37559692D01*
X109371935Y-37367081D01*
X109423547Y-37315469D01*
X109745074Y-37315469D01*
X110790000Y-38360395D01*
X111834926Y-37315469D01*
X111724079Y-37038286D01*
X111413160Y-36884911D01*
X111078295Y-36795140D01*
X110732350Y-36772424D01*
X110388620Y-36817634D01*
X110060315Y-36929034D01*
X109855921Y-37038286D01*
X109745074Y-37315469D01*
X109423547Y-37315469D01*
X109617081Y-37121935D01*
X109809692Y-36833673D01*
X109942364Y-36513373D01*
X110010000Y-36173345D01*
X110010000Y-35826655D01*
X109942364Y-35486627D01*
X109809692Y-35166327D01*
X109617081Y-34878065D01*
X109423547Y-34684531D01*
X109745074Y-34684531D01*
X109855921Y-34961714D01*
X110166840Y-35115089D01*
X110501705Y-35204860D01*
X110847650Y-35227576D01*
X111191380Y-35182366D01*
X111519685Y-35070966D01*
X111724079Y-34961714D01*
X111834926Y-34684531D01*
X110790000Y-33639605D01*
X109745074Y-34684531D01*
X109423547Y-34684531D01*
X109371935Y-34632919D01*
X109083673Y-34440308D01*
X108763373Y-34307636D01*
X108423345Y-34240000D01*
X108076655Y-34240000D01*
X107736627Y-34307636D01*
X107416327Y-34440308D01*
X107128065Y-34632919D01*
X106882919Y-34878065D01*
X106690308Y-35166327D01*
X106557636Y-35486627D01*
X106490000Y-35826655D01*
X95435000Y-35826655D01*
X95435000Y-34684531D01*
X104665074Y-34684531D01*
X104775921Y-34961714D01*
X105086840Y-35115089D01*
X105421705Y-35204860D01*
X105767650Y-35227576D01*
X106111380Y-35182366D01*
X106439685Y-35070966D01*
X106644079Y-34961714D01*
X106754926Y-34684531D01*
X105710000Y-33639605D01*
X104665074Y-34684531D01*
X95435000Y-34684531D01*
X95435000Y-32435000D01*
X104435642Y-32435000D01*
X104208286Y-32525921D01*
%TA.AperFunction,Conductor*%
D25*
G36*
X104208286Y-32525921D02*
G01*
X104054911Y-32836840D01*
X103965140Y-33171705D01*
X103942424Y-33517650D01*
X103987634Y-33861380D01*
X104099034Y-34189685D01*
X104208286Y-34394079D01*
X104485469Y-34504926D01*
X105530395Y-33460000D01*
X105516253Y-33445858D01*
X105695858Y-33266253D01*
X105710000Y-33280395D01*
X105724143Y-33266253D01*
X105903748Y-33445858D01*
X105889605Y-33460000D01*
X106934531Y-34504926D01*
X107211714Y-34394079D01*
X107365089Y-34083160D01*
X107454860Y-33748295D01*
X107477576Y-33402350D01*
X107432366Y-33058620D01*
X107320966Y-32730315D01*
X107211714Y-32525921D01*
X106984358Y-32435000D01*
X109515642Y-32435000D01*
X109288286Y-32525921D01*
X109134911Y-32836840D01*
X109045140Y-33171705D01*
X109022424Y-33517650D01*
X109067634Y-33861380D01*
X109179034Y-34189685D01*
X109288286Y-34394079D01*
X109565469Y-34504926D01*
X110610395Y-33460000D01*
X110596253Y-33445858D01*
X110775858Y-33266253D01*
X110790000Y-33280395D01*
X110804143Y-33266253D01*
X110983748Y-33445858D01*
X110969605Y-33460000D01*
X112014531Y-34504926D01*
X112291714Y-34394079D01*
X112445089Y-34083160D01*
X112534860Y-33748295D01*
X112557576Y-33402350D01*
X112512366Y-33058620D01*
X112400966Y-32730315D01*
X112291714Y-32525921D01*
X112064358Y-32435000D01*
X142315000Y-32435000D01*
X142315001Y-76815000D01*
X125437999Y-76815000D01*
X125537962Y-76732962D01*
X125648405Y-76598387D01*
X125730472Y-76444851D01*
X125781008Y-76278255D01*
X125798072Y-76105001D01*
X125798072Y-75579999D01*
X125781008Y-75406745D01*
X125755462Y-75322529D01*
X125996007Y-75081984D01*
X126025011Y-75058181D01*
X126063411Y-75011390D01*
X126715961Y-74358840D01*
X126722784Y-74375311D01*
X126836052Y-74544829D01*
X126980215Y-74688992D01*
X127149733Y-74802260D01*
X127338091Y-74880281D01*
X127538050Y-74920055D01*
X127600187Y-74920055D01*
X128051928Y-75371797D01*
X128051928Y-75780000D01*
X128064188Y-75904482D01*
X128100498Y-76024180D01*
X128159463Y-76134494D01*
X128238815Y-76231185D01*
X128335506Y-76310537D01*
X128445820Y-76369502D01*
X128565518Y-76405812D01*
X128690000Y-76418072D01*
X130390000Y-76418072D01*
X130514482Y-76405812D01*
X130634180Y-76369502D01*
X130744494Y-76310537D01*
X130841185Y-76231185D01*
X130920537Y-76134494D01*
X130979502Y-76024180D01*
X131001513Y-75951620D01*
X131133368Y-76083475D01*
X131376589Y-76245990D01*
X131646842Y-76357932D01*
X131933740Y-76415000D01*
X132226260Y-76415000D01*
X132513158Y-76357932D01*
X132783411Y-76245990D01*
X133026632Y-76083475D01*
X133233475Y-75876632D01*
X133395990Y-75633411D01*
X133507932Y-75363158D01*
X133565000Y-75076260D01*
X133565000Y-74783740D01*
X133507932Y-74496842D01*
X133395990Y-74226589D01*
X133233475Y-73983368D01*
X133026632Y-73776525D01*
X132852240Y-73660000D01*
X133026632Y-73543475D01*
X133168454Y-73401653D01*
X137187952Y-73401653D01*
X137343962Y-73717214D01*
X137718745Y-73908020D01*
X138123551Y-74022044D01*
X138542824Y-74054902D01*
X138960451Y-74005334D01*
X139360383Y-73875243D01*
X139656038Y-73717214D01*
X139812048Y-73401653D01*
X138500000Y-72089605D01*
X137187952Y-73401653D01*
X133168454Y-73401653D01*
X133233475Y-73336632D01*
X133395990Y-73093411D01*
X133507932Y-72823158D01*
X133565000Y-72536260D01*
X133565000Y-72243740D01*
X133507932Y-71956842D01*
X133506268Y-71952824D01*
X136355098Y-71952824D01*
X136404666Y-72370451D01*
X136534757Y-72770383D01*
X136692786Y-73066038D01*
X137008347Y-73222048D01*
X138320395Y-71910000D01*
X138679605Y-71910000D01*
X139991653Y-73222048D01*
X140307214Y-73066038D01*
X140498020Y-72691255D01*
X140612044Y-72286449D01*
X140644902Y-71867176D01*
X140595334Y-71449549D01*
X140465243Y-71049617D01*
X140307214Y-70753962D01*
X139991653Y-70597952D01*
X138679605Y-71910000D01*
X138320395Y-71910000D01*
X137008347Y-70597952D01*
X136692786Y-70753962D01*
X136501980Y-71128745D01*
X136387956Y-71533551D01*
X136355098Y-71952824D01*
X133506268Y-71952824D01*
X133436753Y-71785001D01*
X134017677Y-71785001D01*
X134054999Y-71788677D01*
X134092321Y-71785001D01*
X134092332Y-71785001D01*
X134203985Y-71774004D01*
X134347246Y-71730547D01*
X134479275Y-71659975D01*
X134595000Y-71565002D01*
X134618803Y-71535998D01*
X135736454Y-70418347D01*
X137187952Y-70418347D01*
X138500000Y-71730395D01*
X139812048Y-70418347D01*
X139656038Y-70102786D01*
X139281255Y-69911980D01*
X138876449Y-69797956D01*
X138457176Y-69765098D01*
X138039549Y-69814666D01*
X137639617Y-69944757D01*
X137343962Y-70102786D01*
X137187952Y-70418347D01*
X135736454Y-70418347D01*
X137455183Y-68699618D01*
X137488698Y-68722012D01*
X137877244Y-68882953D01*
X138289721Y-68965000D01*
X138710279Y-68965000D01*
X139122756Y-68882953D01*
X139511302Y-68722012D01*
X139860983Y-68488363D01*
X140158363Y-68190983D01*
X140392012Y-67841302D01*
X140552953Y-67452756D01*
X140635000Y-67040279D01*
X140635000Y-66619721D01*
X140552953Y-66207244D01*
X140392012Y-65818698D01*
X140158363Y-65469017D01*
X139860983Y-65171637D01*
X139511302Y-64937988D01*
X139122756Y-64777047D01*
X138710279Y-64695000D01*
X138289721Y-64695000D01*
X137877244Y-64777047D01*
X137488698Y-64937988D01*
X137139017Y-65171637D01*
X136841637Y-65469017D01*
X136607988Y-65818698D01*
X136447047Y-66207244D01*
X136365000Y-66619721D01*
X136365000Y-67040279D01*
X136447047Y-67452756D01*
X136477917Y-67527282D01*
X133740198Y-70265001D01*
X133503850Y-70265001D01*
X133521476Y-70206890D01*
X133400155Y-69977000D01*
X132207000Y-69977000D01*
X132207000Y-69997000D01*
X131953000Y-69997000D01*
X131953000Y-69977000D01*
X131933000Y-69977000D01*
X131933000Y-69723000D01*
X131953000Y-69723000D01*
X131953000Y-68529186D01*
X132207000Y-68529186D01*
X132207000Y-69723000D01*
X133400155Y-69723000D01*
X133521476Y-69493110D01*
X133476825Y-69345901D01*
X133351641Y-69083080D01*
X133177588Y-68849731D01*
X132961355Y-68654822D01*
X132711252Y-68505843D01*
X132436891Y-68408519D01*
X132207000Y-68529186D01*
X131953000Y-68529186D01*
X131723109Y-68408519D01*
X131448748Y-68505843D01*
X131198645Y-68654822D01*
X130982412Y-68849731D01*
X130811100Y-69079406D01*
X130693475Y-68903368D01*
X130486632Y-68696525D01*
X130243411Y-68534010D01*
X129973158Y-68422068D01*
X129686260Y-68365000D01*
X129393740Y-68365000D01*
X129106842Y-68422068D01*
X128836589Y-68534010D01*
X128593368Y-68696525D01*
X128386525Y-68903368D01*
X128261822Y-69090000D01*
X127354080Y-69090000D01*
X124574089Y-66310010D01*
X128950858Y-66310010D01*
X128988180Y-66313686D01*
X129025502Y-66310010D01*
X129025513Y-66310010D01*
X129137166Y-66299013D01*
X129280427Y-66255556D01*
X129412456Y-66184984D01*
X129528181Y-66090011D01*
X129551984Y-66061007D01*
X129765284Y-65847707D01*
X129775518Y-65850812D01*
X129900000Y-65863072D01*
X130114250Y-65860000D01*
X130273000Y-65701250D01*
X130273000Y-64627000D01*
X130527000Y-64627000D01*
X130527000Y-65701250D01*
X130685750Y-65860000D01*
X130900000Y-65863072D01*
X131024482Y-65850812D01*
X131144180Y-65814502D01*
X131254494Y-65755537D01*
X131351185Y-65676185D01*
X131430537Y-65579494D01*
X131489502Y-65469180D01*
X131525812Y-65349482D01*
X131538072Y-65225000D01*
X131536149Y-64950000D01*
X131986928Y-64950000D01*
X131999188Y-65074482D01*
X132035498Y-65194180D01*
X132094463Y-65304494D01*
X132173815Y-65401185D01*
X132270506Y-65480537D01*
X132380820Y-65539502D01*
X132500518Y-65575812D01*
X132625000Y-65588072D01*
X133064250Y-65585000D01*
X133223000Y-65426250D01*
X133223000Y-64577000D01*
X133477000Y-64577000D01*
X133477000Y-65426250D01*
X133635750Y-65585000D01*
X134075000Y-65588072D01*
X134199482Y-65575812D01*
X134319180Y-65539502D01*
X134429494Y-65480537D01*
X134526185Y-65401185D01*
X134605537Y-65304494D01*
X134664502Y-65194180D01*
X134700812Y-65074482D01*
X134713072Y-64950000D01*
X134710000Y-64735750D01*
X134551250Y-64577000D01*
X133477000Y-64577000D01*
X133223000Y-64577000D01*
X132148750Y-64577000D01*
X131990000Y-64735750D01*
X131986928Y-64950000D01*
X131536149Y-64950000D01*
X131535000Y-64785750D01*
X131376250Y-64627000D01*
X130527000Y-64627000D01*
X130273000Y-64627000D01*
X130253000Y-64627000D01*
X130253000Y-64373000D01*
X130273000Y-64373000D01*
X130273000Y-64353000D01*
X130527000Y-64353000D01*
X130527000Y-64373000D01*
X131376250Y-64373000D01*
X131535000Y-64214250D01*
X131538072Y-63775000D01*
X131525812Y-63650518D01*
X131489502Y-63530820D01*
X131430537Y-63420506D01*
X131427799Y-63417170D01*
X131441185Y-63406185D01*
X131520537Y-63309494D01*
X131579502Y-63199180D01*
X131615812Y-63079482D01*
X131628072Y-62955000D01*
X131625000Y-62515750D01*
X131466250Y-62357000D01*
X130617000Y-62357000D01*
X130617000Y-63208750D01*
X130527002Y-63298748D01*
X130527002Y-63140000D01*
X130400010Y-63140000D01*
X130400010Y-62083000D01*
X130617000Y-62083000D01*
X130617000Y-62103000D01*
X131466250Y-62103000D01*
X131625000Y-61944250D01*
X131625309Y-61900110D01*
X131990359Y-62265161D01*
X131986928Y-62300000D01*
X131986928Y-62800000D01*
X132003992Y-62973254D01*
X132054528Y-63139850D01*
X132136595Y-63293386D01*
X132247038Y-63427962D01*
X132253594Y-63433342D01*
X132173815Y-63498815D01*
X132094463Y-63595506D01*
X132035498Y-63705820D01*
X131999188Y-63825518D01*
X131986928Y-63950000D01*
X131990000Y-64164250D01*
X132148750Y-64323000D01*
X133223000Y-64323000D01*
X133223000Y-64303000D01*
X133477000Y-64303000D01*
X133477000Y-64323000D01*
X134551250Y-64323000D01*
X134710000Y-64164250D01*
X134713072Y-63950000D01*
X134700812Y-63825518D01*
X134664502Y-63705820D01*
X134605537Y-63595506D01*
X134526185Y-63498815D01*
X134446406Y-63433342D01*
X134452962Y-63427962D01*
X134563405Y-63293386D01*
X134645472Y-63139850D01*
X134696008Y-62973254D01*
X134713072Y-62800000D01*
X134713072Y-62510000D01*
X136361928Y-62510000D01*
X136361928Y-63250000D01*
X136374188Y-63374482D01*
X136410498Y-63494180D01*
X136469463Y-63604494D01*
X136548815Y-63701185D01*
X136645506Y-63780537D01*
X136755820Y-63839502D01*
X136875518Y-63875812D01*
X137000000Y-63888072D01*
X140000000Y-63888072D01*
X140124482Y-63875812D01*
X140244180Y-63839502D01*
X140354494Y-63780537D01*
X140451185Y-63701185D01*
X140530537Y-63604494D01*
X140589502Y-63494180D01*
X140625812Y-63374482D01*
X140638072Y-63250000D01*
X140638072Y-60250000D01*
X140625812Y-60125518D01*
X140589502Y-60005820D01*
X140530537Y-59895506D01*
X140451185Y-59798815D01*
X140354494Y-59719463D01*
X140244180Y-59660498D01*
X140124482Y-59624188D01*
X140000000Y-59611928D01*
X137000000Y-59611928D01*
X136875518Y-59624188D01*
X136755820Y-59660498D01*
X136645506Y-59719463D01*
X136548815Y-59798815D01*
X136469463Y-59895506D01*
X136410498Y-60005820D01*
X136374188Y-60125518D01*
X136361928Y-60250000D01*
X136361928Y-60990000D01*
X135473711Y-60990000D01*
X135553937Y-60909774D01*
X135667205Y-60740256D01*
X135745226Y-60551898D01*
X135785000Y-60351939D01*
X135785000Y-60148061D01*
X135745226Y-59948102D01*
X135667205Y-59759744D01*
X135553937Y-59590226D01*
X135409774Y-59446063D01*
X135240256Y-59332795D01*
X135051898Y-59254774D01*
X134851939Y-59215000D01*
X134648061Y-59215000D01*
X134448102Y-59254774D01*
X134259744Y-59332795D01*
X134090226Y-59446063D01*
X133946063Y-59590226D01*
X133832795Y-59759744D01*
X133754774Y-59948102D01*
X133715000Y-60148061D01*
X133715000Y-60210198D01*
X132900000Y-61025199D01*
X132103813Y-60229012D01*
X132080011Y-60200009D01*
X131964286Y-60105036D01*
X131832257Y-60034464D01*
X131688996Y-59991007D01*
X131625063Y-59984710D01*
X131625000Y-59975750D01*
X131466250Y-59817000D01*
X130617000Y-59817000D01*
X130617000Y-59837000D01*
X130363000Y-59837000D01*
X130363000Y-59817000D01*
X130343000Y-59817000D01*
X130343000Y-59563000D01*
X130363000Y-59563000D01*
X130363000Y-58488750D01*
X130617000Y-58488750D01*
X130617000Y-59563000D01*
X131466250Y-59563000D01*
X131625000Y-59404250D01*
X131628072Y-58965000D01*
X131615812Y-58840518D01*
X131579502Y-58720820D01*
X131520537Y-58610506D01*
X131441185Y-58513815D01*
X131344494Y-58434463D01*
X131234180Y-58375498D01*
X131114482Y-58339188D01*
X130990000Y-58326928D01*
X130775750Y-58330000D01*
X130617000Y-58488750D01*
X130363000Y-58488750D01*
X130204250Y-58330000D01*
X129990000Y-58326928D01*
X129865518Y-58339188D01*
X129745820Y-58375498D01*
X129635506Y-58434463D01*
X129538815Y-58513815D01*
X129473342Y-58593594D01*
X129467962Y-58587038D01*
X129333386Y-58476595D01*
X129179850Y-58394528D01*
X129013254Y-58343992D01*
X129010000Y-58343672D01*
X129010000Y-56388072D01*
X130000000Y-56388072D01*
X130124482Y-56375812D01*
X130244180Y-56339502D01*
X130354494Y-56280537D01*
X130451185Y-56201185D01*
X130530537Y-56104494D01*
X130589502Y-55994180D01*
X130625812Y-55874482D01*
X130638072Y-55750000D01*
X132111928Y-55750000D01*
X132124188Y-55874482D01*
X132160498Y-55994180D01*
X132219463Y-56104494D01*
X132298815Y-56201185D01*
X132395506Y-56280537D01*
X132505820Y-56339502D01*
X132625518Y-56375812D01*
X132750000Y-56388072D01*
X133964250Y-56385000D01*
X134123000Y-56226250D01*
X134123000Y-54127000D01*
X134377000Y-54127000D01*
X134377000Y-56226250D01*
X134535750Y-56385000D01*
X135750000Y-56388072D01*
X135874482Y-56375812D01*
X135994180Y-56339502D01*
X136104494Y-56280537D01*
X136201185Y-56201185D01*
X136280537Y-56104494D01*
X136339502Y-55994180D01*
X136375812Y-55874482D01*
X136388072Y-55750000D01*
X136385000Y-54285750D01*
X136226250Y-54127000D01*
X134377000Y-54127000D01*
X134123000Y-54127000D01*
X132273750Y-54127000D01*
X132115000Y-54285750D01*
X132111928Y-55750000D01*
X130638072Y-55750000D01*
X130638072Y-52250000D01*
X132111928Y-52250000D01*
X132115000Y-53714250D01*
X132273750Y-53873000D01*
X134123000Y-53873000D01*
X134123000Y-51773750D01*
X134377000Y-51773750D01*
X134377000Y-53873000D01*
X136226250Y-53873000D01*
X136385000Y-53714250D01*
X136388072Y-52250000D01*
X136375812Y-52125518D01*
X136339502Y-52005820D01*
X136280537Y-51895506D01*
X136201185Y-51798815D01*
X136104494Y-51719463D01*
X135994180Y-51660498D01*
X135874482Y-51624188D01*
X135750000Y-51611928D01*
X134535750Y-51615000D01*
X134377000Y-51773750D01*
X134123000Y-51773750D01*
X133964250Y-51615000D01*
X132750000Y-51611928D01*
X132625518Y-51624188D01*
X132505820Y-51660498D01*
X132395506Y-51719463D01*
X132298815Y-51798815D01*
X132219463Y-51895506D01*
X132160498Y-52005820D01*
X132124188Y-52125518D01*
X132111928Y-52250000D01*
X130638072Y-52250000D01*
X130625812Y-52125518D01*
X130589502Y-52005820D01*
X130530537Y-51895506D01*
X130451185Y-51798815D01*
X130354494Y-51719463D01*
X130277869Y-51678506D01*
X130375000Y-51688072D01*
X132125000Y-51688072D01*
X132420186Y-51658999D01*
X132704028Y-51572896D01*
X132965618Y-51433073D01*
X133194903Y-51244903D01*
X133383073Y-51015618D01*
X133522896Y-50754028D01*
X133608999Y-50470186D01*
X133638072Y-50175000D01*
X133638072Y-48425000D01*
X133608999Y-48129814D01*
X133522896Y-47845972D01*
X133383073Y-47584382D01*
X133194903Y-47355097D01*
X132965618Y-47166927D01*
X132704028Y-47027104D01*
X132420186Y-46941001D01*
X132125000Y-46911928D01*
X130375000Y-46911928D01*
X130079814Y-46941001D01*
X129795972Y-47027104D01*
X129534382Y-47166927D01*
X129305097Y-47355097D01*
X129116927Y-47584382D01*
X128977104Y-47845972D01*
X128891001Y-48129814D01*
X128861928Y-48425000D01*
X128861928Y-50175000D01*
X128891001Y-50470186D01*
X128977104Y-50754028D01*
X129116927Y-51015618D01*
X129305097Y-51244903D01*
X129534382Y-51433073D01*
X129795972Y-51572896D01*
X129924643Y-51611928D01*
X126528560Y-51611928D01*
X126986008Y-51154480D01*
X127015001Y-51130686D01*
X127038795Y-51101693D01*
X127038799Y-51101689D01*
X127097184Y-51030546D01*
X127109974Y-51014961D01*
X127180546Y-50882932D01*
X127224003Y-50739671D01*
X127235000Y-50628018D01*
X127235000Y-50628009D01*
X127238676Y-50590686D01*
X127235000Y-50553363D01*
X127235000Y-49966364D01*
X127278937Y-49922427D01*
X127392205Y-49752909D01*
X127470226Y-49564551D01*
X127510000Y-49364592D01*
X127510000Y-49160714D01*
X127470226Y-48960755D01*
X127392205Y-48772397D01*
X127278937Y-48602879D01*
X127240168Y-48564110D01*
X127245226Y-48551898D01*
X127285000Y-48351939D01*
X127285000Y-48148061D01*
X127245226Y-47948102D01*
X127167205Y-47759744D01*
X127053937Y-47590226D01*
X126909774Y-47446063D01*
X126740256Y-47332795D01*
X126551898Y-47254774D01*
X126351939Y-47215000D01*
X126311595Y-47215000D01*
X126313072Y-47200001D01*
X126313072Y-46299999D01*
X126300761Y-46175000D01*
X130411928Y-46175000D01*
X130424188Y-46299482D01*
X130460498Y-46419180D01*
X130519463Y-46529494D01*
X130598815Y-46626185D01*
X130695506Y-46705537D01*
X130805820Y-46764502D01*
X130925518Y-46800812D01*
X131050000Y-46813072D01*
X131464250Y-46810000D01*
X131623000Y-46651250D01*
X131623000Y-45814500D01*
X131877000Y-45814500D01*
X131877000Y-46651250D01*
X132035750Y-46810000D01*
X132450000Y-46813072D01*
X132574482Y-46800812D01*
X132694180Y-46764502D01*
X132804494Y-46705537D01*
X132901185Y-46626185D01*
X132980537Y-46529494D01*
X133039502Y-46419180D01*
X133075812Y-46299482D01*
X133088072Y-46175000D01*
X133085000Y-45973250D01*
X132926250Y-45814500D01*
X131877000Y-45814500D01*
X131623000Y-45814500D01*
X130573750Y-45814500D01*
X130415000Y-45973250D01*
X130411928Y-46175000D01*
X126300761Y-46175000D01*
X126296008Y-46126745D01*
X126245472Y-45960149D01*
X126163405Y-45806613D01*
X126116944Y-45750000D01*
X126163405Y-45693387D01*
X126245472Y-45539851D01*
X126296008Y-45373255D01*
X126313072Y-45200001D01*
X126313072Y-44648061D01*
X128465000Y-44648061D01*
X128465000Y-44851939D01*
X128504774Y-45051898D01*
X128582795Y-45240256D01*
X128696063Y-45409774D01*
X128840226Y-45553937D01*
X129009744Y-45667205D01*
X129198102Y-45745226D01*
X129398061Y-45785000D01*
X129601939Y-45785000D01*
X129801898Y-45745226D01*
X129990256Y-45667205D01*
X130159774Y-45553937D01*
X130303937Y-45409774D01*
X130412645Y-45247081D01*
X130415000Y-45401750D01*
X130573750Y-45560500D01*
X131623000Y-45560500D01*
X131623000Y-45540500D01*
X131877000Y-45540500D01*
X131877000Y-45560500D01*
X132926250Y-45560500D01*
X133085000Y-45401750D01*
X133088072Y-45200000D01*
X133075812Y-45075518D01*
X133039502Y-44955820D01*
X132980537Y-44845506D01*
X132901185Y-44748815D01*
X132823436Y-44685008D01*
X132829792Y-44679792D01*
X132939458Y-44546164D01*
X133020947Y-44393709D01*
X133071128Y-44228285D01*
X133088072Y-44056250D01*
X133088072Y-43568750D01*
X133071128Y-43396715D01*
X133020947Y-43231291D01*
X132939458Y-43078836D01*
X132829792Y-42945208D01*
X132696164Y-42835542D01*
X132543709Y-42754053D01*
X132378285Y-42703872D01*
X132206250Y-42686928D01*
X131293750Y-42686928D01*
X131121715Y-42703872D01*
X130956291Y-42754053D01*
X130803836Y-42835542D01*
X130670208Y-42945208D01*
X130582155Y-43052500D01*
X130474822Y-43052500D01*
X130437499Y-43048824D01*
X130400176Y-43052500D01*
X130400167Y-43052500D01*
X130288514Y-43063497D01*
X130145253Y-43106954D01*
X130013224Y-43177526D01*
X129897499Y-43272499D01*
X129873701Y-43301497D01*
X129460198Y-43715000D01*
X129398061Y-43715000D01*
X129198102Y-43754774D01*
X129009744Y-43832795D01*
X128840226Y-43946063D01*
X128696063Y-44090226D01*
X128582795Y-44259744D01*
X128504774Y-44448102D01*
X128465000Y-44648061D01*
X126313072Y-44648061D01*
X126313072Y-44501656D01*
X126436141Y-44526136D01*
X126640019Y-44526136D01*
X126839978Y-44486362D01*
X127028336Y-44408341D01*
X127197854Y-44295073D01*
X127342017Y-44150910D01*
X127455285Y-43981392D01*
X127533306Y-43793034D01*
X127573080Y-43593075D01*
X127573080Y-43526135D01*
X128946543Y-43526135D01*
X128983865Y-43529811D01*
X129021187Y-43526135D01*
X129021198Y-43526135D01*
X129132851Y-43515138D01*
X129276112Y-43471681D01*
X129408141Y-43401109D01*
X129523866Y-43306136D01*
X129547669Y-43277132D01*
X130236589Y-42588212D01*
X135115000Y-42588212D01*
X135115000Y-42811788D01*
X135158617Y-43031067D01*
X135244176Y-43237624D01*
X135368388Y-43423520D01*
X135526480Y-43581612D01*
X135712376Y-43705824D01*
X135918933Y-43791383D01*
X136138212Y-43835000D01*
X136361788Y-43835000D01*
X136581067Y-43791383D01*
X136787624Y-43705824D01*
X136973520Y-43581612D01*
X137131612Y-43423520D01*
X137255824Y-43237624D01*
X137341383Y-43031067D01*
X137385000Y-42811788D01*
X137385000Y-42588212D01*
X137341383Y-42368933D01*
X137255824Y-42162376D01*
X137131612Y-41976480D01*
X136973520Y-41818388D01*
X136787624Y-41694176D01*
X136581067Y-41608617D01*
X136361788Y-41565000D01*
X136138212Y-41565000D01*
X135918933Y-41608617D01*
X135712376Y-41694176D01*
X135526480Y-41818388D01*
X135368388Y-41976480D01*
X135244176Y-42162376D01*
X135158617Y-42368933D01*
X135115000Y-42588212D01*
X130236589Y-42588212D01*
X131277142Y-41547660D01*
X131339279Y-41547660D01*
X131539238Y-41507886D01*
X131727596Y-41429865D01*
X131897114Y-41316597D01*
X132041277Y-41172434D01*
X132154545Y-41002916D01*
X132232566Y-40814558D01*
X132272340Y-40614599D01*
X132272340Y-40410721D01*
X132232566Y-40210762D01*
X132154545Y-40022404D01*
X132041277Y-39852886D01*
X131920559Y-39732168D01*
X131995230Y-39551898D01*
X132035004Y-39351939D01*
X132035004Y-39148061D01*
X131995230Y-38948102D01*
X131917209Y-38759744D01*
X131803941Y-38590226D01*
X131659778Y-38446063D01*
X131490260Y-38332795D01*
X131301902Y-38254774D01*
X131101943Y-38215000D01*
X130898065Y-38215000D01*
X130698106Y-38254774D01*
X130509748Y-38332795D01*
X130340230Y-38446063D01*
X130196067Y-38590226D01*
X130082799Y-38759744D01*
X130004778Y-38948102D01*
X129965004Y-39148061D01*
X129965004Y-39210198D01*
X127619077Y-41556126D01*
X126785000Y-41556126D01*
X126785000Y-41398061D01*
X126745226Y-41198102D01*
X126667205Y-41009744D01*
X126553937Y-40840226D01*
X126409774Y-40696063D01*
X126240256Y-40582795D01*
X126051898Y-40504774D01*
X125851939Y-40465000D01*
X125648061Y-40465000D01*
X125448102Y-40504774D01*
X125259744Y-40582795D01*
X125090226Y-40696063D01*
X125046289Y-40740000D01*
X121974822Y-40740000D01*
X121937499Y-40736324D01*
X121900176Y-40740000D01*
X121900167Y-40740000D01*
X121788514Y-40750997D01*
X121645253Y-40794454D01*
X121513224Y-40865026D01*
X121453414Y-40914111D01*
X121431250Y-40911928D01*
X120943750Y-40911928D01*
X120771715Y-40928872D01*
X120606291Y-40979053D01*
X120453836Y-41060542D01*
X120320208Y-41170208D01*
X120250000Y-41255756D01*
X120190710Y-41183511D01*
X120245226Y-41051898D01*
X120285000Y-40851939D01*
X120285000Y-40648061D01*
X120245226Y-40448102D01*
X120167205Y-40259744D01*
X120053937Y-40090226D01*
X120010000Y-40046289D01*
X120010000Y-40037322D01*
X120013676Y-39999999D01*
X120010000Y-39962676D01*
X120010000Y-39962667D01*
X119999003Y-39851014D01*
X119955546Y-39707753D01*
X119884974Y-39575723D01*
X119813799Y-39488997D01*
X119790001Y-39459999D01*
X119761003Y-39436201D01*
X118138072Y-37813271D01*
X118138072Y-36539721D01*
X118945000Y-36539721D01*
X118945000Y-36960279D01*
X119027047Y-37372756D01*
X119187988Y-37761302D01*
X119421637Y-38110983D01*
X119719017Y-38408363D01*
X120068698Y-38642012D01*
X120457244Y-38802953D01*
X120869721Y-38885000D01*
X121290279Y-38885000D01*
X121702756Y-38802953D01*
X122091302Y-38642012D01*
X122440983Y-38408363D01*
X122607693Y-38241653D01*
X124847952Y-38241653D01*
X125003962Y-38557214D01*
X125378745Y-38748020D01*
X125783551Y-38862044D01*
X126202824Y-38894902D01*
X126620451Y-38845334D01*
X127020383Y-38715243D01*
X127316038Y-38557214D01*
X127472048Y-38241653D01*
X127418607Y-38188212D01*
X135115000Y-38188212D01*
X135115000Y-38411788D01*
X135158617Y-38631067D01*
X135244176Y-38837624D01*
X135368388Y-39023520D01*
X135526480Y-39181612D01*
X135712376Y-39305824D01*
X135918933Y-39391383D01*
X136138212Y-39435000D01*
X136361788Y-39435000D01*
X136581067Y-39391383D01*
X136787624Y-39305824D01*
X136973520Y-39181612D01*
X137131612Y-39023520D01*
X137255824Y-38837624D01*
X137341383Y-38631067D01*
X137385000Y-38411788D01*
X137385000Y-38188212D01*
X137341383Y-37968933D01*
X137255824Y-37762376D01*
X137131612Y-37576480D01*
X136973520Y-37418388D01*
X136787624Y-37294176D01*
X136581067Y-37208617D01*
X136361788Y-37165000D01*
X136138212Y-37165000D01*
X135918933Y-37208617D01*
X135712376Y-37294176D01*
X135526480Y-37418388D01*
X135368388Y-37576480D01*
X135244176Y-37762376D01*
X135158617Y-37968933D01*
X135115000Y-38188212D01*
X127418607Y-38188212D01*
X126160000Y-36929605D01*
X124847952Y-38241653D01*
X122607693Y-38241653D01*
X122738363Y-38110983D01*
X122972012Y-37761302D01*
X123132953Y-37372756D01*
X123215000Y-36960279D01*
X123215000Y-36792824D01*
X124015098Y-36792824D01*
X124064666Y-37210451D01*
X124194757Y-37610383D01*
X124352786Y-37906038D01*
X124668347Y-38062048D01*
X125980395Y-36750000D01*
X126339605Y-36750000D01*
X127651653Y-38062048D01*
X127967214Y-37906038D01*
X128158020Y-37531255D01*
X128272044Y-37126449D01*
X128304902Y-36707176D01*
X128255334Y-36289549D01*
X128125243Y-35889617D01*
X127967214Y-35593962D01*
X127651653Y-35437952D01*
X126339605Y-36750000D01*
X125980395Y-36750000D01*
X124668347Y-35437952D01*
X124352786Y-35593962D01*
X124161980Y-35968745D01*
X124047956Y-36373551D01*
X124015098Y-36792824D01*
X123215000Y-36792824D01*
X123215000Y-36539721D01*
X123132953Y-36127244D01*
X122972012Y-35738698D01*
X122738363Y-35389017D01*
X122607693Y-35258347D01*
X124847952Y-35258347D01*
X126160000Y-36570395D01*
X127472048Y-35258347D01*
X127316038Y-34942786D01*
X126941255Y-34751980D01*
X126536449Y-34637956D01*
X126117176Y-34605098D01*
X125699549Y-34654666D01*
X125299617Y-34784757D01*
X125003962Y-34942786D01*
X124847952Y-35258347D01*
X122607693Y-35258347D01*
X122440983Y-35091637D01*
X122091302Y-34857988D01*
X121702756Y-34697047D01*
X121290279Y-34615000D01*
X120869721Y-34615000D01*
X120457244Y-34697047D01*
X120068698Y-34857988D01*
X119719017Y-35091637D01*
X119421637Y-35389017D01*
X119187988Y-35738698D01*
X119027047Y-36127244D01*
X118945000Y-36539721D01*
X118138072Y-36539721D01*
X118138072Y-35250000D01*
X118125812Y-35125518D01*
X118089502Y-35005820D01*
X118030537Y-34895506D01*
X117951185Y-34798815D01*
X117854494Y-34719463D01*
X117744180Y-34660498D01*
X117624482Y-34624188D01*
X117500000Y-34611928D01*
X114500000Y-34611928D01*
X114375518Y-34624188D01*
X114255820Y-34660498D01*
X114145506Y-34719463D01*
X114048815Y-34798815D01*
X113969463Y-34895506D01*
X113910498Y-35005820D01*
X113874188Y-35125518D01*
X113861928Y-35250000D01*
X113861928Y-38250000D01*
X113874188Y-38374482D01*
X113910498Y-38494180D01*
X113969463Y-38604494D01*
X114048815Y-38701185D01*
X114145506Y-38780537D01*
X114255820Y-38839502D01*
X114375518Y-38875812D01*
X114500000Y-38888072D01*
X117063271Y-38888072D01*
X118373709Y-40198511D01*
X118332795Y-40259744D01*
X118254774Y-40448102D01*
X118215000Y-40648061D01*
X118215000Y-40851939D01*
X118254774Y-41051898D01*
X118332795Y-41240256D01*
X118357445Y-41277147D01*
X118335542Y-41303836D01*
X118254053Y-41456291D01*
X118203872Y-41621715D01*
X118186928Y-41793750D01*
X118186928Y-42706250D01*
X118203872Y-42878285D01*
X118254053Y-43043709D01*
X118335542Y-43196164D01*
X118343877Y-43206321D01*
X116638271Y-44911928D01*
X115975000Y-44911928D01*
X115850518Y-44924188D01*
X115730820Y-44960498D01*
X115620506Y-45019463D01*
X115523815Y-45098815D01*
X115444463Y-45195506D01*
X115385498Y-45305820D01*
X115349188Y-45425518D01*
X115336928Y-45550000D01*
X115336928Y-46000000D01*
X115346777Y-46100000D01*
X115336928Y-46200000D01*
X115336928Y-46650000D01*
X115346777Y-46750000D01*
X115336928Y-46850000D01*
X115336928Y-47300000D01*
X115347056Y-47402838D01*
X115340000Y-47468250D01*
X115372247Y-47500497D01*
X115385498Y-47544180D01*
X115444463Y-47654494D01*
X115502326Y-47725000D01*
X115444463Y-47795506D01*
X115385498Y-47905820D01*
X115372247Y-47949503D01*
X115340000Y-47981750D01*
X115347056Y-48047162D01*
X115336928Y-48150000D01*
X115336928Y-48265000D01*
X115262333Y-48265000D01*
X115225000Y-48261323D01*
X115187667Y-48265000D01*
X115076014Y-48275997D01*
X114932753Y-48319454D01*
X114800724Y-48390026D01*
X114684999Y-48484999D01*
X114661201Y-48513997D01*
X112194455Y-50980744D01*
X112147114Y-50933403D01*
X111977596Y-50820135D01*
X111789238Y-50742114D01*
X111589279Y-50702340D01*
X111385401Y-50702340D01*
X111185442Y-50742114D01*
X111163072Y-50751380D01*
X111163072Y-50750000D01*
X111152944Y-50647162D01*
X111160000Y-50581750D01*
X111127753Y-50549503D01*
X111114502Y-50505820D01*
X111055537Y-50395506D01*
X110997674Y-50325000D01*
X111055537Y-50254494D01*
X111114502Y-50144180D01*
X111127753Y-50100497D01*
X111160000Y-50068250D01*
X111152944Y-50002838D01*
X111163072Y-49900000D01*
X111163072Y-49450000D01*
X111153223Y-49350000D01*
X111163072Y-49250000D01*
X111163072Y-48800000D01*
X111153223Y-48700000D01*
X111163072Y-48600000D01*
X111163072Y-48150000D01*
X111153223Y-48050000D01*
X111163072Y-47950000D01*
X111163072Y-47500000D01*
X111153223Y-47400000D01*
X111163072Y-47300000D01*
X111163072Y-46850000D01*
X111153223Y-46750000D01*
X111163072Y-46650000D01*
X111163072Y-46200000D01*
X111153223Y-46100000D01*
X111163072Y-46000000D01*
X111163072Y-45550000D01*
X111150812Y-45425518D01*
X111114502Y-45305820D01*
X111055537Y-45195506D01*
X110976185Y-45098815D01*
X110879494Y-45019463D01*
X110769180Y-44960498D01*
X110649482Y-44924188D01*
X110525000Y-44911928D01*
X108775000Y-44911928D01*
X108650518Y-44924188D01*
X108530820Y-44960498D01*
X108420506Y-45019463D01*
X108323815Y-45098815D01*
X108244463Y-45195506D01*
X108185498Y-45305820D01*
X108149188Y-45425518D01*
X108136928Y-45550000D01*
X108136928Y-46000000D01*
X108146777Y-46100000D01*
X108136928Y-46200000D01*
X108136928Y-46650000D01*
X108146777Y-46750000D01*
X108136928Y-46850000D01*
X108136928Y-47300000D01*
X108146777Y-47400000D01*
X108136928Y-47500000D01*
X108136928Y-47950000D01*
X108146777Y-48050000D01*
X108136928Y-48150000D01*
X108136928Y-48600000D01*
X108146777Y-48700000D01*
X108136928Y-48800000D01*
X108136928Y-49250000D01*
X108146777Y-49350000D01*
X108136928Y-49450000D01*
X108136928Y-49900000D01*
X108147056Y-50002838D01*
X108140000Y-50068250D01*
X108172247Y-50100497D01*
X108185498Y-50144180D01*
X108244463Y-50254494D01*
X108302326Y-50325000D01*
X108244463Y-50395506D01*
X108185498Y-50505820D01*
X108172247Y-50549503D01*
X108140000Y-50581750D01*
X108147056Y-50647162D01*
X108136928Y-50750000D01*
X108136928Y-50796957D01*
X108132245Y-50794454D01*
X107988984Y-50750997D01*
X107877331Y-50740000D01*
X107877320Y-50740000D01*
X107839998Y-50736324D01*
X107802676Y-50740000D01*
X101787322Y-50740000D01*
X101749999Y-50736324D01*
X101712676Y-50740000D01*
X101712667Y-50740000D01*
X101601014Y-50750997D01*
X101457753Y-50794454D01*
X101325724Y-50865026D01*
X101209999Y-50959999D01*
X101186201Y-50988997D01*
X100063270Y-52111928D01*
X97500000Y-52111928D01*
X97375518Y-52124188D01*
X97255820Y-52160498D01*
X97145506Y-52219463D01*
X97048815Y-52298815D01*
X96969463Y-52395506D01*
X96910498Y-52505820D01*
X96874188Y-52625518D01*
X96861928Y-52750000D01*
X96861928Y-55750000D01*
X96874188Y-55874482D01*
X96910498Y-55994180D01*
X96969463Y-56104494D01*
X97048815Y-56201185D01*
X97145506Y-56280537D01*
X97255820Y-56339502D01*
X97375518Y-56375812D01*
X97500000Y-56388072D01*
X100500000Y-56388072D01*
X100624482Y-56375812D01*
X100744180Y-56339502D01*
X100854494Y-56280537D01*
X100951185Y-56201185D01*
X101030537Y-56104494D01*
X101089502Y-55994180D01*
X101125812Y-55874482D01*
X101138072Y-55750000D01*
X101138072Y-55010000D01*
X101247699Y-55010000D01*
X102936928Y-56699230D01*
X102936928Y-57206250D01*
X102953872Y-57378285D01*
X103004053Y-57543709D01*
X103085542Y-57696164D01*
X103195208Y-57829792D01*
X103226188Y-57855217D01*
X103090226Y-57946063D01*
X102946063Y-58090226D01*
X102832795Y-58259744D01*
X102754774Y-58448102D01*
X102715000Y-58648061D01*
X102715000Y-58851939D01*
X102754774Y-59051898D01*
X102832795Y-59240256D01*
X102946063Y-59409774D01*
X103090226Y-59553937D01*
X103259744Y-59667205D01*
X103448102Y-59745226D01*
X103648061Y-59785000D01*
X103851939Y-59785000D01*
X104051898Y-59745226D01*
X104240256Y-59667205D01*
X104409774Y-59553937D01*
X104553937Y-59409774D01*
X104667205Y-59240256D01*
X104745226Y-59051898D01*
X104785000Y-58851939D01*
X104785000Y-58789802D01*
X105386019Y-58188784D01*
X105415011Y-58164991D01*
X105438805Y-58135998D01*
X105438809Y-58135994D01*
X105465343Y-58103662D01*
X105504774Y-58301898D01*
X105582795Y-58490256D01*
X105696063Y-58659774D01*
X105740001Y-58703712D01*
X105740000Y-59962677D01*
X105736324Y-60000000D01*
X105740000Y-60037322D01*
X105740000Y-60037332D01*
X105750997Y-60148985D01*
X105789537Y-60276035D01*
X105794454Y-60292246D01*
X105865026Y-60424276D01*
X105898448Y-60465000D01*
X105959999Y-60540001D01*
X105989003Y-60563804D01*
X107965000Y-62539802D01*
X107965000Y-62601939D01*
X108004774Y-62801898D01*
X108082795Y-62990256D01*
X108196063Y-63159774D01*
X108240001Y-63203712D01*
X108240000Y-67665867D01*
X108236324Y-67703190D01*
X108240000Y-67740512D01*
X108240000Y-67740522D01*
X108250997Y-67852175D01*
X108289061Y-67977658D01*
X108294454Y-67995436D01*
X108365026Y-68127466D01*
X108391541Y-68159774D01*
X108459999Y-68243191D01*
X108489003Y-68266994D01*
X115544538Y-75322530D01*
X115518992Y-75406745D01*
X115501928Y-75579999D01*
X115501928Y-76105001D01*
X115518992Y-76278255D01*
X115569528Y-76444851D01*
X115651595Y-76598387D01*
X115762038Y-76732962D01*
X115862001Y-76815000D01*
X95435000Y-76815000D01*
X95435000Y-73160000D01*
X96861928Y-73160000D01*
X96861928Y-76160000D01*
X96874188Y-76284482D01*
X96910498Y-76404180D01*
X96969463Y-76514494D01*
X97048815Y-76611185D01*
X97145506Y-76690537D01*
X97255820Y-76749502D01*
X97375518Y-76785812D01*
X97500000Y-76798072D01*
X100500000Y-76798072D01*
X100624482Y-76785812D01*
X100744180Y-76749502D01*
X100854494Y-76690537D01*
X100951185Y-76611185D01*
X101030537Y-76514494D01*
X101089502Y-76404180D01*
X101125812Y-76284482D01*
X101138072Y-76160000D01*
X101138072Y-73160000D01*
X101125812Y-73035518D01*
X101089502Y-72915820D01*
X101030537Y-72805506D01*
X100951185Y-72708815D01*
X100854494Y-72629463D01*
X100744180Y-72570498D01*
X100624482Y-72534188D01*
X100500000Y-72521928D01*
X97500000Y-72521928D01*
X97375518Y-72534188D01*
X97255820Y-72570498D01*
X97145506Y-72629463D01*
X97048815Y-72708815D01*
X96969463Y-72805506D01*
X96910498Y-72915820D01*
X96874188Y-73035518D01*
X96861928Y-73160000D01*
X95435000Y-73160000D01*
X95435000Y-69369721D01*
X96865000Y-69369721D01*
X96865000Y-69790279D01*
X96947047Y-70202756D01*
X97107988Y-70591302D01*
X97341637Y-70940983D01*
X97639017Y-71238363D01*
X97988698Y-71472012D01*
X98377244Y-71632953D01*
X98789721Y-71715000D01*
X99210279Y-71715000D01*
X99622756Y-71632953D01*
X100011302Y-71472012D01*
X100360983Y-71238363D01*
X100658363Y-70940983D01*
X100892012Y-70591302D01*
X101052953Y-70202756D01*
X101135000Y-69790279D01*
X101135000Y-69369721D01*
X101052953Y-68957244D01*
X100892012Y-68568698D01*
X100658363Y-68219017D01*
X100360983Y-67921637D01*
X100011302Y-67687988D01*
X99622756Y-67527047D01*
X99210279Y-67445000D01*
X98789721Y-67445000D01*
X98377244Y-67527047D01*
X97988698Y-67687988D01*
X97639017Y-67921637D01*
X97341637Y-68219017D01*
X97107988Y-68568698D01*
X96947047Y-68957244D01*
X96865000Y-69369721D01*
X95435000Y-69369721D01*
X95435000Y-65991653D01*
X97687952Y-65991653D01*
X97843962Y-66307214D01*
X98218745Y-66498020D01*
X98623551Y-66612044D01*
X99042824Y-66644902D01*
X99460451Y-66595334D01*
X99860383Y-66465243D01*
X100156038Y-66307214D01*
X100312048Y-65991653D01*
X99000000Y-64679605D01*
X97687952Y-65991653D01*
X95435000Y-65991653D01*
X95435000Y-64542824D01*
X96855098Y-64542824D01*
X96904666Y-64960451D01*
X97034757Y-65360383D01*
X97192786Y-65656038D01*
X97508347Y-65812048D01*
X98820395Y-64500000D01*
X99179605Y-64500000D01*
X100491653Y-65812048D01*
X100807214Y-65656038D01*
X100998020Y-65281255D01*
X101112044Y-64876449D01*
X101144902Y-64457176D01*
X101095334Y-64039549D01*
X100965243Y-63639617D01*
X100807214Y-63343962D01*
X100491653Y-63187952D01*
X99179605Y-64500000D01*
X98820395Y-64500000D01*
X97508347Y-63187952D01*
X97192786Y-63343962D01*
X97001980Y-63718745D01*
X96887956Y-64123551D01*
X96855098Y-64542824D01*
X95435000Y-64542824D01*
X95435000Y-63008347D01*
X97687952Y-63008347D01*
X99000000Y-64320395D01*
X100312048Y-63008347D01*
X100156038Y-62692786D01*
X99781255Y-62501980D01*
X99376449Y-62387956D01*
X98957176Y-62355098D01*
X98539549Y-62404666D01*
X98139617Y-62534757D01*
X97843962Y-62692786D01*
X97687952Y-63008347D01*
X95435000Y-63008347D01*
X95435000Y-59768129D01*
X95490829Y-59872578D01*
X95635788Y-60049212D01*
X95812421Y-60194171D01*
X96013940Y-60301885D01*
X96232600Y-60368215D01*
X96460000Y-60390612D01*
X96687399Y-60368215D01*
X96906059Y-60301885D01*
X97095000Y-60200894D01*
X97283940Y-60301885D01*
X97502600Y-60368215D01*
X97730000Y-60390612D01*
X97957399Y-60368215D01*
X98166098Y-60304907D01*
X98230820Y-60339502D01*
X98350518Y-60375812D01*
X98475000Y-60388072D01*
X98714250Y-60385000D01*
X98873000Y-60226250D01*
X98873000Y-59453109D01*
X98873215Y-59452400D01*
X98890000Y-59281979D01*
X98890000Y-59127000D01*
X99127000Y-59127000D01*
X99127000Y-60226250D01*
X99285750Y-60385000D01*
X99525000Y-60388072D01*
X99649482Y-60375812D01*
X99769180Y-60339502D01*
X99879494Y-60280537D01*
X99976185Y-60201185D01*
X100055537Y-60104494D01*
X100114502Y-59994180D01*
X100150812Y-59874482D01*
X100163072Y-59750000D01*
X100160000Y-59285750D01*
X100001250Y-59127000D01*
X99127000Y-59127000D01*
X98890000Y-59127000D01*
X98890000Y-58718022D01*
X98873215Y-58547601D01*
X98873000Y-58546892D01*
X98873000Y-57773750D01*
X99127000Y-57773750D01*
X99127000Y-58873000D01*
X100001250Y-58873000D01*
X100160000Y-58714250D01*
X100163072Y-58250000D01*
X100150812Y-58125518D01*
X100114502Y-58005820D01*
X100055537Y-57895506D01*
X99976185Y-57798815D01*
X99879494Y-57719463D01*
X99769180Y-57660498D01*
X99649482Y-57624188D01*
X99525000Y-57611928D01*
X99285750Y-57615000D01*
X99127000Y-57773750D01*
X98873000Y-57773750D01*
X98714250Y-57615000D01*
X98475000Y-57611928D01*
X98350518Y-57624188D01*
X98230820Y-57660498D01*
X98166098Y-57695093D01*
X97957400Y-57631785D01*
X97730000Y-57609388D01*
X97502601Y-57631785D01*
X97283941Y-57698115D01*
X97095001Y-57799106D01*
X96906060Y-57698115D01*
X96687400Y-57631785D01*
X96460000Y-57609388D01*
X96232601Y-57631785D01*
X96013941Y-57698115D01*
X95812422Y-57805829D01*
X95635789Y-57950788D01*
X95490830Y-58127421D01*
X95435000Y-58231871D01*
X95435000Y-48959721D01*
X96865000Y-48959721D01*
X96865000Y-49380279D01*
X96947047Y-49792756D01*
X97107988Y-50181302D01*
X97341637Y-50530983D01*
X97639017Y-50828363D01*
X97988698Y-51062012D01*
X98377244Y-51222953D01*
X98789721Y-51305000D01*
X99210279Y-51305000D01*
X99622756Y-51222953D01*
X100011302Y-51062012D01*
X100360983Y-50828363D01*
X100658363Y-50530983D01*
X100892012Y-50181302D01*
X101052953Y-49792756D01*
X101135000Y-49380279D01*
X101135000Y-48959721D01*
X101052953Y-48547244D01*
X100892012Y-48158698D01*
X100658363Y-47809017D01*
X100360983Y-47511637D01*
X100011302Y-47277988D01*
X99622756Y-47117047D01*
X99210279Y-47035000D01*
X98789721Y-47035000D01*
X98377244Y-47117047D01*
X97988698Y-47277988D01*
X97639017Y-47511637D01*
X97341637Y-47809017D01*
X97107988Y-48158698D01*
X96947047Y-48547244D01*
X96865000Y-48959721D01*
X95435000Y-48959721D01*
X95435000Y-45581653D01*
X97687952Y-45581653D01*
X97843962Y-45897214D01*
X98218745Y-46088020D01*
X98623551Y-46202044D01*
X99042824Y-46234902D01*
X99460451Y-46185334D01*
X99860383Y-46055243D01*
X100156038Y-45897214D01*
X100312048Y-45581653D01*
X99000000Y-44269605D01*
X97687952Y-45581653D01*
X95435000Y-45581653D01*
X95435000Y-44132824D01*
X96855098Y-44132824D01*
X96904666Y-44550451D01*
X97034757Y-44950383D01*
X97192786Y-45246038D01*
X97508347Y-45402048D01*
X98820395Y-44090000D01*
X99179605Y-44090000D01*
X100491653Y-45402048D01*
X100807214Y-45246038D01*
X100998020Y-44871255D01*
X101112044Y-44466449D01*
X101144902Y-44047176D01*
X101095334Y-43629549D01*
X100965243Y-43229617D01*
X100807214Y-42933962D01*
X100491653Y-42777952D01*
X99179605Y-44090000D01*
X98820395Y-44090000D01*
X97508347Y-42777952D01*
X97192786Y-42933962D01*
X97001980Y-43308745D01*
X96887956Y-43713551D01*
X96855098Y-44132824D01*
X95435000Y-44132824D01*
X95435000Y-42598347D01*
X97687952Y-42598347D01*
X99000000Y-43910395D01*
X100312048Y-42598347D01*
X100156038Y-42282786D01*
X99781255Y-42091980D01*
X99376449Y-41977956D01*
X98957176Y-41945098D01*
X98539549Y-41994666D01*
X98139617Y-42124757D01*
X97843962Y-42282786D01*
X97687952Y-42598347D01*
X95435000Y-42598347D01*
X95435000Y-39764531D01*
X104665074Y-39764531D01*
X104775921Y-40041714D01*
X105086840Y-40195089D01*
X105421705Y-40284860D01*
X105767650Y-40307576D01*
X106111380Y-40262366D01*
X106439685Y-40150966D01*
X106644079Y-40041714D01*
X106754926Y-39764531D01*
X109745074Y-39764531D01*
X109855921Y-40041714D01*
X110166840Y-40195089D01*
X110501705Y-40284860D01*
X110847650Y-40307576D01*
X111191380Y-40262366D01*
X111519685Y-40150966D01*
X111724079Y-40041714D01*
X111834926Y-39764531D01*
X110790000Y-38719605D01*
X109745074Y-39764531D01*
X106754926Y-39764531D01*
X105710000Y-38719605D01*
X104665074Y-39764531D01*
X95435000Y-39764531D01*
X95435000Y-38597650D01*
X103942424Y-38597650D01*
X103987634Y-38941380D01*
X104099034Y-39269685D01*
X104208286Y-39474079D01*
X104485469Y-39584926D01*
X105530395Y-38540000D01*
X105889605Y-38540000D01*
X106934531Y-39584926D01*
X107211714Y-39474079D01*
X107365089Y-39163160D01*
X107454860Y-38828295D01*
X107470004Y-38597650D01*
X109022424Y-38597650D01*
X109067634Y-38941380D01*
X109179034Y-39269685D01*
X109288286Y-39474079D01*
X109565469Y-39584926D01*
X110610395Y-38540000D01*
X110969605Y-38540000D01*
X112014531Y-39584926D01*
X112291714Y-39474079D01*
X112445089Y-39163160D01*
X112534860Y-38828295D01*
X112557576Y-38482350D01*
X112512366Y-38138620D01*
X112400966Y-37810315D01*
X112291714Y-37605921D01*
X112014531Y-37495074D01*
X110969605Y-38540000D01*
X110610395Y-38540000D01*
X109565469Y-37495074D01*
X109288286Y-37605921D01*
X109134911Y-37916840D01*
X109045140Y-38251705D01*
X109022424Y-38597650D01*
X107470004Y-38597650D01*
X107477576Y-38482350D01*
X107432366Y-38138620D01*
X107320966Y-37810315D01*
X107211714Y-37605921D01*
X106934531Y-37495074D01*
X105889605Y-38540000D01*
X105530395Y-38540000D01*
X104485469Y-37495074D01*
X104208286Y-37605921D01*
X104054911Y-37916840D01*
X103965140Y-38251705D01*
X103942424Y-38597650D01*
X95435000Y-38597650D01*
X95435000Y-37315469D01*
X104665074Y-37315469D01*
X105710000Y-38360395D01*
X106754926Y-37315469D01*
X106644079Y-37038286D01*
X106333160Y-36884911D01*
X105998295Y-36795140D01*
X105652350Y-36772424D01*
X105308620Y-36817634D01*
X104980315Y-36929034D01*
X104775921Y-37038286D01*
X104665074Y-37315469D01*
X95435000Y-37315469D01*
X95435000Y-35826655D01*
X106490000Y-35826655D01*
X106490000Y-36173345D01*
X106557636Y-36513373D01*
X106690308Y-36833673D01*
X106882919Y-37121935D01*
X107128065Y-37367081D01*
X107416327Y-37559692D01*
X107736627Y-37692364D01*
X108076655Y-37760000D01*
X108423345Y-37760000D01*
X108763373Y-37692364D01*
X109083673Y-37559692D01*
X109371935Y-37367081D01*
X109423547Y-37315469D01*
X109745074Y-37315469D01*
X110790000Y-38360395D01*
X111834926Y-37315469D01*
X111724079Y-37038286D01*
X111413160Y-36884911D01*
X111078295Y-36795140D01*
X110732350Y-36772424D01*
X110388620Y-36817634D01*
X110060315Y-36929034D01*
X109855921Y-37038286D01*
X109745074Y-37315469D01*
X109423547Y-37315469D01*
X109617081Y-37121935D01*
X109809692Y-36833673D01*
X109942364Y-36513373D01*
X110010000Y-36173345D01*
X110010000Y-35826655D01*
X109942364Y-35486627D01*
X109809692Y-35166327D01*
X109617081Y-34878065D01*
X109423547Y-34684531D01*
X109745074Y-34684531D01*
X109855921Y-34961714D01*
X110166840Y-35115089D01*
X110501705Y-35204860D01*
X110847650Y-35227576D01*
X111191380Y-35182366D01*
X111519685Y-35070966D01*
X111724079Y-34961714D01*
X111834926Y-34684531D01*
X110790000Y-33639605D01*
X109745074Y-34684531D01*
X109423547Y-34684531D01*
X109371935Y-34632919D01*
X109083673Y-34440308D01*
X108763373Y-34307636D01*
X108423345Y-34240000D01*
X108076655Y-34240000D01*
X107736627Y-34307636D01*
X107416327Y-34440308D01*
X107128065Y-34632919D01*
X106882919Y-34878065D01*
X106690308Y-35166327D01*
X106557636Y-35486627D01*
X106490000Y-35826655D01*
X95435000Y-35826655D01*
X95435000Y-34684531D01*
X104665074Y-34684531D01*
X104775921Y-34961714D01*
X105086840Y-35115089D01*
X105421705Y-35204860D01*
X105767650Y-35227576D01*
X106111380Y-35182366D01*
X106439685Y-35070966D01*
X106644079Y-34961714D01*
X106754926Y-34684531D01*
X105710000Y-33639605D01*
X104665074Y-34684531D01*
X95435000Y-34684531D01*
X95435000Y-32435000D01*
X104435642Y-32435000D01*
X104208286Y-32525921D01*
G37*
%TD.AperFunction*%
D24*
X107479528Y-57564850D02*
X107561595Y-57718386D01*
X107672038Y-57852962D01*
X107806614Y-57963405D01*
X107960150Y-58045472D01*
X108082909Y-58082710D01*
X112705599Y-62705401D01*
X112729397Y-62734399D01*
X112845122Y-62829372D01*
X112977151Y-62899944D01*
X113120412Y-62943401D01*
X113232065Y-62954398D01*
X113232073Y-62954398D01*
X113269398Y-62958074D01*
X113306723Y-62954398D01*
X114220256Y-62954398D01*
X114257578Y-62958074D01*
X114294900Y-62954398D01*
X114294911Y-62954398D01*
X114406564Y-62943401D01*
X114549825Y-62899944D01*
X114681854Y-62829372D01*
X114705406Y-62810043D01*
X116073513Y-62810043D01*
X116765001Y-63501532D01*
X116765001Y-63563669D01*
X116804775Y-63763628D01*
X116882796Y-63951986D01*
X116996064Y-64121504D01*
X117140227Y-64265667D01*
X117309745Y-64378935D01*
X117451988Y-64437854D01*
X117437147Y-64512467D01*
X117437147Y-64716345D01*
X117476921Y-64916304D01*
X117554942Y-65104662D01*
X117668210Y-65274180D01*
X117712148Y-65318118D01*
X117712147Y-70242719D01*
X117708471Y-70280042D01*
X117712147Y-70317364D01*
X117712147Y-70317374D01*
X117723144Y-70429027D01*
X117766601Y-70572288D01*
X117837173Y-70704318D01*
X117866419Y-70739954D01*
X117932146Y-70820043D01*
X117961150Y-70843846D01*
X118932059Y-71814756D01*
X118932059Y-71876893D01*
X118971833Y-72076852D01*
X119049854Y-72265210D01*
X119163122Y-72434728D01*
X119307285Y-72578891D01*
X119476803Y-72692159D01*
X119665161Y-72770180D01*
X119865120Y-72809954D01*
X120068998Y-72809954D01*
X120268957Y-72770180D01*
X120457315Y-72692159D01*
X120626833Y-72578891D01*
X120770996Y-72434728D01*
X120884264Y-72265210D01*
X120962285Y-72076852D01*
X121002059Y-71876893D01*
X121002059Y-71673015D01*
X120962285Y-71473056D01*
X120884264Y-71284698D01*
X120770996Y-71115180D01*
X120626833Y-70971017D01*
X120457315Y-70857749D01*
X120268957Y-70779728D01*
X120068998Y-70739954D01*
X120006861Y-70739954D01*
X119232147Y-69965241D01*
X119232147Y-65665215D01*
X119265641Y-65679089D01*
X119465600Y-65718863D01*
X119539990Y-65718863D01*
X119539989Y-68287982D01*
X119536313Y-68325305D01*
X119539989Y-68362627D01*
X119539989Y-68362637D01*
X119550986Y-68474290D01*
X119569102Y-68534010D01*
X119594443Y-68617551D01*
X119665015Y-68749581D01*
X119677671Y-68765002D01*
X119759988Y-68865306D01*
X119788991Y-68889108D01*
X119952342Y-69052459D01*
X119952342Y-69114597D01*
X119992116Y-69314556D01*
X120070137Y-69502914D01*
X120183405Y-69672432D01*
X120327568Y-69816595D01*
X120497086Y-69929863D01*
X120685444Y-70007884D01*
X120885403Y-70047658D01*
X121089281Y-70047658D01*
X121289240Y-70007884D01*
X121477598Y-69929863D01*
X121503145Y-69912793D01*
X121509747Y-69917205D01*
X121698105Y-69995226D01*
X121898064Y-70035000D01*
X122101942Y-70035000D01*
X122301901Y-69995226D01*
X122490259Y-69917205D01*
X122659777Y-69803937D01*
X122803940Y-69659774D01*
X122917208Y-69490256D01*
X122995229Y-69301898D01*
X123035003Y-69101939D01*
X123035003Y-68985001D01*
X123432235Y-68985001D01*
X124225136Y-69777903D01*
X124225136Y-69840040D01*
X124264910Y-70039999D01*
X124342931Y-70228357D01*
X124456199Y-70397875D01*
X124600362Y-70542038D01*
X124769880Y-70655306D01*
X124958238Y-70733327D01*
X125158197Y-70773101D01*
X125362075Y-70773101D01*
X125562034Y-70733327D01*
X125750392Y-70655306D01*
X125919910Y-70542038D01*
X126064073Y-70397875D01*
X126177341Y-70228357D01*
X126225813Y-70111337D01*
X126475479Y-70361003D01*
X126499277Y-70390001D01*
X126615002Y-70484974D01*
X126747031Y-70555546D01*
X126890292Y-70599003D01*
X127001945Y-70610000D01*
X127001954Y-70610000D01*
X127039277Y-70613676D01*
X127076600Y-70610000D01*
X128261822Y-70610000D01*
X128283201Y-70641997D01*
X125719851Y-73205348D01*
X125690537Y-73150506D01*
X125611185Y-73053815D01*
X125514494Y-72974463D01*
X125404180Y-72915498D01*
X125284482Y-72879188D01*
X125160000Y-72866928D01*
X124745750Y-72870000D01*
X124587000Y-73028750D01*
X124587000Y-73890500D01*
X124607000Y-73890500D01*
X124607000Y-74095010D01*
X116693000Y-74095010D01*
X116693000Y-73890500D01*
X116713000Y-73890500D01*
X116713000Y-73028750D01*
X116554250Y-72870000D01*
X116140000Y-72866928D01*
X116015518Y-72879188D01*
X115895820Y-72915498D01*
X115785506Y-72974463D01*
X115688815Y-73053815D01*
X115609463Y-73150506D01*
X115579038Y-73207426D01*
X113361459Y-70989847D01*
X115567383Y-70989847D01*
X115567383Y-71193725D01*
X115607157Y-71393684D01*
X115685178Y-71582042D01*
X115798446Y-71751560D01*
X115942609Y-71895723D01*
X116112127Y-72008991D01*
X116300485Y-72087012D01*
X116500444Y-72126786D01*
X116562582Y-72126786D01*
X116965000Y-72529205D01*
X116965000Y-72692001D01*
X117004774Y-72891960D01*
X117033775Y-72961975D01*
X116967000Y-73028750D01*
X116967000Y-73890500D01*
X118016250Y-73890500D01*
X118110000Y-73796750D01*
X118203750Y-73890500D01*
X119253000Y-73890500D01*
X119253000Y-73028750D01*
X119507000Y-73028750D01*
X119507000Y-73890500D01*
X120556250Y-73890500D01*
X120650000Y-73796750D01*
X120743750Y-73890500D01*
X121793000Y-73890500D01*
X121793000Y-73028750D01*
X122047000Y-73028750D01*
X122047000Y-73890500D01*
X123096250Y-73890500D01*
X123190000Y-73796750D01*
X123283750Y-73890500D01*
X124333000Y-73890500D01*
X124333000Y-73028750D01*
X124174250Y-72870000D01*
X123760000Y-72866928D01*
X123635518Y-72879188D01*
X123515820Y-72915498D01*
X123405506Y-72974463D01*
X123308815Y-73053815D01*
X123229463Y-73150506D01*
X123190000Y-73224335D01*
X123150537Y-73150506D01*
X123071185Y-73053815D01*
X122974494Y-72974463D01*
X122864180Y-72915498D01*
X122744482Y-72879188D01*
X122620000Y-72866928D01*
X122205750Y-72870000D01*
X122047000Y-73028750D01*
X121793000Y-73028750D01*
X121634250Y-72870000D01*
X121220000Y-72866928D01*
X121095518Y-72879188D01*
X120975820Y-72915498D01*
X120865506Y-72974463D01*
X120768815Y-73053815D01*
X120689463Y-73150506D01*
X120650000Y-73224335D01*
X120610537Y-73150506D01*
X120531185Y-73053815D01*
X120434494Y-72974463D01*
X120324180Y-72915498D01*
X120204482Y-72879188D01*
X120080000Y-72866928D01*
X119665750Y-72870000D01*
X119507000Y-73028750D01*
X119253000Y-73028750D01*
X119094250Y-72870000D01*
X118999734Y-72869299D01*
X119035000Y-72692001D01*
X119035000Y-72488123D01*
X118995226Y-72288164D01*
X118917205Y-72099806D01*
X118803937Y-71930288D01*
X118659774Y-71786125D01*
X118490256Y-71672857D01*
X118301898Y-71594836D01*
X118150026Y-71564627D01*
X117637383Y-71051985D01*
X117637383Y-70989847D01*
X117597609Y-70789888D01*
X117519588Y-70601530D01*
X117406320Y-70432012D01*
X117262157Y-70287849D01*
X117092639Y-70174581D01*
X116904281Y-70096560D01*
X116704322Y-70056786D01*
X116500444Y-70056786D01*
X116300485Y-70096560D01*
X116112127Y-70174581D01*
X115942609Y-70287849D01*
X115798446Y-70432012D01*
X115685178Y-70601530D01*
X115607157Y-70789888D01*
X115567383Y-70989847D01*
X113361459Y-70989847D01*
X109760000Y-67388389D01*
X109760000Y-64295000D01*
X110941928Y-64295000D01*
X110941928Y-65245000D01*
X110958992Y-65418254D01*
X111009528Y-65584850D01*
X111091595Y-65738386D01*
X111202038Y-65872962D01*
X111336614Y-65983405D01*
X111490150Y-66065472D01*
X111656746Y-66116008D01*
X111830000Y-66133072D01*
X112330000Y-66133072D01*
X112503254Y-66116008D01*
X112532373Y-66107175D01*
X112965000Y-66539802D01*
X112965000Y-66601939D01*
X113004774Y-66801898D01*
X113082795Y-66990256D01*
X113196063Y-67159774D01*
X113340226Y-67303937D01*
X113509744Y-67417205D01*
X113698102Y-67495226D01*
X113898061Y-67535000D01*
X114101939Y-67535000D01*
X114301898Y-67495226D01*
X114490256Y-67417205D01*
X114659774Y-67303937D01*
X114803937Y-67159774D01*
X114917205Y-66990256D01*
X114995226Y-66801898D01*
X115035000Y-66601939D01*
X115035000Y-66398061D01*
X114995226Y-66198102D01*
X114917205Y-66009744D01*
X114894728Y-65976105D01*
X114931185Y-65946185D01*
X115010537Y-65849494D01*
X115069502Y-65739180D01*
X115105812Y-65619482D01*
X115118072Y-65495000D01*
X115115000Y-65055750D01*
X114956250Y-64897000D01*
X114107000Y-64897000D01*
X114107000Y-64917000D01*
X113853000Y-64917000D01*
X113853000Y-64897000D01*
X113833000Y-64897000D01*
X113833000Y-64643000D01*
X113853000Y-64643000D01*
X113853000Y-63568750D01*
X114107000Y-63568750D01*
X114107000Y-64643000D01*
X114956250Y-64643000D01*
X115115000Y-64484250D01*
X115118072Y-64045000D01*
X115105812Y-63920518D01*
X115069502Y-63800820D01*
X115010537Y-63690506D01*
X114931185Y-63593815D01*
X114834494Y-63514463D01*
X114724180Y-63455498D01*
X114604482Y-63419188D01*
X114480000Y-63406928D01*
X114265750Y-63410000D01*
X114107000Y-63568750D01*
X113853000Y-63568750D01*
X113694250Y-63410000D01*
X113480000Y-63406928D01*
X113355518Y-63419188D01*
X113235820Y-63455498D01*
X113125506Y-63514463D01*
X113028815Y-63593815D01*
X112963342Y-63673594D01*
X112957962Y-63667038D01*
X112823386Y-63556595D01*
X112669850Y-63474528D01*
X112503254Y-63423992D01*
X112330000Y-63406928D01*
X111830000Y-63406928D01*
X111656746Y-63423992D01*
X111490150Y-63474528D01*
X111336614Y-63556595D01*
X111202038Y-63667038D01*
X111091595Y-63801614D01*
X111009528Y-63955150D01*
X110958992Y-64121746D01*
X110941928Y-64295000D01*
X109760000Y-64295000D01*
X109760000Y-63203711D01*
X109803937Y-63159774D01*
X109917205Y-62990256D01*
X109995226Y-62801898D01*
X110035000Y-62601939D01*
X110035000Y-62398061D01*
X109995226Y-62198102D01*
X109917205Y-62009744D01*
X109803937Y-61840226D01*
X109659774Y-61696063D01*
X109490256Y-61582795D01*
X109301898Y-61504774D01*
X109101939Y-61465000D01*
X109039802Y-61465000D01*
X107260000Y-59685199D01*
X107260000Y-58703711D01*
X107303937Y-58659774D01*
X107417205Y-58490256D01*
X107495226Y-58301898D01*
X107535000Y-58101939D01*
X107535000Y-57898061D01*
X107495226Y-57698102D01*
X107417311Y-57510000D01*
X107462890Y-57510000D01*
X107479528Y-57564850D01*
%TA.AperFunction,Conductor*%
D25*
G36*
X107479528Y-57564850D02*
G01*
X107561595Y-57718386D01*
X107672038Y-57852962D01*
X107806614Y-57963405D01*
X107960150Y-58045472D01*
X108082909Y-58082710D01*
X112705599Y-62705401D01*
X112729397Y-62734399D01*
X112845122Y-62829372D01*
X112977151Y-62899944D01*
X113120412Y-62943401D01*
X113232065Y-62954398D01*
X113232073Y-62954398D01*
X113269398Y-62958074D01*
X113306723Y-62954398D01*
X114220256Y-62954398D01*
X114257578Y-62958074D01*
X114294900Y-62954398D01*
X114294911Y-62954398D01*
X114406564Y-62943401D01*
X114549825Y-62899944D01*
X114681854Y-62829372D01*
X114705406Y-62810043D01*
X116073513Y-62810043D01*
X116765001Y-63501532D01*
X116765001Y-63563669D01*
X116804775Y-63763628D01*
X116882796Y-63951986D01*
X116996064Y-64121504D01*
X117140227Y-64265667D01*
X117309745Y-64378935D01*
X117451988Y-64437854D01*
X117437147Y-64512467D01*
X117437147Y-64716345D01*
X117476921Y-64916304D01*
X117554942Y-65104662D01*
X117668210Y-65274180D01*
X117712148Y-65318118D01*
X117712147Y-70242719D01*
X117708471Y-70280042D01*
X117712147Y-70317364D01*
X117712147Y-70317374D01*
X117723144Y-70429027D01*
X117766601Y-70572288D01*
X117837173Y-70704318D01*
X117866419Y-70739954D01*
X117932146Y-70820043D01*
X117961150Y-70843846D01*
X118932059Y-71814756D01*
X118932059Y-71876893D01*
X118971833Y-72076852D01*
X119049854Y-72265210D01*
X119163122Y-72434728D01*
X119307285Y-72578891D01*
X119476803Y-72692159D01*
X119665161Y-72770180D01*
X119865120Y-72809954D01*
X120068998Y-72809954D01*
X120268957Y-72770180D01*
X120457315Y-72692159D01*
X120626833Y-72578891D01*
X120770996Y-72434728D01*
X120884264Y-72265210D01*
X120962285Y-72076852D01*
X121002059Y-71876893D01*
X121002059Y-71673015D01*
X120962285Y-71473056D01*
X120884264Y-71284698D01*
X120770996Y-71115180D01*
X120626833Y-70971017D01*
X120457315Y-70857749D01*
X120268957Y-70779728D01*
X120068998Y-70739954D01*
X120006861Y-70739954D01*
X119232147Y-69965241D01*
X119232147Y-65665215D01*
X119265641Y-65679089D01*
X119465600Y-65718863D01*
X119539990Y-65718863D01*
X119539989Y-68287982D01*
X119536313Y-68325305D01*
X119539989Y-68362627D01*
X119539989Y-68362637D01*
X119550986Y-68474290D01*
X119569102Y-68534010D01*
X119594443Y-68617551D01*
X119665015Y-68749581D01*
X119677671Y-68765002D01*
X119759988Y-68865306D01*
X119788991Y-68889108D01*
X119952342Y-69052459D01*
X119952342Y-69114597D01*
X119992116Y-69314556D01*
X120070137Y-69502914D01*
X120183405Y-69672432D01*
X120327568Y-69816595D01*
X120497086Y-69929863D01*
X120685444Y-70007884D01*
X120885403Y-70047658D01*
X121089281Y-70047658D01*
X121289240Y-70007884D01*
X121477598Y-69929863D01*
X121503145Y-69912793D01*
X121509747Y-69917205D01*
X121698105Y-69995226D01*
X121898064Y-70035000D01*
X122101942Y-70035000D01*
X122301901Y-69995226D01*
X122490259Y-69917205D01*
X122659777Y-69803937D01*
X122803940Y-69659774D01*
X122917208Y-69490256D01*
X122995229Y-69301898D01*
X123035003Y-69101939D01*
X123035003Y-68985001D01*
X123432235Y-68985001D01*
X124225136Y-69777903D01*
X124225136Y-69840040D01*
X124264910Y-70039999D01*
X124342931Y-70228357D01*
X124456199Y-70397875D01*
X124600362Y-70542038D01*
X124769880Y-70655306D01*
X124958238Y-70733327D01*
X125158197Y-70773101D01*
X125362075Y-70773101D01*
X125562034Y-70733327D01*
X125750392Y-70655306D01*
X125919910Y-70542038D01*
X126064073Y-70397875D01*
X126177341Y-70228357D01*
X126225813Y-70111337D01*
X126475479Y-70361003D01*
X126499277Y-70390001D01*
X126615002Y-70484974D01*
X126747031Y-70555546D01*
X126890292Y-70599003D01*
X127001945Y-70610000D01*
X127001954Y-70610000D01*
X127039277Y-70613676D01*
X127076600Y-70610000D01*
X128261822Y-70610000D01*
X128283201Y-70641997D01*
X125719851Y-73205348D01*
X125690537Y-73150506D01*
X125611185Y-73053815D01*
X125514494Y-72974463D01*
X125404180Y-72915498D01*
X125284482Y-72879188D01*
X125160000Y-72866928D01*
X124745750Y-72870000D01*
X124587000Y-73028750D01*
X124587000Y-73890500D01*
X124607000Y-73890500D01*
X124607000Y-74095010D01*
X116693000Y-74095010D01*
X116693000Y-73890500D01*
X116713000Y-73890500D01*
X116713000Y-73028750D01*
X116554250Y-72870000D01*
X116140000Y-72866928D01*
X116015518Y-72879188D01*
X115895820Y-72915498D01*
X115785506Y-72974463D01*
X115688815Y-73053815D01*
X115609463Y-73150506D01*
X115579038Y-73207426D01*
X113361459Y-70989847D01*
X115567383Y-70989847D01*
X115567383Y-71193725D01*
X115607157Y-71393684D01*
X115685178Y-71582042D01*
X115798446Y-71751560D01*
X115942609Y-71895723D01*
X116112127Y-72008991D01*
X116300485Y-72087012D01*
X116500444Y-72126786D01*
X116562582Y-72126786D01*
X116965000Y-72529205D01*
X116965000Y-72692001D01*
X117004774Y-72891960D01*
X117033775Y-72961975D01*
X116967000Y-73028750D01*
X116967000Y-73890500D01*
X118016250Y-73890500D01*
X118110000Y-73796750D01*
X118203750Y-73890500D01*
X119253000Y-73890500D01*
X119253000Y-73028750D01*
X119507000Y-73028750D01*
X119507000Y-73890500D01*
X120556250Y-73890500D01*
X120650000Y-73796750D01*
X120743750Y-73890500D01*
X121793000Y-73890500D01*
X121793000Y-73028750D01*
X122047000Y-73028750D01*
X122047000Y-73890500D01*
X123096250Y-73890500D01*
X123190000Y-73796750D01*
X123283750Y-73890500D01*
X124333000Y-73890500D01*
X124333000Y-73028750D01*
X124174250Y-72870000D01*
X123760000Y-72866928D01*
X123635518Y-72879188D01*
X123515820Y-72915498D01*
X123405506Y-72974463D01*
X123308815Y-73053815D01*
X123229463Y-73150506D01*
X123190000Y-73224335D01*
X123150537Y-73150506D01*
X123071185Y-73053815D01*
X122974494Y-72974463D01*
X122864180Y-72915498D01*
X122744482Y-72879188D01*
X122620000Y-72866928D01*
X122205750Y-72870000D01*
X122047000Y-73028750D01*
X121793000Y-73028750D01*
X121634250Y-72870000D01*
X121220000Y-72866928D01*
X121095518Y-72879188D01*
X120975820Y-72915498D01*
X120865506Y-72974463D01*
X120768815Y-73053815D01*
X120689463Y-73150506D01*
X120650000Y-73224335D01*
X120610537Y-73150506D01*
X120531185Y-73053815D01*
X120434494Y-72974463D01*
X120324180Y-72915498D01*
X120204482Y-72879188D01*
X120080000Y-72866928D01*
X119665750Y-72870000D01*
X119507000Y-73028750D01*
X119253000Y-73028750D01*
X119094250Y-72870000D01*
X118999734Y-72869299D01*
X119035000Y-72692001D01*
X119035000Y-72488123D01*
X118995226Y-72288164D01*
X118917205Y-72099806D01*
X118803937Y-71930288D01*
X118659774Y-71786125D01*
X118490256Y-71672857D01*
X118301898Y-71594836D01*
X118150026Y-71564627D01*
X117637383Y-71051985D01*
X117637383Y-70989847D01*
X117597609Y-70789888D01*
X117519588Y-70601530D01*
X117406320Y-70432012D01*
X117262157Y-70287849D01*
X117092639Y-70174581D01*
X116904281Y-70096560D01*
X116704322Y-70056786D01*
X116500444Y-70056786D01*
X116300485Y-70096560D01*
X116112127Y-70174581D01*
X115942609Y-70287849D01*
X115798446Y-70432012D01*
X115685178Y-70601530D01*
X115607157Y-70789888D01*
X115567383Y-70989847D01*
X113361459Y-70989847D01*
X109760000Y-67388389D01*
X109760000Y-64295000D01*
X110941928Y-64295000D01*
X110941928Y-65245000D01*
X110958992Y-65418254D01*
X111009528Y-65584850D01*
X111091595Y-65738386D01*
X111202038Y-65872962D01*
X111336614Y-65983405D01*
X111490150Y-66065472D01*
X111656746Y-66116008D01*
X111830000Y-66133072D01*
X112330000Y-66133072D01*
X112503254Y-66116008D01*
X112532373Y-66107175D01*
X112965000Y-66539802D01*
X112965000Y-66601939D01*
X113004774Y-66801898D01*
X113082795Y-66990256D01*
X113196063Y-67159774D01*
X113340226Y-67303937D01*
X113509744Y-67417205D01*
X113698102Y-67495226D01*
X113898061Y-67535000D01*
X114101939Y-67535000D01*
X114301898Y-67495226D01*
X114490256Y-67417205D01*
X114659774Y-67303937D01*
X114803937Y-67159774D01*
X114917205Y-66990256D01*
X114995226Y-66801898D01*
X115035000Y-66601939D01*
X115035000Y-66398061D01*
X114995226Y-66198102D01*
X114917205Y-66009744D01*
X114894728Y-65976105D01*
X114931185Y-65946185D01*
X115010537Y-65849494D01*
X115069502Y-65739180D01*
X115105812Y-65619482D01*
X115118072Y-65495000D01*
X115115000Y-65055750D01*
X114956250Y-64897000D01*
X114107000Y-64897000D01*
X114107000Y-64917000D01*
X113853000Y-64917000D01*
X113853000Y-64897000D01*
X113833000Y-64897000D01*
X113833000Y-64643000D01*
X113853000Y-64643000D01*
X113853000Y-63568750D01*
X114107000Y-63568750D01*
X114107000Y-64643000D01*
X114956250Y-64643000D01*
X115115000Y-64484250D01*
X115118072Y-64045000D01*
X115105812Y-63920518D01*
X115069502Y-63800820D01*
X115010537Y-63690506D01*
X114931185Y-63593815D01*
X114834494Y-63514463D01*
X114724180Y-63455498D01*
X114604482Y-63419188D01*
X114480000Y-63406928D01*
X114265750Y-63410000D01*
X114107000Y-63568750D01*
X113853000Y-63568750D01*
X113694250Y-63410000D01*
X113480000Y-63406928D01*
X113355518Y-63419188D01*
X113235820Y-63455498D01*
X113125506Y-63514463D01*
X113028815Y-63593815D01*
X112963342Y-63673594D01*
X112957962Y-63667038D01*
X112823386Y-63556595D01*
X112669850Y-63474528D01*
X112503254Y-63423992D01*
X112330000Y-63406928D01*
X111830000Y-63406928D01*
X111656746Y-63423992D01*
X111490150Y-63474528D01*
X111336614Y-63556595D01*
X111202038Y-63667038D01*
X111091595Y-63801614D01*
X111009528Y-63955150D01*
X110958992Y-64121746D01*
X110941928Y-64295000D01*
X109760000Y-64295000D01*
X109760000Y-63203711D01*
X109803937Y-63159774D01*
X109917205Y-62990256D01*
X109995226Y-62801898D01*
X110035000Y-62601939D01*
X110035000Y-62398061D01*
X109995226Y-62198102D01*
X109917205Y-62009744D01*
X109803937Y-61840226D01*
X109659774Y-61696063D01*
X109490256Y-61582795D01*
X109301898Y-61504774D01*
X109101939Y-61465000D01*
X109039802Y-61465000D01*
X107260000Y-59685199D01*
X107260000Y-58703711D01*
X107303937Y-58659774D01*
X107417205Y-58490256D01*
X107495226Y-58301898D01*
X107535000Y-58101939D01*
X107535000Y-57898061D01*
X107495226Y-57698102D01*
X107417311Y-57510000D01*
X107462890Y-57510000D01*
X107479528Y-57564850D01*
G37*
%TD.AperFunction*%
D24*
X119740000Y-55412677D02*
X119736324Y-55450000D01*
X119740000Y-55487322D01*
X119740000Y-55487332D01*
X119750997Y-55598985D01*
X119789768Y-55726798D01*
X119794454Y-55742246D01*
X119865026Y-55874276D01*
X119886964Y-55901007D01*
X119959999Y-55990001D01*
X119989003Y-56013804D01*
X120026655Y-56051456D01*
X120004188Y-56125518D01*
X119991928Y-56250000D01*
X119991928Y-57072678D01*
X119914250Y-56995000D01*
X119766103Y-56992131D01*
X119641351Y-57001246D01*
X119520775Y-57034524D01*
X119409008Y-57090685D01*
X119310345Y-57167572D01*
X119228578Y-57262230D01*
X119166848Y-57371021D01*
X119127529Y-57489765D01*
X119115000Y-57591250D01*
X119255182Y-57731432D01*
X119228578Y-57762230D01*
X119185368Y-57838382D01*
X119115000Y-57908750D01*
X119126265Y-58000000D01*
X119115000Y-58091250D01*
X119185368Y-58161618D01*
X119228578Y-58237770D01*
X119255182Y-58268568D01*
X119115000Y-58408750D01*
X119127529Y-58510235D01*
X119166848Y-58628979D01*
X119228578Y-58737770D01*
X119310345Y-58832428D01*
X119409008Y-58909315D01*
X119520775Y-58965476D01*
X119641351Y-58998754D01*
X119766103Y-59007869D01*
X119914250Y-59005000D01*
X119991928Y-58927322D01*
X119991928Y-59246057D01*
X119948102Y-59254774D01*
X119759744Y-59332795D01*
X119590226Y-59446063D01*
X119546289Y-59490000D01*
X116197246Y-59490000D01*
X116051897Y-59429794D01*
X115851938Y-59390020D01*
X115648060Y-59390020D01*
X115448101Y-59429794D01*
X115259743Y-59507815D01*
X115090225Y-59621083D01*
X115019605Y-59691703D01*
X114926618Y-59615391D01*
X114794589Y-59544819D01*
X114651328Y-59501362D01*
X114539675Y-59490365D01*
X114539664Y-59490365D01*
X114502342Y-59486689D01*
X114465020Y-59490365D01*
X114203709Y-59490365D01*
X114159772Y-59446428D01*
X113990254Y-59333160D01*
X113801896Y-59255139D01*
X113601937Y-59215365D01*
X113398059Y-59215365D01*
X113198100Y-59255139D01*
X113009742Y-59333160D01*
X112840224Y-59446428D01*
X112696061Y-59590591D01*
X112582793Y-59760109D01*
X112504772Y-59948467D01*
X112464998Y-60148426D01*
X112464998Y-60315196D01*
X111309800Y-59159999D01*
X115562711Y-59159999D01*
X115600033Y-59163675D01*
X115637355Y-59159999D01*
X115637366Y-59159999D01*
X115749019Y-59149002D01*
X115892280Y-59105545D01*
X116024258Y-59035000D01*
X116101971Y-59035000D01*
X116301930Y-58995226D01*
X116490288Y-58917205D01*
X116659806Y-58803937D01*
X116803969Y-58659774D01*
X116917237Y-58490256D01*
X116995258Y-58301898D01*
X117035032Y-58101939D01*
X117035032Y-57898061D01*
X116995258Y-57698102D01*
X116917237Y-57509744D01*
X116803969Y-57340226D01*
X116659806Y-57196063D01*
X116490288Y-57082795D01*
X116301930Y-57004774D01*
X116101971Y-56965000D01*
X115898093Y-56965000D01*
X115698134Y-57004774D01*
X115509776Y-57082795D01*
X115340258Y-57196063D01*
X115196095Y-57340226D01*
X115082827Y-57509744D01*
X115028873Y-57639999D01*
X114034064Y-57639999D01*
X114061912Y-57499995D01*
X114061912Y-57437857D01*
X114278125Y-57221644D01*
X114431007Y-57252054D01*
X114634885Y-57252054D01*
X114834844Y-57212280D01*
X115023202Y-57134259D01*
X115192720Y-57020991D01*
X115336883Y-56876828D01*
X115450151Y-56707310D01*
X115528172Y-56518952D01*
X115567946Y-56318993D01*
X115567946Y-56115115D01*
X115528172Y-55915156D01*
X115450151Y-55726798D01*
X115336883Y-55557280D01*
X115192720Y-55413117D01*
X115174115Y-55400686D01*
X115289801Y-55285000D01*
X115351939Y-55285000D01*
X115551898Y-55245226D01*
X115740256Y-55167205D01*
X115873629Y-55078088D01*
X115975000Y-55088072D01*
X117725000Y-55088072D01*
X117849482Y-55075812D01*
X117969180Y-55039502D01*
X118079494Y-54980537D01*
X118176185Y-54901185D01*
X118255537Y-54804494D01*
X118314502Y-54694180D01*
X118350812Y-54574482D01*
X118355534Y-54526541D01*
X118398061Y-54535000D01*
X118601939Y-54535000D01*
X118801898Y-54495226D01*
X118990256Y-54417205D01*
X119159774Y-54303937D01*
X119303937Y-54159774D01*
X119417205Y-53990256D01*
X119495226Y-53801898D01*
X119535000Y-53601939D01*
X119535000Y-53539802D01*
X119561005Y-53513797D01*
X119590004Y-53489998D01*
X119684977Y-53374273D01*
X119740000Y-53271333D01*
X119740000Y-55412677D01*
%TA.AperFunction,Conductor*%
D25*
G36*
X119740000Y-55412677D02*
G01*
X119736324Y-55450000D01*
X119740000Y-55487322D01*
X119740000Y-55487332D01*
X119750997Y-55598985D01*
X119789768Y-55726798D01*
X119794454Y-55742246D01*
X119865026Y-55874276D01*
X119886964Y-55901007D01*
X119959999Y-55990001D01*
X119989003Y-56013804D01*
X120026655Y-56051456D01*
X120004188Y-56125518D01*
X119991928Y-56250000D01*
X119991928Y-57072678D01*
X119914250Y-56995000D01*
X119766103Y-56992131D01*
X119641351Y-57001246D01*
X119520775Y-57034524D01*
X119409008Y-57090685D01*
X119310345Y-57167572D01*
X119228578Y-57262230D01*
X119166848Y-57371021D01*
X119127529Y-57489765D01*
X119115000Y-57591250D01*
X119255182Y-57731432D01*
X119228578Y-57762230D01*
X119185368Y-57838382D01*
X119115000Y-57908750D01*
X119126265Y-58000000D01*
X119115000Y-58091250D01*
X119185368Y-58161618D01*
X119228578Y-58237770D01*
X119255182Y-58268568D01*
X119115000Y-58408750D01*
X119127529Y-58510235D01*
X119166848Y-58628979D01*
X119228578Y-58737770D01*
X119310345Y-58832428D01*
X119409008Y-58909315D01*
X119520775Y-58965476D01*
X119641351Y-58998754D01*
X119766103Y-59007869D01*
X119914250Y-59005000D01*
X119991928Y-58927322D01*
X119991928Y-59246057D01*
X119948102Y-59254774D01*
X119759744Y-59332795D01*
X119590226Y-59446063D01*
X119546289Y-59490000D01*
X116197246Y-59490000D01*
X116051897Y-59429794D01*
X115851938Y-59390020D01*
X115648060Y-59390020D01*
X115448101Y-59429794D01*
X115259743Y-59507815D01*
X115090225Y-59621083D01*
X115019605Y-59691703D01*
X114926618Y-59615391D01*
X114794589Y-59544819D01*
X114651328Y-59501362D01*
X114539675Y-59490365D01*
X114539664Y-59490365D01*
X114502342Y-59486689D01*
X114465020Y-59490365D01*
X114203709Y-59490365D01*
X114159772Y-59446428D01*
X113990254Y-59333160D01*
X113801896Y-59255139D01*
X113601937Y-59215365D01*
X113398059Y-59215365D01*
X113198100Y-59255139D01*
X113009742Y-59333160D01*
X112840224Y-59446428D01*
X112696061Y-59590591D01*
X112582793Y-59760109D01*
X112504772Y-59948467D01*
X112464998Y-60148426D01*
X112464998Y-60315196D01*
X111309800Y-59159999D01*
X115562711Y-59159999D01*
X115600033Y-59163675D01*
X115637355Y-59159999D01*
X115637366Y-59159999D01*
X115749019Y-59149002D01*
X115892280Y-59105545D01*
X116024258Y-59035000D01*
X116101971Y-59035000D01*
X116301930Y-58995226D01*
X116490288Y-58917205D01*
X116659806Y-58803937D01*
X116803969Y-58659774D01*
X116917237Y-58490256D01*
X116995258Y-58301898D01*
X117035032Y-58101939D01*
X117035032Y-57898061D01*
X116995258Y-57698102D01*
X116917237Y-57509744D01*
X116803969Y-57340226D01*
X116659806Y-57196063D01*
X116490288Y-57082795D01*
X116301930Y-57004774D01*
X116101971Y-56965000D01*
X115898093Y-56965000D01*
X115698134Y-57004774D01*
X115509776Y-57082795D01*
X115340258Y-57196063D01*
X115196095Y-57340226D01*
X115082827Y-57509744D01*
X115028873Y-57639999D01*
X114034064Y-57639999D01*
X114061912Y-57499995D01*
X114061912Y-57437857D01*
X114278125Y-57221644D01*
X114431007Y-57252054D01*
X114634885Y-57252054D01*
X114834844Y-57212280D01*
X115023202Y-57134259D01*
X115192720Y-57020991D01*
X115336883Y-56876828D01*
X115450151Y-56707310D01*
X115528172Y-56518952D01*
X115567946Y-56318993D01*
X115567946Y-56115115D01*
X115528172Y-55915156D01*
X115450151Y-55726798D01*
X115336883Y-55557280D01*
X115192720Y-55413117D01*
X115174115Y-55400686D01*
X115289801Y-55285000D01*
X115351939Y-55285000D01*
X115551898Y-55245226D01*
X115740256Y-55167205D01*
X115873629Y-55078088D01*
X115975000Y-55088072D01*
X117725000Y-55088072D01*
X117849482Y-55075812D01*
X117969180Y-55039502D01*
X118079494Y-54980537D01*
X118176185Y-54901185D01*
X118255537Y-54804494D01*
X118314502Y-54694180D01*
X118350812Y-54574482D01*
X118355534Y-54526541D01*
X118398061Y-54535000D01*
X118601939Y-54535000D01*
X118801898Y-54495226D01*
X118990256Y-54417205D01*
X119159774Y-54303937D01*
X119303937Y-54159774D01*
X119417205Y-53990256D01*
X119495226Y-53801898D01*
X119535000Y-53601939D01*
X119535000Y-53539802D01*
X119561005Y-53513797D01*
X119590004Y-53489998D01*
X119684977Y-53374273D01*
X119740000Y-53271333D01*
X119740000Y-55412677D01*
G37*
%TD.AperFunction*%
D24*
X115347056Y-49997162D02*
X115336928Y-50100000D01*
X115336928Y-50550000D01*
X115346777Y-50650000D01*
X115336928Y-50750000D01*
X115336928Y-51200000D01*
X115346777Y-51300000D01*
X115336928Y-51400000D01*
X115336928Y-51850000D01*
X115347056Y-51952838D01*
X115340000Y-52018250D01*
X115372247Y-52050497D01*
X115385498Y-52094180D01*
X115444463Y-52204494D01*
X115502326Y-52275000D01*
X115444463Y-52345506D01*
X115385498Y-52455820D01*
X115372247Y-52499503D01*
X115340000Y-52531750D01*
X115347056Y-52597162D01*
X115336928Y-52700000D01*
X115336928Y-53150000D01*
X115343330Y-53215000D01*
X115148061Y-53215000D01*
X114948102Y-53254774D01*
X114759744Y-53332795D01*
X114590226Y-53446063D01*
X114446063Y-53590226D01*
X114332795Y-53759744D01*
X114254774Y-53948102D01*
X114215000Y-54148061D01*
X114215000Y-54210199D01*
X114210198Y-54215001D01*
X113535000Y-54215001D01*
X113535000Y-54148061D01*
X113495226Y-53948102D01*
X113417205Y-53759744D01*
X113303937Y-53590226D01*
X113159774Y-53446063D01*
X112990256Y-53332795D01*
X112801898Y-53254774D01*
X112601939Y-53215000D01*
X112398061Y-53215000D01*
X112198102Y-53254774D01*
X112009744Y-53332795D01*
X111840226Y-53446063D01*
X111796289Y-53490000D01*
X111678665Y-53490000D01*
X111792247Y-53455546D01*
X111924276Y-53384974D01*
X112040001Y-53290001D01*
X112063804Y-53260997D01*
X115345166Y-49979636D01*
X115347056Y-49997162D01*
%TA.AperFunction,Conductor*%
D25*
G36*
X115347056Y-49997162D02*
G01*
X115336928Y-50100000D01*
X115336928Y-50550000D01*
X115346777Y-50650000D01*
X115336928Y-50750000D01*
X115336928Y-51200000D01*
X115346777Y-51300000D01*
X115336928Y-51400000D01*
X115336928Y-51850000D01*
X115347056Y-51952838D01*
X115340000Y-52018250D01*
X115372247Y-52050497D01*
X115385498Y-52094180D01*
X115444463Y-52204494D01*
X115502326Y-52275000D01*
X115444463Y-52345506D01*
X115385498Y-52455820D01*
X115372247Y-52499503D01*
X115340000Y-52531750D01*
X115347056Y-52597162D01*
X115336928Y-52700000D01*
X115336928Y-53150000D01*
X115343330Y-53215000D01*
X115148061Y-53215000D01*
X114948102Y-53254774D01*
X114759744Y-53332795D01*
X114590226Y-53446063D01*
X114446063Y-53590226D01*
X114332795Y-53759744D01*
X114254774Y-53948102D01*
X114215000Y-54148061D01*
X114215000Y-54210199D01*
X114210198Y-54215001D01*
X113535000Y-54215001D01*
X113535000Y-54148061D01*
X113495226Y-53948102D01*
X113417205Y-53759744D01*
X113303937Y-53590226D01*
X113159774Y-53446063D01*
X112990256Y-53332795D01*
X112801898Y-53254774D01*
X112601939Y-53215000D01*
X112398061Y-53215000D01*
X112198102Y-53254774D01*
X112009744Y-53332795D01*
X111840226Y-53446063D01*
X111796289Y-53490000D01*
X111678665Y-53490000D01*
X111792247Y-53455546D01*
X111924276Y-53384974D01*
X112040001Y-53290001D01*
X112063804Y-53260997D01*
X115345166Y-49979636D01*
X115347056Y-49997162D01*
G37*
%TD.AperFunction*%
%TD*%
M02*
