%TF.GenerationSoftware,KiCad,Pcbnew,(5.1.9)-1*%
%TF.CreationDate,2021-03-15T18:44:28-04:00*%
%TF.ProjectId,Module Central,4d6f6475-6c65-4204-9365-6e7472616c2e,rev?*%
%TF.SameCoordinates,Original*%
%TF.FileFunction,Copper,L1,Top*%
%TF.FilePolarity,Positive*%
%FSLAX46Y46*%
G04 Gerber Fmt 4.6, Leading zero omitted, Abs format (unit mm)*
G04 Created by KiCad (PCBNEW (5.1.9)-1) date 2021-03-15 18:44:28*
%MOMM*%
%LPD*%
G01*
G04 APERTURE LIST*
%TA.AperFunction,SMDPad,CuDef*%
%ADD10R,1.000000X1.500000*%
%TD*%
%TA.AperFunction,ComponentPad*%
%ADD11R,3.500000X3.500000*%
%TD*%
%TA.AperFunction,ComponentPad*%
%ADD12R,1.700000X1.700000*%
%TD*%
%TA.AperFunction,ComponentPad*%
%ADD13O,1.700000X1.700000*%
%TD*%
%TA.AperFunction,ComponentPad*%
%ADD14C,2.250000*%
%TD*%
%TA.AperFunction,SMDPad,CuDef*%
%ADD15R,2.000000X0.500000*%
%TD*%
%TA.AperFunction,SMDPad,CuDef*%
%ADD16R,1.700000X2.000000*%
%TD*%
%TA.AperFunction,ComponentPad*%
%ADD17R,3.000000X3.000000*%
%TD*%
%TA.AperFunction,ComponentPad*%
%ADD18C,3.000000*%
%TD*%
%TA.AperFunction,SMDPad,CuDef*%
%ADD19R,3.800000X2.000000*%
%TD*%
%TA.AperFunction,SMDPad,CuDef*%
%ADD20R,1.500000X2.000000*%
%TD*%
%TA.AperFunction,SMDPad,CuDef*%
%ADD21R,1.600000X0.550000*%
%TD*%
%TA.AperFunction,SMDPad,CuDef*%
%ADD22R,0.550000X1.600000*%
%TD*%
%TA.AperFunction,SMDPad,CuDef*%
%ADD23R,3.000000X1.200000*%
%TD*%
%TA.AperFunction,ComponentPad*%
%ADD24O,1.050000X1.500000*%
%TD*%
%TA.AperFunction,ComponentPad*%
%ADD25R,1.050000X1.500000*%
%TD*%
%TA.AperFunction,SMDPad,CuDef*%
%ADD26R,2.000000X4.500000*%
%TD*%
%TA.AperFunction,ViaPad*%
%ADD27C,0.800000*%
%TD*%
%TA.AperFunction,Conductor*%
%ADD28C,0.250000*%
%TD*%
%TA.AperFunction,Conductor*%
%ADD29C,0.254000*%
%TD*%
%TA.AperFunction,Conductor*%
%ADD30C,0.100000*%
%TD*%
G04 APERTURE END LIST*
D10*
%TO.P,JP102,1*%
%TO.N,/MOSI_D11*%
X106060000Y-59690000D03*
%TO.P,JP102,2*%
%TO.N,Net-(JP102-Pad2)*%
X104760000Y-59690000D03*
%TD*%
%TO.P,JP101,2*%
%TO.N,Net-(JP101-Pad2)*%
X108500000Y-59750000D03*
%TO.P,JP101,1*%
%TO.N,/MISO_D12*%
X109800000Y-59750000D03*
%TD*%
%TO.P,C102,2*%
%TO.N,GND*%
%TA.AperFunction,SMDPad,CuDef*%
G36*
G01*
X113505000Y-63050000D02*
X112555000Y-63050000D01*
G75*
G02*
X112305000Y-62800000I0J250000D01*
G01*
X112305000Y-62300000D01*
G75*
G02*
X112555000Y-62050000I250000J0D01*
G01*
X113505000Y-62050000D01*
G75*
G02*
X113755000Y-62300000I0J-250000D01*
G01*
X113755000Y-62800000D01*
G75*
G02*
X113505000Y-63050000I-250000J0D01*
G01*
G37*
%TD.AperFunction*%
%TO.P,C102,1*%
%TO.N,5V*%
%TA.AperFunction,SMDPad,CuDef*%
G36*
G01*
X113505000Y-64950000D02*
X112555000Y-64950000D01*
G75*
G02*
X112305000Y-64700000I0J250000D01*
G01*
X112305000Y-64200000D01*
G75*
G02*
X112555000Y-63950000I250000J0D01*
G01*
X113505000Y-63950000D01*
G75*
G02*
X113755000Y-64200000I0J-250000D01*
G01*
X113755000Y-64700000D01*
G75*
G02*
X113505000Y-64950000I-250000J0D01*
G01*
G37*
%TD.AperFunction*%
%TD*%
%TO.P,C106,1*%
%TO.N,3V3*%
%TA.AperFunction,SMDPad,CuDef*%
G36*
G01*
X124235000Y-48270000D02*
X125185000Y-48270000D01*
G75*
G02*
X125435000Y-48520000I0J-250000D01*
G01*
X125435000Y-49020000D01*
G75*
G02*
X125185000Y-49270000I-250000J0D01*
G01*
X124235000Y-49270000D01*
G75*
G02*
X123985000Y-49020000I0J250000D01*
G01*
X123985000Y-48520000D01*
G75*
G02*
X124235000Y-48270000I250000J0D01*
G01*
G37*
%TD.AperFunction*%
%TO.P,C106,2*%
%TO.N,GND*%
%TA.AperFunction,SMDPad,CuDef*%
G36*
G01*
X124235000Y-50170000D02*
X125185000Y-50170000D01*
G75*
G02*
X125435000Y-50420000I0J-250000D01*
G01*
X125435000Y-50920000D01*
G75*
G02*
X125185000Y-51170000I-250000J0D01*
G01*
X124235000Y-51170000D01*
G75*
G02*
X123985000Y-50920000I0J250000D01*
G01*
X123985000Y-50420000D01*
G75*
G02*
X124235000Y-50170000I250000J0D01*
G01*
G37*
%TD.AperFunction*%
%TD*%
%TO.P,C107,2*%
%TO.N,Net-(C107-Pad2)*%
%TA.AperFunction,SMDPad,CuDef*%
G36*
G01*
X110015000Y-63950000D02*
X110965000Y-63950000D01*
G75*
G02*
X111215000Y-64200000I0J-250000D01*
G01*
X111215000Y-64700000D01*
G75*
G02*
X110965000Y-64950000I-250000J0D01*
G01*
X110015000Y-64950000D01*
G75*
G02*
X109765000Y-64700000I0J250000D01*
G01*
X109765000Y-64200000D01*
G75*
G02*
X110015000Y-63950000I250000J0D01*
G01*
G37*
%TD.AperFunction*%
%TO.P,C107,1*%
%TO.N,GND*%
%TA.AperFunction,SMDPad,CuDef*%
G36*
G01*
X110015000Y-62050000D02*
X110965000Y-62050000D01*
G75*
G02*
X111215000Y-62300000I0J-250000D01*
G01*
X111215000Y-62800000D01*
G75*
G02*
X110965000Y-63050000I-250000J0D01*
G01*
X110015000Y-63050000D01*
G75*
G02*
X109765000Y-62800000I0J250000D01*
G01*
X109765000Y-62300000D01*
G75*
G02*
X110015000Y-62050000I250000J0D01*
G01*
G37*
%TD.AperFunction*%
%TD*%
%TO.P,C108,1*%
%TO.N,GND*%
%TA.AperFunction,SMDPad,CuDef*%
G36*
G01*
X110965000Y-75110000D02*
X110015000Y-75110000D01*
G75*
G02*
X109765000Y-74860000I0J250000D01*
G01*
X109765000Y-74360000D01*
G75*
G02*
X110015000Y-74110000I250000J0D01*
G01*
X110965000Y-74110000D01*
G75*
G02*
X111215000Y-74360000I0J-250000D01*
G01*
X111215000Y-74860000D01*
G75*
G02*
X110965000Y-75110000I-250000J0D01*
G01*
G37*
%TD.AperFunction*%
%TO.P,C108,2*%
%TO.N,Net-(C108-Pad2)*%
%TA.AperFunction,SMDPad,CuDef*%
G36*
G01*
X110965000Y-73210000D02*
X110015000Y-73210000D01*
G75*
G02*
X109765000Y-72960000I0J250000D01*
G01*
X109765000Y-72460000D01*
G75*
G02*
X110015000Y-72210000I250000J0D01*
G01*
X110965000Y-72210000D01*
G75*
G02*
X111215000Y-72460000I0J-250000D01*
G01*
X111215000Y-72960000D01*
G75*
G02*
X110965000Y-73210000I-250000J0D01*
G01*
G37*
%TD.AperFunction*%
%TD*%
%TO.P,C110,2*%
%TO.N,GND*%
%TA.AperFunction,SMDPad,CuDef*%
G36*
G01*
X125225000Y-53300000D02*
X124275000Y-53300000D01*
G75*
G02*
X124025000Y-53050000I0J250000D01*
G01*
X124025000Y-52550000D01*
G75*
G02*
X124275000Y-52300000I250000J0D01*
G01*
X125225000Y-52300000D01*
G75*
G02*
X125475000Y-52550000I0J-250000D01*
G01*
X125475000Y-53050000D01*
G75*
G02*
X125225000Y-53300000I-250000J0D01*
G01*
G37*
%TD.AperFunction*%
%TO.P,C110,1*%
%TO.N,3V3*%
%TA.AperFunction,SMDPad,CuDef*%
G36*
G01*
X125225000Y-55200000D02*
X124275000Y-55200000D01*
G75*
G02*
X124025000Y-54950000I0J250000D01*
G01*
X124025000Y-54450000D01*
G75*
G02*
X124275000Y-54200000I250000J0D01*
G01*
X125225000Y-54200000D01*
G75*
G02*
X125475000Y-54450000I0J-250000D01*
G01*
X125475000Y-54950000D01*
G75*
G02*
X125225000Y-55200000I-250000J0D01*
G01*
G37*
%TD.AperFunction*%
%TD*%
%TO.P,D101,2*%
%TO.N,Net-(D101-Pad2)*%
%TA.AperFunction,SMDPad,CuDef*%
G36*
G01*
X117296250Y-74480000D02*
X116383750Y-74480000D01*
G75*
G02*
X116140000Y-74236250I0J243750D01*
G01*
X116140000Y-73748750D01*
G75*
G02*
X116383750Y-73505000I243750J0D01*
G01*
X117296250Y-73505000D01*
G75*
G02*
X117540000Y-73748750I0J-243750D01*
G01*
X117540000Y-74236250D01*
G75*
G02*
X117296250Y-74480000I-243750J0D01*
G01*
G37*
%TD.AperFunction*%
%TO.P,D101,1*%
%TO.N,Net-(D101-Pad1)*%
%TA.AperFunction,SMDPad,CuDef*%
G36*
G01*
X117296250Y-76355000D02*
X116383750Y-76355000D01*
G75*
G02*
X116140000Y-76111250I0J243750D01*
G01*
X116140000Y-75623750D01*
G75*
G02*
X116383750Y-75380000I243750J0D01*
G01*
X117296250Y-75380000D01*
G75*
G02*
X117540000Y-75623750I0J-243750D01*
G01*
X117540000Y-76111250D01*
G75*
G02*
X117296250Y-76355000I-243750J0D01*
G01*
G37*
%TD.AperFunction*%
%TD*%
%TO.P,D102,2*%
%TO.N,Net-(D102-Pad2)*%
%TA.AperFunction,SMDPad,CuDef*%
G36*
G01*
X119836250Y-74480000D02*
X118923750Y-74480000D01*
G75*
G02*
X118680000Y-74236250I0J243750D01*
G01*
X118680000Y-73748750D01*
G75*
G02*
X118923750Y-73505000I243750J0D01*
G01*
X119836250Y-73505000D01*
G75*
G02*
X120080000Y-73748750I0J-243750D01*
G01*
X120080000Y-74236250D01*
G75*
G02*
X119836250Y-74480000I-243750J0D01*
G01*
G37*
%TD.AperFunction*%
%TO.P,D102,1*%
%TO.N,Net-(D102-Pad1)*%
%TA.AperFunction,SMDPad,CuDef*%
G36*
G01*
X119836250Y-76355000D02*
X118923750Y-76355000D01*
G75*
G02*
X118680000Y-76111250I0J243750D01*
G01*
X118680000Y-75623750D01*
G75*
G02*
X118923750Y-75380000I243750J0D01*
G01*
X119836250Y-75380000D01*
G75*
G02*
X120080000Y-75623750I0J-243750D01*
G01*
X120080000Y-76111250D01*
G75*
G02*
X119836250Y-76355000I-243750J0D01*
G01*
G37*
%TD.AperFunction*%
%TD*%
%TO.P,D103,1*%
%TO.N,Net-(D103-Pad1)*%
%TA.AperFunction,SMDPad,CuDef*%
G36*
G01*
X122376250Y-76355000D02*
X121463750Y-76355000D01*
G75*
G02*
X121220000Y-76111250I0J243750D01*
G01*
X121220000Y-75623750D01*
G75*
G02*
X121463750Y-75380000I243750J0D01*
G01*
X122376250Y-75380000D01*
G75*
G02*
X122620000Y-75623750I0J-243750D01*
G01*
X122620000Y-76111250D01*
G75*
G02*
X122376250Y-76355000I-243750J0D01*
G01*
G37*
%TD.AperFunction*%
%TO.P,D103,2*%
%TO.N,Net-(D103-Pad2)*%
%TA.AperFunction,SMDPad,CuDef*%
G36*
G01*
X122376250Y-74480000D02*
X121463750Y-74480000D01*
G75*
G02*
X121220000Y-74236250I0J243750D01*
G01*
X121220000Y-73748750D01*
G75*
G02*
X121463750Y-73505000I243750J0D01*
G01*
X122376250Y-73505000D01*
G75*
G02*
X122620000Y-73748750I0J-243750D01*
G01*
X122620000Y-74236250D01*
G75*
G02*
X122376250Y-74480000I-243750J0D01*
G01*
G37*
%TD.AperFunction*%
%TD*%
%TO.P,D104,1*%
%TO.N,Net-(D104-Pad1)*%
%TA.AperFunction,SMDPad,CuDef*%
G36*
G01*
X124916250Y-76355000D02*
X124003750Y-76355000D01*
G75*
G02*
X123760000Y-76111250I0J243750D01*
G01*
X123760000Y-75623750D01*
G75*
G02*
X124003750Y-75380000I243750J0D01*
G01*
X124916250Y-75380000D01*
G75*
G02*
X125160000Y-75623750I0J-243750D01*
G01*
X125160000Y-76111250D01*
G75*
G02*
X124916250Y-76355000I-243750J0D01*
G01*
G37*
%TD.AperFunction*%
%TO.P,D104,2*%
%TO.N,Net-(D104-Pad2)*%
%TA.AperFunction,SMDPad,CuDef*%
G36*
G01*
X124916250Y-74480000D02*
X124003750Y-74480000D01*
G75*
G02*
X123760000Y-74236250I0J243750D01*
G01*
X123760000Y-73748750D01*
G75*
G02*
X124003750Y-73505000I243750J0D01*
G01*
X124916250Y-73505000D01*
G75*
G02*
X125160000Y-73748750I0J-243750D01*
G01*
X125160000Y-74236250D01*
G75*
G02*
X124916250Y-74480000I-243750J0D01*
G01*
G37*
%TD.AperFunction*%
%TD*%
%TO.P,D203,1*%
%TO.N,Net-(D203-Pad1)*%
%TA.AperFunction,SMDPad,CuDef*%
G36*
G01*
X122825000Y-47206250D02*
X122825000Y-46293750D01*
G75*
G02*
X123068750Y-46050000I243750J0D01*
G01*
X123556250Y-46050000D01*
G75*
G02*
X123800000Y-46293750I0J-243750D01*
G01*
X123800000Y-47206250D01*
G75*
G02*
X123556250Y-47450000I-243750J0D01*
G01*
X123068750Y-47450000D01*
G75*
G02*
X122825000Y-47206250I0J243750D01*
G01*
G37*
%TD.AperFunction*%
%TO.P,D203,2*%
%TO.N,Net-(D203-Pad2)*%
%TA.AperFunction,SMDPad,CuDef*%
G36*
G01*
X124700000Y-47206250D02*
X124700000Y-46293750D01*
G75*
G02*
X124943750Y-46050000I243750J0D01*
G01*
X125431250Y-46050000D01*
G75*
G02*
X125675000Y-46293750I0J-243750D01*
G01*
X125675000Y-47206250D01*
G75*
G02*
X125431250Y-47450000I-243750J0D01*
G01*
X124943750Y-47450000D01*
G75*
G02*
X124700000Y-47206250I0J243750D01*
G01*
G37*
%TD.AperFunction*%
%TD*%
%TO.P,D204,2*%
%TO.N,Net-(D204-Pad2)*%
%TA.AperFunction,SMDPad,CuDef*%
G36*
G01*
X124700000Y-45206250D02*
X124700000Y-44293750D01*
G75*
G02*
X124943750Y-44050000I243750J0D01*
G01*
X125431250Y-44050000D01*
G75*
G02*
X125675000Y-44293750I0J-243750D01*
G01*
X125675000Y-45206250D01*
G75*
G02*
X125431250Y-45450000I-243750J0D01*
G01*
X124943750Y-45450000D01*
G75*
G02*
X124700000Y-45206250I0J243750D01*
G01*
G37*
%TD.AperFunction*%
%TO.P,D204,1*%
%TO.N,Net-(D204-Pad1)*%
%TA.AperFunction,SMDPad,CuDef*%
G36*
G01*
X122825000Y-45206250D02*
X122825000Y-44293750D01*
G75*
G02*
X123068750Y-44050000I243750J0D01*
G01*
X123556250Y-44050000D01*
G75*
G02*
X123800000Y-44293750I0J-243750D01*
G01*
X123800000Y-45206250D01*
G75*
G02*
X123556250Y-45450000I-243750J0D01*
G01*
X123068750Y-45450000D01*
G75*
G02*
X122825000Y-45206250I0J243750D01*
G01*
G37*
%TD.AperFunction*%
%TD*%
D11*
%TO.P,J101,1*%
%TO.N,5V*%
X128250000Y-54000000D03*
%TO.P,J101,2*%
%TO.N,GND*%
%TA.AperFunction,ComponentPad*%
G36*
G01*
X135750000Y-53000000D02*
X135750000Y-55000000D01*
G75*
G02*
X135000000Y-55750000I-750000J0D01*
G01*
X133500000Y-55750000D01*
G75*
G02*
X132750000Y-55000000I0J750000D01*
G01*
X132750000Y-53000000D01*
G75*
G02*
X133500000Y-52250000I750000J0D01*
G01*
X135000000Y-52250000D01*
G75*
G02*
X135750000Y-53000000I0J-750000D01*
G01*
G37*
%TD.AperFunction*%
%TO.P,J101,3*%
%TO.N,N/C*%
%TA.AperFunction,ComponentPad*%
G36*
G01*
X133000000Y-48425000D02*
X133000000Y-50175000D01*
G75*
G02*
X132125000Y-51050000I-875000J0D01*
G01*
X130375000Y-51050000D01*
G75*
G02*
X129500000Y-50175000I0J875000D01*
G01*
X129500000Y-48425000D01*
G75*
G02*
X130375000Y-47550000I875000J0D01*
G01*
X132125000Y-47550000D01*
G75*
G02*
X133000000Y-48425000I0J-875000D01*
G01*
G37*
%TD.AperFunction*%
%TD*%
D12*
%TO.P,J102,1*%
%TO.N,/MISO_D12*%
X129540000Y-74930000D03*
D13*
%TO.P,J102,2*%
%TO.N,5V*%
X132080000Y-74930000D03*
%TO.P,J102,3*%
%TO.N,/SCK_D13*%
X129540000Y-72390000D03*
%TO.P,J102,4*%
%TO.N,/MOSI_D11*%
X132080000Y-72390000D03*
%TO.P,J102,5*%
%TO.N,DTR*%
X129540000Y-69850000D03*
%TO.P,J102,6*%
%TO.N,GND*%
X132080000Y-69850000D03*
%TD*%
D14*
%TO.P,J103,2*%
%TO.N,GND*%
X110790000Y-38540000D03*
X105710000Y-38540000D03*
X105710000Y-33460000D03*
X110790000Y-33460000D03*
%TO.P,J103,1*%
%TO.N,Net-(J103-Pad1)*%
X108250000Y-36000000D03*
%TD*%
D15*
%TO.P,J201,1*%
%TO.N,Net-(D201-Pad2)*%
X133550000Y-42100000D03*
%TO.P,J201,2*%
%TO.N,Net-(J201-Pad2)*%
X133550000Y-41300000D03*
%TO.P,J201,3*%
%TO.N,Net-(J201-Pad3)*%
X133550000Y-40500000D03*
%TO.P,J201,4*%
%TO.N,GND*%
X133550000Y-39700000D03*
%TO.P,J201,5*%
X133550000Y-38900000D03*
D16*
%TO.P,J201,6*%
X133650000Y-44950000D03*
X139100000Y-44950000D03*
X133650000Y-36050000D03*
X139100000Y-36050000D03*
%TD*%
D17*
%TO.P,J301,1*%
%TO.N,5V*%
X99000000Y-74660000D03*
D18*
%TO.P,J301,2*%
%TO.N,1-Wire*%
X99000000Y-69580000D03*
%TO.P,J301,3*%
%TO.N,GND*%
X99000000Y-64500000D03*
%TD*%
%TO.P,J302,3*%
%TO.N,GND*%
X138500000Y-71910000D03*
%TO.P,J302,2*%
%TO.N,1-Wire*%
X138500000Y-66830000D03*
D17*
%TO.P,J302,1*%
%TO.N,5V*%
X138500000Y-61750000D03*
%TD*%
%TO.P,J303,1*%
%TO.N,5V*%
X99000000Y-54250000D03*
D18*
%TO.P,J303,2*%
%TO.N,1-Wire*%
X99000000Y-49170000D03*
%TO.P,J303,3*%
%TO.N,GND*%
X99000000Y-44090000D03*
%TD*%
%TO.P,J304,3*%
%TO.N,GND*%
X126160000Y-36750000D03*
%TO.P,J304,2*%
%TO.N,1-Wire*%
X121080000Y-36750000D03*
D17*
%TO.P,J304,1*%
%TO.N,5V*%
X116000000Y-36750000D03*
%TD*%
%TO.P,R101,1*%
%TO.N,Net-(C107-Pad2)*%
%TA.AperFunction,SMDPad,CuDef*%
G36*
G01*
X111309998Y-67155000D02*
X112210002Y-67155000D01*
G75*
G02*
X112460000Y-67404998I0J-249998D01*
G01*
X112460000Y-67930002D01*
G75*
G02*
X112210002Y-68180000I-249998J0D01*
G01*
X111309998Y-68180000D01*
G75*
G02*
X111060000Y-67930002I0J249998D01*
G01*
X111060000Y-67404998D01*
G75*
G02*
X111309998Y-67155000I249998J0D01*
G01*
G37*
%TD.AperFunction*%
%TO.P,R101,2*%
%TO.N,Net-(C108-Pad2)*%
%TA.AperFunction,SMDPad,CuDef*%
G36*
G01*
X111309998Y-68980000D02*
X112210002Y-68980000D01*
G75*
G02*
X112460000Y-69229998I0J-249998D01*
G01*
X112460000Y-69755002D01*
G75*
G02*
X112210002Y-70005000I-249998J0D01*
G01*
X111309998Y-70005000D01*
G75*
G02*
X111060000Y-69755002I0J249998D01*
G01*
X111060000Y-69229998D01*
G75*
G02*
X111309998Y-68980000I249998J0D01*
G01*
G37*
%TD.AperFunction*%
%TD*%
%TO.P,R203,1*%
%TO.N,RX*%
%TA.AperFunction,SMDPad,CuDef*%
G36*
G01*
X119675000Y-58799998D02*
X119675000Y-59700002D01*
G75*
G02*
X119425002Y-59950000I-249998J0D01*
G01*
X118899998Y-59950000D01*
G75*
G02*
X118650000Y-59700002I0J249998D01*
G01*
X118650000Y-58799998D01*
G75*
G02*
X118899998Y-58550000I249998J0D01*
G01*
X119425002Y-58550000D01*
G75*
G02*
X119675000Y-58799998I0J-249998D01*
G01*
G37*
%TD.AperFunction*%
%TO.P,R203,2*%
%TO.N,Net-(R203-Pad2)*%
%TA.AperFunction,SMDPad,CuDef*%
G36*
G01*
X117850000Y-58799998D02*
X117850000Y-59700002D01*
G75*
G02*
X117600002Y-59950000I-249998J0D01*
G01*
X117074998Y-59950000D01*
G75*
G02*
X116825000Y-59700002I0J249998D01*
G01*
X116825000Y-58799998D01*
G75*
G02*
X117074998Y-58550000I249998J0D01*
G01*
X117600002Y-58550000D01*
G75*
G02*
X117850000Y-58799998I0J-249998D01*
G01*
G37*
%TD.AperFunction*%
%TD*%
%TO.P,R301,2*%
%TO.N,1-Wire*%
%TA.AperFunction,SMDPad,CuDef*%
G36*
G01*
X103200002Y-58350000D02*
X102299998Y-58350000D01*
G75*
G02*
X102050000Y-58100002I0J249998D01*
G01*
X102050000Y-57574998D01*
G75*
G02*
X102299998Y-57325000I249998J0D01*
G01*
X103200002Y-57325000D01*
G75*
G02*
X103450000Y-57574998I0J-249998D01*
G01*
X103450000Y-58100002D01*
G75*
G02*
X103200002Y-58350000I-249998J0D01*
G01*
G37*
%TD.AperFunction*%
%TO.P,R301,1*%
%TO.N,5V*%
%TA.AperFunction,SMDPad,CuDef*%
G36*
G01*
X103200002Y-60175000D02*
X102299998Y-60175000D01*
G75*
G02*
X102050000Y-59925002I0J249998D01*
G01*
X102050000Y-59399998D01*
G75*
G02*
X102299998Y-59150000I249998J0D01*
G01*
X103200002Y-59150000D01*
G75*
G02*
X103450000Y-59399998I0J-249998D01*
G01*
X103450000Y-59925002D01*
G75*
G02*
X103200002Y-60175000I-249998J0D01*
G01*
G37*
%TD.AperFunction*%
%TD*%
D19*
%TO.P,U101,2*%
%TO.N,GND*%
X130810000Y-66650000D03*
D20*
X130810000Y-60350000D03*
%TO.P,U101,3*%
%TO.N,3V3*%
X128510000Y-60350000D03*
%TO.P,U101,1*%
%TO.N,5V*%
X133110000Y-60350000D03*
%TD*%
D21*
%TO.P,U102,1*%
%TO.N,1-Wire*%
X116400000Y-63240000D03*
%TO.P,U102,2*%
%TO.N,Net-(D104-Pad2)*%
X116400000Y-64040000D03*
%TO.P,U102,3*%
%TO.N,GND*%
X116400000Y-64840000D03*
%TO.P,U102,4*%
%TO.N,5V*%
X116400000Y-65640000D03*
%TO.P,U102,5*%
%TO.N,GND*%
X116400000Y-66440000D03*
%TO.P,U102,6*%
%TO.N,5V*%
X116400000Y-67240000D03*
%TO.P,U102,7*%
%TO.N,Net-(C107-Pad2)*%
X116400000Y-68040000D03*
%TO.P,U102,8*%
%TO.N,Net-(C108-Pad2)*%
X116400000Y-68840000D03*
D22*
%TO.P,U102,9*%
%TO.N,Net-(D103-Pad2)*%
X117850000Y-70290000D03*
%TO.P,U102,10*%
%TO.N,Net-(D102-Pad2)*%
X118650000Y-70290000D03*
%TO.P,U102,11*%
%TO.N,Net-(D101-Pad2)*%
X119450000Y-70290000D03*
%TO.P,U102,12*%
%TO.N,Net-(U102-Pad12)*%
X120250000Y-70290000D03*
%TO.P,U102,13*%
%TO.N,/D9*%
X121050000Y-70290000D03*
%TO.P,U102,14*%
%TO.N,/D10*%
X121850000Y-70290000D03*
%TO.P,U102,15*%
%TO.N,/MOSI_D11*%
X122650000Y-70290000D03*
%TO.P,U102,16*%
%TO.N,/MISO_D12*%
X123450000Y-70290000D03*
D21*
%TO.P,U102,17*%
%TO.N,/SCK_D13*%
X124900000Y-68840000D03*
%TO.P,U102,18*%
%TO.N,5V*%
X124900000Y-68040000D03*
%TO.P,U102,19*%
%TO.N,Net-(U102-Pad19)*%
X124900000Y-67240000D03*
%TO.P,U102,20*%
%TO.N,5V*%
X124900000Y-66440000D03*
%TO.P,U102,21*%
%TO.N,GND*%
X124900000Y-65640000D03*
%TO.P,U102,22*%
%TO.N,Net-(U102-Pad22)*%
X124900000Y-64840000D03*
%TO.P,U102,23*%
%TO.N,Net-(U102-Pad23)*%
X124900000Y-64040000D03*
%TO.P,U102,24*%
%TO.N,Net-(U102-Pad24)*%
X124900000Y-63240000D03*
D22*
%TO.P,U102,25*%
%TO.N,Net-(U102-Pad25)*%
X123450000Y-61790000D03*
%TO.P,U102,26*%
%TO.N,Net-(U102-Pad26)*%
X122650000Y-61790000D03*
%TO.P,U102,27*%
%TO.N,Net-(U102-Pad27)*%
X121850000Y-61790000D03*
%TO.P,U102,28*%
%TO.N,Net-(U102-Pad28)*%
X121050000Y-61790000D03*
%TO.P,U102,29*%
%TO.N,DTR*%
X120250000Y-61790000D03*
%TO.P,U102,30*%
%TO.N,RX*%
X119450000Y-61790000D03*
%TO.P,U102,31*%
%TO.N,TX*%
X118650000Y-61790000D03*
%TO.P,U102,32*%
%TO.N,Net-(U102-Pad32)*%
X117850000Y-61790000D03*
%TD*%
D23*
%TO.P,U103,1*%
%TO.N,GND*%
X120530000Y-56530000D03*
%TO.P,U103,2*%
%TO.N,Net-(U103-Pad2)*%
X120530000Y-54530000D03*
%TO.P,U103,3*%
%TO.N,Net-(U103-Pad3)*%
X120530000Y-52530000D03*
%TO.P,U103,4*%
%TO.N,Net-(U103-Pad4)*%
X120530000Y-50530000D03*
%TO.P,U103,5*%
%TO.N,Net-(U103-Pad5)*%
X120530000Y-48530000D03*
%TO.P,U103,6*%
%TO.N,Net-(U103-Pad6)*%
X120530000Y-46530000D03*
%TO.P,U103,7*%
%TO.N,Net-(U103-Pad7)*%
X120530000Y-44530000D03*
%TO.P,U103,8*%
%TO.N,GND*%
X120530000Y-42530000D03*
%TO.P,U103,9*%
%TO.N,Net-(J103-Pad1)*%
X105530000Y-42530000D03*
%TO.P,U103,10*%
%TO.N,GND*%
X105530000Y-44530000D03*
%TO.P,U103,11*%
%TO.N,Net-(U103-Pad11)*%
X105530000Y-46530000D03*
%TO.P,U103,12*%
%TO.N,Net-(U103-Pad12)*%
X105530000Y-48530000D03*
%TO.P,U103,13*%
%TO.N,3V3*%
X105530000Y-50530000D03*
%TO.P,U103,14*%
%TO.N,Net-(U103-Pad14)*%
X105530000Y-52530000D03*
%TO.P,U103,15*%
%TO.N,Net-(U103-Pad15)*%
X105530000Y-54530000D03*
%TO.P,U103,16*%
%TO.N,Net-(U103-Pad16)*%
X105530000Y-56530000D03*
%TD*%
D24*
%TO.P,U301,2*%
%TO.N,1-Wire*%
X97730000Y-59000000D03*
%TO.P,U301,3*%
%TO.N,5V*%
X96460000Y-59000000D03*
D25*
%TO.P,U301,1*%
%TO.N,GND*%
X99000000Y-59000000D03*
%TD*%
D26*
%TO.P,Y101,1*%
%TO.N,Net-(C108-Pad2)*%
X106500000Y-72830000D03*
%TO.P,Y101,2*%
%TO.N,Net-(C107-Pad2)*%
X106500000Y-64330000D03*
%TD*%
%TO.P,D105,1*%
%TO.N,Net-(D105-Pad1)*%
%TA.AperFunction,SMDPad,CuDef*%
G36*
G01*
X131456250Y-46175000D02*
X130543750Y-46175000D01*
G75*
G02*
X130300000Y-45931250I0J243750D01*
G01*
X130300000Y-45443750D01*
G75*
G02*
X130543750Y-45200000I243750J0D01*
G01*
X131456250Y-45200000D01*
G75*
G02*
X131700000Y-45443750I0J-243750D01*
G01*
X131700000Y-45931250D01*
G75*
G02*
X131456250Y-46175000I-243750J0D01*
G01*
G37*
%TD.AperFunction*%
%TO.P,D105,2*%
%TO.N,5V*%
%TA.AperFunction,SMDPad,CuDef*%
G36*
G01*
X131456250Y-44300000D02*
X130543750Y-44300000D01*
G75*
G02*
X130300000Y-44056250I0J243750D01*
G01*
X130300000Y-43568750D01*
G75*
G02*
X130543750Y-43325000I243750J0D01*
G01*
X131456250Y-43325000D01*
G75*
G02*
X131700000Y-43568750I0J-243750D01*
G01*
X131700000Y-44056250D01*
G75*
G02*
X131456250Y-44300000I-243750J0D01*
G01*
G37*
%TD.AperFunction*%
%TD*%
D27*
%TO.N,5V*%
X114000000Y-66500000D03*
X134750000Y-60250000D03*
X126538080Y-43491136D03*
X119250000Y-40750000D03*
X123012653Y-64487347D03*
X122522696Y-67499271D03*
X126000000Y-61000000D03*
X121055775Y-58831347D03*
X109375320Y-61100001D03*
X102750000Y-59662500D03*
X112203098Y-60346030D03*
X106754680Y-61029999D03*
%TO.N,GND*%
X102250000Y-50500000D03*
X114500000Y-52500000D03*
X130810000Y-66650000D03*
X115000000Y-67250000D03*
X112225009Y-50999685D03*
X127250000Y-40050000D03*
X123250000Y-40025000D03*
X100500000Y-61500000D03*
X104000000Y-63250000D03*
X107750000Y-58250000D03*
X127250000Y-50750000D03*
X114827485Y-64617312D03*
X120300000Y-56514320D03*
X124500000Y-58000000D03*
X112953188Y-62899980D03*
X109000000Y-62750000D03*
%TO.N,3V3*%
X118461862Y-49737041D03*
X127750000Y-61500000D03*
X123753071Y-48162859D03*
X124930690Y-54398906D03*
X115000000Y-53750000D03*
%TO.N,Net-(C203-Pad2)*%
X108250000Y-53500000D03*
X110904429Y-55610837D03*
%TO.N,DTR*%
X123009498Y-65532780D03*
X118749231Y-67573499D03*
%TO.N,Net-(D101-Pad1)*%
X116840000Y-75842500D03*
%TO.N,Net-(D102-Pad1)*%
X119380000Y-75842500D03*
%TO.N,Net-(D103-Pad1)*%
X121920000Y-75842500D03*
%TO.N,Net-(D103-Pad2)*%
X118000000Y-72590062D03*
X116602383Y-71091786D03*
%TO.N,Net-(D104-Pad1)*%
X124460000Y-75842500D03*
%TO.N,Net-(D104-Pad2)*%
X119967059Y-71774954D03*
X118250012Y-68439988D03*
%TO.N,Net-(D201-Pad2)*%
X125750000Y-41500000D03*
%TO.N,Net-(D203-Pad1)*%
X126250000Y-48250000D03*
X123578136Y-51862104D03*
X118325003Y-51685871D03*
%TO.N,Net-(D203-Pad2)*%
X125162500Y-46750000D03*
%TO.N,Net-(D204-Pad2)*%
X125162500Y-44750000D03*
%TO.N,Net-(D204-Pad1)*%
X126475000Y-49262653D03*
X122629769Y-53150022D03*
X118429992Y-52680350D03*
%TO.N,/MISO_D12*%
X127639989Y-73885055D03*
X120077039Y-66738768D03*
X110775000Y-59975000D03*
%TO.N,/SCK_D13*%
X125260136Y-69738101D03*
X126500000Y-62750000D03*
X121509948Y-59750000D03*
%TO.N,/MOSI_D11*%
X120154317Y-67735789D03*
X113336663Y-61397661D03*
%TO.N,Net-(J201-Pad2)*%
X131237340Y-40512660D03*
%TO.N,Net-(J201-Pad3)*%
X131000004Y-39250000D03*
%TO.N,1-Wire*%
X106500000Y-58000000D03*
X108100020Y-63250000D03*
%TO.N,Net-(JP101-Pad2)*%
X120000000Y-60389950D03*
X113011033Y-55794334D03*
X110649966Y-58123401D03*
%TO.N,Net-(JP102-Pad2)*%
X103750000Y-58750000D03*
X120428470Y-57964974D03*
X113000000Y-58000000D03*
%TO.N,Net-(R203-Pad2)*%
X112299989Y-54250000D03*
%TO.N,/D9*%
X120987342Y-69012658D03*
%TO.N,/D10*%
X122000003Y-69000000D03*
%TO.N,TX*%
X111487340Y-51737340D03*
%TO.N,Net-(D105-Pad1)*%
X129500000Y-44750000D03*
%TO.N,Net-(U102-Pad32)*%
X119750000Y-63999994D03*
%TO.N,Net-(U103-Pad2)*%
X125449998Y-55924679D03*
%TO.N,Net-(U103-Pad3)*%
X123750000Y-53750000D03*
%TO.N,Net-(U103-Pad5)*%
X122386727Y-49439859D03*
%TO.N,Net-(U103-Pad6)*%
X122630012Y-48469892D03*
%TO.N,Net-(U103-Pad14)*%
X105530000Y-52530000D03*
X126250000Y-57000000D03*
X113769448Y-54471669D03*
%TO.N,Net-(U103-Pad4)*%
X122868172Y-51157851D03*
%TD*%
D28*
%TO.N,5V*%
X133255001Y-73754999D02*
X132080000Y-74930000D01*
X133255001Y-71825999D02*
X133255001Y-73754999D01*
X132644001Y-71214999D02*
X133255001Y-71825999D01*
X129165997Y-71214999D02*
X132644001Y-71214999D01*
X124900000Y-68040000D02*
X125990998Y-68040000D01*
X127225499Y-67715499D02*
X127225499Y-69274501D01*
X125950000Y-66440000D02*
X127225499Y-67715499D01*
X124900000Y-66440000D02*
X125950000Y-66440000D01*
X127225499Y-69274501D02*
X129165997Y-71214999D01*
X125990998Y-68040000D02*
X127225499Y-69274501D01*
X96460000Y-56790000D02*
X99000000Y-54250000D01*
X96460000Y-59000000D02*
X96460000Y-56790000D01*
X96460000Y-72120000D02*
X99000000Y-74660000D01*
X96460000Y-59000000D02*
X96460000Y-72120000D01*
X102750000Y-70910000D02*
X99000000Y-74660000D01*
X102750000Y-59662500D02*
X102750000Y-70910000D01*
X114220000Y-65640000D02*
X113030000Y-64450000D01*
X116400000Y-65640000D02*
X114220000Y-65640000D01*
X113030000Y-65530000D02*
X114000000Y-66500000D01*
X113030000Y-64450000D02*
X113030000Y-65530000D01*
X134650000Y-60350000D02*
X134750000Y-60250000D01*
X133110000Y-60350000D02*
X134650000Y-60350000D01*
X123796944Y-40750000D02*
X119250000Y-40750000D01*
X126538080Y-43491136D02*
X123796944Y-40750000D01*
X126859444Y-43812500D02*
X126538080Y-43491136D01*
X131000000Y-43812500D02*
X126859444Y-43812500D01*
X116400000Y-65640000D02*
X117450000Y-65640000D01*
X117450000Y-65640000D02*
X117525001Y-65715001D01*
X117525001Y-65715001D02*
X117525000Y-67165000D01*
X117525000Y-67165000D02*
X117450000Y-67240000D01*
X123850000Y-66440000D02*
X124900000Y-66440000D01*
X123012653Y-64487347D02*
X123734499Y-65209193D01*
X116400000Y-67240000D02*
X117450000Y-67240000D01*
X123734499Y-65209193D02*
X123734499Y-66324499D01*
X123734499Y-66324499D02*
X123850000Y-66440000D01*
X117899582Y-69164999D02*
X119798111Y-69164999D01*
X121463839Y-67499271D02*
X122522696Y-67499271D01*
X119798111Y-69164999D02*
X121463839Y-67499271D01*
X117525001Y-68790418D02*
X117899582Y-69164999D01*
X117525001Y-67315001D02*
X117525001Y-68790418D01*
X117450000Y-67240000D02*
X117525001Y-67315001D01*
X123831347Y-58831347D02*
X121055775Y-58831347D01*
X126000000Y-61000000D02*
X123831347Y-58831347D01*
X128425012Y-53824988D02*
X128425012Y-45378068D01*
X128425012Y-45378068D02*
X126938079Y-43891135D01*
X126938079Y-43891135D02*
X126538080Y-43491136D01*
X128250000Y-54000000D02*
X128425012Y-53824988D01*
X111449127Y-61100001D02*
X112203098Y-60346030D01*
X109375320Y-61100001D02*
X111449127Y-61100001D01*
X106824682Y-61100001D02*
X106754680Y-61029999D01*
X109375320Y-61100001D02*
X106824682Y-61100001D01*
%TO.N,GND*%
X110790000Y-41020000D02*
X110790000Y-39040000D01*
X107280000Y-44530000D02*
X110790000Y-41020000D01*
X105530000Y-44530000D02*
X107280000Y-44530000D01*
X129800000Y-65640000D02*
X130810000Y-66650000D01*
X124900000Y-65640000D02*
X129800000Y-65640000D01*
X107290001Y-53604999D02*
X107750000Y-54064998D01*
X103919997Y-53604999D02*
X107290001Y-53604999D01*
X103704999Y-51954999D02*
X103704999Y-53390001D01*
X103704999Y-53390001D02*
X103919997Y-53604999D01*
X102250000Y-50500000D02*
X103704999Y-51954999D01*
X107750000Y-54064998D02*
X107750000Y-54750000D01*
X99440000Y-44530000D02*
X99000000Y-44090000D01*
X105530000Y-44530000D02*
X99440000Y-44530000D01*
X115000000Y-66790000D02*
X115000000Y-67250000D01*
X115350000Y-66440000D02*
X115000000Y-66790000D01*
X116400000Y-66440000D02*
X115350000Y-66440000D01*
X113030000Y-62550000D02*
X110490000Y-62550000D01*
X133550000Y-38900000D02*
X133550000Y-39700000D01*
X113012338Y-51012338D02*
X114500000Y-52500000D01*
X111139338Y-51012338D02*
X113012338Y-51012338D01*
X102250000Y-50500000D02*
X103205001Y-51455001D01*
X111126677Y-51024999D02*
X111139338Y-51012338D01*
X107720003Y-51024999D02*
X111126677Y-51024999D01*
X107290001Y-51455001D02*
X107720003Y-51024999D01*
X103205001Y-51455001D02*
X107290001Y-51455001D01*
X126160000Y-38960000D02*
X127250000Y-40050000D01*
X126160000Y-36750000D02*
X126160000Y-38960000D01*
X118901998Y-40025000D02*
X123250000Y-40025000D01*
X118524999Y-40401999D02*
X118901998Y-40025000D01*
X118524999Y-42274999D02*
X118524999Y-40401999D01*
X118780000Y-42530000D02*
X118524999Y-42274999D01*
X120530000Y-42530000D02*
X118780000Y-42530000D01*
X126160000Y-37115000D02*
X126160000Y-36750000D01*
X123250000Y-40025000D02*
X126160000Y-37115000D01*
X99000000Y-60000000D02*
X100500000Y-61500000D01*
X99000000Y-59000000D02*
X99000000Y-60000000D01*
X107750000Y-54750000D02*
X107750000Y-58250000D01*
X103919997Y-47455001D02*
X108544999Y-47455001D01*
X102250000Y-49124998D02*
X103919997Y-47455001D01*
X102250000Y-50500000D02*
X102250000Y-49124998D01*
X127170000Y-50670000D02*
X127250000Y-50750000D01*
X124710000Y-50670000D02*
X127170000Y-50670000D01*
X116400000Y-64840000D02*
X115050173Y-64840000D01*
X115050173Y-64840000D02*
X114827485Y-64617312D01*
X122000000Y-58000000D02*
X120530000Y-56530000D01*
X124500000Y-58000000D02*
X122000000Y-58000000D01*
X113024999Y-53975001D02*
X114500000Y-52500000D01*
X113246330Y-55069332D02*
X113024999Y-54848001D01*
X120530000Y-56530000D02*
X114819703Y-56530000D01*
X114819703Y-56530000D02*
X113359035Y-55069332D01*
X113359035Y-55069332D02*
X113246330Y-55069332D01*
X113024999Y-54848001D02*
X113024999Y-53975001D01*
X113030000Y-62550000D02*
X113030000Y-62823168D01*
X113030000Y-62823168D02*
X112953188Y-62899980D01*
X109200000Y-62550000D02*
X109000000Y-62750000D01*
X110490000Y-62550000D02*
X109200000Y-62550000D01*
%TO.N,3V3*%
X128510000Y-60350000D02*
X127750000Y-61110000D01*
X127750000Y-61110000D02*
X127750000Y-61500000D01*
X111621692Y-50530000D02*
X112414651Y-49737041D01*
X105530000Y-50530000D02*
X111621692Y-50530000D01*
X124710000Y-48770000D02*
X124102859Y-48162859D01*
X124102859Y-48162859D02*
X123753071Y-48162859D01*
X126174999Y-56010001D02*
X126239999Y-56075001D01*
X126239999Y-56075001D02*
X126575001Y-56075001D01*
X126174999Y-55399999D02*
X126174999Y-56010001D01*
X126575001Y-56075001D02*
X128510000Y-58010000D01*
X124750000Y-54700000D02*
X125475000Y-54700000D01*
X125475000Y-54700000D02*
X126174999Y-55399999D01*
X128510000Y-58010000D02*
X128510000Y-60350000D01*
X115399999Y-50874081D02*
X114262959Y-49737041D01*
X115000000Y-53750000D02*
X115399999Y-53350001D01*
X114262959Y-49737041D02*
X118461862Y-49737041D01*
X115399999Y-53350001D02*
X115399999Y-50874081D01*
X112414651Y-49737041D02*
X114262959Y-49737041D01*
X125800010Y-53649990D02*
X125800010Y-52311820D01*
X124750000Y-54700000D02*
X125800010Y-53649990D01*
X127598001Y-50024999D02*
X125964999Y-50024999D01*
X125800010Y-52311820D02*
X126636829Y-51475001D01*
X125964999Y-50024999D02*
X124710000Y-48770000D01*
X127975001Y-51098001D02*
X127975001Y-50401999D01*
X127975001Y-50401999D02*
X127598001Y-50024999D01*
X126636829Y-51475001D02*
X127598001Y-51475001D01*
X127598001Y-51475001D02*
X127975001Y-51098001D01*
%TO.N,Net-(C107-Pad2)*%
X110370000Y-64330000D02*
X110490000Y-64450000D01*
X106500000Y-64330000D02*
X110370000Y-64330000D01*
X110490000Y-66397500D02*
X111760000Y-67667500D01*
X110490000Y-64450000D02*
X110490000Y-66397500D01*
X112132500Y-68040000D02*
X116400000Y-68040000D01*
X111760000Y-67667500D02*
X112132500Y-68040000D01*
%TO.N,Net-(C108-Pad2)*%
X110370000Y-72830000D02*
X110490000Y-72710000D01*
X106500000Y-72830000D02*
X110370000Y-72830000D01*
X110490000Y-70762500D02*
X111760000Y-69492500D01*
X110490000Y-72710000D02*
X110490000Y-70762500D01*
X115747500Y-69492500D02*
X116400000Y-68840000D01*
X111760000Y-69492500D02*
X115747500Y-69492500D01*
%TO.N,Net-(C203-Pad2)*%
X108250000Y-53500000D02*
X110360837Y-55610837D01*
X110360837Y-55610837D02*
X110904429Y-55610837D01*
%TO.N,DTR*%
X120250000Y-62650002D02*
X120250000Y-61790000D01*
X122609499Y-65132781D02*
X123009498Y-65532780D01*
X120250000Y-62650002D02*
X120250000Y-62773282D01*
X120250000Y-62773282D02*
X122609499Y-65132781D01*
X118749231Y-67007814D02*
X118749231Y-67573499D01*
X120475001Y-65282044D02*
X118749231Y-67007814D01*
X120475001Y-63651993D02*
X120475001Y-65282044D01*
X120250000Y-63426992D02*
X120475001Y-63651993D01*
X120250000Y-61790000D02*
X120250000Y-63426992D01*
%TO.N,Net-(D101-Pad2)*%
X119450000Y-70290000D02*
X119450000Y-71155901D01*
X116840000Y-72563582D02*
X116840000Y-73992500D01*
X117538570Y-71865012D02*
X116840000Y-72563582D01*
X118740889Y-71865012D02*
X117538570Y-71865012D01*
X119450000Y-71155901D02*
X118740889Y-71865012D01*
%TO.N,Net-(D101-Pad1)*%
X116840000Y-75867500D02*
X116840000Y-75842500D01*
%TO.N,Net-(D102-Pad2)*%
X118650000Y-70290000D02*
X118650000Y-71150002D01*
X115814990Y-72904498D02*
X115814990Y-74471840D01*
X117304487Y-71415001D02*
X115814990Y-72904498D01*
X115814990Y-74471840D02*
X116148160Y-74805010D01*
X118385001Y-71415001D02*
X117304487Y-71415001D01*
X118567490Y-74805010D02*
X119380000Y-73992500D01*
X116148160Y-74805010D02*
X118567490Y-74805010D01*
X118650000Y-71150002D02*
X118385001Y-71415001D01*
%TO.N,Net-(D102-Pad1)*%
X119380000Y-75867500D02*
X119380000Y-75842500D01*
%TO.N,Net-(D103-Pad1)*%
X121920000Y-75867500D02*
X121920000Y-75842500D01*
%TO.N,Net-(D103-Pad2)*%
X120517562Y-72590062D02*
X118000000Y-72590062D01*
X117850000Y-70290000D02*
X117404169Y-70290000D01*
X121920000Y-73992500D02*
X120517562Y-72590062D01*
X117404169Y-70290000D02*
X116602383Y-71091786D01*
%TO.N,Net-(D104-Pad1)*%
X124460000Y-75867500D02*
X124460000Y-75842500D01*
%TO.N,Net-(D104-Pad2)*%
X124460000Y-73992500D02*
X122242454Y-71774954D01*
X122242454Y-71774954D02*
X119967059Y-71774954D01*
X117975025Y-68165001D02*
X118250012Y-68439988D01*
X117975025Y-64565025D02*
X117975025Y-68165001D01*
X117450000Y-64040000D02*
X117975025Y-64565025D01*
X116400000Y-64040000D02*
X117450000Y-64040000D01*
%TO.N,Net-(D201-Pad2)*%
X133450000Y-42000000D02*
X133550000Y-42100000D01*
X131250000Y-42000000D02*
X133450000Y-42000000D01*
X126250000Y-42000000D02*
X125750000Y-41500000D01*
X131250000Y-42000000D02*
X126250000Y-42000000D01*
%TO.N,Net-(D203-Pad1)*%
X125850001Y-47850001D02*
X124478073Y-47850001D01*
X126250000Y-48250000D02*
X125850001Y-47850001D01*
X124478073Y-47850001D02*
X123378072Y-46750000D01*
X123378072Y-46750000D02*
X123312500Y-46750000D01*
X123468302Y-51971938D02*
X123578136Y-51862104D01*
X118405875Y-51604999D02*
X122290001Y-51604999D01*
X122656940Y-51971938D02*
X123468302Y-51971938D01*
X118325003Y-51685871D02*
X118405875Y-51604999D01*
X122290001Y-51604999D02*
X122656940Y-51971938D01*
%TO.N,Net-(D203-Pad2)*%
X125187500Y-46750000D02*
X125162500Y-46750000D01*
%TO.N,Net-(D204-Pad2)*%
X125187500Y-44750000D02*
X125162500Y-44750000D01*
%TO.N,Net-(D204-Pad1)*%
X124337510Y-43724990D02*
X123312500Y-44750000D01*
X125666840Y-43724990D02*
X124337510Y-43724990D01*
X126975001Y-45033151D02*
X125666840Y-43724990D01*
X126975001Y-48762652D02*
X126975001Y-45033151D01*
X126475000Y-49262653D02*
X126975001Y-48762652D01*
X118429992Y-52680350D02*
X118429992Y-53326977D01*
X118653036Y-53550021D02*
X122229770Y-53550021D01*
X122229770Y-53550021D02*
X122629769Y-53150022D01*
X118429992Y-53326977D02*
X118653036Y-53550021D01*
%TO.N,/MISO_D12*%
X123450000Y-70290000D02*
X124044934Y-70290000D01*
X124044934Y-70290000D02*
X127639989Y-73885055D01*
X123057098Y-66324258D02*
X120491549Y-66324258D01*
X120491549Y-66324258D02*
X120077039Y-66738768D01*
X123697709Y-66964869D02*
X123057098Y-66324258D01*
X123450000Y-70290000D02*
X123697709Y-70042291D01*
X123697709Y-70042291D02*
X123697709Y-66964869D01*
X109800000Y-59750000D02*
X110550000Y-59750000D01*
X110550000Y-59750000D02*
X110775000Y-59975000D01*
%TO.N,/SCK_D13*%
X125990000Y-68840000D02*
X129540000Y-72390000D01*
X124900000Y-68840000D02*
X125990000Y-68840000D01*
X124900000Y-69377965D02*
X125260136Y-69738101D01*
X124900000Y-68840000D02*
X124900000Y-69377965D01*
X123500000Y-59750000D02*
X121509948Y-59750000D01*
X126500000Y-62750000D02*
X123500000Y-59750000D01*
%TO.N,/MOSI_D11*%
X124310000Y-73000000D02*
X125682189Y-73000000D01*
X128364999Y-73819999D02*
X128429999Y-73754999D01*
X127988258Y-74610065D02*
X128364999Y-74233324D01*
X130715001Y-73754999D02*
X132080000Y-72390000D01*
X128429999Y-73754999D02*
X130715001Y-73754999D01*
X122650000Y-71340000D02*
X124310000Y-73000000D01*
X128364999Y-74233324D02*
X128364999Y-73819999D01*
X122650000Y-70290000D02*
X122650000Y-71340000D01*
X125682189Y-73000000D02*
X127292254Y-74610065D01*
X127292254Y-74610065D02*
X127988258Y-74610065D01*
X122650000Y-70290000D02*
X122848002Y-70091998D01*
X122848002Y-70091998D02*
X122848002Y-68246969D01*
X123247698Y-67847273D02*
X123247698Y-67151269D01*
X122870698Y-66774269D02*
X121115837Y-66774269D01*
X121115837Y-66774269D02*
X120154317Y-67735789D01*
X122848002Y-68246969D02*
X123247698Y-67847273D01*
X123247698Y-67151269D02*
X122870698Y-66774269D01*
X108005002Y-62000000D02*
X109501810Y-62000000D01*
X109776820Y-61724990D02*
X113009334Y-61724990D01*
X113009334Y-61724990D02*
X113336663Y-61397661D01*
X106060000Y-59690000D02*
X106029680Y-59720320D01*
X107760001Y-61754999D02*
X108005002Y-62000000D01*
X109501810Y-62000000D02*
X109776820Y-61724990D01*
X106406678Y-61754999D02*
X107760001Y-61754999D01*
X106029680Y-61378001D02*
X106406678Y-61754999D01*
X106029680Y-59720320D02*
X106029680Y-61378001D01*
%TO.N,Net-(J103-Pad1)*%
X108250000Y-39810000D02*
X108250000Y-36500000D01*
X105530000Y-42530000D02*
X108250000Y-39810000D01*
%TO.N,Net-(J201-Pad2)*%
X133550000Y-41300000D02*
X132024680Y-41300000D01*
X132024680Y-41300000D02*
X131237340Y-40512660D01*
%TO.N,Net-(J201-Pad3)*%
X132250004Y-40500000D02*
X131000004Y-39250000D01*
X133550000Y-40500000D02*
X132250004Y-40500000D01*
%TO.N,1-Wire*%
X97730000Y-58000000D02*
X97730000Y-59000000D01*
X97892500Y-57837500D02*
X97730000Y-58000000D01*
X102750000Y-57837500D02*
X97892500Y-57837500D01*
X102750000Y-52920000D02*
X99000000Y-49170000D01*
X102750000Y-57837500D02*
X102750000Y-52920000D01*
X97174999Y-67754999D02*
X99000000Y-69580000D01*
X97174999Y-63623999D02*
X97174999Y-67754999D01*
X97730000Y-63068998D02*
X97174999Y-63623999D01*
X97730000Y-59000000D02*
X97730000Y-63068998D01*
X106337500Y-57837500D02*
X106500000Y-58000000D01*
X102750000Y-57837500D02*
X106337500Y-57837500D01*
X102714999Y-45455001D02*
X99000000Y-49170000D01*
X107294999Y-45455001D02*
X102714999Y-45455001D01*
X114174999Y-38575001D02*
X107294999Y-45455001D01*
X117760001Y-38575001D02*
X114174999Y-38575001D01*
X119585002Y-36750000D02*
X117760001Y-38575001D01*
X121080000Y-36750000D02*
X119585002Y-36750000D01*
X108475010Y-63624990D02*
X108100020Y-63250000D01*
X113743180Y-63624990D02*
X108475010Y-63624990D01*
X114128170Y-63240000D02*
X113743180Y-63624990D01*
X116400000Y-63240000D02*
X114128170Y-63240000D01*
%TO.N,Net-(JP101-Pad2)*%
X120000000Y-58561810D02*
X119663180Y-58224990D01*
X119663180Y-58224990D02*
X113848014Y-58224990D01*
X108500000Y-59750000D02*
X108500000Y-58750000D01*
X112274998Y-58348002D02*
X112274998Y-57401998D01*
X112274998Y-57401998D02*
X113011033Y-56665963D01*
X109126599Y-58123401D02*
X110649966Y-58123401D01*
X113848014Y-58224990D02*
X113348002Y-58725002D01*
X113011033Y-56665963D02*
X113011033Y-55794334D01*
X113348002Y-58725002D02*
X112651998Y-58725002D01*
X112651998Y-58725002D02*
X112274998Y-58348002D01*
X108500000Y-58750000D02*
X109126599Y-58123401D01*
X120000000Y-60389950D02*
X120000000Y-58561810D01*
%TO.N,Net-(JP102-Pad2)*%
X103820000Y-58750000D02*
X104760000Y-59690000D01*
X103750000Y-58750000D02*
X103820000Y-58750000D01*
X113500000Y-57500000D02*
X113000000Y-58000000D01*
X120428470Y-57964974D02*
X119963496Y-57500000D01*
X119963496Y-57500000D02*
X113500000Y-57500000D01*
%TO.N,RX*%
X119450000Y-60912990D02*
X119450000Y-61790000D01*
X119162500Y-60625490D02*
X119450000Y-60912990D01*
X119162500Y-59250000D02*
X119162500Y-60625490D01*
%TO.N,Net-(R203-Pad2)*%
X117337500Y-59250000D02*
X116825000Y-59250000D01*
X111824987Y-57215598D02*
X112092064Y-56948522D01*
X116825000Y-59250000D02*
X116750013Y-59175013D01*
X116750013Y-59175013D02*
X112465598Y-59175013D01*
X111824987Y-58534402D02*
X111824987Y-57215598D01*
X112092064Y-56948522D02*
X112092064Y-54457925D01*
X112092064Y-54457925D02*
X112299989Y-54250000D01*
X112465598Y-59175013D02*
X111824987Y-58534402D01*
%TO.N,/D9*%
X121050000Y-69075316D02*
X120987342Y-69012658D01*
X121050000Y-70290000D02*
X121050000Y-69075316D01*
%TO.N,/D10*%
X121850000Y-69150003D02*
X122000003Y-69000000D01*
X121850000Y-70290000D02*
X121850000Y-69150003D01*
%TO.N,TX*%
X118650000Y-61790000D02*
X118650000Y-60286830D01*
X113600988Y-59625024D02*
X112279198Y-59625024D01*
X118650000Y-60286830D02*
X118638180Y-60275010D01*
X111374976Y-58720802D02*
X111374977Y-57029197D01*
X112279198Y-59625024D02*
X111374976Y-58720802D01*
X111642053Y-56762122D02*
X111642053Y-54987877D01*
X111374977Y-57029197D02*
X111642053Y-56762122D01*
X111487340Y-54833164D02*
X111487340Y-51737340D01*
X111642053Y-54987877D02*
X111487340Y-54833164D01*
X118638180Y-60275010D02*
X114250974Y-60275010D01*
X114250974Y-60275010D02*
X113600988Y-59625024D01*
%TO.N,Net-(D105-Pad1)*%
X131000000Y-45687500D02*
X130437500Y-45687500D01*
X130437500Y-45687500D02*
X129500000Y-44750000D01*
%TO.N,Net-(U102-Pad32)*%
X117850000Y-62840000D02*
X119009994Y-63999994D01*
X117850000Y-61790000D02*
X117850000Y-62840000D01*
X119009994Y-63999994D02*
X119750000Y-63999994D01*
%TO.N,Net-(U103-Pad2)*%
X120530000Y-54530000D02*
X122280000Y-54530000D01*
X122280000Y-54530000D02*
X123674679Y-55924679D01*
X123674679Y-55924679D02*
X125449998Y-55924679D01*
%TO.N,Net-(U103-Pad3)*%
X120530000Y-52530000D02*
X120638052Y-52421948D01*
X123699990Y-53699990D02*
X123750000Y-53750000D01*
X120638052Y-52421948D02*
X122977774Y-52421948D01*
X122977774Y-52421948D02*
X123699990Y-53144164D01*
X123699990Y-53144164D02*
X123699990Y-53699990D01*
%TO.N,Net-(U103-Pad5)*%
X121439859Y-49439859D02*
X122386727Y-49439859D01*
X120530000Y-48530000D02*
X121439859Y-49439859D01*
%TO.N,Net-(U103-Pad6)*%
X121430000Y-46530000D02*
X122630012Y-47730012D01*
X122630012Y-47730012D02*
X122630012Y-48469892D01*
X120530000Y-46530000D02*
X121430000Y-46530000D01*
%TO.N,Net-(U103-Pad14)*%
X126250000Y-57000000D02*
X124086777Y-57000000D01*
X114902778Y-55604999D02*
X113769448Y-54471669D01*
X122691776Y-55604999D02*
X114902778Y-55604999D01*
X124086777Y-57000000D02*
X122691776Y-55604999D01*
%TO.N,Net-(U103-Pad4)*%
X122240321Y-50530000D02*
X120530000Y-50530000D01*
X122868172Y-51157851D02*
X122240321Y-50530000D01*
%TD*%
D29*
%TO.N,GND*%
X95490829Y-59872578D02*
X95635788Y-60049212D01*
X95700000Y-60101910D01*
X95700001Y-72082668D01*
X95696324Y-72120000D01*
X95700001Y-72157333D01*
X95710998Y-72268986D01*
X95717157Y-72289289D01*
X95754454Y-72412246D01*
X95825026Y-72544276D01*
X95880813Y-72612252D01*
X95920000Y-72660001D01*
X95948998Y-72683799D01*
X96861928Y-73596730D01*
X96861928Y-76160000D01*
X96874188Y-76284482D01*
X96910498Y-76404180D01*
X96969463Y-76514494D01*
X97048815Y-76611185D01*
X97145506Y-76690537D01*
X97255820Y-76749502D01*
X97375518Y-76785812D01*
X97500000Y-76798072D01*
X100500000Y-76798072D01*
X100624482Y-76785812D01*
X100744180Y-76749502D01*
X100854494Y-76690537D01*
X100951185Y-76611185D01*
X101030537Y-76514494D01*
X101089502Y-76404180D01*
X101125812Y-76284482D01*
X101138072Y-76160000D01*
X101138072Y-73596729D01*
X103261003Y-71473799D01*
X103290001Y-71450001D01*
X103384974Y-71334276D01*
X103455546Y-71202247D01*
X103499003Y-71058986D01*
X103510000Y-70947333D01*
X103510000Y-70947323D01*
X103513676Y-70910000D01*
X103510000Y-70872677D01*
X103510000Y-60754527D01*
X103539852Y-60745472D01*
X103668269Y-60676831D01*
X103670498Y-60684180D01*
X103729463Y-60794494D01*
X103808815Y-60891185D01*
X103905506Y-60970537D01*
X104015820Y-61029502D01*
X104135518Y-61065812D01*
X104260000Y-61078072D01*
X105260000Y-61078072D01*
X105269681Y-61077119D01*
X105269681Y-61340669D01*
X105266004Y-61378001D01*
X105269681Y-61415334D01*
X105276467Y-61484235D01*
X105255820Y-61490498D01*
X105145506Y-61549463D01*
X105048815Y-61628815D01*
X104969463Y-61725506D01*
X104910498Y-61835820D01*
X104874188Y-61955518D01*
X104861928Y-62080000D01*
X104861928Y-66580000D01*
X104874188Y-66704482D01*
X104910498Y-66824180D01*
X104969463Y-66934494D01*
X105048815Y-67031185D01*
X105145506Y-67110537D01*
X105255820Y-67169502D01*
X105375518Y-67205812D01*
X105500000Y-67218072D01*
X107500000Y-67218072D01*
X107624482Y-67205812D01*
X107744180Y-67169502D01*
X107854494Y-67110537D01*
X107951185Y-67031185D01*
X108030537Y-66934494D01*
X108089502Y-66824180D01*
X108125812Y-66704482D01*
X108138072Y-66580000D01*
X108138072Y-65090000D01*
X109221334Y-65090000D01*
X109276595Y-65193386D01*
X109387038Y-65327962D01*
X109521614Y-65438405D01*
X109675150Y-65520472D01*
X109730001Y-65537111D01*
X109730001Y-66360168D01*
X109726324Y-66397500D01*
X109730001Y-66434833D01*
X109740998Y-66546486D01*
X109750640Y-66578273D01*
X109784454Y-66689746D01*
X109855026Y-66821776D01*
X109922362Y-66903824D01*
X109950000Y-66937501D01*
X109978998Y-66961299D01*
X110421997Y-67404298D01*
X110421928Y-67404998D01*
X110421928Y-67930002D01*
X110438992Y-68103256D01*
X110489528Y-68269852D01*
X110571595Y-68423387D01*
X110682038Y-68557962D01*
X110708891Y-68580000D01*
X110682038Y-68602038D01*
X110571595Y-68736613D01*
X110489528Y-68890148D01*
X110438992Y-69056744D01*
X110421928Y-69229998D01*
X110421928Y-69755002D01*
X110421997Y-69755702D01*
X109978998Y-70198701D01*
X109950000Y-70222499D01*
X109926202Y-70251497D01*
X109926201Y-70251498D01*
X109855026Y-70338224D01*
X109784454Y-70470254D01*
X109759265Y-70553294D01*
X109740998Y-70613514D01*
X109739177Y-70631999D01*
X109726324Y-70762500D01*
X109730001Y-70799832D01*
X109730001Y-71622889D01*
X109675150Y-71639528D01*
X109521614Y-71721595D01*
X109387038Y-71832038D01*
X109276595Y-71966614D01*
X109221334Y-72070000D01*
X108138072Y-72070000D01*
X108138072Y-70580000D01*
X108125812Y-70455518D01*
X108089502Y-70335820D01*
X108030537Y-70225506D01*
X107951185Y-70128815D01*
X107854494Y-70049463D01*
X107744180Y-69990498D01*
X107624482Y-69954188D01*
X107500000Y-69941928D01*
X105500000Y-69941928D01*
X105375518Y-69954188D01*
X105255820Y-69990498D01*
X105145506Y-70049463D01*
X105048815Y-70128815D01*
X104969463Y-70225506D01*
X104910498Y-70335820D01*
X104874188Y-70455518D01*
X104861928Y-70580000D01*
X104861928Y-75080000D01*
X104874188Y-75204482D01*
X104910498Y-75324180D01*
X104969463Y-75434494D01*
X105048815Y-75531185D01*
X105145506Y-75610537D01*
X105255820Y-75669502D01*
X105375518Y-75705812D01*
X105500000Y-75718072D01*
X107500000Y-75718072D01*
X107624482Y-75705812D01*
X107744180Y-75669502D01*
X107854494Y-75610537D01*
X107951185Y-75531185D01*
X108030537Y-75434494D01*
X108089502Y-75324180D01*
X108125812Y-75204482D01*
X108135117Y-75110000D01*
X109126928Y-75110000D01*
X109139188Y-75234482D01*
X109175498Y-75354180D01*
X109234463Y-75464494D01*
X109313815Y-75561185D01*
X109410506Y-75640537D01*
X109520820Y-75699502D01*
X109640518Y-75735812D01*
X109765000Y-75748072D01*
X110204250Y-75745000D01*
X110363000Y-75586250D01*
X110363000Y-74737000D01*
X110617000Y-74737000D01*
X110617000Y-75586250D01*
X110775750Y-75745000D01*
X111215000Y-75748072D01*
X111339482Y-75735812D01*
X111459180Y-75699502D01*
X111569494Y-75640537D01*
X111666185Y-75561185D01*
X111745537Y-75464494D01*
X111804502Y-75354180D01*
X111840812Y-75234482D01*
X111853072Y-75110000D01*
X111850000Y-74895750D01*
X111691250Y-74737000D01*
X110617000Y-74737000D01*
X110363000Y-74737000D01*
X109288750Y-74737000D01*
X109130000Y-74895750D01*
X109126928Y-75110000D01*
X108135117Y-75110000D01*
X108138072Y-75080000D01*
X108138072Y-73590000D01*
X109389521Y-73590000D01*
X109393594Y-73593342D01*
X109313815Y-73658815D01*
X109234463Y-73755506D01*
X109175498Y-73865820D01*
X109139188Y-73985518D01*
X109126928Y-74110000D01*
X109130000Y-74324250D01*
X109288750Y-74483000D01*
X110363000Y-74483000D01*
X110363000Y-74463000D01*
X110617000Y-74463000D01*
X110617000Y-74483000D01*
X111691250Y-74483000D01*
X111850000Y-74324250D01*
X111853072Y-74110000D01*
X111840812Y-73985518D01*
X111804502Y-73865820D01*
X111745537Y-73755506D01*
X111666185Y-73658815D01*
X111586406Y-73593342D01*
X111592962Y-73587962D01*
X111703405Y-73453386D01*
X111785472Y-73299850D01*
X111836008Y-73133254D01*
X111853072Y-72960000D01*
X111853072Y-72460000D01*
X111836008Y-72286746D01*
X111785472Y-72120150D01*
X111703405Y-71966614D01*
X111592962Y-71832038D01*
X111458386Y-71721595D01*
X111304850Y-71639528D01*
X111250000Y-71622890D01*
X111250000Y-71077301D01*
X111684230Y-70643072D01*
X112210002Y-70643072D01*
X112383256Y-70626008D01*
X112549852Y-70575472D01*
X112703387Y-70493405D01*
X112837962Y-70382962D01*
X112945030Y-70252500D01*
X115710178Y-70252500D01*
X115747500Y-70256176D01*
X115784822Y-70252500D01*
X115784833Y-70252500D01*
X115896486Y-70241503D01*
X116039747Y-70198046D01*
X116171776Y-70127474D01*
X116287501Y-70032501D01*
X116311303Y-70003498D01*
X116561729Y-69753072D01*
X116861646Y-69753072D01*
X116840370Y-69778998D01*
X116562581Y-70056786D01*
X116500444Y-70056786D01*
X116300485Y-70096560D01*
X116112127Y-70174581D01*
X115942609Y-70287849D01*
X115798446Y-70432012D01*
X115685178Y-70601530D01*
X115607157Y-70789888D01*
X115567383Y-70989847D01*
X115567383Y-71193725D01*
X115607157Y-71393684D01*
X115685178Y-71582042D01*
X115798446Y-71751560D01*
X115845786Y-71798900D01*
X115303993Y-72340694D01*
X115274989Y-72364497D01*
X115231283Y-72417754D01*
X115180016Y-72480222D01*
X115135459Y-72563582D01*
X115109444Y-72612252D01*
X115065987Y-72755513D01*
X115054990Y-72867166D01*
X115054990Y-72867176D01*
X115051314Y-72904498D01*
X115054990Y-72941821D01*
X115054991Y-74434508D01*
X115051314Y-74471840D01*
X115065988Y-74620825D01*
X115109444Y-74764086D01*
X115180016Y-74896116D01*
X115240207Y-74969458D01*
X115274990Y-75011841D01*
X115303988Y-75035639D01*
X115565698Y-75297349D01*
X115518872Y-75451715D01*
X115501928Y-75623750D01*
X115501928Y-76111250D01*
X115518872Y-76283285D01*
X115569053Y-76448709D01*
X115650542Y-76601164D01*
X115760208Y-76734792D01*
X115857941Y-76815000D01*
X95435000Y-76815000D01*
X95435000Y-59768129D01*
X95490829Y-59872578D01*
%TA.AperFunction,Conductor*%
D30*
G36*
X95490829Y-59872578D02*
G01*
X95635788Y-60049212D01*
X95700000Y-60101910D01*
X95700001Y-72082668D01*
X95696324Y-72120000D01*
X95700001Y-72157333D01*
X95710998Y-72268986D01*
X95717157Y-72289289D01*
X95754454Y-72412246D01*
X95825026Y-72544276D01*
X95880813Y-72612252D01*
X95920000Y-72660001D01*
X95948998Y-72683799D01*
X96861928Y-73596730D01*
X96861928Y-76160000D01*
X96874188Y-76284482D01*
X96910498Y-76404180D01*
X96969463Y-76514494D01*
X97048815Y-76611185D01*
X97145506Y-76690537D01*
X97255820Y-76749502D01*
X97375518Y-76785812D01*
X97500000Y-76798072D01*
X100500000Y-76798072D01*
X100624482Y-76785812D01*
X100744180Y-76749502D01*
X100854494Y-76690537D01*
X100951185Y-76611185D01*
X101030537Y-76514494D01*
X101089502Y-76404180D01*
X101125812Y-76284482D01*
X101138072Y-76160000D01*
X101138072Y-73596729D01*
X103261003Y-71473799D01*
X103290001Y-71450001D01*
X103384974Y-71334276D01*
X103455546Y-71202247D01*
X103499003Y-71058986D01*
X103510000Y-70947333D01*
X103510000Y-70947323D01*
X103513676Y-70910000D01*
X103510000Y-70872677D01*
X103510000Y-60754527D01*
X103539852Y-60745472D01*
X103668269Y-60676831D01*
X103670498Y-60684180D01*
X103729463Y-60794494D01*
X103808815Y-60891185D01*
X103905506Y-60970537D01*
X104015820Y-61029502D01*
X104135518Y-61065812D01*
X104260000Y-61078072D01*
X105260000Y-61078072D01*
X105269681Y-61077119D01*
X105269681Y-61340669D01*
X105266004Y-61378001D01*
X105269681Y-61415334D01*
X105276467Y-61484235D01*
X105255820Y-61490498D01*
X105145506Y-61549463D01*
X105048815Y-61628815D01*
X104969463Y-61725506D01*
X104910498Y-61835820D01*
X104874188Y-61955518D01*
X104861928Y-62080000D01*
X104861928Y-66580000D01*
X104874188Y-66704482D01*
X104910498Y-66824180D01*
X104969463Y-66934494D01*
X105048815Y-67031185D01*
X105145506Y-67110537D01*
X105255820Y-67169502D01*
X105375518Y-67205812D01*
X105500000Y-67218072D01*
X107500000Y-67218072D01*
X107624482Y-67205812D01*
X107744180Y-67169502D01*
X107854494Y-67110537D01*
X107951185Y-67031185D01*
X108030537Y-66934494D01*
X108089502Y-66824180D01*
X108125812Y-66704482D01*
X108138072Y-66580000D01*
X108138072Y-65090000D01*
X109221334Y-65090000D01*
X109276595Y-65193386D01*
X109387038Y-65327962D01*
X109521614Y-65438405D01*
X109675150Y-65520472D01*
X109730001Y-65537111D01*
X109730001Y-66360168D01*
X109726324Y-66397500D01*
X109730001Y-66434833D01*
X109740998Y-66546486D01*
X109750640Y-66578273D01*
X109784454Y-66689746D01*
X109855026Y-66821776D01*
X109922362Y-66903824D01*
X109950000Y-66937501D01*
X109978998Y-66961299D01*
X110421997Y-67404298D01*
X110421928Y-67404998D01*
X110421928Y-67930002D01*
X110438992Y-68103256D01*
X110489528Y-68269852D01*
X110571595Y-68423387D01*
X110682038Y-68557962D01*
X110708891Y-68580000D01*
X110682038Y-68602038D01*
X110571595Y-68736613D01*
X110489528Y-68890148D01*
X110438992Y-69056744D01*
X110421928Y-69229998D01*
X110421928Y-69755002D01*
X110421997Y-69755702D01*
X109978998Y-70198701D01*
X109950000Y-70222499D01*
X109926202Y-70251497D01*
X109926201Y-70251498D01*
X109855026Y-70338224D01*
X109784454Y-70470254D01*
X109759265Y-70553294D01*
X109740998Y-70613514D01*
X109739177Y-70631999D01*
X109726324Y-70762500D01*
X109730001Y-70799832D01*
X109730001Y-71622889D01*
X109675150Y-71639528D01*
X109521614Y-71721595D01*
X109387038Y-71832038D01*
X109276595Y-71966614D01*
X109221334Y-72070000D01*
X108138072Y-72070000D01*
X108138072Y-70580000D01*
X108125812Y-70455518D01*
X108089502Y-70335820D01*
X108030537Y-70225506D01*
X107951185Y-70128815D01*
X107854494Y-70049463D01*
X107744180Y-69990498D01*
X107624482Y-69954188D01*
X107500000Y-69941928D01*
X105500000Y-69941928D01*
X105375518Y-69954188D01*
X105255820Y-69990498D01*
X105145506Y-70049463D01*
X105048815Y-70128815D01*
X104969463Y-70225506D01*
X104910498Y-70335820D01*
X104874188Y-70455518D01*
X104861928Y-70580000D01*
X104861928Y-75080000D01*
X104874188Y-75204482D01*
X104910498Y-75324180D01*
X104969463Y-75434494D01*
X105048815Y-75531185D01*
X105145506Y-75610537D01*
X105255820Y-75669502D01*
X105375518Y-75705812D01*
X105500000Y-75718072D01*
X107500000Y-75718072D01*
X107624482Y-75705812D01*
X107744180Y-75669502D01*
X107854494Y-75610537D01*
X107951185Y-75531185D01*
X108030537Y-75434494D01*
X108089502Y-75324180D01*
X108125812Y-75204482D01*
X108135117Y-75110000D01*
X109126928Y-75110000D01*
X109139188Y-75234482D01*
X109175498Y-75354180D01*
X109234463Y-75464494D01*
X109313815Y-75561185D01*
X109410506Y-75640537D01*
X109520820Y-75699502D01*
X109640518Y-75735812D01*
X109765000Y-75748072D01*
X110204250Y-75745000D01*
X110363000Y-75586250D01*
X110363000Y-74737000D01*
X110617000Y-74737000D01*
X110617000Y-75586250D01*
X110775750Y-75745000D01*
X111215000Y-75748072D01*
X111339482Y-75735812D01*
X111459180Y-75699502D01*
X111569494Y-75640537D01*
X111666185Y-75561185D01*
X111745537Y-75464494D01*
X111804502Y-75354180D01*
X111840812Y-75234482D01*
X111853072Y-75110000D01*
X111850000Y-74895750D01*
X111691250Y-74737000D01*
X110617000Y-74737000D01*
X110363000Y-74737000D01*
X109288750Y-74737000D01*
X109130000Y-74895750D01*
X109126928Y-75110000D01*
X108135117Y-75110000D01*
X108138072Y-75080000D01*
X108138072Y-73590000D01*
X109389521Y-73590000D01*
X109393594Y-73593342D01*
X109313815Y-73658815D01*
X109234463Y-73755506D01*
X109175498Y-73865820D01*
X109139188Y-73985518D01*
X109126928Y-74110000D01*
X109130000Y-74324250D01*
X109288750Y-74483000D01*
X110363000Y-74483000D01*
X110363000Y-74463000D01*
X110617000Y-74463000D01*
X110617000Y-74483000D01*
X111691250Y-74483000D01*
X111850000Y-74324250D01*
X111853072Y-74110000D01*
X111840812Y-73985518D01*
X111804502Y-73865820D01*
X111745537Y-73755506D01*
X111666185Y-73658815D01*
X111586406Y-73593342D01*
X111592962Y-73587962D01*
X111703405Y-73453386D01*
X111785472Y-73299850D01*
X111836008Y-73133254D01*
X111853072Y-72960000D01*
X111853072Y-72460000D01*
X111836008Y-72286746D01*
X111785472Y-72120150D01*
X111703405Y-71966614D01*
X111592962Y-71832038D01*
X111458386Y-71721595D01*
X111304850Y-71639528D01*
X111250000Y-71622890D01*
X111250000Y-71077301D01*
X111684230Y-70643072D01*
X112210002Y-70643072D01*
X112383256Y-70626008D01*
X112549852Y-70575472D01*
X112703387Y-70493405D01*
X112837962Y-70382962D01*
X112945030Y-70252500D01*
X115710178Y-70252500D01*
X115747500Y-70256176D01*
X115784822Y-70252500D01*
X115784833Y-70252500D01*
X115896486Y-70241503D01*
X116039747Y-70198046D01*
X116171776Y-70127474D01*
X116287501Y-70032501D01*
X116311303Y-70003498D01*
X116561729Y-69753072D01*
X116861646Y-69753072D01*
X116840370Y-69778998D01*
X116562581Y-70056786D01*
X116500444Y-70056786D01*
X116300485Y-70096560D01*
X116112127Y-70174581D01*
X115942609Y-70287849D01*
X115798446Y-70432012D01*
X115685178Y-70601530D01*
X115607157Y-70789888D01*
X115567383Y-70989847D01*
X115567383Y-71193725D01*
X115607157Y-71393684D01*
X115685178Y-71582042D01*
X115798446Y-71751560D01*
X115845786Y-71798900D01*
X115303993Y-72340694D01*
X115274989Y-72364497D01*
X115231283Y-72417754D01*
X115180016Y-72480222D01*
X115135459Y-72563582D01*
X115109444Y-72612252D01*
X115065987Y-72755513D01*
X115054990Y-72867166D01*
X115054990Y-72867176D01*
X115051314Y-72904498D01*
X115054990Y-72941821D01*
X115054991Y-74434508D01*
X115051314Y-74471840D01*
X115065988Y-74620825D01*
X115109444Y-74764086D01*
X115180016Y-74896116D01*
X115240207Y-74969458D01*
X115274990Y-75011841D01*
X115303988Y-75035639D01*
X115565698Y-75297349D01*
X115518872Y-75451715D01*
X115501928Y-75623750D01*
X115501928Y-76111250D01*
X115518872Y-76283285D01*
X115569053Y-76448709D01*
X115650542Y-76601164D01*
X115760208Y-76734792D01*
X115857941Y-76815000D01*
X95435000Y-76815000D01*
X95435000Y-59768129D01*
X95490829Y-59872578D01*
G37*
%TD.AperFunction*%
D29*
X104208286Y-32525921D02*
X104054911Y-32836840D01*
X103965140Y-33171705D01*
X103942424Y-33517650D01*
X103987634Y-33861380D01*
X104099034Y-34189685D01*
X104208286Y-34394079D01*
X104485469Y-34504926D01*
X105530395Y-33460000D01*
X105516253Y-33445858D01*
X105695858Y-33266253D01*
X105710000Y-33280395D01*
X105724143Y-33266253D01*
X105903748Y-33445858D01*
X105889605Y-33460000D01*
X106934531Y-34504926D01*
X107211714Y-34394079D01*
X107365089Y-34083160D01*
X107454860Y-33748295D01*
X107477576Y-33402350D01*
X107432366Y-33058620D01*
X107320966Y-32730315D01*
X107211714Y-32525921D01*
X106984358Y-32435000D01*
X109515642Y-32435000D01*
X109288286Y-32525921D01*
X109134911Y-32836840D01*
X109045140Y-33171705D01*
X109022424Y-33517650D01*
X109067634Y-33861380D01*
X109179034Y-34189685D01*
X109288286Y-34394079D01*
X109565469Y-34504926D01*
X110610395Y-33460000D01*
X110596253Y-33445858D01*
X110775858Y-33266253D01*
X110790000Y-33280395D01*
X110804143Y-33266253D01*
X110983748Y-33445858D01*
X110969605Y-33460000D01*
X112014531Y-34504926D01*
X112291714Y-34394079D01*
X112445089Y-34083160D01*
X112534860Y-33748295D01*
X112557576Y-33402350D01*
X112512366Y-33058620D01*
X112400966Y-32730315D01*
X112291714Y-32525921D01*
X112064358Y-32435000D01*
X142315000Y-32435000D01*
X142315001Y-76815000D01*
X125442059Y-76815000D01*
X125539792Y-76734792D01*
X125649458Y-76601164D01*
X125730947Y-76448709D01*
X125781128Y-76283285D01*
X125798072Y-76111250D01*
X125798072Y-75623750D01*
X125781128Y-75451715D01*
X125730947Y-75286291D01*
X125649458Y-75133836D01*
X125539792Y-75000208D01*
X125454244Y-74930000D01*
X125539792Y-74859792D01*
X125649458Y-74726164D01*
X125730947Y-74573709D01*
X125781128Y-74408285D01*
X125798072Y-74236250D01*
X125798072Y-74190684D01*
X126728455Y-75121068D01*
X126752253Y-75150066D01*
X126867978Y-75245039D01*
X127000007Y-75315611D01*
X127143268Y-75359068D01*
X127254921Y-75370065D01*
X127254929Y-75370065D01*
X127292254Y-75373741D01*
X127329579Y-75370065D01*
X127950936Y-75370065D01*
X127988258Y-75373741D01*
X128025580Y-75370065D01*
X128025591Y-75370065D01*
X128051928Y-75367471D01*
X128051928Y-75780000D01*
X128064188Y-75904482D01*
X128100498Y-76024180D01*
X128159463Y-76134494D01*
X128238815Y-76231185D01*
X128335506Y-76310537D01*
X128445820Y-76369502D01*
X128565518Y-76405812D01*
X128690000Y-76418072D01*
X130390000Y-76418072D01*
X130514482Y-76405812D01*
X130634180Y-76369502D01*
X130744494Y-76310537D01*
X130841185Y-76231185D01*
X130920537Y-76134494D01*
X130979502Y-76024180D01*
X131001513Y-75951620D01*
X131133368Y-76083475D01*
X131376589Y-76245990D01*
X131646842Y-76357932D01*
X131933740Y-76415000D01*
X132226260Y-76415000D01*
X132513158Y-76357932D01*
X132783411Y-76245990D01*
X133026632Y-76083475D01*
X133233475Y-75876632D01*
X133395990Y-75633411D01*
X133507932Y-75363158D01*
X133565000Y-75076260D01*
X133565000Y-74783740D01*
X133521210Y-74563592D01*
X133766004Y-74318798D01*
X133795002Y-74295000D01*
X133889975Y-74179275D01*
X133960547Y-74047246D01*
X134004004Y-73903985D01*
X134015001Y-73792332D01*
X134015001Y-73792323D01*
X134018677Y-73755000D01*
X134015001Y-73717677D01*
X134015001Y-73401653D01*
X137187952Y-73401653D01*
X137343962Y-73717214D01*
X137718745Y-73908020D01*
X138123551Y-74022044D01*
X138542824Y-74054902D01*
X138960451Y-74005334D01*
X139360383Y-73875243D01*
X139656038Y-73717214D01*
X139812048Y-73401653D01*
X138500000Y-72089605D01*
X137187952Y-73401653D01*
X134015001Y-73401653D01*
X134015001Y-71952824D01*
X136355098Y-71952824D01*
X136404666Y-72370451D01*
X136534757Y-72770383D01*
X136692786Y-73066038D01*
X137008347Y-73222048D01*
X138320395Y-71910000D01*
X138679605Y-71910000D01*
X139991653Y-73222048D01*
X140307214Y-73066038D01*
X140498020Y-72691255D01*
X140612044Y-72286449D01*
X140644902Y-71867176D01*
X140595334Y-71449549D01*
X140465243Y-71049617D01*
X140307214Y-70753962D01*
X139991653Y-70597952D01*
X138679605Y-71910000D01*
X138320395Y-71910000D01*
X137008347Y-70597952D01*
X136692786Y-70753962D01*
X136501980Y-71128745D01*
X136387956Y-71533551D01*
X136355098Y-71952824D01*
X134015001Y-71952824D01*
X134015001Y-71863321D01*
X134018677Y-71825998D01*
X134015001Y-71788675D01*
X134015001Y-71788666D01*
X134004004Y-71677013D01*
X133960547Y-71533752D01*
X133889975Y-71401723D01*
X133859004Y-71363985D01*
X133818800Y-71314995D01*
X133818796Y-71314991D01*
X133795002Y-71285998D01*
X133766010Y-71262205D01*
X133252987Y-70749184D01*
X133351641Y-70616920D01*
X133446223Y-70418347D01*
X137187952Y-70418347D01*
X138500000Y-71730395D01*
X139812048Y-70418347D01*
X139656038Y-70102786D01*
X139281255Y-69911980D01*
X138876449Y-69797956D01*
X138457176Y-69765098D01*
X138039549Y-69814666D01*
X137639617Y-69944757D01*
X137343962Y-70102786D01*
X137187952Y-70418347D01*
X133446223Y-70418347D01*
X133476825Y-70354099D01*
X133521476Y-70206890D01*
X133400155Y-69977000D01*
X132207000Y-69977000D01*
X132207000Y-69997000D01*
X131953000Y-69997000D01*
X131953000Y-69977000D01*
X131933000Y-69977000D01*
X131933000Y-69723000D01*
X131953000Y-69723000D01*
X131953000Y-68529186D01*
X132207000Y-68529186D01*
X132207000Y-69723000D01*
X133400155Y-69723000D01*
X133521476Y-69493110D01*
X133476825Y-69345901D01*
X133351641Y-69083080D01*
X133177588Y-68849731D01*
X132961355Y-68654822D01*
X132711252Y-68505843D01*
X132436891Y-68408519D01*
X132207000Y-68529186D01*
X131953000Y-68529186D01*
X131723109Y-68408519D01*
X131448748Y-68505843D01*
X131198645Y-68654822D01*
X130982412Y-68849731D01*
X130811100Y-69079406D01*
X130693475Y-68903368D01*
X130486632Y-68696525D01*
X130243411Y-68534010D01*
X129973158Y-68422068D01*
X129686260Y-68365000D01*
X129393740Y-68365000D01*
X129106842Y-68422068D01*
X128836589Y-68534010D01*
X128593368Y-68696525D01*
X128386525Y-68903368D01*
X128224010Y-69146589D01*
X128208890Y-69183091D01*
X127985499Y-68959700D01*
X127985499Y-67752821D01*
X127989175Y-67715499D01*
X127985499Y-67678176D01*
X127985499Y-67678166D01*
X127982725Y-67650000D01*
X128271928Y-67650000D01*
X128284188Y-67774482D01*
X128320498Y-67894180D01*
X128379463Y-68004494D01*
X128458815Y-68101185D01*
X128555506Y-68180537D01*
X128665820Y-68239502D01*
X128785518Y-68275812D01*
X128910000Y-68288072D01*
X130524250Y-68285000D01*
X130683000Y-68126250D01*
X130683000Y-66777000D01*
X130937000Y-66777000D01*
X130937000Y-68126250D01*
X131095750Y-68285000D01*
X132710000Y-68288072D01*
X132834482Y-68275812D01*
X132954180Y-68239502D01*
X133064494Y-68180537D01*
X133161185Y-68101185D01*
X133240537Y-68004494D01*
X133299502Y-67894180D01*
X133335812Y-67774482D01*
X133348072Y-67650000D01*
X133345000Y-66935750D01*
X133186250Y-66777000D01*
X130937000Y-66777000D01*
X130683000Y-66777000D01*
X128433750Y-66777000D01*
X128275000Y-66935750D01*
X128271928Y-67650000D01*
X127982725Y-67650000D01*
X127974502Y-67566513D01*
X127931045Y-67423252D01*
X127904581Y-67373742D01*
X127860473Y-67291222D01*
X127789298Y-67204496D01*
X127765500Y-67175498D01*
X127736503Y-67151701D01*
X127204523Y-66619721D01*
X136365000Y-66619721D01*
X136365000Y-67040279D01*
X136447047Y-67452756D01*
X136607988Y-67841302D01*
X136841637Y-68190983D01*
X137139017Y-68488363D01*
X137488698Y-68722012D01*
X137877244Y-68882953D01*
X138289721Y-68965000D01*
X138710279Y-68965000D01*
X139122756Y-68882953D01*
X139511302Y-68722012D01*
X139860983Y-68488363D01*
X140158363Y-68190983D01*
X140392012Y-67841302D01*
X140552953Y-67452756D01*
X140635000Y-67040279D01*
X140635000Y-66619721D01*
X140552953Y-66207244D01*
X140392012Y-65818698D01*
X140158363Y-65469017D01*
X139860983Y-65171637D01*
X139511302Y-64937988D01*
X139122756Y-64777047D01*
X138710279Y-64695000D01*
X138289721Y-64695000D01*
X137877244Y-64777047D01*
X137488698Y-64937988D01*
X137139017Y-65171637D01*
X136841637Y-65469017D01*
X136607988Y-65818698D01*
X136447047Y-66207244D01*
X136365000Y-66619721D01*
X127204523Y-66619721D01*
X126513804Y-65929003D01*
X126490001Y-65899999D01*
X126374276Y-65805026D01*
X126242247Y-65734454D01*
X126137685Y-65702736D01*
X126073427Y-65650000D01*
X128271928Y-65650000D01*
X128275000Y-66364250D01*
X128433750Y-66523000D01*
X130683000Y-66523000D01*
X130683000Y-65173750D01*
X130937000Y-65173750D01*
X130937000Y-66523000D01*
X133186250Y-66523000D01*
X133345000Y-66364250D01*
X133348072Y-65650000D01*
X133335812Y-65525518D01*
X133299502Y-65405820D01*
X133240537Y-65295506D01*
X133161185Y-65198815D01*
X133064494Y-65119463D01*
X132954180Y-65060498D01*
X132834482Y-65024188D01*
X132710000Y-65011928D01*
X131095750Y-65015000D01*
X130937000Y-65173750D01*
X130683000Y-65173750D01*
X130524250Y-65015000D01*
X128910000Y-65011928D01*
X128785518Y-65024188D01*
X128665820Y-65060498D01*
X128555506Y-65119463D01*
X128458815Y-65198815D01*
X128379463Y-65295506D01*
X128320498Y-65405820D01*
X128284188Y-65525518D01*
X128271928Y-65650000D01*
X126073427Y-65650000D01*
X126061241Y-65640000D01*
X126151185Y-65566185D01*
X126230537Y-65469494D01*
X126242917Y-65446333D01*
X126335000Y-65354250D01*
X126325467Y-65240620D01*
X126325812Y-65239482D01*
X126338072Y-65115000D01*
X126338072Y-64565000D01*
X126325812Y-64440518D01*
X126325655Y-64440000D01*
X126325812Y-64439482D01*
X126338072Y-64315000D01*
X126338072Y-63773068D01*
X126398061Y-63785000D01*
X126601939Y-63785000D01*
X126801898Y-63745226D01*
X126990256Y-63667205D01*
X127159774Y-63553937D01*
X127303937Y-63409774D01*
X127417205Y-63240256D01*
X127495226Y-63051898D01*
X127535000Y-62851939D01*
X127535000Y-62648061D01*
X127506927Y-62506927D01*
X127648061Y-62535000D01*
X127851939Y-62535000D01*
X128051898Y-62495226D01*
X128240256Y-62417205D01*
X128409774Y-62303937D01*
X128553937Y-62159774D01*
X128667205Y-61990256D01*
X128668110Y-61988072D01*
X129260000Y-61988072D01*
X129384482Y-61975812D01*
X129504180Y-61939502D01*
X129614494Y-61880537D01*
X129660000Y-61843191D01*
X129705506Y-61880537D01*
X129815820Y-61939502D01*
X129935518Y-61975812D01*
X130060000Y-61988072D01*
X130524250Y-61985000D01*
X130683000Y-61826250D01*
X130683000Y-60477000D01*
X130663000Y-60477000D01*
X130663000Y-60223000D01*
X130683000Y-60223000D01*
X130683000Y-58873750D01*
X130937000Y-58873750D01*
X130937000Y-60223000D01*
X130957000Y-60223000D01*
X130957000Y-60477000D01*
X130937000Y-60477000D01*
X130937000Y-61826250D01*
X131095750Y-61985000D01*
X131560000Y-61988072D01*
X131684482Y-61975812D01*
X131804180Y-61939502D01*
X131914494Y-61880537D01*
X131960000Y-61843191D01*
X132005506Y-61880537D01*
X132115820Y-61939502D01*
X132235518Y-61975812D01*
X132360000Y-61988072D01*
X133860000Y-61988072D01*
X133984482Y-61975812D01*
X134104180Y-61939502D01*
X134214494Y-61880537D01*
X134311185Y-61801185D01*
X134390537Y-61704494D01*
X134449502Y-61594180D01*
X134485812Y-61474482D01*
X134498072Y-61350000D01*
X134498072Y-61255166D01*
X134648061Y-61285000D01*
X134851939Y-61285000D01*
X135051898Y-61245226D01*
X135240256Y-61167205D01*
X135409774Y-61053937D01*
X135553937Y-60909774D01*
X135667205Y-60740256D01*
X135745226Y-60551898D01*
X135785000Y-60351939D01*
X135785000Y-60250000D01*
X136361928Y-60250000D01*
X136361928Y-63250000D01*
X136374188Y-63374482D01*
X136410498Y-63494180D01*
X136469463Y-63604494D01*
X136548815Y-63701185D01*
X136645506Y-63780537D01*
X136755820Y-63839502D01*
X136875518Y-63875812D01*
X137000000Y-63888072D01*
X140000000Y-63888072D01*
X140124482Y-63875812D01*
X140244180Y-63839502D01*
X140354494Y-63780537D01*
X140451185Y-63701185D01*
X140530537Y-63604494D01*
X140589502Y-63494180D01*
X140625812Y-63374482D01*
X140638072Y-63250000D01*
X140638072Y-60250000D01*
X140625812Y-60125518D01*
X140589502Y-60005820D01*
X140530537Y-59895506D01*
X140451185Y-59798815D01*
X140354494Y-59719463D01*
X140244180Y-59660498D01*
X140124482Y-59624188D01*
X140000000Y-59611928D01*
X137000000Y-59611928D01*
X136875518Y-59624188D01*
X136755820Y-59660498D01*
X136645506Y-59719463D01*
X136548815Y-59798815D01*
X136469463Y-59895506D01*
X136410498Y-60005820D01*
X136374188Y-60125518D01*
X136361928Y-60250000D01*
X135785000Y-60250000D01*
X135785000Y-60148061D01*
X135745226Y-59948102D01*
X135667205Y-59759744D01*
X135553937Y-59590226D01*
X135409774Y-59446063D01*
X135240256Y-59332795D01*
X135051898Y-59254774D01*
X134851939Y-59215000D01*
X134648061Y-59215000D01*
X134487913Y-59246855D01*
X134485812Y-59225518D01*
X134449502Y-59105820D01*
X134390537Y-58995506D01*
X134311185Y-58898815D01*
X134214494Y-58819463D01*
X134104180Y-58760498D01*
X133984482Y-58724188D01*
X133860000Y-58711928D01*
X132360000Y-58711928D01*
X132235518Y-58724188D01*
X132115820Y-58760498D01*
X132005506Y-58819463D01*
X131960000Y-58856809D01*
X131914494Y-58819463D01*
X131804180Y-58760498D01*
X131684482Y-58724188D01*
X131560000Y-58711928D01*
X131095750Y-58715000D01*
X130937000Y-58873750D01*
X130683000Y-58873750D01*
X130524250Y-58715000D01*
X130060000Y-58711928D01*
X129935518Y-58724188D01*
X129815820Y-58760498D01*
X129705506Y-58819463D01*
X129660000Y-58856809D01*
X129614494Y-58819463D01*
X129504180Y-58760498D01*
X129384482Y-58724188D01*
X129270000Y-58712913D01*
X129270000Y-58047323D01*
X129273676Y-58010000D01*
X129270000Y-57972677D01*
X129270000Y-57972667D01*
X129259003Y-57861014D01*
X129215546Y-57717753D01*
X129144974Y-57585724D01*
X129050001Y-57469999D01*
X129021004Y-57446202D01*
X127962873Y-56388072D01*
X130000000Y-56388072D01*
X130124482Y-56375812D01*
X130244180Y-56339502D01*
X130354494Y-56280537D01*
X130451185Y-56201185D01*
X130530537Y-56104494D01*
X130589502Y-55994180D01*
X130625812Y-55874482D01*
X130638072Y-55750000D01*
X132111928Y-55750000D01*
X132124188Y-55874482D01*
X132160498Y-55994180D01*
X132219463Y-56104494D01*
X132298815Y-56201185D01*
X132395506Y-56280537D01*
X132505820Y-56339502D01*
X132625518Y-56375812D01*
X132750000Y-56388072D01*
X133964250Y-56385000D01*
X134123000Y-56226250D01*
X134123000Y-54127000D01*
X134377000Y-54127000D01*
X134377000Y-56226250D01*
X134535750Y-56385000D01*
X135750000Y-56388072D01*
X135874482Y-56375812D01*
X135994180Y-56339502D01*
X136104494Y-56280537D01*
X136201185Y-56201185D01*
X136280537Y-56104494D01*
X136339502Y-55994180D01*
X136375812Y-55874482D01*
X136388072Y-55750000D01*
X136385000Y-54285750D01*
X136226250Y-54127000D01*
X134377000Y-54127000D01*
X134123000Y-54127000D01*
X132273750Y-54127000D01*
X132115000Y-54285750D01*
X132111928Y-55750000D01*
X130638072Y-55750000D01*
X130638072Y-52250000D01*
X132111928Y-52250000D01*
X132115000Y-53714250D01*
X132273750Y-53873000D01*
X134123000Y-53873000D01*
X134123000Y-51773750D01*
X134377000Y-51773750D01*
X134377000Y-53873000D01*
X136226250Y-53873000D01*
X136385000Y-53714250D01*
X136388072Y-52250000D01*
X136375812Y-52125518D01*
X136339502Y-52005820D01*
X136280537Y-51895506D01*
X136201185Y-51798815D01*
X136104494Y-51719463D01*
X135994180Y-51660498D01*
X135874482Y-51624188D01*
X135750000Y-51611928D01*
X134535750Y-51615000D01*
X134377000Y-51773750D01*
X134123000Y-51773750D01*
X133964250Y-51615000D01*
X132750000Y-51611928D01*
X132625518Y-51624188D01*
X132505820Y-51660498D01*
X132395506Y-51719463D01*
X132298815Y-51798815D01*
X132219463Y-51895506D01*
X132160498Y-52005820D01*
X132124188Y-52125518D01*
X132111928Y-52250000D01*
X130638072Y-52250000D01*
X130625812Y-52125518D01*
X130589502Y-52005820D01*
X130530537Y-51895506D01*
X130451185Y-51798815D01*
X130354494Y-51719463D01*
X130277869Y-51678506D01*
X130375000Y-51688072D01*
X132125000Y-51688072D01*
X132420186Y-51658999D01*
X132704028Y-51572896D01*
X132965618Y-51433073D01*
X133194903Y-51244903D01*
X133383073Y-51015618D01*
X133522896Y-50754028D01*
X133608999Y-50470186D01*
X133638072Y-50175000D01*
X133638072Y-48425000D01*
X133608999Y-48129814D01*
X133522896Y-47845972D01*
X133383073Y-47584382D01*
X133194903Y-47355097D01*
X132965618Y-47166927D01*
X132704028Y-47027104D01*
X132420186Y-46941001D01*
X132125000Y-46911928D01*
X130375000Y-46911928D01*
X130079814Y-46941001D01*
X129795972Y-47027104D01*
X129534382Y-47166927D01*
X129305097Y-47355097D01*
X129185012Y-47501420D01*
X129185012Y-45739804D01*
X129198102Y-45745226D01*
X129398061Y-45785000D01*
X129460198Y-45785000D01*
X129667989Y-45992791D01*
X129678872Y-46103285D01*
X129729053Y-46268709D01*
X129810542Y-46421164D01*
X129920208Y-46554792D01*
X130053836Y-46664458D01*
X130206291Y-46745947D01*
X130371715Y-46796128D01*
X130543750Y-46813072D01*
X131456250Y-46813072D01*
X131628285Y-46796128D01*
X131793709Y-46745947D01*
X131946164Y-46664458D01*
X132079792Y-46554792D01*
X132189458Y-46421164D01*
X132260641Y-46287990D01*
X132269463Y-46304494D01*
X132348815Y-46401185D01*
X132445506Y-46480537D01*
X132555820Y-46539502D01*
X132675518Y-46575812D01*
X132800000Y-46588072D01*
X133364250Y-46585000D01*
X133523000Y-46426250D01*
X133523000Y-45077000D01*
X133777000Y-45077000D01*
X133777000Y-46426250D01*
X133935750Y-46585000D01*
X134500000Y-46588072D01*
X134624482Y-46575812D01*
X134744180Y-46539502D01*
X134854494Y-46480537D01*
X134951185Y-46401185D01*
X135030537Y-46304494D01*
X135089502Y-46194180D01*
X135125812Y-46074482D01*
X135138072Y-45950000D01*
X137611928Y-45950000D01*
X137624188Y-46074482D01*
X137660498Y-46194180D01*
X137719463Y-46304494D01*
X137798815Y-46401185D01*
X137895506Y-46480537D01*
X138005820Y-46539502D01*
X138125518Y-46575812D01*
X138250000Y-46588072D01*
X138814250Y-46585000D01*
X138973000Y-46426250D01*
X138973000Y-45077000D01*
X139227000Y-45077000D01*
X139227000Y-46426250D01*
X139385750Y-46585000D01*
X139950000Y-46588072D01*
X140074482Y-46575812D01*
X140194180Y-46539502D01*
X140304494Y-46480537D01*
X140401185Y-46401185D01*
X140480537Y-46304494D01*
X140539502Y-46194180D01*
X140575812Y-46074482D01*
X140588072Y-45950000D01*
X140585000Y-45235750D01*
X140426250Y-45077000D01*
X139227000Y-45077000D01*
X138973000Y-45077000D01*
X137773750Y-45077000D01*
X137615000Y-45235750D01*
X137611928Y-45950000D01*
X135138072Y-45950000D01*
X135135000Y-45235750D01*
X134976250Y-45077000D01*
X133777000Y-45077000D01*
X133523000Y-45077000D01*
X133503000Y-45077000D01*
X133503000Y-44823000D01*
X133523000Y-44823000D01*
X133523000Y-43473750D01*
X133777000Y-43473750D01*
X133777000Y-44823000D01*
X134976250Y-44823000D01*
X135135000Y-44664250D01*
X135138072Y-43950000D01*
X137611928Y-43950000D01*
X137615000Y-44664250D01*
X137773750Y-44823000D01*
X138973000Y-44823000D01*
X138973000Y-43473750D01*
X139227000Y-43473750D01*
X139227000Y-44823000D01*
X140426250Y-44823000D01*
X140585000Y-44664250D01*
X140588072Y-43950000D01*
X140575812Y-43825518D01*
X140539502Y-43705820D01*
X140480537Y-43595506D01*
X140401185Y-43498815D01*
X140304494Y-43419463D01*
X140194180Y-43360498D01*
X140074482Y-43324188D01*
X139950000Y-43311928D01*
X139385750Y-43315000D01*
X139227000Y-43473750D01*
X138973000Y-43473750D01*
X138814250Y-43315000D01*
X138250000Y-43311928D01*
X138125518Y-43324188D01*
X138005820Y-43360498D01*
X137895506Y-43419463D01*
X137798815Y-43498815D01*
X137719463Y-43595506D01*
X137660498Y-43705820D01*
X137624188Y-43825518D01*
X137611928Y-43950000D01*
X135138072Y-43950000D01*
X135125812Y-43825518D01*
X135089502Y-43705820D01*
X135030537Y-43595506D01*
X134951185Y-43498815D01*
X134854494Y-43419463D01*
X134744180Y-43360498D01*
X134624482Y-43324188D01*
X134500000Y-43311928D01*
X133935750Y-43315000D01*
X133777000Y-43473750D01*
X133523000Y-43473750D01*
X133364250Y-43315000D01*
X132800000Y-43311928D01*
X132675518Y-43324188D01*
X132555820Y-43360498D01*
X132445506Y-43419463D01*
X132348815Y-43498815D01*
X132333073Y-43517996D01*
X132321128Y-43396715D01*
X132270947Y-43231291D01*
X132189458Y-43078836D01*
X132079792Y-42945208D01*
X131946164Y-42835542D01*
X131804835Y-42760000D01*
X132065015Y-42760000D01*
X132098815Y-42801185D01*
X132195506Y-42880537D01*
X132305820Y-42939502D01*
X132425518Y-42975812D01*
X132550000Y-42988072D01*
X134550000Y-42988072D01*
X134674482Y-42975812D01*
X134794180Y-42939502D01*
X134904494Y-42880537D01*
X135001185Y-42801185D01*
X135080537Y-42704494D01*
X135115000Y-42640019D01*
X135115000Y-42811788D01*
X135158617Y-43031067D01*
X135244176Y-43237624D01*
X135368388Y-43423520D01*
X135526480Y-43581612D01*
X135712376Y-43705824D01*
X135918933Y-43791383D01*
X136138212Y-43835000D01*
X136361788Y-43835000D01*
X136581067Y-43791383D01*
X136787624Y-43705824D01*
X136973520Y-43581612D01*
X137131612Y-43423520D01*
X137255824Y-43237624D01*
X137341383Y-43031067D01*
X137385000Y-42811788D01*
X137385000Y-42588212D01*
X137341383Y-42368933D01*
X137255824Y-42162376D01*
X137131612Y-41976480D01*
X136973520Y-41818388D01*
X136787624Y-41694176D01*
X136581067Y-41608617D01*
X136361788Y-41565000D01*
X136138212Y-41565000D01*
X135918933Y-41608617D01*
X135712376Y-41694176D01*
X135526480Y-41818388D01*
X135368388Y-41976480D01*
X135244176Y-42162376D01*
X135188072Y-42297823D01*
X135188072Y-41850000D01*
X135175812Y-41725518D01*
X135168071Y-41700000D01*
X135175812Y-41674482D01*
X135188072Y-41550000D01*
X135188072Y-41050000D01*
X135175812Y-40925518D01*
X135168071Y-40900000D01*
X135175812Y-40874482D01*
X135188072Y-40750000D01*
X135188072Y-40250000D01*
X135175812Y-40125518D01*
X135168316Y-40100808D01*
X135174266Y-40082013D01*
X135185000Y-39981750D01*
X135026250Y-39823000D01*
X135021033Y-39823000D01*
X135001185Y-39798815D01*
X134904494Y-39719463D01*
X134868405Y-39700173D01*
X134898076Y-39684770D01*
X134995716Y-39606588D01*
X135020601Y-39577000D01*
X135026250Y-39577000D01*
X135185000Y-39418250D01*
X135174266Y-39317987D01*
X135168572Y-39300000D01*
X135174266Y-39282013D01*
X135185000Y-39181750D01*
X135026250Y-39023000D01*
X135020601Y-39023000D01*
X134995716Y-38993412D01*
X134898076Y-38915230D01*
X134787059Y-38857599D01*
X134666933Y-38822734D01*
X134542312Y-38811974D01*
X133835750Y-38815000D01*
X133677000Y-38973750D01*
X133677000Y-39047000D01*
X133423000Y-39047000D01*
X133423000Y-38973750D01*
X133403000Y-38953750D01*
X133403000Y-38777000D01*
X133423000Y-38777000D01*
X133423000Y-38173750D01*
X133677000Y-38173750D01*
X133677000Y-38777000D01*
X135026250Y-38777000D01*
X135162590Y-38640660D01*
X135244176Y-38837624D01*
X135368388Y-39023520D01*
X135526480Y-39181612D01*
X135712376Y-39305824D01*
X135918933Y-39391383D01*
X136138212Y-39435000D01*
X136361788Y-39435000D01*
X136581067Y-39391383D01*
X136787624Y-39305824D01*
X136973520Y-39181612D01*
X137131612Y-39023520D01*
X137255824Y-38837624D01*
X137341383Y-38631067D01*
X137385000Y-38411788D01*
X137385000Y-38188212D01*
X137341383Y-37968933D01*
X137255824Y-37762376D01*
X137131612Y-37576480D01*
X136973520Y-37418388D01*
X136787624Y-37294176D01*
X136581067Y-37208617D01*
X136361788Y-37165000D01*
X136138212Y-37165000D01*
X135918933Y-37208617D01*
X135712376Y-37294176D01*
X135526480Y-37418388D01*
X135368388Y-37576480D01*
X135244176Y-37762376D01*
X135158617Y-37968933D01*
X135115000Y-38188212D01*
X135115000Y-38359621D01*
X135076228Y-38289140D01*
X134995716Y-38193412D01*
X134898076Y-38115230D01*
X134787059Y-38057599D01*
X134666933Y-38022734D01*
X134542312Y-38011974D01*
X133835750Y-38015000D01*
X133677000Y-38173750D01*
X133423000Y-38173750D01*
X133264250Y-38015000D01*
X132557688Y-38011974D01*
X132433067Y-38022734D01*
X132312941Y-38057599D01*
X132201924Y-38115230D01*
X132104284Y-38193412D01*
X132023772Y-38289140D01*
X131963483Y-38398736D01*
X131925734Y-38517987D01*
X131915000Y-38618250D01*
X132069748Y-38772998D01*
X131922699Y-38772998D01*
X131917209Y-38759744D01*
X131803941Y-38590226D01*
X131659778Y-38446063D01*
X131490260Y-38332795D01*
X131301902Y-38254774D01*
X131101943Y-38215000D01*
X130898065Y-38215000D01*
X130698106Y-38254774D01*
X130509748Y-38332795D01*
X130340230Y-38446063D01*
X130196067Y-38590226D01*
X130082799Y-38759744D01*
X130004778Y-38948102D01*
X129965004Y-39148061D01*
X129965004Y-39351939D01*
X130004778Y-39551898D01*
X130082799Y-39740256D01*
X130196067Y-39909774D01*
X130316785Y-40030492D01*
X130242114Y-40210762D01*
X130202340Y-40410721D01*
X130202340Y-40614599D01*
X130242114Y-40814558D01*
X130320135Y-41002916D01*
X130433403Y-41172434D01*
X130500969Y-41240000D01*
X126753560Y-41240000D01*
X126745226Y-41198102D01*
X126667205Y-41009744D01*
X126553937Y-40840226D01*
X126409774Y-40696063D01*
X126240256Y-40582795D01*
X126051898Y-40504774D01*
X125851939Y-40465000D01*
X125648061Y-40465000D01*
X125448102Y-40504774D01*
X125259744Y-40582795D01*
X125090226Y-40696063D01*
X124954017Y-40832272D01*
X124360748Y-40239003D01*
X124336945Y-40209999D01*
X124221220Y-40115026D01*
X124089191Y-40044454D01*
X123945930Y-40000997D01*
X123834277Y-39990000D01*
X123834266Y-39990000D01*
X123796944Y-39986324D01*
X123759622Y-39990000D01*
X119953711Y-39990000D01*
X119909774Y-39946063D01*
X119740256Y-39832795D01*
X119551898Y-39754774D01*
X119351939Y-39715000D01*
X119148061Y-39715000D01*
X118948102Y-39754774D01*
X118759744Y-39832795D01*
X118590226Y-39946063D01*
X118446063Y-40090226D01*
X118332795Y-40259744D01*
X118254774Y-40448102D01*
X118215000Y-40648061D01*
X118215000Y-40851939D01*
X118254774Y-41051898D01*
X118332795Y-41240256D01*
X118446063Y-41409774D01*
X118550097Y-41513808D01*
X118499463Y-41575506D01*
X118440498Y-41685820D01*
X118404188Y-41805518D01*
X118391928Y-41930000D01*
X118395000Y-42244250D01*
X118553750Y-42403000D01*
X120403000Y-42403000D01*
X120403000Y-42383000D01*
X120657000Y-42383000D01*
X120657000Y-42403000D01*
X122506250Y-42403000D01*
X122665000Y-42244250D01*
X122668072Y-41930000D01*
X122655812Y-41805518D01*
X122619502Y-41685820D01*
X122560537Y-41575506D01*
X122506778Y-41510000D01*
X123482143Y-41510000D01*
X124937132Y-42964990D01*
X124374832Y-42964990D01*
X124337509Y-42961314D01*
X124300186Y-42964990D01*
X124300177Y-42964990D01*
X124188524Y-42975987D01*
X124045263Y-43019444D01*
X123913233Y-43090016D01*
X123864513Y-43130000D01*
X123797509Y-43184989D01*
X123773711Y-43213987D01*
X123574020Y-43413678D01*
X123556250Y-43411928D01*
X123068750Y-43411928D01*
X122896715Y-43428872D01*
X122731291Y-43479053D01*
X122578836Y-43560542D01*
X122560557Y-43575543D01*
X122560537Y-43575506D01*
X122523191Y-43530000D01*
X122560537Y-43484494D01*
X122619502Y-43374180D01*
X122655812Y-43254482D01*
X122668072Y-43130000D01*
X122665000Y-42815750D01*
X122506250Y-42657000D01*
X120657000Y-42657000D01*
X120657000Y-42677000D01*
X120403000Y-42677000D01*
X120403000Y-42657000D01*
X118553750Y-42657000D01*
X118395000Y-42815750D01*
X118391928Y-43130000D01*
X118404188Y-43254482D01*
X118440498Y-43374180D01*
X118499463Y-43484494D01*
X118536809Y-43530000D01*
X118499463Y-43575506D01*
X118440498Y-43685820D01*
X118404188Y-43805518D01*
X118391928Y-43930000D01*
X118391928Y-45130000D01*
X118404188Y-45254482D01*
X118440498Y-45374180D01*
X118499463Y-45484494D01*
X118536809Y-45530000D01*
X118499463Y-45575506D01*
X118440498Y-45685820D01*
X118404188Y-45805518D01*
X118391928Y-45930000D01*
X118391928Y-47130000D01*
X118404188Y-47254482D01*
X118440498Y-47374180D01*
X118499463Y-47484494D01*
X118536809Y-47530000D01*
X118499463Y-47575506D01*
X118440498Y-47685820D01*
X118404188Y-47805518D01*
X118391928Y-47930000D01*
X118391928Y-48702041D01*
X118359923Y-48702041D01*
X118159964Y-48741815D01*
X117971606Y-48819836D01*
X117802088Y-48933104D01*
X117758151Y-48977041D01*
X114300281Y-48977041D01*
X114262959Y-48973365D01*
X114225637Y-48977041D01*
X112451973Y-48977041D01*
X112414650Y-48973365D01*
X112377327Y-48977041D01*
X112377318Y-48977041D01*
X112265665Y-48988038D01*
X112122404Y-49031495D01*
X111990375Y-49102067D01*
X111874650Y-49197040D01*
X111850852Y-49226039D01*
X111306891Y-49770000D01*
X107645038Y-49770000D01*
X107619502Y-49685820D01*
X107560537Y-49575506D01*
X107523191Y-49530000D01*
X107560537Y-49484494D01*
X107619502Y-49374180D01*
X107655812Y-49254482D01*
X107668072Y-49130000D01*
X107668072Y-47930000D01*
X107655812Y-47805518D01*
X107619502Y-47685820D01*
X107560537Y-47575506D01*
X107523191Y-47530000D01*
X107560537Y-47484494D01*
X107619502Y-47374180D01*
X107655812Y-47254482D01*
X107668072Y-47130000D01*
X107668072Y-46117344D01*
X107719275Y-46089975D01*
X107835000Y-45995002D01*
X107858803Y-45965998D01*
X114489801Y-39335001D01*
X117722679Y-39335001D01*
X117760001Y-39338677D01*
X117797323Y-39335001D01*
X117797334Y-39335001D01*
X117908987Y-39324004D01*
X118052248Y-39280547D01*
X118184277Y-39209975D01*
X118300002Y-39115002D01*
X118323805Y-39085998D01*
X119372444Y-38037360D01*
X119421637Y-38110983D01*
X119719017Y-38408363D01*
X120068698Y-38642012D01*
X120457244Y-38802953D01*
X120869721Y-38885000D01*
X121290279Y-38885000D01*
X121702756Y-38802953D01*
X122091302Y-38642012D01*
X122440983Y-38408363D01*
X122607693Y-38241653D01*
X124847952Y-38241653D01*
X125003962Y-38557214D01*
X125378745Y-38748020D01*
X125783551Y-38862044D01*
X126202824Y-38894902D01*
X126620451Y-38845334D01*
X127020383Y-38715243D01*
X127316038Y-38557214D01*
X127472048Y-38241653D01*
X126160000Y-36929605D01*
X124847952Y-38241653D01*
X122607693Y-38241653D01*
X122738363Y-38110983D01*
X122972012Y-37761302D01*
X123132953Y-37372756D01*
X123215000Y-36960279D01*
X123215000Y-36792824D01*
X124015098Y-36792824D01*
X124064666Y-37210451D01*
X124194757Y-37610383D01*
X124352786Y-37906038D01*
X124668347Y-38062048D01*
X125980395Y-36750000D01*
X126339605Y-36750000D01*
X127651653Y-38062048D01*
X127967214Y-37906038D01*
X128158020Y-37531255D01*
X128272044Y-37126449D01*
X128278035Y-37050000D01*
X132161928Y-37050000D01*
X132174188Y-37174482D01*
X132210498Y-37294180D01*
X132269463Y-37404494D01*
X132348815Y-37501185D01*
X132445506Y-37580537D01*
X132555820Y-37639502D01*
X132675518Y-37675812D01*
X132800000Y-37688072D01*
X133364250Y-37685000D01*
X133523000Y-37526250D01*
X133523000Y-36177000D01*
X133777000Y-36177000D01*
X133777000Y-37526250D01*
X133935750Y-37685000D01*
X134500000Y-37688072D01*
X134624482Y-37675812D01*
X134744180Y-37639502D01*
X134854494Y-37580537D01*
X134951185Y-37501185D01*
X135030537Y-37404494D01*
X135089502Y-37294180D01*
X135125812Y-37174482D01*
X135138072Y-37050000D01*
X137611928Y-37050000D01*
X137624188Y-37174482D01*
X137660498Y-37294180D01*
X137719463Y-37404494D01*
X137798815Y-37501185D01*
X137895506Y-37580537D01*
X138005820Y-37639502D01*
X138125518Y-37675812D01*
X138250000Y-37688072D01*
X138814250Y-37685000D01*
X138973000Y-37526250D01*
X138973000Y-36177000D01*
X139227000Y-36177000D01*
X139227000Y-37526250D01*
X139385750Y-37685000D01*
X139950000Y-37688072D01*
X140074482Y-37675812D01*
X140194180Y-37639502D01*
X140304494Y-37580537D01*
X140401185Y-37501185D01*
X140480537Y-37404494D01*
X140539502Y-37294180D01*
X140575812Y-37174482D01*
X140588072Y-37050000D01*
X140585000Y-36335750D01*
X140426250Y-36177000D01*
X139227000Y-36177000D01*
X138973000Y-36177000D01*
X137773750Y-36177000D01*
X137615000Y-36335750D01*
X137611928Y-37050000D01*
X135138072Y-37050000D01*
X135135000Y-36335750D01*
X134976250Y-36177000D01*
X133777000Y-36177000D01*
X133523000Y-36177000D01*
X132323750Y-36177000D01*
X132165000Y-36335750D01*
X132161928Y-37050000D01*
X128278035Y-37050000D01*
X128304902Y-36707176D01*
X128255334Y-36289549D01*
X128125243Y-35889617D01*
X127967214Y-35593962D01*
X127651653Y-35437952D01*
X126339605Y-36750000D01*
X125980395Y-36750000D01*
X124668347Y-35437952D01*
X124352786Y-35593962D01*
X124161980Y-35968745D01*
X124047956Y-36373551D01*
X124015098Y-36792824D01*
X123215000Y-36792824D01*
X123215000Y-36539721D01*
X123132953Y-36127244D01*
X122972012Y-35738698D01*
X122738363Y-35389017D01*
X122607693Y-35258347D01*
X124847952Y-35258347D01*
X126160000Y-36570395D01*
X127472048Y-35258347D01*
X127369044Y-35050000D01*
X132161928Y-35050000D01*
X132165000Y-35764250D01*
X132323750Y-35923000D01*
X133523000Y-35923000D01*
X133523000Y-34573750D01*
X133777000Y-34573750D01*
X133777000Y-35923000D01*
X134976250Y-35923000D01*
X135135000Y-35764250D01*
X135138072Y-35050000D01*
X137611928Y-35050000D01*
X137615000Y-35764250D01*
X137773750Y-35923000D01*
X138973000Y-35923000D01*
X138973000Y-34573750D01*
X139227000Y-34573750D01*
X139227000Y-35923000D01*
X140426250Y-35923000D01*
X140585000Y-35764250D01*
X140588072Y-35050000D01*
X140575812Y-34925518D01*
X140539502Y-34805820D01*
X140480537Y-34695506D01*
X140401185Y-34598815D01*
X140304494Y-34519463D01*
X140194180Y-34460498D01*
X140074482Y-34424188D01*
X139950000Y-34411928D01*
X139385750Y-34415000D01*
X139227000Y-34573750D01*
X138973000Y-34573750D01*
X138814250Y-34415000D01*
X138250000Y-34411928D01*
X138125518Y-34424188D01*
X138005820Y-34460498D01*
X137895506Y-34519463D01*
X137798815Y-34598815D01*
X137719463Y-34695506D01*
X137660498Y-34805820D01*
X137624188Y-34925518D01*
X137611928Y-35050000D01*
X135138072Y-35050000D01*
X135125812Y-34925518D01*
X135089502Y-34805820D01*
X135030537Y-34695506D01*
X134951185Y-34598815D01*
X134854494Y-34519463D01*
X134744180Y-34460498D01*
X134624482Y-34424188D01*
X134500000Y-34411928D01*
X133935750Y-34415000D01*
X133777000Y-34573750D01*
X133523000Y-34573750D01*
X133364250Y-34415000D01*
X132800000Y-34411928D01*
X132675518Y-34424188D01*
X132555820Y-34460498D01*
X132445506Y-34519463D01*
X132348815Y-34598815D01*
X132269463Y-34695506D01*
X132210498Y-34805820D01*
X132174188Y-34925518D01*
X132161928Y-35050000D01*
X127369044Y-35050000D01*
X127316038Y-34942786D01*
X126941255Y-34751980D01*
X126536449Y-34637956D01*
X126117176Y-34605098D01*
X125699549Y-34654666D01*
X125299617Y-34784757D01*
X125003962Y-34942786D01*
X124847952Y-35258347D01*
X122607693Y-35258347D01*
X122440983Y-35091637D01*
X122091302Y-34857988D01*
X121702756Y-34697047D01*
X121290279Y-34615000D01*
X120869721Y-34615000D01*
X120457244Y-34697047D01*
X120068698Y-34857988D01*
X119719017Y-35091637D01*
X119421637Y-35389017D01*
X119187988Y-35738698D01*
X119027047Y-36127244D01*
X119000749Y-36259451D01*
X118138072Y-37122128D01*
X118138072Y-35250000D01*
X118125812Y-35125518D01*
X118089502Y-35005820D01*
X118030537Y-34895506D01*
X117951185Y-34798815D01*
X117854494Y-34719463D01*
X117744180Y-34660498D01*
X117624482Y-34624188D01*
X117500000Y-34611928D01*
X114500000Y-34611928D01*
X114375518Y-34624188D01*
X114255820Y-34660498D01*
X114145506Y-34719463D01*
X114048815Y-34798815D01*
X113969463Y-34895506D01*
X113910498Y-35005820D01*
X113874188Y-35125518D01*
X113861928Y-35250000D01*
X113861928Y-37880586D01*
X113750723Y-37940027D01*
X113634998Y-38035000D01*
X113611200Y-38063998D01*
X112379911Y-39295287D01*
X112445089Y-39163160D01*
X112534860Y-38828295D01*
X112557576Y-38482350D01*
X112512366Y-38138620D01*
X112400966Y-37810315D01*
X112291714Y-37605921D01*
X112014531Y-37495074D01*
X110969605Y-38540000D01*
X110983748Y-38554143D01*
X110804143Y-38733748D01*
X110790000Y-38719605D01*
X109745074Y-39764531D01*
X109855921Y-40041714D01*
X110166840Y-40195089D01*
X110501705Y-40284860D01*
X110847650Y-40307576D01*
X111191380Y-40262366D01*
X111519685Y-40150966D01*
X111529454Y-40145744D01*
X107667311Y-44007888D01*
X107668072Y-43930000D01*
X107655812Y-43805518D01*
X107619502Y-43685820D01*
X107560537Y-43575506D01*
X107523191Y-43530000D01*
X107560537Y-43484494D01*
X107619502Y-43374180D01*
X107655812Y-43254482D01*
X107668072Y-43130000D01*
X107668072Y-41930000D01*
X107655812Y-41805518D01*
X107619502Y-41685820D01*
X107560537Y-41575506D01*
X107559977Y-41574824D01*
X108761004Y-40373798D01*
X108790001Y-40350001D01*
X108843461Y-40284860D01*
X108884974Y-40234277D01*
X108955546Y-40102247D01*
X108961684Y-40082013D01*
X108999003Y-39958986D01*
X109010000Y-39847333D01*
X109010000Y-39847323D01*
X109013676Y-39810000D01*
X109010000Y-39772677D01*
X109010000Y-38597650D01*
X109022424Y-38597650D01*
X109067634Y-38941380D01*
X109179034Y-39269685D01*
X109288286Y-39474079D01*
X109565469Y-39584926D01*
X110610395Y-38540000D01*
X109565469Y-37495074D01*
X109288286Y-37605921D01*
X109134911Y-37916840D01*
X109045140Y-38251705D01*
X109022424Y-38597650D01*
X109010000Y-38597650D01*
X109010000Y-37590208D01*
X109083673Y-37559692D01*
X109371935Y-37367081D01*
X109423547Y-37315469D01*
X109745074Y-37315469D01*
X110790000Y-38360395D01*
X111834926Y-37315469D01*
X111724079Y-37038286D01*
X111413160Y-36884911D01*
X111078295Y-36795140D01*
X110732350Y-36772424D01*
X110388620Y-36817634D01*
X110060315Y-36929034D01*
X109855921Y-37038286D01*
X109745074Y-37315469D01*
X109423547Y-37315469D01*
X109617081Y-37121935D01*
X109809692Y-36833673D01*
X109942364Y-36513373D01*
X110010000Y-36173345D01*
X110010000Y-35826655D01*
X109942364Y-35486627D01*
X109809692Y-35166327D01*
X109617081Y-34878065D01*
X109423547Y-34684531D01*
X109745074Y-34684531D01*
X109855921Y-34961714D01*
X110166840Y-35115089D01*
X110501705Y-35204860D01*
X110847650Y-35227576D01*
X111191380Y-35182366D01*
X111519685Y-35070966D01*
X111724079Y-34961714D01*
X111834926Y-34684531D01*
X110790000Y-33639605D01*
X109745074Y-34684531D01*
X109423547Y-34684531D01*
X109371935Y-34632919D01*
X109083673Y-34440308D01*
X108763373Y-34307636D01*
X108423345Y-34240000D01*
X108076655Y-34240000D01*
X107736627Y-34307636D01*
X107416327Y-34440308D01*
X107128065Y-34632919D01*
X106882919Y-34878065D01*
X106690308Y-35166327D01*
X106557636Y-35486627D01*
X106490000Y-35826655D01*
X106490000Y-36173345D01*
X106557636Y-36513373D01*
X106690308Y-36833673D01*
X106882919Y-37121935D01*
X107128065Y-37367081D01*
X107416327Y-37559692D01*
X107490001Y-37590208D01*
X107490000Y-39495198D01*
X105693271Y-41291928D01*
X104030000Y-41291928D01*
X103905518Y-41304188D01*
X103785820Y-41340498D01*
X103675506Y-41399463D01*
X103578815Y-41478815D01*
X103499463Y-41575506D01*
X103440498Y-41685820D01*
X103404188Y-41805518D01*
X103391928Y-41930000D01*
X103391928Y-43130000D01*
X103404188Y-43254482D01*
X103440498Y-43374180D01*
X103499463Y-43484494D01*
X103536809Y-43530000D01*
X103499463Y-43575506D01*
X103440498Y-43685820D01*
X103404188Y-43805518D01*
X103391928Y-43930000D01*
X103395000Y-44244250D01*
X103553750Y-44403000D01*
X105403000Y-44403000D01*
X105403000Y-44383000D01*
X105657000Y-44383000D01*
X105657000Y-44403000D01*
X105677000Y-44403000D01*
X105677000Y-44657000D01*
X105657000Y-44657000D01*
X105657000Y-44677000D01*
X105403000Y-44677000D01*
X105403000Y-44657000D01*
X103553750Y-44657000D01*
X103515749Y-44695001D01*
X102752322Y-44695001D01*
X102714999Y-44691325D01*
X102677676Y-44695001D01*
X102677666Y-44695001D01*
X102566013Y-44705998D01*
X102443722Y-44743094D01*
X102422752Y-44749455D01*
X102290722Y-44820027D01*
X102251838Y-44851939D01*
X102174998Y-44915000D01*
X102151200Y-44943998D01*
X99874059Y-47221140D01*
X99622756Y-47117047D01*
X99210279Y-47035000D01*
X98789721Y-47035000D01*
X98377244Y-47117047D01*
X97988698Y-47277988D01*
X97639017Y-47511637D01*
X97341637Y-47809017D01*
X97107988Y-48158698D01*
X96947047Y-48547244D01*
X96865000Y-48959721D01*
X96865000Y-49380279D01*
X96947047Y-49792756D01*
X97107988Y-50181302D01*
X97341637Y-50530983D01*
X97639017Y-50828363D01*
X97988698Y-51062012D01*
X98377244Y-51222953D01*
X98789721Y-51305000D01*
X99210279Y-51305000D01*
X99622756Y-51222953D01*
X99874059Y-51118860D01*
X101990001Y-53234803D01*
X101990000Y-56745472D01*
X101960148Y-56754528D01*
X101806613Y-56836595D01*
X101672038Y-56947038D01*
X101564970Y-57077500D01*
X97929825Y-57077500D01*
X97892500Y-57073824D01*
X97855175Y-57077500D01*
X97855167Y-57077500D01*
X97743514Y-57088497D01*
X97600253Y-57131954D01*
X97468224Y-57202526D01*
X97352499Y-57297499D01*
X97328696Y-57326503D01*
X97220000Y-57435199D01*
X97220000Y-57104801D01*
X97936730Y-56388072D01*
X100500000Y-56388072D01*
X100624482Y-56375812D01*
X100744180Y-56339502D01*
X100854494Y-56280537D01*
X100951185Y-56201185D01*
X101030537Y-56104494D01*
X101089502Y-55994180D01*
X101125812Y-55874482D01*
X101138072Y-55750000D01*
X101138072Y-52750000D01*
X101125812Y-52625518D01*
X101089502Y-52505820D01*
X101030537Y-52395506D01*
X100951185Y-52298815D01*
X100854494Y-52219463D01*
X100744180Y-52160498D01*
X100624482Y-52124188D01*
X100500000Y-52111928D01*
X97500000Y-52111928D01*
X97375518Y-52124188D01*
X97255820Y-52160498D01*
X97145506Y-52219463D01*
X97048815Y-52298815D01*
X96969463Y-52395506D01*
X96910498Y-52505820D01*
X96874188Y-52625518D01*
X96861928Y-52750000D01*
X96861928Y-55313270D01*
X95948998Y-56226201D01*
X95920000Y-56249999D01*
X95896202Y-56278997D01*
X95896201Y-56278998D01*
X95825026Y-56365724D01*
X95754454Y-56497754D01*
X95735678Y-56559653D01*
X95710998Y-56641014D01*
X95700165Y-56750998D01*
X95696324Y-56790000D01*
X95700001Y-56827332D01*
X95700000Y-57898091D01*
X95635789Y-57950788D01*
X95490830Y-58127421D01*
X95435000Y-58231871D01*
X95435000Y-45581653D01*
X97687952Y-45581653D01*
X97843962Y-45897214D01*
X98218745Y-46088020D01*
X98623551Y-46202044D01*
X99042824Y-46234902D01*
X99460451Y-46185334D01*
X99860383Y-46055243D01*
X100156038Y-45897214D01*
X100312048Y-45581653D01*
X99000000Y-44269605D01*
X97687952Y-45581653D01*
X95435000Y-45581653D01*
X95435000Y-44132824D01*
X96855098Y-44132824D01*
X96904666Y-44550451D01*
X97034757Y-44950383D01*
X97192786Y-45246038D01*
X97508347Y-45402048D01*
X98820395Y-44090000D01*
X99179605Y-44090000D01*
X100491653Y-45402048D01*
X100807214Y-45246038D01*
X100998020Y-44871255D01*
X101112044Y-44466449D01*
X101144902Y-44047176D01*
X101095334Y-43629549D01*
X100965243Y-43229617D01*
X100807214Y-42933962D01*
X100491653Y-42777952D01*
X99179605Y-44090000D01*
X98820395Y-44090000D01*
X97508347Y-42777952D01*
X97192786Y-42933962D01*
X97001980Y-43308745D01*
X96887956Y-43713551D01*
X96855098Y-44132824D01*
X95435000Y-44132824D01*
X95435000Y-42598347D01*
X97687952Y-42598347D01*
X99000000Y-43910395D01*
X100312048Y-42598347D01*
X100156038Y-42282786D01*
X99781255Y-42091980D01*
X99376449Y-41977956D01*
X98957176Y-41945098D01*
X98539549Y-41994666D01*
X98139617Y-42124757D01*
X97843962Y-42282786D01*
X97687952Y-42598347D01*
X95435000Y-42598347D01*
X95435000Y-39764531D01*
X104665074Y-39764531D01*
X104775921Y-40041714D01*
X105086840Y-40195089D01*
X105421705Y-40284860D01*
X105767650Y-40307576D01*
X106111380Y-40262366D01*
X106439685Y-40150966D01*
X106644079Y-40041714D01*
X106754926Y-39764531D01*
X105710000Y-38719605D01*
X104665074Y-39764531D01*
X95435000Y-39764531D01*
X95435000Y-38597650D01*
X103942424Y-38597650D01*
X103987634Y-38941380D01*
X104099034Y-39269685D01*
X104208286Y-39474079D01*
X104485469Y-39584926D01*
X105530395Y-38540000D01*
X105889605Y-38540000D01*
X106934531Y-39584926D01*
X107211714Y-39474079D01*
X107365089Y-39163160D01*
X107454860Y-38828295D01*
X107477576Y-38482350D01*
X107432366Y-38138620D01*
X107320966Y-37810315D01*
X107211714Y-37605921D01*
X106934531Y-37495074D01*
X105889605Y-38540000D01*
X105530395Y-38540000D01*
X104485469Y-37495074D01*
X104208286Y-37605921D01*
X104054911Y-37916840D01*
X103965140Y-38251705D01*
X103942424Y-38597650D01*
X95435000Y-38597650D01*
X95435000Y-37315469D01*
X104665074Y-37315469D01*
X105710000Y-38360395D01*
X106754926Y-37315469D01*
X106644079Y-37038286D01*
X106333160Y-36884911D01*
X105998295Y-36795140D01*
X105652350Y-36772424D01*
X105308620Y-36817634D01*
X104980315Y-36929034D01*
X104775921Y-37038286D01*
X104665074Y-37315469D01*
X95435000Y-37315469D01*
X95435000Y-34684531D01*
X104665074Y-34684531D01*
X104775921Y-34961714D01*
X105086840Y-35115089D01*
X105421705Y-35204860D01*
X105767650Y-35227576D01*
X106111380Y-35182366D01*
X106439685Y-35070966D01*
X106644079Y-34961714D01*
X106754926Y-34684531D01*
X105710000Y-33639605D01*
X104665074Y-34684531D01*
X95435000Y-34684531D01*
X95435000Y-32435000D01*
X104435642Y-32435000D01*
X104208286Y-32525921D01*
%TA.AperFunction,Conductor*%
D30*
G36*
X104208286Y-32525921D02*
G01*
X104054911Y-32836840D01*
X103965140Y-33171705D01*
X103942424Y-33517650D01*
X103987634Y-33861380D01*
X104099034Y-34189685D01*
X104208286Y-34394079D01*
X104485469Y-34504926D01*
X105530395Y-33460000D01*
X105516253Y-33445858D01*
X105695858Y-33266253D01*
X105710000Y-33280395D01*
X105724143Y-33266253D01*
X105903748Y-33445858D01*
X105889605Y-33460000D01*
X106934531Y-34504926D01*
X107211714Y-34394079D01*
X107365089Y-34083160D01*
X107454860Y-33748295D01*
X107477576Y-33402350D01*
X107432366Y-33058620D01*
X107320966Y-32730315D01*
X107211714Y-32525921D01*
X106984358Y-32435000D01*
X109515642Y-32435000D01*
X109288286Y-32525921D01*
X109134911Y-32836840D01*
X109045140Y-33171705D01*
X109022424Y-33517650D01*
X109067634Y-33861380D01*
X109179034Y-34189685D01*
X109288286Y-34394079D01*
X109565469Y-34504926D01*
X110610395Y-33460000D01*
X110596253Y-33445858D01*
X110775858Y-33266253D01*
X110790000Y-33280395D01*
X110804143Y-33266253D01*
X110983748Y-33445858D01*
X110969605Y-33460000D01*
X112014531Y-34504926D01*
X112291714Y-34394079D01*
X112445089Y-34083160D01*
X112534860Y-33748295D01*
X112557576Y-33402350D01*
X112512366Y-33058620D01*
X112400966Y-32730315D01*
X112291714Y-32525921D01*
X112064358Y-32435000D01*
X142315000Y-32435000D01*
X142315001Y-76815000D01*
X125442059Y-76815000D01*
X125539792Y-76734792D01*
X125649458Y-76601164D01*
X125730947Y-76448709D01*
X125781128Y-76283285D01*
X125798072Y-76111250D01*
X125798072Y-75623750D01*
X125781128Y-75451715D01*
X125730947Y-75286291D01*
X125649458Y-75133836D01*
X125539792Y-75000208D01*
X125454244Y-74930000D01*
X125539792Y-74859792D01*
X125649458Y-74726164D01*
X125730947Y-74573709D01*
X125781128Y-74408285D01*
X125798072Y-74236250D01*
X125798072Y-74190684D01*
X126728455Y-75121068D01*
X126752253Y-75150066D01*
X126867978Y-75245039D01*
X127000007Y-75315611D01*
X127143268Y-75359068D01*
X127254921Y-75370065D01*
X127254929Y-75370065D01*
X127292254Y-75373741D01*
X127329579Y-75370065D01*
X127950936Y-75370065D01*
X127988258Y-75373741D01*
X128025580Y-75370065D01*
X128025591Y-75370065D01*
X128051928Y-75367471D01*
X128051928Y-75780000D01*
X128064188Y-75904482D01*
X128100498Y-76024180D01*
X128159463Y-76134494D01*
X128238815Y-76231185D01*
X128335506Y-76310537D01*
X128445820Y-76369502D01*
X128565518Y-76405812D01*
X128690000Y-76418072D01*
X130390000Y-76418072D01*
X130514482Y-76405812D01*
X130634180Y-76369502D01*
X130744494Y-76310537D01*
X130841185Y-76231185D01*
X130920537Y-76134494D01*
X130979502Y-76024180D01*
X131001513Y-75951620D01*
X131133368Y-76083475D01*
X131376589Y-76245990D01*
X131646842Y-76357932D01*
X131933740Y-76415000D01*
X132226260Y-76415000D01*
X132513158Y-76357932D01*
X132783411Y-76245990D01*
X133026632Y-76083475D01*
X133233475Y-75876632D01*
X133395990Y-75633411D01*
X133507932Y-75363158D01*
X133565000Y-75076260D01*
X133565000Y-74783740D01*
X133521210Y-74563592D01*
X133766004Y-74318798D01*
X133795002Y-74295000D01*
X133889975Y-74179275D01*
X133960547Y-74047246D01*
X134004004Y-73903985D01*
X134015001Y-73792332D01*
X134015001Y-73792323D01*
X134018677Y-73755000D01*
X134015001Y-73717677D01*
X134015001Y-73401653D01*
X137187952Y-73401653D01*
X137343962Y-73717214D01*
X137718745Y-73908020D01*
X138123551Y-74022044D01*
X138542824Y-74054902D01*
X138960451Y-74005334D01*
X139360383Y-73875243D01*
X139656038Y-73717214D01*
X139812048Y-73401653D01*
X138500000Y-72089605D01*
X137187952Y-73401653D01*
X134015001Y-73401653D01*
X134015001Y-71952824D01*
X136355098Y-71952824D01*
X136404666Y-72370451D01*
X136534757Y-72770383D01*
X136692786Y-73066038D01*
X137008347Y-73222048D01*
X138320395Y-71910000D01*
X138679605Y-71910000D01*
X139991653Y-73222048D01*
X140307214Y-73066038D01*
X140498020Y-72691255D01*
X140612044Y-72286449D01*
X140644902Y-71867176D01*
X140595334Y-71449549D01*
X140465243Y-71049617D01*
X140307214Y-70753962D01*
X139991653Y-70597952D01*
X138679605Y-71910000D01*
X138320395Y-71910000D01*
X137008347Y-70597952D01*
X136692786Y-70753962D01*
X136501980Y-71128745D01*
X136387956Y-71533551D01*
X136355098Y-71952824D01*
X134015001Y-71952824D01*
X134015001Y-71863321D01*
X134018677Y-71825998D01*
X134015001Y-71788675D01*
X134015001Y-71788666D01*
X134004004Y-71677013D01*
X133960547Y-71533752D01*
X133889975Y-71401723D01*
X133859004Y-71363985D01*
X133818800Y-71314995D01*
X133818796Y-71314991D01*
X133795002Y-71285998D01*
X133766010Y-71262205D01*
X133252987Y-70749184D01*
X133351641Y-70616920D01*
X133446223Y-70418347D01*
X137187952Y-70418347D01*
X138500000Y-71730395D01*
X139812048Y-70418347D01*
X139656038Y-70102786D01*
X139281255Y-69911980D01*
X138876449Y-69797956D01*
X138457176Y-69765098D01*
X138039549Y-69814666D01*
X137639617Y-69944757D01*
X137343962Y-70102786D01*
X137187952Y-70418347D01*
X133446223Y-70418347D01*
X133476825Y-70354099D01*
X133521476Y-70206890D01*
X133400155Y-69977000D01*
X132207000Y-69977000D01*
X132207000Y-69997000D01*
X131953000Y-69997000D01*
X131953000Y-69977000D01*
X131933000Y-69977000D01*
X131933000Y-69723000D01*
X131953000Y-69723000D01*
X131953000Y-68529186D01*
X132207000Y-68529186D01*
X132207000Y-69723000D01*
X133400155Y-69723000D01*
X133521476Y-69493110D01*
X133476825Y-69345901D01*
X133351641Y-69083080D01*
X133177588Y-68849731D01*
X132961355Y-68654822D01*
X132711252Y-68505843D01*
X132436891Y-68408519D01*
X132207000Y-68529186D01*
X131953000Y-68529186D01*
X131723109Y-68408519D01*
X131448748Y-68505843D01*
X131198645Y-68654822D01*
X130982412Y-68849731D01*
X130811100Y-69079406D01*
X130693475Y-68903368D01*
X130486632Y-68696525D01*
X130243411Y-68534010D01*
X129973158Y-68422068D01*
X129686260Y-68365000D01*
X129393740Y-68365000D01*
X129106842Y-68422068D01*
X128836589Y-68534010D01*
X128593368Y-68696525D01*
X128386525Y-68903368D01*
X128224010Y-69146589D01*
X128208890Y-69183091D01*
X127985499Y-68959700D01*
X127985499Y-67752821D01*
X127989175Y-67715499D01*
X127985499Y-67678176D01*
X127985499Y-67678166D01*
X127982725Y-67650000D01*
X128271928Y-67650000D01*
X128284188Y-67774482D01*
X128320498Y-67894180D01*
X128379463Y-68004494D01*
X128458815Y-68101185D01*
X128555506Y-68180537D01*
X128665820Y-68239502D01*
X128785518Y-68275812D01*
X128910000Y-68288072D01*
X130524250Y-68285000D01*
X130683000Y-68126250D01*
X130683000Y-66777000D01*
X130937000Y-66777000D01*
X130937000Y-68126250D01*
X131095750Y-68285000D01*
X132710000Y-68288072D01*
X132834482Y-68275812D01*
X132954180Y-68239502D01*
X133064494Y-68180537D01*
X133161185Y-68101185D01*
X133240537Y-68004494D01*
X133299502Y-67894180D01*
X133335812Y-67774482D01*
X133348072Y-67650000D01*
X133345000Y-66935750D01*
X133186250Y-66777000D01*
X130937000Y-66777000D01*
X130683000Y-66777000D01*
X128433750Y-66777000D01*
X128275000Y-66935750D01*
X128271928Y-67650000D01*
X127982725Y-67650000D01*
X127974502Y-67566513D01*
X127931045Y-67423252D01*
X127904581Y-67373742D01*
X127860473Y-67291222D01*
X127789298Y-67204496D01*
X127765500Y-67175498D01*
X127736503Y-67151701D01*
X127204523Y-66619721D01*
X136365000Y-66619721D01*
X136365000Y-67040279D01*
X136447047Y-67452756D01*
X136607988Y-67841302D01*
X136841637Y-68190983D01*
X137139017Y-68488363D01*
X137488698Y-68722012D01*
X137877244Y-68882953D01*
X138289721Y-68965000D01*
X138710279Y-68965000D01*
X139122756Y-68882953D01*
X139511302Y-68722012D01*
X139860983Y-68488363D01*
X140158363Y-68190983D01*
X140392012Y-67841302D01*
X140552953Y-67452756D01*
X140635000Y-67040279D01*
X140635000Y-66619721D01*
X140552953Y-66207244D01*
X140392012Y-65818698D01*
X140158363Y-65469017D01*
X139860983Y-65171637D01*
X139511302Y-64937988D01*
X139122756Y-64777047D01*
X138710279Y-64695000D01*
X138289721Y-64695000D01*
X137877244Y-64777047D01*
X137488698Y-64937988D01*
X137139017Y-65171637D01*
X136841637Y-65469017D01*
X136607988Y-65818698D01*
X136447047Y-66207244D01*
X136365000Y-66619721D01*
X127204523Y-66619721D01*
X126513804Y-65929003D01*
X126490001Y-65899999D01*
X126374276Y-65805026D01*
X126242247Y-65734454D01*
X126137685Y-65702736D01*
X126073427Y-65650000D01*
X128271928Y-65650000D01*
X128275000Y-66364250D01*
X128433750Y-66523000D01*
X130683000Y-66523000D01*
X130683000Y-65173750D01*
X130937000Y-65173750D01*
X130937000Y-66523000D01*
X133186250Y-66523000D01*
X133345000Y-66364250D01*
X133348072Y-65650000D01*
X133335812Y-65525518D01*
X133299502Y-65405820D01*
X133240537Y-65295506D01*
X133161185Y-65198815D01*
X133064494Y-65119463D01*
X132954180Y-65060498D01*
X132834482Y-65024188D01*
X132710000Y-65011928D01*
X131095750Y-65015000D01*
X130937000Y-65173750D01*
X130683000Y-65173750D01*
X130524250Y-65015000D01*
X128910000Y-65011928D01*
X128785518Y-65024188D01*
X128665820Y-65060498D01*
X128555506Y-65119463D01*
X128458815Y-65198815D01*
X128379463Y-65295506D01*
X128320498Y-65405820D01*
X128284188Y-65525518D01*
X128271928Y-65650000D01*
X126073427Y-65650000D01*
X126061241Y-65640000D01*
X126151185Y-65566185D01*
X126230537Y-65469494D01*
X126242917Y-65446333D01*
X126335000Y-65354250D01*
X126325467Y-65240620D01*
X126325812Y-65239482D01*
X126338072Y-65115000D01*
X126338072Y-64565000D01*
X126325812Y-64440518D01*
X126325655Y-64440000D01*
X126325812Y-64439482D01*
X126338072Y-64315000D01*
X126338072Y-63773068D01*
X126398061Y-63785000D01*
X126601939Y-63785000D01*
X126801898Y-63745226D01*
X126990256Y-63667205D01*
X127159774Y-63553937D01*
X127303937Y-63409774D01*
X127417205Y-63240256D01*
X127495226Y-63051898D01*
X127535000Y-62851939D01*
X127535000Y-62648061D01*
X127506927Y-62506927D01*
X127648061Y-62535000D01*
X127851939Y-62535000D01*
X128051898Y-62495226D01*
X128240256Y-62417205D01*
X128409774Y-62303937D01*
X128553937Y-62159774D01*
X128667205Y-61990256D01*
X128668110Y-61988072D01*
X129260000Y-61988072D01*
X129384482Y-61975812D01*
X129504180Y-61939502D01*
X129614494Y-61880537D01*
X129660000Y-61843191D01*
X129705506Y-61880537D01*
X129815820Y-61939502D01*
X129935518Y-61975812D01*
X130060000Y-61988072D01*
X130524250Y-61985000D01*
X130683000Y-61826250D01*
X130683000Y-60477000D01*
X130663000Y-60477000D01*
X130663000Y-60223000D01*
X130683000Y-60223000D01*
X130683000Y-58873750D01*
X130937000Y-58873750D01*
X130937000Y-60223000D01*
X130957000Y-60223000D01*
X130957000Y-60477000D01*
X130937000Y-60477000D01*
X130937000Y-61826250D01*
X131095750Y-61985000D01*
X131560000Y-61988072D01*
X131684482Y-61975812D01*
X131804180Y-61939502D01*
X131914494Y-61880537D01*
X131960000Y-61843191D01*
X132005506Y-61880537D01*
X132115820Y-61939502D01*
X132235518Y-61975812D01*
X132360000Y-61988072D01*
X133860000Y-61988072D01*
X133984482Y-61975812D01*
X134104180Y-61939502D01*
X134214494Y-61880537D01*
X134311185Y-61801185D01*
X134390537Y-61704494D01*
X134449502Y-61594180D01*
X134485812Y-61474482D01*
X134498072Y-61350000D01*
X134498072Y-61255166D01*
X134648061Y-61285000D01*
X134851939Y-61285000D01*
X135051898Y-61245226D01*
X135240256Y-61167205D01*
X135409774Y-61053937D01*
X135553937Y-60909774D01*
X135667205Y-60740256D01*
X135745226Y-60551898D01*
X135785000Y-60351939D01*
X135785000Y-60250000D01*
X136361928Y-60250000D01*
X136361928Y-63250000D01*
X136374188Y-63374482D01*
X136410498Y-63494180D01*
X136469463Y-63604494D01*
X136548815Y-63701185D01*
X136645506Y-63780537D01*
X136755820Y-63839502D01*
X136875518Y-63875812D01*
X137000000Y-63888072D01*
X140000000Y-63888072D01*
X140124482Y-63875812D01*
X140244180Y-63839502D01*
X140354494Y-63780537D01*
X140451185Y-63701185D01*
X140530537Y-63604494D01*
X140589502Y-63494180D01*
X140625812Y-63374482D01*
X140638072Y-63250000D01*
X140638072Y-60250000D01*
X140625812Y-60125518D01*
X140589502Y-60005820D01*
X140530537Y-59895506D01*
X140451185Y-59798815D01*
X140354494Y-59719463D01*
X140244180Y-59660498D01*
X140124482Y-59624188D01*
X140000000Y-59611928D01*
X137000000Y-59611928D01*
X136875518Y-59624188D01*
X136755820Y-59660498D01*
X136645506Y-59719463D01*
X136548815Y-59798815D01*
X136469463Y-59895506D01*
X136410498Y-60005820D01*
X136374188Y-60125518D01*
X136361928Y-60250000D01*
X135785000Y-60250000D01*
X135785000Y-60148061D01*
X135745226Y-59948102D01*
X135667205Y-59759744D01*
X135553937Y-59590226D01*
X135409774Y-59446063D01*
X135240256Y-59332795D01*
X135051898Y-59254774D01*
X134851939Y-59215000D01*
X134648061Y-59215000D01*
X134487913Y-59246855D01*
X134485812Y-59225518D01*
X134449502Y-59105820D01*
X134390537Y-58995506D01*
X134311185Y-58898815D01*
X134214494Y-58819463D01*
X134104180Y-58760498D01*
X133984482Y-58724188D01*
X133860000Y-58711928D01*
X132360000Y-58711928D01*
X132235518Y-58724188D01*
X132115820Y-58760498D01*
X132005506Y-58819463D01*
X131960000Y-58856809D01*
X131914494Y-58819463D01*
X131804180Y-58760498D01*
X131684482Y-58724188D01*
X131560000Y-58711928D01*
X131095750Y-58715000D01*
X130937000Y-58873750D01*
X130683000Y-58873750D01*
X130524250Y-58715000D01*
X130060000Y-58711928D01*
X129935518Y-58724188D01*
X129815820Y-58760498D01*
X129705506Y-58819463D01*
X129660000Y-58856809D01*
X129614494Y-58819463D01*
X129504180Y-58760498D01*
X129384482Y-58724188D01*
X129270000Y-58712913D01*
X129270000Y-58047323D01*
X129273676Y-58010000D01*
X129270000Y-57972677D01*
X129270000Y-57972667D01*
X129259003Y-57861014D01*
X129215546Y-57717753D01*
X129144974Y-57585724D01*
X129050001Y-57469999D01*
X129021004Y-57446202D01*
X127962873Y-56388072D01*
X130000000Y-56388072D01*
X130124482Y-56375812D01*
X130244180Y-56339502D01*
X130354494Y-56280537D01*
X130451185Y-56201185D01*
X130530537Y-56104494D01*
X130589502Y-55994180D01*
X130625812Y-55874482D01*
X130638072Y-55750000D01*
X132111928Y-55750000D01*
X132124188Y-55874482D01*
X132160498Y-55994180D01*
X132219463Y-56104494D01*
X132298815Y-56201185D01*
X132395506Y-56280537D01*
X132505820Y-56339502D01*
X132625518Y-56375812D01*
X132750000Y-56388072D01*
X133964250Y-56385000D01*
X134123000Y-56226250D01*
X134123000Y-54127000D01*
X134377000Y-54127000D01*
X134377000Y-56226250D01*
X134535750Y-56385000D01*
X135750000Y-56388072D01*
X135874482Y-56375812D01*
X135994180Y-56339502D01*
X136104494Y-56280537D01*
X136201185Y-56201185D01*
X136280537Y-56104494D01*
X136339502Y-55994180D01*
X136375812Y-55874482D01*
X136388072Y-55750000D01*
X136385000Y-54285750D01*
X136226250Y-54127000D01*
X134377000Y-54127000D01*
X134123000Y-54127000D01*
X132273750Y-54127000D01*
X132115000Y-54285750D01*
X132111928Y-55750000D01*
X130638072Y-55750000D01*
X130638072Y-52250000D01*
X132111928Y-52250000D01*
X132115000Y-53714250D01*
X132273750Y-53873000D01*
X134123000Y-53873000D01*
X134123000Y-51773750D01*
X134377000Y-51773750D01*
X134377000Y-53873000D01*
X136226250Y-53873000D01*
X136385000Y-53714250D01*
X136388072Y-52250000D01*
X136375812Y-52125518D01*
X136339502Y-52005820D01*
X136280537Y-51895506D01*
X136201185Y-51798815D01*
X136104494Y-51719463D01*
X135994180Y-51660498D01*
X135874482Y-51624188D01*
X135750000Y-51611928D01*
X134535750Y-51615000D01*
X134377000Y-51773750D01*
X134123000Y-51773750D01*
X133964250Y-51615000D01*
X132750000Y-51611928D01*
X132625518Y-51624188D01*
X132505820Y-51660498D01*
X132395506Y-51719463D01*
X132298815Y-51798815D01*
X132219463Y-51895506D01*
X132160498Y-52005820D01*
X132124188Y-52125518D01*
X132111928Y-52250000D01*
X130638072Y-52250000D01*
X130625812Y-52125518D01*
X130589502Y-52005820D01*
X130530537Y-51895506D01*
X130451185Y-51798815D01*
X130354494Y-51719463D01*
X130277869Y-51678506D01*
X130375000Y-51688072D01*
X132125000Y-51688072D01*
X132420186Y-51658999D01*
X132704028Y-51572896D01*
X132965618Y-51433073D01*
X133194903Y-51244903D01*
X133383073Y-51015618D01*
X133522896Y-50754028D01*
X133608999Y-50470186D01*
X133638072Y-50175000D01*
X133638072Y-48425000D01*
X133608999Y-48129814D01*
X133522896Y-47845972D01*
X133383073Y-47584382D01*
X133194903Y-47355097D01*
X132965618Y-47166927D01*
X132704028Y-47027104D01*
X132420186Y-46941001D01*
X132125000Y-46911928D01*
X130375000Y-46911928D01*
X130079814Y-46941001D01*
X129795972Y-47027104D01*
X129534382Y-47166927D01*
X129305097Y-47355097D01*
X129185012Y-47501420D01*
X129185012Y-45739804D01*
X129198102Y-45745226D01*
X129398061Y-45785000D01*
X129460198Y-45785000D01*
X129667989Y-45992791D01*
X129678872Y-46103285D01*
X129729053Y-46268709D01*
X129810542Y-46421164D01*
X129920208Y-46554792D01*
X130053836Y-46664458D01*
X130206291Y-46745947D01*
X130371715Y-46796128D01*
X130543750Y-46813072D01*
X131456250Y-46813072D01*
X131628285Y-46796128D01*
X131793709Y-46745947D01*
X131946164Y-46664458D01*
X132079792Y-46554792D01*
X132189458Y-46421164D01*
X132260641Y-46287990D01*
X132269463Y-46304494D01*
X132348815Y-46401185D01*
X132445506Y-46480537D01*
X132555820Y-46539502D01*
X132675518Y-46575812D01*
X132800000Y-46588072D01*
X133364250Y-46585000D01*
X133523000Y-46426250D01*
X133523000Y-45077000D01*
X133777000Y-45077000D01*
X133777000Y-46426250D01*
X133935750Y-46585000D01*
X134500000Y-46588072D01*
X134624482Y-46575812D01*
X134744180Y-46539502D01*
X134854494Y-46480537D01*
X134951185Y-46401185D01*
X135030537Y-46304494D01*
X135089502Y-46194180D01*
X135125812Y-46074482D01*
X135138072Y-45950000D01*
X137611928Y-45950000D01*
X137624188Y-46074482D01*
X137660498Y-46194180D01*
X137719463Y-46304494D01*
X137798815Y-46401185D01*
X137895506Y-46480537D01*
X138005820Y-46539502D01*
X138125518Y-46575812D01*
X138250000Y-46588072D01*
X138814250Y-46585000D01*
X138973000Y-46426250D01*
X138973000Y-45077000D01*
X139227000Y-45077000D01*
X139227000Y-46426250D01*
X139385750Y-46585000D01*
X139950000Y-46588072D01*
X140074482Y-46575812D01*
X140194180Y-46539502D01*
X140304494Y-46480537D01*
X140401185Y-46401185D01*
X140480537Y-46304494D01*
X140539502Y-46194180D01*
X140575812Y-46074482D01*
X140588072Y-45950000D01*
X140585000Y-45235750D01*
X140426250Y-45077000D01*
X139227000Y-45077000D01*
X138973000Y-45077000D01*
X137773750Y-45077000D01*
X137615000Y-45235750D01*
X137611928Y-45950000D01*
X135138072Y-45950000D01*
X135135000Y-45235750D01*
X134976250Y-45077000D01*
X133777000Y-45077000D01*
X133523000Y-45077000D01*
X133503000Y-45077000D01*
X133503000Y-44823000D01*
X133523000Y-44823000D01*
X133523000Y-43473750D01*
X133777000Y-43473750D01*
X133777000Y-44823000D01*
X134976250Y-44823000D01*
X135135000Y-44664250D01*
X135138072Y-43950000D01*
X137611928Y-43950000D01*
X137615000Y-44664250D01*
X137773750Y-44823000D01*
X138973000Y-44823000D01*
X138973000Y-43473750D01*
X139227000Y-43473750D01*
X139227000Y-44823000D01*
X140426250Y-44823000D01*
X140585000Y-44664250D01*
X140588072Y-43950000D01*
X140575812Y-43825518D01*
X140539502Y-43705820D01*
X140480537Y-43595506D01*
X140401185Y-43498815D01*
X140304494Y-43419463D01*
X140194180Y-43360498D01*
X140074482Y-43324188D01*
X139950000Y-43311928D01*
X139385750Y-43315000D01*
X139227000Y-43473750D01*
X138973000Y-43473750D01*
X138814250Y-43315000D01*
X138250000Y-43311928D01*
X138125518Y-43324188D01*
X138005820Y-43360498D01*
X137895506Y-43419463D01*
X137798815Y-43498815D01*
X137719463Y-43595506D01*
X137660498Y-43705820D01*
X137624188Y-43825518D01*
X137611928Y-43950000D01*
X135138072Y-43950000D01*
X135125812Y-43825518D01*
X135089502Y-43705820D01*
X135030537Y-43595506D01*
X134951185Y-43498815D01*
X134854494Y-43419463D01*
X134744180Y-43360498D01*
X134624482Y-43324188D01*
X134500000Y-43311928D01*
X133935750Y-43315000D01*
X133777000Y-43473750D01*
X133523000Y-43473750D01*
X133364250Y-43315000D01*
X132800000Y-43311928D01*
X132675518Y-43324188D01*
X132555820Y-43360498D01*
X132445506Y-43419463D01*
X132348815Y-43498815D01*
X132333073Y-43517996D01*
X132321128Y-43396715D01*
X132270947Y-43231291D01*
X132189458Y-43078836D01*
X132079792Y-42945208D01*
X131946164Y-42835542D01*
X131804835Y-42760000D01*
X132065015Y-42760000D01*
X132098815Y-42801185D01*
X132195506Y-42880537D01*
X132305820Y-42939502D01*
X132425518Y-42975812D01*
X132550000Y-42988072D01*
X134550000Y-42988072D01*
X134674482Y-42975812D01*
X134794180Y-42939502D01*
X134904494Y-42880537D01*
X135001185Y-42801185D01*
X135080537Y-42704494D01*
X135115000Y-42640019D01*
X135115000Y-42811788D01*
X135158617Y-43031067D01*
X135244176Y-43237624D01*
X135368388Y-43423520D01*
X135526480Y-43581612D01*
X135712376Y-43705824D01*
X135918933Y-43791383D01*
X136138212Y-43835000D01*
X136361788Y-43835000D01*
X136581067Y-43791383D01*
X136787624Y-43705824D01*
X136973520Y-43581612D01*
X137131612Y-43423520D01*
X137255824Y-43237624D01*
X137341383Y-43031067D01*
X137385000Y-42811788D01*
X137385000Y-42588212D01*
X137341383Y-42368933D01*
X137255824Y-42162376D01*
X137131612Y-41976480D01*
X136973520Y-41818388D01*
X136787624Y-41694176D01*
X136581067Y-41608617D01*
X136361788Y-41565000D01*
X136138212Y-41565000D01*
X135918933Y-41608617D01*
X135712376Y-41694176D01*
X135526480Y-41818388D01*
X135368388Y-41976480D01*
X135244176Y-42162376D01*
X135188072Y-42297823D01*
X135188072Y-41850000D01*
X135175812Y-41725518D01*
X135168071Y-41700000D01*
X135175812Y-41674482D01*
X135188072Y-41550000D01*
X135188072Y-41050000D01*
X135175812Y-40925518D01*
X135168071Y-40900000D01*
X135175812Y-40874482D01*
X135188072Y-40750000D01*
X135188072Y-40250000D01*
X135175812Y-40125518D01*
X135168316Y-40100808D01*
X135174266Y-40082013D01*
X135185000Y-39981750D01*
X135026250Y-39823000D01*
X135021033Y-39823000D01*
X135001185Y-39798815D01*
X134904494Y-39719463D01*
X134868405Y-39700173D01*
X134898076Y-39684770D01*
X134995716Y-39606588D01*
X135020601Y-39577000D01*
X135026250Y-39577000D01*
X135185000Y-39418250D01*
X135174266Y-39317987D01*
X135168572Y-39300000D01*
X135174266Y-39282013D01*
X135185000Y-39181750D01*
X135026250Y-39023000D01*
X135020601Y-39023000D01*
X134995716Y-38993412D01*
X134898076Y-38915230D01*
X134787059Y-38857599D01*
X134666933Y-38822734D01*
X134542312Y-38811974D01*
X133835750Y-38815000D01*
X133677000Y-38973750D01*
X133677000Y-39047000D01*
X133423000Y-39047000D01*
X133423000Y-38973750D01*
X133403000Y-38953750D01*
X133403000Y-38777000D01*
X133423000Y-38777000D01*
X133423000Y-38173750D01*
X133677000Y-38173750D01*
X133677000Y-38777000D01*
X135026250Y-38777000D01*
X135162590Y-38640660D01*
X135244176Y-38837624D01*
X135368388Y-39023520D01*
X135526480Y-39181612D01*
X135712376Y-39305824D01*
X135918933Y-39391383D01*
X136138212Y-39435000D01*
X136361788Y-39435000D01*
X136581067Y-39391383D01*
X136787624Y-39305824D01*
X136973520Y-39181612D01*
X137131612Y-39023520D01*
X137255824Y-38837624D01*
X137341383Y-38631067D01*
X137385000Y-38411788D01*
X137385000Y-38188212D01*
X137341383Y-37968933D01*
X137255824Y-37762376D01*
X137131612Y-37576480D01*
X136973520Y-37418388D01*
X136787624Y-37294176D01*
X136581067Y-37208617D01*
X136361788Y-37165000D01*
X136138212Y-37165000D01*
X135918933Y-37208617D01*
X135712376Y-37294176D01*
X135526480Y-37418388D01*
X135368388Y-37576480D01*
X135244176Y-37762376D01*
X135158617Y-37968933D01*
X135115000Y-38188212D01*
X135115000Y-38359621D01*
X135076228Y-38289140D01*
X134995716Y-38193412D01*
X134898076Y-38115230D01*
X134787059Y-38057599D01*
X134666933Y-38022734D01*
X134542312Y-38011974D01*
X133835750Y-38015000D01*
X133677000Y-38173750D01*
X133423000Y-38173750D01*
X133264250Y-38015000D01*
X132557688Y-38011974D01*
X132433067Y-38022734D01*
X132312941Y-38057599D01*
X132201924Y-38115230D01*
X132104284Y-38193412D01*
X132023772Y-38289140D01*
X131963483Y-38398736D01*
X131925734Y-38517987D01*
X131915000Y-38618250D01*
X132069748Y-38772998D01*
X131922699Y-38772998D01*
X131917209Y-38759744D01*
X131803941Y-38590226D01*
X131659778Y-38446063D01*
X131490260Y-38332795D01*
X131301902Y-38254774D01*
X131101943Y-38215000D01*
X130898065Y-38215000D01*
X130698106Y-38254774D01*
X130509748Y-38332795D01*
X130340230Y-38446063D01*
X130196067Y-38590226D01*
X130082799Y-38759744D01*
X130004778Y-38948102D01*
X129965004Y-39148061D01*
X129965004Y-39351939D01*
X130004778Y-39551898D01*
X130082799Y-39740256D01*
X130196067Y-39909774D01*
X130316785Y-40030492D01*
X130242114Y-40210762D01*
X130202340Y-40410721D01*
X130202340Y-40614599D01*
X130242114Y-40814558D01*
X130320135Y-41002916D01*
X130433403Y-41172434D01*
X130500969Y-41240000D01*
X126753560Y-41240000D01*
X126745226Y-41198102D01*
X126667205Y-41009744D01*
X126553937Y-40840226D01*
X126409774Y-40696063D01*
X126240256Y-40582795D01*
X126051898Y-40504774D01*
X125851939Y-40465000D01*
X125648061Y-40465000D01*
X125448102Y-40504774D01*
X125259744Y-40582795D01*
X125090226Y-40696063D01*
X124954017Y-40832272D01*
X124360748Y-40239003D01*
X124336945Y-40209999D01*
X124221220Y-40115026D01*
X124089191Y-40044454D01*
X123945930Y-40000997D01*
X123834277Y-39990000D01*
X123834266Y-39990000D01*
X123796944Y-39986324D01*
X123759622Y-39990000D01*
X119953711Y-39990000D01*
X119909774Y-39946063D01*
X119740256Y-39832795D01*
X119551898Y-39754774D01*
X119351939Y-39715000D01*
X119148061Y-39715000D01*
X118948102Y-39754774D01*
X118759744Y-39832795D01*
X118590226Y-39946063D01*
X118446063Y-40090226D01*
X118332795Y-40259744D01*
X118254774Y-40448102D01*
X118215000Y-40648061D01*
X118215000Y-40851939D01*
X118254774Y-41051898D01*
X118332795Y-41240256D01*
X118446063Y-41409774D01*
X118550097Y-41513808D01*
X118499463Y-41575506D01*
X118440498Y-41685820D01*
X118404188Y-41805518D01*
X118391928Y-41930000D01*
X118395000Y-42244250D01*
X118553750Y-42403000D01*
X120403000Y-42403000D01*
X120403000Y-42383000D01*
X120657000Y-42383000D01*
X120657000Y-42403000D01*
X122506250Y-42403000D01*
X122665000Y-42244250D01*
X122668072Y-41930000D01*
X122655812Y-41805518D01*
X122619502Y-41685820D01*
X122560537Y-41575506D01*
X122506778Y-41510000D01*
X123482143Y-41510000D01*
X124937132Y-42964990D01*
X124374832Y-42964990D01*
X124337509Y-42961314D01*
X124300186Y-42964990D01*
X124300177Y-42964990D01*
X124188524Y-42975987D01*
X124045263Y-43019444D01*
X123913233Y-43090016D01*
X123864513Y-43130000D01*
X123797509Y-43184989D01*
X123773711Y-43213987D01*
X123574020Y-43413678D01*
X123556250Y-43411928D01*
X123068750Y-43411928D01*
X122896715Y-43428872D01*
X122731291Y-43479053D01*
X122578836Y-43560542D01*
X122560557Y-43575543D01*
X122560537Y-43575506D01*
X122523191Y-43530000D01*
X122560537Y-43484494D01*
X122619502Y-43374180D01*
X122655812Y-43254482D01*
X122668072Y-43130000D01*
X122665000Y-42815750D01*
X122506250Y-42657000D01*
X120657000Y-42657000D01*
X120657000Y-42677000D01*
X120403000Y-42677000D01*
X120403000Y-42657000D01*
X118553750Y-42657000D01*
X118395000Y-42815750D01*
X118391928Y-43130000D01*
X118404188Y-43254482D01*
X118440498Y-43374180D01*
X118499463Y-43484494D01*
X118536809Y-43530000D01*
X118499463Y-43575506D01*
X118440498Y-43685820D01*
X118404188Y-43805518D01*
X118391928Y-43930000D01*
X118391928Y-45130000D01*
X118404188Y-45254482D01*
X118440498Y-45374180D01*
X118499463Y-45484494D01*
X118536809Y-45530000D01*
X118499463Y-45575506D01*
X118440498Y-45685820D01*
X118404188Y-45805518D01*
X118391928Y-45930000D01*
X118391928Y-47130000D01*
X118404188Y-47254482D01*
X118440498Y-47374180D01*
X118499463Y-47484494D01*
X118536809Y-47530000D01*
X118499463Y-47575506D01*
X118440498Y-47685820D01*
X118404188Y-47805518D01*
X118391928Y-47930000D01*
X118391928Y-48702041D01*
X118359923Y-48702041D01*
X118159964Y-48741815D01*
X117971606Y-48819836D01*
X117802088Y-48933104D01*
X117758151Y-48977041D01*
X114300281Y-48977041D01*
X114262959Y-48973365D01*
X114225637Y-48977041D01*
X112451973Y-48977041D01*
X112414650Y-48973365D01*
X112377327Y-48977041D01*
X112377318Y-48977041D01*
X112265665Y-48988038D01*
X112122404Y-49031495D01*
X111990375Y-49102067D01*
X111874650Y-49197040D01*
X111850852Y-49226039D01*
X111306891Y-49770000D01*
X107645038Y-49770000D01*
X107619502Y-49685820D01*
X107560537Y-49575506D01*
X107523191Y-49530000D01*
X107560537Y-49484494D01*
X107619502Y-49374180D01*
X107655812Y-49254482D01*
X107668072Y-49130000D01*
X107668072Y-47930000D01*
X107655812Y-47805518D01*
X107619502Y-47685820D01*
X107560537Y-47575506D01*
X107523191Y-47530000D01*
X107560537Y-47484494D01*
X107619502Y-47374180D01*
X107655812Y-47254482D01*
X107668072Y-47130000D01*
X107668072Y-46117344D01*
X107719275Y-46089975D01*
X107835000Y-45995002D01*
X107858803Y-45965998D01*
X114489801Y-39335001D01*
X117722679Y-39335001D01*
X117760001Y-39338677D01*
X117797323Y-39335001D01*
X117797334Y-39335001D01*
X117908987Y-39324004D01*
X118052248Y-39280547D01*
X118184277Y-39209975D01*
X118300002Y-39115002D01*
X118323805Y-39085998D01*
X119372444Y-38037360D01*
X119421637Y-38110983D01*
X119719017Y-38408363D01*
X120068698Y-38642012D01*
X120457244Y-38802953D01*
X120869721Y-38885000D01*
X121290279Y-38885000D01*
X121702756Y-38802953D01*
X122091302Y-38642012D01*
X122440983Y-38408363D01*
X122607693Y-38241653D01*
X124847952Y-38241653D01*
X125003962Y-38557214D01*
X125378745Y-38748020D01*
X125783551Y-38862044D01*
X126202824Y-38894902D01*
X126620451Y-38845334D01*
X127020383Y-38715243D01*
X127316038Y-38557214D01*
X127472048Y-38241653D01*
X126160000Y-36929605D01*
X124847952Y-38241653D01*
X122607693Y-38241653D01*
X122738363Y-38110983D01*
X122972012Y-37761302D01*
X123132953Y-37372756D01*
X123215000Y-36960279D01*
X123215000Y-36792824D01*
X124015098Y-36792824D01*
X124064666Y-37210451D01*
X124194757Y-37610383D01*
X124352786Y-37906038D01*
X124668347Y-38062048D01*
X125980395Y-36750000D01*
X126339605Y-36750000D01*
X127651653Y-38062048D01*
X127967214Y-37906038D01*
X128158020Y-37531255D01*
X128272044Y-37126449D01*
X128278035Y-37050000D01*
X132161928Y-37050000D01*
X132174188Y-37174482D01*
X132210498Y-37294180D01*
X132269463Y-37404494D01*
X132348815Y-37501185D01*
X132445506Y-37580537D01*
X132555820Y-37639502D01*
X132675518Y-37675812D01*
X132800000Y-37688072D01*
X133364250Y-37685000D01*
X133523000Y-37526250D01*
X133523000Y-36177000D01*
X133777000Y-36177000D01*
X133777000Y-37526250D01*
X133935750Y-37685000D01*
X134500000Y-37688072D01*
X134624482Y-37675812D01*
X134744180Y-37639502D01*
X134854494Y-37580537D01*
X134951185Y-37501185D01*
X135030537Y-37404494D01*
X135089502Y-37294180D01*
X135125812Y-37174482D01*
X135138072Y-37050000D01*
X137611928Y-37050000D01*
X137624188Y-37174482D01*
X137660498Y-37294180D01*
X137719463Y-37404494D01*
X137798815Y-37501185D01*
X137895506Y-37580537D01*
X138005820Y-37639502D01*
X138125518Y-37675812D01*
X138250000Y-37688072D01*
X138814250Y-37685000D01*
X138973000Y-37526250D01*
X138973000Y-36177000D01*
X139227000Y-36177000D01*
X139227000Y-37526250D01*
X139385750Y-37685000D01*
X139950000Y-37688072D01*
X140074482Y-37675812D01*
X140194180Y-37639502D01*
X140304494Y-37580537D01*
X140401185Y-37501185D01*
X140480537Y-37404494D01*
X140539502Y-37294180D01*
X140575812Y-37174482D01*
X140588072Y-37050000D01*
X140585000Y-36335750D01*
X140426250Y-36177000D01*
X139227000Y-36177000D01*
X138973000Y-36177000D01*
X137773750Y-36177000D01*
X137615000Y-36335750D01*
X137611928Y-37050000D01*
X135138072Y-37050000D01*
X135135000Y-36335750D01*
X134976250Y-36177000D01*
X133777000Y-36177000D01*
X133523000Y-36177000D01*
X132323750Y-36177000D01*
X132165000Y-36335750D01*
X132161928Y-37050000D01*
X128278035Y-37050000D01*
X128304902Y-36707176D01*
X128255334Y-36289549D01*
X128125243Y-35889617D01*
X127967214Y-35593962D01*
X127651653Y-35437952D01*
X126339605Y-36750000D01*
X125980395Y-36750000D01*
X124668347Y-35437952D01*
X124352786Y-35593962D01*
X124161980Y-35968745D01*
X124047956Y-36373551D01*
X124015098Y-36792824D01*
X123215000Y-36792824D01*
X123215000Y-36539721D01*
X123132953Y-36127244D01*
X122972012Y-35738698D01*
X122738363Y-35389017D01*
X122607693Y-35258347D01*
X124847952Y-35258347D01*
X126160000Y-36570395D01*
X127472048Y-35258347D01*
X127369044Y-35050000D01*
X132161928Y-35050000D01*
X132165000Y-35764250D01*
X132323750Y-35923000D01*
X133523000Y-35923000D01*
X133523000Y-34573750D01*
X133777000Y-34573750D01*
X133777000Y-35923000D01*
X134976250Y-35923000D01*
X135135000Y-35764250D01*
X135138072Y-35050000D01*
X137611928Y-35050000D01*
X137615000Y-35764250D01*
X137773750Y-35923000D01*
X138973000Y-35923000D01*
X138973000Y-34573750D01*
X139227000Y-34573750D01*
X139227000Y-35923000D01*
X140426250Y-35923000D01*
X140585000Y-35764250D01*
X140588072Y-35050000D01*
X140575812Y-34925518D01*
X140539502Y-34805820D01*
X140480537Y-34695506D01*
X140401185Y-34598815D01*
X140304494Y-34519463D01*
X140194180Y-34460498D01*
X140074482Y-34424188D01*
X139950000Y-34411928D01*
X139385750Y-34415000D01*
X139227000Y-34573750D01*
X138973000Y-34573750D01*
X138814250Y-34415000D01*
X138250000Y-34411928D01*
X138125518Y-34424188D01*
X138005820Y-34460498D01*
X137895506Y-34519463D01*
X137798815Y-34598815D01*
X137719463Y-34695506D01*
X137660498Y-34805820D01*
X137624188Y-34925518D01*
X137611928Y-35050000D01*
X135138072Y-35050000D01*
X135125812Y-34925518D01*
X135089502Y-34805820D01*
X135030537Y-34695506D01*
X134951185Y-34598815D01*
X134854494Y-34519463D01*
X134744180Y-34460498D01*
X134624482Y-34424188D01*
X134500000Y-34411928D01*
X133935750Y-34415000D01*
X133777000Y-34573750D01*
X133523000Y-34573750D01*
X133364250Y-34415000D01*
X132800000Y-34411928D01*
X132675518Y-34424188D01*
X132555820Y-34460498D01*
X132445506Y-34519463D01*
X132348815Y-34598815D01*
X132269463Y-34695506D01*
X132210498Y-34805820D01*
X132174188Y-34925518D01*
X132161928Y-35050000D01*
X127369044Y-35050000D01*
X127316038Y-34942786D01*
X126941255Y-34751980D01*
X126536449Y-34637956D01*
X126117176Y-34605098D01*
X125699549Y-34654666D01*
X125299617Y-34784757D01*
X125003962Y-34942786D01*
X124847952Y-35258347D01*
X122607693Y-35258347D01*
X122440983Y-35091637D01*
X122091302Y-34857988D01*
X121702756Y-34697047D01*
X121290279Y-34615000D01*
X120869721Y-34615000D01*
X120457244Y-34697047D01*
X120068698Y-34857988D01*
X119719017Y-35091637D01*
X119421637Y-35389017D01*
X119187988Y-35738698D01*
X119027047Y-36127244D01*
X119000749Y-36259451D01*
X118138072Y-37122128D01*
X118138072Y-35250000D01*
X118125812Y-35125518D01*
X118089502Y-35005820D01*
X118030537Y-34895506D01*
X117951185Y-34798815D01*
X117854494Y-34719463D01*
X117744180Y-34660498D01*
X117624482Y-34624188D01*
X117500000Y-34611928D01*
X114500000Y-34611928D01*
X114375518Y-34624188D01*
X114255820Y-34660498D01*
X114145506Y-34719463D01*
X114048815Y-34798815D01*
X113969463Y-34895506D01*
X113910498Y-35005820D01*
X113874188Y-35125518D01*
X113861928Y-35250000D01*
X113861928Y-37880586D01*
X113750723Y-37940027D01*
X113634998Y-38035000D01*
X113611200Y-38063998D01*
X112379911Y-39295287D01*
X112445089Y-39163160D01*
X112534860Y-38828295D01*
X112557576Y-38482350D01*
X112512366Y-38138620D01*
X112400966Y-37810315D01*
X112291714Y-37605921D01*
X112014531Y-37495074D01*
X110969605Y-38540000D01*
X110983748Y-38554143D01*
X110804143Y-38733748D01*
X110790000Y-38719605D01*
X109745074Y-39764531D01*
X109855921Y-40041714D01*
X110166840Y-40195089D01*
X110501705Y-40284860D01*
X110847650Y-40307576D01*
X111191380Y-40262366D01*
X111519685Y-40150966D01*
X111529454Y-40145744D01*
X107667311Y-44007888D01*
X107668072Y-43930000D01*
X107655812Y-43805518D01*
X107619502Y-43685820D01*
X107560537Y-43575506D01*
X107523191Y-43530000D01*
X107560537Y-43484494D01*
X107619502Y-43374180D01*
X107655812Y-43254482D01*
X107668072Y-43130000D01*
X107668072Y-41930000D01*
X107655812Y-41805518D01*
X107619502Y-41685820D01*
X107560537Y-41575506D01*
X107559977Y-41574824D01*
X108761004Y-40373798D01*
X108790001Y-40350001D01*
X108843461Y-40284860D01*
X108884974Y-40234277D01*
X108955546Y-40102247D01*
X108961684Y-40082013D01*
X108999003Y-39958986D01*
X109010000Y-39847333D01*
X109010000Y-39847323D01*
X109013676Y-39810000D01*
X109010000Y-39772677D01*
X109010000Y-38597650D01*
X109022424Y-38597650D01*
X109067634Y-38941380D01*
X109179034Y-39269685D01*
X109288286Y-39474079D01*
X109565469Y-39584926D01*
X110610395Y-38540000D01*
X109565469Y-37495074D01*
X109288286Y-37605921D01*
X109134911Y-37916840D01*
X109045140Y-38251705D01*
X109022424Y-38597650D01*
X109010000Y-38597650D01*
X109010000Y-37590208D01*
X109083673Y-37559692D01*
X109371935Y-37367081D01*
X109423547Y-37315469D01*
X109745074Y-37315469D01*
X110790000Y-38360395D01*
X111834926Y-37315469D01*
X111724079Y-37038286D01*
X111413160Y-36884911D01*
X111078295Y-36795140D01*
X110732350Y-36772424D01*
X110388620Y-36817634D01*
X110060315Y-36929034D01*
X109855921Y-37038286D01*
X109745074Y-37315469D01*
X109423547Y-37315469D01*
X109617081Y-37121935D01*
X109809692Y-36833673D01*
X109942364Y-36513373D01*
X110010000Y-36173345D01*
X110010000Y-35826655D01*
X109942364Y-35486627D01*
X109809692Y-35166327D01*
X109617081Y-34878065D01*
X109423547Y-34684531D01*
X109745074Y-34684531D01*
X109855921Y-34961714D01*
X110166840Y-35115089D01*
X110501705Y-35204860D01*
X110847650Y-35227576D01*
X111191380Y-35182366D01*
X111519685Y-35070966D01*
X111724079Y-34961714D01*
X111834926Y-34684531D01*
X110790000Y-33639605D01*
X109745074Y-34684531D01*
X109423547Y-34684531D01*
X109371935Y-34632919D01*
X109083673Y-34440308D01*
X108763373Y-34307636D01*
X108423345Y-34240000D01*
X108076655Y-34240000D01*
X107736627Y-34307636D01*
X107416327Y-34440308D01*
X107128065Y-34632919D01*
X106882919Y-34878065D01*
X106690308Y-35166327D01*
X106557636Y-35486627D01*
X106490000Y-35826655D01*
X106490000Y-36173345D01*
X106557636Y-36513373D01*
X106690308Y-36833673D01*
X106882919Y-37121935D01*
X107128065Y-37367081D01*
X107416327Y-37559692D01*
X107490001Y-37590208D01*
X107490000Y-39495198D01*
X105693271Y-41291928D01*
X104030000Y-41291928D01*
X103905518Y-41304188D01*
X103785820Y-41340498D01*
X103675506Y-41399463D01*
X103578815Y-41478815D01*
X103499463Y-41575506D01*
X103440498Y-41685820D01*
X103404188Y-41805518D01*
X103391928Y-41930000D01*
X103391928Y-43130000D01*
X103404188Y-43254482D01*
X103440498Y-43374180D01*
X103499463Y-43484494D01*
X103536809Y-43530000D01*
X103499463Y-43575506D01*
X103440498Y-43685820D01*
X103404188Y-43805518D01*
X103391928Y-43930000D01*
X103395000Y-44244250D01*
X103553750Y-44403000D01*
X105403000Y-44403000D01*
X105403000Y-44383000D01*
X105657000Y-44383000D01*
X105657000Y-44403000D01*
X105677000Y-44403000D01*
X105677000Y-44657000D01*
X105657000Y-44657000D01*
X105657000Y-44677000D01*
X105403000Y-44677000D01*
X105403000Y-44657000D01*
X103553750Y-44657000D01*
X103515749Y-44695001D01*
X102752322Y-44695001D01*
X102714999Y-44691325D01*
X102677676Y-44695001D01*
X102677666Y-44695001D01*
X102566013Y-44705998D01*
X102443722Y-44743094D01*
X102422752Y-44749455D01*
X102290722Y-44820027D01*
X102251838Y-44851939D01*
X102174998Y-44915000D01*
X102151200Y-44943998D01*
X99874059Y-47221140D01*
X99622756Y-47117047D01*
X99210279Y-47035000D01*
X98789721Y-47035000D01*
X98377244Y-47117047D01*
X97988698Y-47277988D01*
X97639017Y-47511637D01*
X97341637Y-47809017D01*
X97107988Y-48158698D01*
X96947047Y-48547244D01*
X96865000Y-48959721D01*
X96865000Y-49380279D01*
X96947047Y-49792756D01*
X97107988Y-50181302D01*
X97341637Y-50530983D01*
X97639017Y-50828363D01*
X97988698Y-51062012D01*
X98377244Y-51222953D01*
X98789721Y-51305000D01*
X99210279Y-51305000D01*
X99622756Y-51222953D01*
X99874059Y-51118860D01*
X101990001Y-53234803D01*
X101990000Y-56745472D01*
X101960148Y-56754528D01*
X101806613Y-56836595D01*
X101672038Y-56947038D01*
X101564970Y-57077500D01*
X97929825Y-57077500D01*
X97892500Y-57073824D01*
X97855175Y-57077500D01*
X97855167Y-57077500D01*
X97743514Y-57088497D01*
X97600253Y-57131954D01*
X97468224Y-57202526D01*
X97352499Y-57297499D01*
X97328696Y-57326503D01*
X97220000Y-57435199D01*
X97220000Y-57104801D01*
X97936730Y-56388072D01*
X100500000Y-56388072D01*
X100624482Y-56375812D01*
X100744180Y-56339502D01*
X100854494Y-56280537D01*
X100951185Y-56201185D01*
X101030537Y-56104494D01*
X101089502Y-55994180D01*
X101125812Y-55874482D01*
X101138072Y-55750000D01*
X101138072Y-52750000D01*
X101125812Y-52625518D01*
X101089502Y-52505820D01*
X101030537Y-52395506D01*
X100951185Y-52298815D01*
X100854494Y-52219463D01*
X100744180Y-52160498D01*
X100624482Y-52124188D01*
X100500000Y-52111928D01*
X97500000Y-52111928D01*
X97375518Y-52124188D01*
X97255820Y-52160498D01*
X97145506Y-52219463D01*
X97048815Y-52298815D01*
X96969463Y-52395506D01*
X96910498Y-52505820D01*
X96874188Y-52625518D01*
X96861928Y-52750000D01*
X96861928Y-55313270D01*
X95948998Y-56226201D01*
X95920000Y-56249999D01*
X95896202Y-56278997D01*
X95896201Y-56278998D01*
X95825026Y-56365724D01*
X95754454Y-56497754D01*
X95735678Y-56559653D01*
X95710998Y-56641014D01*
X95700165Y-56750998D01*
X95696324Y-56790000D01*
X95700001Y-56827332D01*
X95700000Y-57898091D01*
X95635789Y-57950788D01*
X95490830Y-58127421D01*
X95435000Y-58231871D01*
X95435000Y-45581653D01*
X97687952Y-45581653D01*
X97843962Y-45897214D01*
X98218745Y-46088020D01*
X98623551Y-46202044D01*
X99042824Y-46234902D01*
X99460451Y-46185334D01*
X99860383Y-46055243D01*
X100156038Y-45897214D01*
X100312048Y-45581653D01*
X99000000Y-44269605D01*
X97687952Y-45581653D01*
X95435000Y-45581653D01*
X95435000Y-44132824D01*
X96855098Y-44132824D01*
X96904666Y-44550451D01*
X97034757Y-44950383D01*
X97192786Y-45246038D01*
X97508347Y-45402048D01*
X98820395Y-44090000D01*
X99179605Y-44090000D01*
X100491653Y-45402048D01*
X100807214Y-45246038D01*
X100998020Y-44871255D01*
X101112044Y-44466449D01*
X101144902Y-44047176D01*
X101095334Y-43629549D01*
X100965243Y-43229617D01*
X100807214Y-42933962D01*
X100491653Y-42777952D01*
X99179605Y-44090000D01*
X98820395Y-44090000D01*
X97508347Y-42777952D01*
X97192786Y-42933962D01*
X97001980Y-43308745D01*
X96887956Y-43713551D01*
X96855098Y-44132824D01*
X95435000Y-44132824D01*
X95435000Y-42598347D01*
X97687952Y-42598347D01*
X99000000Y-43910395D01*
X100312048Y-42598347D01*
X100156038Y-42282786D01*
X99781255Y-42091980D01*
X99376449Y-41977956D01*
X98957176Y-41945098D01*
X98539549Y-41994666D01*
X98139617Y-42124757D01*
X97843962Y-42282786D01*
X97687952Y-42598347D01*
X95435000Y-42598347D01*
X95435000Y-39764531D01*
X104665074Y-39764531D01*
X104775921Y-40041714D01*
X105086840Y-40195089D01*
X105421705Y-40284860D01*
X105767650Y-40307576D01*
X106111380Y-40262366D01*
X106439685Y-40150966D01*
X106644079Y-40041714D01*
X106754926Y-39764531D01*
X105710000Y-38719605D01*
X104665074Y-39764531D01*
X95435000Y-39764531D01*
X95435000Y-38597650D01*
X103942424Y-38597650D01*
X103987634Y-38941380D01*
X104099034Y-39269685D01*
X104208286Y-39474079D01*
X104485469Y-39584926D01*
X105530395Y-38540000D01*
X105889605Y-38540000D01*
X106934531Y-39584926D01*
X107211714Y-39474079D01*
X107365089Y-39163160D01*
X107454860Y-38828295D01*
X107477576Y-38482350D01*
X107432366Y-38138620D01*
X107320966Y-37810315D01*
X107211714Y-37605921D01*
X106934531Y-37495074D01*
X105889605Y-38540000D01*
X105530395Y-38540000D01*
X104485469Y-37495074D01*
X104208286Y-37605921D01*
X104054911Y-37916840D01*
X103965140Y-38251705D01*
X103942424Y-38597650D01*
X95435000Y-38597650D01*
X95435000Y-37315469D01*
X104665074Y-37315469D01*
X105710000Y-38360395D01*
X106754926Y-37315469D01*
X106644079Y-37038286D01*
X106333160Y-36884911D01*
X105998295Y-36795140D01*
X105652350Y-36772424D01*
X105308620Y-36817634D01*
X104980315Y-36929034D01*
X104775921Y-37038286D01*
X104665074Y-37315469D01*
X95435000Y-37315469D01*
X95435000Y-34684531D01*
X104665074Y-34684531D01*
X104775921Y-34961714D01*
X105086840Y-35115089D01*
X105421705Y-35204860D01*
X105767650Y-35227576D01*
X106111380Y-35182366D01*
X106439685Y-35070966D01*
X106644079Y-34961714D01*
X106754926Y-34684531D01*
X105710000Y-33639605D01*
X104665074Y-34684531D01*
X95435000Y-34684531D01*
X95435000Y-32435000D01*
X104435642Y-32435000D01*
X104208286Y-32525921D01*
G37*
%TD.AperFunction*%
D29*
X101672038Y-58727962D02*
X101698891Y-58750000D01*
X101672038Y-58772038D01*
X101561595Y-58906613D01*
X101479528Y-59060148D01*
X101428992Y-59226744D01*
X101411928Y-59399998D01*
X101411928Y-59925002D01*
X101428992Y-60098256D01*
X101479528Y-60264852D01*
X101561595Y-60418387D01*
X101672038Y-60552962D01*
X101806613Y-60663405D01*
X101960148Y-60745472D01*
X101990000Y-60754527D01*
X101990001Y-70595197D01*
X100063271Y-72521928D01*
X97936730Y-72521928D01*
X97220000Y-71805199D01*
X97220000Y-70758940D01*
X97341637Y-70940983D01*
X97639017Y-71238363D01*
X97988698Y-71472012D01*
X98377244Y-71632953D01*
X98789721Y-71715000D01*
X99210279Y-71715000D01*
X99622756Y-71632953D01*
X100011302Y-71472012D01*
X100360983Y-71238363D01*
X100658363Y-70940983D01*
X100892012Y-70591302D01*
X101052953Y-70202756D01*
X101135000Y-69790279D01*
X101135000Y-69369721D01*
X101052953Y-68957244D01*
X100892012Y-68568698D01*
X100658363Y-68219017D01*
X100360983Y-67921637D01*
X100011302Y-67687988D01*
X99622756Y-67527047D01*
X99210279Y-67445000D01*
X98789721Y-67445000D01*
X98377244Y-67527047D01*
X98125941Y-67631140D01*
X97934999Y-67440198D01*
X97934999Y-66353562D01*
X98218745Y-66498020D01*
X98623551Y-66612044D01*
X99042824Y-66644902D01*
X99460451Y-66595334D01*
X99860383Y-66465243D01*
X100156038Y-66307214D01*
X100312048Y-65991653D01*
X99000000Y-64679605D01*
X98985858Y-64693748D01*
X98806253Y-64514143D01*
X98820395Y-64500000D01*
X99179605Y-64500000D01*
X100491653Y-65812048D01*
X100807214Y-65656038D01*
X100998020Y-65281255D01*
X101112044Y-64876449D01*
X101144902Y-64457176D01*
X101095334Y-64039549D01*
X100965243Y-63639617D01*
X100807214Y-63343962D01*
X100491653Y-63187952D01*
X99179605Y-64500000D01*
X98820395Y-64500000D01*
X98806253Y-64485858D01*
X98985858Y-64306253D01*
X99000000Y-64320395D01*
X100312048Y-63008347D01*
X100156038Y-62692786D01*
X99781255Y-62501980D01*
X99376449Y-62387956D01*
X98957176Y-62355098D01*
X98539549Y-62404666D01*
X98490000Y-62420783D01*
X98490000Y-60387879D01*
X98714250Y-60385000D01*
X98873000Y-60226250D01*
X98873000Y-59453109D01*
X98873215Y-59452400D01*
X98890000Y-59281979D01*
X98890000Y-59127000D01*
X99127000Y-59127000D01*
X99127000Y-60226250D01*
X99285750Y-60385000D01*
X99525000Y-60388072D01*
X99649482Y-60375812D01*
X99769180Y-60339502D01*
X99879494Y-60280537D01*
X99976185Y-60201185D01*
X100055537Y-60104494D01*
X100114502Y-59994180D01*
X100150812Y-59874482D01*
X100163072Y-59750000D01*
X100160000Y-59285750D01*
X100001250Y-59127000D01*
X99127000Y-59127000D01*
X98890000Y-59127000D01*
X98890000Y-58853000D01*
X99127000Y-58853000D01*
X99127000Y-58873000D01*
X100001250Y-58873000D01*
X100160000Y-58714250D01*
X100160773Y-58597500D01*
X101564970Y-58597500D01*
X101672038Y-58727962D01*
%TA.AperFunction,Conductor*%
D30*
G36*
X101672038Y-58727962D02*
G01*
X101698891Y-58750000D01*
X101672038Y-58772038D01*
X101561595Y-58906613D01*
X101479528Y-59060148D01*
X101428992Y-59226744D01*
X101411928Y-59399998D01*
X101411928Y-59925002D01*
X101428992Y-60098256D01*
X101479528Y-60264852D01*
X101561595Y-60418387D01*
X101672038Y-60552962D01*
X101806613Y-60663405D01*
X101960148Y-60745472D01*
X101990000Y-60754527D01*
X101990001Y-70595197D01*
X100063271Y-72521928D01*
X97936730Y-72521928D01*
X97220000Y-71805199D01*
X97220000Y-70758940D01*
X97341637Y-70940983D01*
X97639017Y-71238363D01*
X97988698Y-71472012D01*
X98377244Y-71632953D01*
X98789721Y-71715000D01*
X99210279Y-71715000D01*
X99622756Y-71632953D01*
X100011302Y-71472012D01*
X100360983Y-71238363D01*
X100658363Y-70940983D01*
X100892012Y-70591302D01*
X101052953Y-70202756D01*
X101135000Y-69790279D01*
X101135000Y-69369721D01*
X101052953Y-68957244D01*
X100892012Y-68568698D01*
X100658363Y-68219017D01*
X100360983Y-67921637D01*
X100011302Y-67687988D01*
X99622756Y-67527047D01*
X99210279Y-67445000D01*
X98789721Y-67445000D01*
X98377244Y-67527047D01*
X98125941Y-67631140D01*
X97934999Y-67440198D01*
X97934999Y-66353562D01*
X98218745Y-66498020D01*
X98623551Y-66612044D01*
X99042824Y-66644902D01*
X99460451Y-66595334D01*
X99860383Y-66465243D01*
X100156038Y-66307214D01*
X100312048Y-65991653D01*
X99000000Y-64679605D01*
X98985858Y-64693748D01*
X98806253Y-64514143D01*
X98820395Y-64500000D01*
X99179605Y-64500000D01*
X100491653Y-65812048D01*
X100807214Y-65656038D01*
X100998020Y-65281255D01*
X101112044Y-64876449D01*
X101144902Y-64457176D01*
X101095334Y-64039549D01*
X100965243Y-63639617D01*
X100807214Y-63343962D01*
X100491653Y-63187952D01*
X99179605Y-64500000D01*
X98820395Y-64500000D01*
X98806253Y-64485858D01*
X98985858Y-64306253D01*
X99000000Y-64320395D01*
X100312048Y-63008347D01*
X100156038Y-62692786D01*
X99781255Y-62501980D01*
X99376449Y-62387956D01*
X98957176Y-62355098D01*
X98539549Y-62404666D01*
X98490000Y-62420783D01*
X98490000Y-60387879D01*
X98714250Y-60385000D01*
X98873000Y-60226250D01*
X98873000Y-59453109D01*
X98873215Y-59452400D01*
X98890000Y-59281979D01*
X98890000Y-59127000D01*
X99127000Y-59127000D01*
X99127000Y-60226250D01*
X99285750Y-60385000D01*
X99525000Y-60388072D01*
X99649482Y-60375812D01*
X99769180Y-60339502D01*
X99879494Y-60280537D01*
X99976185Y-60201185D01*
X100055537Y-60104494D01*
X100114502Y-59994180D01*
X100150812Y-59874482D01*
X100163072Y-59750000D01*
X100160000Y-59285750D01*
X100001250Y-59127000D01*
X99127000Y-59127000D01*
X98890000Y-59127000D01*
X98890000Y-58853000D01*
X99127000Y-58853000D01*
X99127000Y-58873000D01*
X100001250Y-58873000D01*
X100160000Y-58714250D01*
X100160773Y-58597500D01*
X101564970Y-58597500D01*
X101672038Y-58727962D01*
G37*
%TD.AperFunction*%
D29*
X114961928Y-66965000D02*
X114961928Y-67280000D01*
X114683711Y-67280000D01*
X114803937Y-67159774D01*
X114917205Y-66990256D01*
X114972616Y-66856484D01*
X114961928Y-66965000D01*
%TA.AperFunction,Conductor*%
D30*
G36*
X114961928Y-66965000D02*
G01*
X114961928Y-67280000D01*
X114683711Y-67280000D01*
X114803937Y-67159774D01*
X114917205Y-66990256D01*
X114972616Y-66856484D01*
X114961928Y-66965000D01*
G37*
%TD.AperFunction*%
D29*
X115069463Y-66610506D02*
X115057083Y-66633667D01*
X115021639Y-66669111D01*
X115035000Y-66601939D01*
X115035000Y-66567002D01*
X115105166Y-66567002D01*
X115069463Y-66610506D01*
%TA.AperFunction,Conductor*%
D30*
G36*
X115069463Y-66610506D02*
G01*
X115057083Y-66633667D01*
X115021639Y-66669111D01*
X115035000Y-66601939D01*
X115035000Y-66567002D01*
X115105166Y-66567002D01*
X115069463Y-66610506D01*
G37*
%TD.AperFunction*%
D29*
X114961928Y-64315000D02*
X114974188Y-64439482D01*
X114974533Y-64440620D01*
X114965000Y-64554250D01*
X115057083Y-64646333D01*
X115069463Y-64669494D01*
X115148815Y-64766185D01*
X115238759Y-64840000D01*
X115190019Y-64880000D01*
X114534802Y-64880000D01*
X114389641Y-64734839D01*
X114393072Y-64700000D01*
X114393072Y-64200000D01*
X114379614Y-64063357D01*
X114442971Y-64000000D01*
X114961928Y-64000000D01*
X114961928Y-64315000D01*
%TA.AperFunction,Conductor*%
D30*
G36*
X114961928Y-64315000D02*
G01*
X114974188Y-64439482D01*
X114974533Y-64440620D01*
X114965000Y-64554250D01*
X115057083Y-64646333D01*
X115069463Y-64669494D01*
X115148815Y-64766185D01*
X115238759Y-64840000D01*
X115190019Y-64880000D01*
X114534802Y-64880000D01*
X114389641Y-64734839D01*
X114393072Y-64700000D01*
X114393072Y-64200000D01*
X114379614Y-64063357D01*
X114442971Y-64000000D01*
X114961928Y-64000000D01*
X114961928Y-64315000D01*
G37*
%TD.AperFunction*%
D29*
X109130000Y-62835750D02*
X109129581Y-62864990D01*
X109060820Y-62864990D01*
X109017331Y-62760000D01*
X109205750Y-62760000D01*
X109130000Y-62835750D01*
%TA.AperFunction,Conductor*%
D30*
G36*
X109130000Y-62835750D02*
G01*
X109129581Y-62864990D01*
X109060820Y-62864990D01*
X109017331Y-62760000D01*
X109205750Y-62760000D01*
X109130000Y-62835750D01*
G37*
%TD.AperFunction*%
D29*
X113177000Y-62677000D02*
X113157000Y-62677000D01*
X113157000Y-62697000D01*
X112903000Y-62697000D01*
X112903000Y-62677000D01*
X111828750Y-62677000D01*
X111760000Y-62745750D01*
X111691250Y-62677000D01*
X110617000Y-62677000D01*
X110617000Y-62697000D01*
X110363000Y-62697000D01*
X110363000Y-62677000D01*
X110343000Y-62677000D01*
X110343000Y-62484990D01*
X112972012Y-62484990D01*
X113009334Y-62488666D01*
X113046656Y-62484990D01*
X113046667Y-62484990D01*
X113158320Y-62473993D01*
X113177000Y-62468327D01*
X113177000Y-62677000D01*
%TA.AperFunction,Conductor*%
D30*
G36*
X113177000Y-62677000D02*
G01*
X113157000Y-62677000D01*
X113157000Y-62697000D01*
X112903000Y-62697000D01*
X112903000Y-62677000D01*
X111828750Y-62677000D01*
X111760000Y-62745750D01*
X111691250Y-62677000D01*
X110617000Y-62677000D01*
X110617000Y-62697000D01*
X110363000Y-62697000D01*
X110363000Y-62677000D01*
X110343000Y-62677000D01*
X110343000Y-62484990D01*
X112972012Y-62484990D01*
X113009334Y-62488666D01*
X113046656Y-62484990D01*
X113046667Y-62484990D01*
X113158320Y-62473993D01*
X113177000Y-62468327D01*
X113177000Y-62677000D01*
G37*
%TD.AperFunction*%
D29*
X123522978Y-57511003D02*
X123546776Y-57540001D01*
X123662501Y-57634974D01*
X123794530Y-57705546D01*
X123937791Y-57749003D01*
X124049444Y-57760000D01*
X124049453Y-57760000D01*
X124086776Y-57763676D01*
X124124099Y-57760000D01*
X125546289Y-57760000D01*
X125590226Y-57803937D01*
X125759744Y-57917205D01*
X125948102Y-57995226D01*
X126148061Y-58035000D01*
X126351939Y-58035000D01*
X126551898Y-57995226D01*
X126740256Y-57917205D01*
X126909774Y-57803937D01*
X127053937Y-57659774D01*
X127066368Y-57641170D01*
X127750000Y-58324802D01*
X127750000Y-58712913D01*
X127635518Y-58724188D01*
X127515820Y-58760498D01*
X127405506Y-58819463D01*
X127308815Y-58898815D01*
X127229463Y-58995506D01*
X127170498Y-59105820D01*
X127134188Y-59225518D01*
X127121928Y-59350000D01*
X127121928Y-60674880D01*
X127090226Y-60696063D01*
X127010649Y-60775640D01*
X126995226Y-60698102D01*
X126917205Y-60509744D01*
X126803937Y-60340226D01*
X126659774Y-60196063D01*
X126490256Y-60082795D01*
X126301898Y-60004774D01*
X126101939Y-59965000D01*
X126039803Y-59965000D01*
X124395151Y-58320349D01*
X124371348Y-58291346D01*
X124255623Y-58196373D01*
X124123594Y-58125801D01*
X123980333Y-58082344D01*
X123868680Y-58071347D01*
X123868669Y-58071347D01*
X123831347Y-58067671D01*
X123794025Y-58071347D01*
X121759486Y-58071347D01*
X121715549Y-58027410D01*
X121546031Y-57914142D01*
X121463470Y-57879944D01*
X121463470Y-57863035D01*
X121444286Y-57766590D01*
X122030000Y-57768072D01*
X122154482Y-57755812D01*
X122274180Y-57719502D01*
X122384494Y-57660537D01*
X122481185Y-57581185D01*
X122560537Y-57484494D01*
X122619502Y-57374180D01*
X122655812Y-57254482D01*
X122668072Y-57130000D01*
X122665000Y-56815750D01*
X122506252Y-56657002D01*
X122665000Y-56657002D01*
X122665000Y-56653024D01*
X123522978Y-57511003D01*
%TA.AperFunction,Conductor*%
D30*
G36*
X123522978Y-57511003D02*
G01*
X123546776Y-57540001D01*
X123662501Y-57634974D01*
X123794530Y-57705546D01*
X123937791Y-57749003D01*
X124049444Y-57760000D01*
X124049453Y-57760000D01*
X124086776Y-57763676D01*
X124124099Y-57760000D01*
X125546289Y-57760000D01*
X125590226Y-57803937D01*
X125759744Y-57917205D01*
X125948102Y-57995226D01*
X126148061Y-58035000D01*
X126351939Y-58035000D01*
X126551898Y-57995226D01*
X126740256Y-57917205D01*
X126909774Y-57803937D01*
X127053937Y-57659774D01*
X127066368Y-57641170D01*
X127750000Y-58324802D01*
X127750000Y-58712913D01*
X127635518Y-58724188D01*
X127515820Y-58760498D01*
X127405506Y-58819463D01*
X127308815Y-58898815D01*
X127229463Y-58995506D01*
X127170498Y-59105820D01*
X127134188Y-59225518D01*
X127121928Y-59350000D01*
X127121928Y-60674880D01*
X127090226Y-60696063D01*
X127010649Y-60775640D01*
X126995226Y-60698102D01*
X126917205Y-60509744D01*
X126803937Y-60340226D01*
X126659774Y-60196063D01*
X126490256Y-60082795D01*
X126301898Y-60004774D01*
X126101939Y-59965000D01*
X126039803Y-59965000D01*
X124395151Y-58320349D01*
X124371348Y-58291346D01*
X124255623Y-58196373D01*
X124123594Y-58125801D01*
X123980333Y-58082344D01*
X123868680Y-58071347D01*
X123868669Y-58071347D01*
X123831347Y-58067671D01*
X123794025Y-58071347D01*
X121759486Y-58071347D01*
X121715549Y-58027410D01*
X121546031Y-57914142D01*
X121463470Y-57879944D01*
X121463470Y-57863035D01*
X121444286Y-57766590D01*
X122030000Y-57768072D01*
X122154482Y-57755812D01*
X122274180Y-57719502D01*
X122384494Y-57660537D01*
X122481185Y-57581185D01*
X122560537Y-57484494D01*
X122619502Y-57374180D01*
X122655812Y-57254482D01*
X122668072Y-57130000D01*
X122665000Y-56815750D01*
X122506252Y-56657002D01*
X122665000Y-56657002D01*
X122665000Y-56653024D01*
X123522978Y-57511003D01*
G37*
%TD.AperFunction*%
D29*
X107759744Y-54417205D02*
X107948102Y-54495226D01*
X108148061Y-54535000D01*
X108210199Y-54535000D01*
X109797038Y-56121840D01*
X109820836Y-56150838D01*
X109936561Y-56245811D01*
X110068590Y-56316383D01*
X110180085Y-56350204D01*
X110244655Y-56414774D01*
X110414173Y-56528042D01*
X110602531Y-56606063D01*
X110726240Y-56630670D01*
X110669432Y-56736950D01*
X110625975Y-56880210D01*
X110611301Y-57029196D01*
X110614978Y-57066530D01*
X110614978Y-57088401D01*
X110548027Y-57088401D01*
X110348068Y-57128175D01*
X110159710Y-57206196D01*
X109990192Y-57319464D01*
X109946255Y-57363401D01*
X109163922Y-57363401D01*
X109126599Y-57359725D01*
X109089276Y-57363401D01*
X109089266Y-57363401D01*
X108977613Y-57374398D01*
X108834352Y-57417855D01*
X108702323Y-57488427D01*
X108586598Y-57583400D01*
X108562799Y-57612399D01*
X107988998Y-58186201D01*
X107960000Y-58209999D01*
X107936202Y-58238997D01*
X107936201Y-58238998D01*
X107865026Y-58325724D01*
X107832078Y-58387365D01*
X107755820Y-58410498D01*
X107645506Y-58469463D01*
X107548815Y-58548815D01*
X107469463Y-58645506D01*
X107410498Y-58755820D01*
X107374188Y-58875518D01*
X107361928Y-59000000D01*
X107361928Y-60190965D01*
X107244936Y-60112794D01*
X107198072Y-60093382D01*
X107198072Y-58940000D01*
X107185812Y-58815518D01*
X107177056Y-58786655D01*
X107303937Y-58659774D01*
X107417205Y-58490256D01*
X107495226Y-58301898D01*
X107535000Y-58101939D01*
X107535000Y-57898061D01*
X107495226Y-57698102D01*
X107455521Y-57602247D01*
X107481185Y-57581185D01*
X107560537Y-57484494D01*
X107619502Y-57374180D01*
X107655812Y-57254482D01*
X107668072Y-57130000D01*
X107668072Y-55930000D01*
X107655812Y-55805518D01*
X107619502Y-55685820D01*
X107560537Y-55575506D01*
X107523191Y-55530000D01*
X107560537Y-55484494D01*
X107619502Y-55374180D01*
X107655812Y-55254482D01*
X107668072Y-55130000D01*
X107668072Y-54355952D01*
X107759744Y-54417205D01*
%TA.AperFunction,Conductor*%
D30*
G36*
X107759744Y-54417205D02*
G01*
X107948102Y-54495226D01*
X108148061Y-54535000D01*
X108210199Y-54535000D01*
X109797038Y-56121840D01*
X109820836Y-56150838D01*
X109936561Y-56245811D01*
X110068590Y-56316383D01*
X110180085Y-56350204D01*
X110244655Y-56414774D01*
X110414173Y-56528042D01*
X110602531Y-56606063D01*
X110726240Y-56630670D01*
X110669432Y-56736950D01*
X110625975Y-56880210D01*
X110611301Y-57029196D01*
X110614978Y-57066530D01*
X110614978Y-57088401D01*
X110548027Y-57088401D01*
X110348068Y-57128175D01*
X110159710Y-57206196D01*
X109990192Y-57319464D01*
X109946255Y-57363401D01*
X109163922Y-57363401D01*
X109126599Y-57359725D01*
X109089276Y-57363401D01*
X109089266Y-57363401D01*
X108977613Y-57374398D01*
X108834352Y-57417855D01*
X108702323Y-57488427D01*
X108586598Y-57583400D01*
X108562799Y-57612399D01*
X107988998Y-58186201D01*
X107960000Y-58209999D01*
X107936202Y-58238997D01*
X107936201Y-58238998D01*
X107865026Y-58325724D01*
X107832078Y-58387365D01*
X107755820Y-58410498D01*
X107645506Y-58469463D01*
X107548815Y-58548815D01*
X107469463Y-58645506D01*
X107410498Y-58755820D01*
X107374188Y-58875518D01*
X107361928Y-59000000D01*
X107361928Y-60190965D01*
X107244936Y-60112794D01*
X107198072Y-60093382D01*
X107198072Y-58940000D01*
X107185812Y-58815518D01*
X107177056Y-58786655D01*
X107303937Y-58659774D01*
X107417205Y-58490256D01*
X107495226Y-58301898D01*
X107535000Y-58101939D01*
X107535000Y-57898061D01*
X107495226Y-57698102D01*
X107455521Y-57602247D01*
X107481185Y-57581185D01*
X107560537Y-57484494D01*
X107619502Y-57374180D01*
X107655812Y-57254482D01*
X107668072Y-57130000D01*
X107668072Y-55930000D01*
X107655812Y-55805518D01*
X107619502Y-55685820D01*
X107560537Y-55575506D01*
X107523191Y-55530000D01*
X107560537Y-55484494D01*
X107619502Y-55374180D01*
X107655812Y-55254482D01*
X107668072Y-55130000D01*
X107668072Y-54355952D01*
X107759744Y-54417205D01*
G37*
%TD.AperFunction*%
D29*
X114338978Y-56116001D02*
X114362777Y-56145000D01*
X114478502Y-56239973D01*
X114610531Y-56310545D01*
X114753792Y-56354002D01*
X114865445Y-56364999D01*
X114865453Y-56364999D01*
X114902778Y-56368675D01*
X114940103Y-56364999D01*
X118515749Y-56364999D01*
X118553750Y-56403000D01*
X120403000Y-56403000D01*
X120403000Y-56383000D01*
X120657000Y-56383000D01*
X120657000Y-56403000D01*
X120677000Y-56403000D01*
X120677000Y-56657000D01*
X120657000Y-56657000D01*
X120657000Y-56677000D01*
X120403000Y-56677000D01*
X120403000Y-56657000D01*
X118553750Y-56657000D01*
X118470750Y-56740000D01*
X113767418Y-56740000D01*
X113771033Y-56703296D01*
X113771033Y-56703288D01*
X113774709Y-56665963D01*
X113771033Y-56628638D01*
X113771033Y-56498045D01*
X113814970Y-56454108D01*
X113928238Y-56284590D01*
X114006259Y-56096232D01*
X114046033Y-55896273D01*
X114046033Y-55823056D01*
X114338978Y-56116001D01*
%TA.AperFunction,Conductor*%
D30*
G36*
X114338978Y-56116001D02*
G01*
X114362777Y-56145000D01*
X114478502Y-56239973D01*
X114610531Y-56310545D01*
X114753792Y-56354002D01*
X114865445Y-56364999D01*
X114865453Y-56364999D01*
X114902778Y-56368675D01*
X114940103Y-56364999D01*
X118515749Y-56364999D01*
X118553750Y-56403000D01*
X120403000Y-56403000D01*
X120403000Y-56383000D01*
X120657000Y-56383000D01*
X120657000Y-56403000D01*
X120677000Y-56403000D01*
X120677000Y-56657000D01*
X120657000Y-56657000D01*
X120657000Y-56677000D01*
X120403000Y-56677000D01*
X120403000Y-56657000D01*
X118553750Y-56657000D01*
X118470750Y-56740000D01*
X113767418Y-56740000D01*
X113771033Y-56703296D01*
X113771033Y-56703288D01*
X113774709Y-56665963D01*
X113771033Y-56628638D01*
X113771033Y-56498045D01*
X113814970Y-56454108D01*
X113928238Y-56284590D01*
X114006259Y-56096232D01*
X114046033Y-55896273D01*
X114046033Y-55823056D01*
X114338978Y-56116001D01*
G37*
%TD.AperFunction*%
D29*
X114640000Y-51188884D02*
X114639999Y-52778841D01*
X114509744Y-52832795D01*
X114340226Y-52946063D01*
X114196063Y-53090226D01*
X114082795Y-53259744D01*
X114004774Y-53448102D01*
X114001885Y-53462626D01*
X113871387Y-53436669D01*
X113667509Y-53436669D01*
X113467550Y-53476443D01*
X113279192Y-53554464D01*
X113141503Y-53646464D01*
X113103926Y-53590226D01*
X112959763Y-53446063D01*
X112790245Y-53332795D01*
X112601887Y-53254774D01*
X112401928Y-53215000D01*
X112247340Y-53215000D01*
X112247340Y-52441051D01*
X112291277Y-52397114D01*
X112404545Y-52227596D01*
X112482566Y-52039238D01*
X112522340Y-51839279D01*
X112522340Y-51635401D01*
X112482566Y-51435442D01*
X112404545Y-51247084D01*
X112291277Y-51077566D01*
X112220102Y-51006391D01*
X112729453Y-50497041D01*
X113948158Y-50497041D01*
X114640000Y-51188884D01*
%TA.AperFunction,Conductor*%
D30*
G36*
X114640000Y-51188884D02*
G01*
X114639999Y-52778841D01*
X114509744Y-52832795D01*
X114340226Y-52946063D01*
X114196063Y-53090226D01*
X114082795Y-53259744D01*
X114004774Y-53448102D01*
X114001885Y-53462626D01*
X113871387Y-53436669D01*
X113667509Y-53436669D01*
X113467550Y-53476443D01*
X113279192Y-53554464D01*
X113141503Y-53646464D01*
X113103926Y-53590226D01*
X112959763Y-53446063D01*
X112790245Y-53332795D01*
X112601887Y-53254774D01*
X112401928Y-53215000D01*
X112247340Y-53215000D01*
X112247340Y-52441051D01*
X112291277Y-52397114D01*
X112404545Y-52227596D01*
X112482566Y-52039238D01*
X112522340Y-51839279D01*
X112522340Y-51635401D01*
X112482566Y-51435442D01*
X112404545Y-51247084D01*
X112291277Y-51077566D01*
X112220102Y-51006391D01*
X112729453Y-50497041D01*
X113948158Y-50497041D01*
X114640000Y-51188884D01*
G37*
%TD.AperFunction*%
D29*
X124837000Y-50543000D02*
X124857000Y-50543000D01*
X124857000Y-50797000D01*
X124837000Y-50797000D01*
X124837000Y-51646250D01*
X124945750Y-51755000D01*
X124877000Y-51823750D01*
X124877000Y-52673000D01*
X124897000Y-52673000D01*
X124897000Y-52927000D01*
X124877000Y-52927000D01*
X124877000Y-52947000D01*
X124623000Y-52947000D01*
X124623000Y-52927000D01*
X124603000Y-52927000D01*
X124603000Y-52673000D01*
X124623000Y-52673000D01*
X124623000Y-51823750D01*
X124613136Y-51813886D01*
X124613136Y-51760165D01*
X124583000Y-51608660D01*
X124583000Y-50797000D01*
X124563000Y-50797000D01*
X124563000Y-50543000D01*
X124583000Y-50543000D01*
X124583000Y-50523000D01*
X124837000Y-50523000D01*
X124837000Y-50543000D01*
%TA.AperFunction,Conductor*%
D30*
G36*
X124837000Y-50543000D02*
G01*
X124857000Y-50543000D01*
X124857000Y-50797000D01*
X124837000Y-50797000D01*
X124837000Y-51646250D01*
X124945750Y-51755000D01*
X124877000Y-51823750D01*
X124877000Y-52673000D01*
X124897000Y-52673000D01*
X124897000Y-52927000D01*
X124877000Y-52927000D01*
X124877000Y-52947000D01*
X124623000Y-52947000D01*
X124623000Y-52927000D01*
X124603000Y-52927000D01*
X124603000Y-52673000D01*
X124623000Y-52673000D01*
X124623000Y-51823750D01*
X124613136Y-51813886D01*
X124613136Y-51760165D01*
X124583000Y-51608660D01*
X124583000Y-50797000D01*
X124563000Y-50797000D01*
X124563000Y-50543000D01*
X124583000Y-50543000D01*
X124583000Y-50523000D01*
X124837000Y-50523000D01*
X124837000Y-50543000D01*
G37*
%TD.AperFunction*%
D29*
X103391928Y-47130000D02*
X103404188Y-47254482D01*
X103440498Y-47374180D01*
X103499463Y-47484494D01*
X103536809Y-47530000D01*
X103499463Y-47575506D01*
X103440498Y-47685820D01*
X103404188Y-47805518D01*
X103391928Y-47930000D01*
X103391928Y-49130000D01*
X103404188Y-49254482D01*
X103440498Y-49374180D01*
X103499463Y-49484494D01*
X103536809Y-49530000D01*
X103499463Y-49575506D01*
X103440498Y-49685820D01*
X103404188Y-49805518D01*
X103391928Y-49930000D01*
X103391928Y-51130000D01*
X103404188Y-51254482D01*
X103440498Y-51374180D01*
X103499463Y-51484494D01*
X103536809Y-51530000D01*
X103499463Y-51575506D01*
X103440498Y-51685820D01*
X103404188Y-51805518D01*
X103391928Y-51930000D01*
X103391928Y-52508734D01*
X103384974Y-52495724D01*
X103290001Y-52379999D01*
X103261003Y-52356201D01*
X100948860Y-50044059D01*
X101052953Y-49792756D01*
X101135000Y-49380279D01*
X101135000Y-48959721D01*
X101052953Y-48547244D01*
X100948860Y-48295941D01*
X103029801Y-46215001D01*
X103391928Y-46215001D01*
X103391928Y-47130000D01*
%TA.AperFunction,Conductor*%
D30*
G36*
X103391928Y-47130000D02*
G01*
X103404188Y-47254482D01*
X103440498Y-47374180D01*
X103499463Y-47484494D01*
X103536809Y-47530000D01*
X103499463Y-47575506D01*
X103440498Y-47685820D01*
X103404188Y-47805518D01*
X103391928Y-47930000D01*
X103391928Y-49130000D01*
X103404188Y-49254482D01*
X103440498Y-49374180D01*
X103499463Y-49484494D01*
X103536809Y-49530000D01*
X103499463Y-49575506D01*
X103440498Y-49685820D01*
X103404188Y-49805518D01*
X103391928Y-49930000D01*
X103391928Y-51130000D01*
X103404188Y-51254482D01*
X103440498Y-51374180D01*
X103499463Y-51484494D01*
X103536809Y-51530000D01*
X103499463Y-51575506D01*
X103440498Y-51685820D01*
X103404188Y-51805518D01*
X103391928Y-51930000D01*
X103391928Y-52508734D01*
X103384974Y-52495724D01*
X103290001Y-52379999D01*
X103261003Y-52356201D01*
X100948860Y-50044059D01*
X101052953Y-49792756D01*
X101135000Y-49380279D01*
X101135000Y-48959721D01*
X101052953Y-48547244D01*
X100948860Y-48295941D01*
X103029801Y-46215001D01*
X103391928Y-46215001D01*
X103391928Y-47130000D01*
G37*
%TD.AperFunction*%
%TD*%
M02*
