M48
; DRILL file {KiCad (5.1.9)-1} date 03/15/21 18:44:30
; FORMAT={-:-/ absolute / inch / decimal}
; #@! TF.CreationDate,2021-03-15T18:44:30-04:00
; #@! TF.GenerationSoftware,Kicad,Pcbnew,(5.1.9)-1
; #@! TF.FileFunction,Plated,1,2,PTH
FMAT,2
INCH
T1C0.0157
T2C0.0295
T3C0.0394
T4C0.0591
T5C0.0598
%
G90
G05
T1
X3.9567Y-2.4213
X4.0256Y-1.9882
X4.0453Y-2.3489
X4.0846Y-2.313
X4.0945Y-2.4902
X4.1547Y-2.0681
X4.1929Y-2.2835
X4.2029Y-2.4028
X4.2421Y-2.2933
X4.2559Y-2.4902
X4.2618Y-2.1063
X4.2913Y-2.4705
X4.3061Y-2.4055
X4.3563Y-2.2883
X4.3612Y-2.3612
X4.3663Y-2.1894
X4.3893Y-2.0369
X4.4174Y-2.3758
X4.4183Y-2.0079
X4.4213Y-2.1358
X4.447Y-2.4764
X4.4488Y-2.2835
X4.4493Y-2.1966
X4.4621Y-2.4172
X4.4791Y-2.1446
X4.4882Y-2.6181
X4.5079Y-2.0669
X4.5208Y-2.544
X4.5276Y-2.1161
X4.5276Y-2.6476
X4.5906Y-2.7989
X4.6Y-2.9859
X4.6457Y-2.8579
X4.6555Y-2.6945
X4.6585Y-2.0349
X4.6626Y-2.074
X4.6639Y-1.9582
X4.6752Y-2.6604
X4.6949Y-1.6043
X4.7Y-2.9859
X4.7146Y-2.5197
X4.7231Y-2.8258
X4.7244Y-2.3776
X4.7274Y-2.6275
X4.7305Y-2.6668
X4.7362Y-2.225
X4.7413Y-2.2821
X4.7633Y-2.717
X4.766Y-2.3162
X4.7839Y-2.3524
X4.8Y-2.9859
X4.8031Y-2.7165
X4.8184Y-1.9465
X4.8237Y-2.6575
X4.8279Y-2.0925
X4.828Y-1.9083
X4.8373Y-2.0141
X4.8429Y-2.58
X4.843Y-2.5389
X4.8524Y-1.5758
X4.8653Y-2.0418
X4.872Y-2.1161
X4.8722Y-1.8962
X4.9Y-2.9859
X4.9016Y-2.2835
X4.9185Y-2.1417
X4.9277Y-1.7618
X4.9277Y-1.8406
X4.9315Y-2.7456
X4.939Y-2.2018
X4.9508Y-1.6339
X4.9606Y-2.4016
X4.9705Y-1.8996
X4.9705Y-2.2441
X4.9793Y-1.9395
X4.9803Y-2.4705
X4.9818Y-1.7122
X5.0098Y-1.5768
X5.0098Y-1.998
X5.0252Y-2.9089
X5.0295Y-2.4213
X5.0984Y-1.7618
X5.15Y-2.624
X5.1575Y-1.5453
X5.1668Y-1.595
X5.3051Y-2.372
T2
X3.7976Y-2.3228
X3.8476Y-2.3228
X3.8976Y-2.3228
T3
X5.1Y-2.75
X5.1Y-2.85
X5.1Y-2.95
X5.2Y-2.75
X5.2Y-2.85
X5.2Y-2.95
T4
X4.1618Y-1.3173
X4.1618Y-1.5173
X4.2618Y-1.4173
X4.3618Y-1.3173
X4.3618Y-1.5173
T5
X3.8976Y-1.7358
X3.8976Y-1.9358
X3.8976Y-2.1358
X3.8976Y-2.5394
X3.8976Y-2.7394
X3.8976Y-2.9394
X4.5669Y-1.4469
X4.7669Y-1.4469
X4.9669Y-1.4469
X5.4528Y-2.4311
X5.4528Y-2.6311
X5.4528Y-2.8311
T3
G00X5.0492Y-2.1654
M15
G01X5.0492Y-2.0866
M16
G05
G00X5.2067Y-1.9409
M15
G01X5.128Y-1.9409
M16
G05
G00X5.2854Y-2.1654
M15
G01X5.2854Y-2.0866
M16
G05
T0
M30
