%TF.GenerationSoftware,KiCad,Pcbnew,(5.1.9)-1*%
%TF.CreationDate,2021-02-24T17:00:30-05:00*%
%TF.ProjectId,Module Central,4d6f6475-6c65-4204-9365-6e7472616c2e,rev?*%
%TF.SameCoordinates,Original*%
%TF.FileFunction,Legend,Bot*%
%TF.FilePolarity,Positive*%
%FSLAX46Y46*%
G04 Gerber Fmt 4.6, Leading zero omitted, Abs format (unit mm)*
G04 Created by KiCad (PCBNEW (5.1.9)-1) date 2021-02-24 17:00:30*
%MOMM*%
%LPD*%
G01*
G04 APERTURE LIST*
%ADD10C,0.120000*%
%ADD11C,0.150000*%
G04 APERTURE END LIST*
D10*
%TO.C,U104*%
X124850000Y-57400000D02*
X124850000Y-56650000D01*
X124850000Y-56650000D02*
X124600000Y-56650000D01*
X124850000Y-59350000D02*
X124600000Y-59350000D01*
X120150000Y-57400000D02*
X120150000Y-56650000D01*
X120150000Y-56650000D02*
X120400000Y-56650000D01*
X120150000Y-58600000D02*
X120150000Y-59350000D01*
X120150000Y-59350000D02*
X120400000Y-59350000D01*
%TO.C,R201*%
X104741422Y-57460000D02*
X105258578Y-57460000D01*
X104741422Y-56040000D02*
X105258578Y-56040000D01*
%TO.C,C101*%
X132615000Y-63238748D02*
X132615000Y-63761252D01*
X134085000Y-63238748D02*
X134085000Y-63761252D01*
%TO.C,C103*%
X129278748Y-60425000D02*
X129801252Y-60425000D01*
X129278748Y-58955000D02*
X129801252Y-58955000D01*
%TO.C,C104*%
X129278748Y-62965000D02*
X129801252Y-62965000D01*
X129278748Y-61495000D02*
X129801252Y-61495000D01*
%TO.C,C105*%
X112768748Y-64035000D02*
X113291252Y-64035000D01*
X112768748Y-65505000D02*
X113291252Y-65505000D01*
%TO.C,C109*%
X129188748Y-65235000D02*
X129711252Y-65235000D01*
X129188748Y-63765000D02*
X129711252Y-63765000D01*
%TO.C,C203*%
X109238748Y-56015000D02*
X109761252Y-56015000D01*
X109238748Y-57485000D02*
X109761252Y-57485000D01*
%TO.C,D201*%
X121250000Y-43210000D02*
X118565000Y-43210000D01*
X118565000Y-43210000D02*
X118565000Y-41290000D01*
X118565000Y-41290000D02*
X121250000Y-41290000D01*
%TO.C,D202*%
X118540000Y-48685000D02*
X118540000Y-46000000D01*
X120460000Y-48685000D02*
X118540000Y-48685000D01*
X120460000Y-46000000D02*
X120460000Y-48685000D01*
%TO.C,R102*%
X117575000Y-75157064D02*
X117575000Y-74702936D01*
X116105000Y-75157064D02*
X116105000Y-74702936D01*
%TO.C,R103*%
X118645000Y-75157064D02*
X118645000Y-74702936D01*
X120115000Y-75157064D02*
X120115000Y-74702936D01*
%TO.C,R104*%
X122655000Y-75157064D02*
X122655000Y-74702936D01*
X121185000Y-75157064D02*
X121185000Y-74702936D01*
%TO.C,R105*%
X123725000Y-75157064D02*
X123725000Y-74702936D01*
X125195000Y-75157064D02*
X125195000Y-74702936D01*
%TO.C,R204*%
X124477064Y-46015000D02*
X124022936Y-46015000D01*
X124477064Y-47485000D02*
X124022936Y-47485000D01*
%TO.C,R205*%
X124477064Y-45485000D02*
X124022936Y-45485000D01*
X124477064Y-44015000D02*
X124022936Y-44015000D01*
D11*
%TO.C,U201*%
X110375000Y-55325000D02*
X110375000Y-54750000D01*
X116125000Y-55325000D02*
X116125000Y-54675000D01*
X116125000Y-44675000D02*
X116125000Y-45325000D01*
X110375000Y-44675000D02*
X110375000Y-45325000D01*
X110375000Y-55325000D02*
X116125000Y-55325000D01*
X110375000Y-44675000D02*
X116125000Y-44675000D01*
X110375000Y-54750000D02*
X108775000Y-54750000D01*
D10*
%TO.C,R106*%
X131040000Y-44491422D02*
X131040000Y-45008578D01*
X132460000Y-44491422D02*
X132460000Y-45008578D01*
%TO.C,U104*%
D11*
X125952380Y-56285714D02*
X126761904Y-56285714D01*
X126857142Y-56333333D01*
X126904761Y-56380952D01*
X126952380Y-56476190D01*
X126952380Y-56666666D01*
X126904761Y-56761904D01*
X126857142Y-56809523D01*
X126761904Y-56857142D01*
X125952380Y-56857142D01*
X126952380Y-57857142D02*
X126952380Y-57285714D01*
X126952380Y-57571428D02*
X125952380Y-57571428D01*
X126095238Y-57476190D01*
X126190476Y-57380952D01*
X126238095Y-57285714D01*
X125952380Y-58476190D02*
X125952380Y-58571428D01*
X126000000Y-58666666D01*
X126047619Y-58714285D01*
X126142857Y-58761904D01*
X126333333Y-58809523D01*
X126571428Y-58809523D01*
X126761904Y-58761904D01*
X126857142Y-58714285D01*
X126904761Y-58666666D01*
X126952380Y-58571428D01*
X126952380Y-58476190D01*
X126904761Y-58380952D01*
X126857142Y-58333333D01*
X126761904Y-58285714D01*
X126571428Y-58238095D01*
X126333333Y-58238095D01*
X126142857Y-58285714D01*
X126047619Y-58333333D01*
X126000000Y-58380952D01*
X125952380Y-58476190D01*
X126285714Y-59666666D02*
X126952380Y-59666666D01*
X125904761Y-59428571D02*
X126619047Y-59190476D01*
X126619047Y-59809523D01*
%TO.C,R201*%
X106119047Y-58852380D02*
X106452380Y-58376190D01*
X106690476Y-58852380D02*
X106690476Y-57852380D01*
X106309523Y-57852380D01*
X106214285Y-57900000D01*
X106166666Y-57947619D01*
X106119047Y-58042857D01*
X106119047Y-58185714D01*
X106166666Y-58280952D01*
X106214285Y-58328571D01*
X106309523Y-58376190D01*
X106690476Y-58376190D01*
X105738095Y-57947619D02*
X105690476Y-57900000D01*
X105595238Y-57852380D01*
X105357142Y-57852380D01*
X105261904Y-57900000D01*
X105214285Y-57947619D01*
X105166666Y-58042857D01*
X105166666Y-58138095D01*
X105214285Y-58280952D01*
X105785714Y-58852380D01*
X105166666Y-58852380D01*
X104547619Y-57852380D02*
X104452380Y-57852380D01*
X104357142Y-57900000D01*
X104309523Y-57947619D01*
X104261904Y-58042857D01*
X104214285Y-58233333D01*
X104214285Y-58471428D01*
X104261904Y-58661904D01*
X104309523Y-58757142D01*
X104357142Y-58804761D01*
X104452380Y-58852380D01*
X104547619Y-58852380D01*
X104642857Y-58804761D01*
X104690476Y-58757142D01*
X104738095Y-58661904D01*
X104785714Y-58471428D01*
X104785714Y-58233333D01*
X104738095Y-58042857D01*
X104690476Y-57947619D01*
X104642857Y-57900000D01*
X104547619Y-57852380D01*
X103261904Y-58852380D02*
X103833333Y-58852380D01*
X103547619Y-58852380D02*
X103547619Y-57852380D01*
X103642857Y-57995238D01*
X103738095Y-58090476D01*
X103833333Y-58138095D01*
%TO.C,C101*%
X132107142Y-62380952D02*
X132154761Y-62333333D01*
X132202380Y-62190476D01*
X132202380Y-62095238D01*
X132154761Y-61952380D01*
X132059523Y-61857142D01*
X131964285Y-61809523D01*
X131773809Y-61761904D01*
X131630952Y-61761904D01*
X131440476Y-61809523D01*
X131345238Y-61857142D01*
X131250000Y-61952380D01*
X131202380Y-62095238D01*
X131202380Y-62190476D01*
X131250000Y-62333333D01*
X131297619Y-62380952D01*
X132202380Y-63333333D02*
X132202380Y-62761904D01*
X132202380Y-63047619D02*
X131202380Y-63047619D01*
X131345238Y-62952380D01*
X131440476Y-62857142D01*
X131488095Y-62761904D01*
X131202380Y-63952380D02*
X131202380Y-64047619D01*
X131250000Y-64142857D01*
X131297619Y-64190476D01*
X131392857Y-64238095D01*
X131583333Y-64285714D01*
X131821428Y-64285714D01*
X132011904Y-64238095D01*
X132107142Y-64190476D01*
X132154761Y-64142857D01*
X132202380Y-64047619D01*
X132202380Y-63952380D01*
X132154761Y-63857142D01*
X132107142Y-63809523D01*
X132011904Y-63761904D01*
X131821428Y-63714285D01*
X131583333Y-63714285D01*
X131392857Y-63761904D01*
X131297619Y-63809523D01*
X131250000Y-63857142D01*
X131202380Y-63952380D01*
X132202380Y-65238095D02*
X132202380Y-64666666D01*
X132202380Y-64952380D02*
X131202380Y-64952380D01*
X131345238Y-64857142D01*
X131440476Y-64761904D01*
X131488095Y-64666666D01*
%TO.C,C103*%
X126869047Y-60107142D02*
X126916666Y-60154761D01*
X127059523Y-60202380D01*
X127154761Y-60202380D01*
X127297619Y-60154761D01*
X127392857Y-60059523D01*
X127440476Y-59964285D01*
X127488095Y-59773809D01*
X127488095Y-59630952D01*
X127440476Y-59440476D01*
X127392857Y-59345238D01*
X127297619Y-59250000D01*
X127154761Y-59202380D01*
X127059523Y-59202380D01*
X126916666Y-59250000D01*
X126869047Y-59297619D01*
X125916666Y-60202380D02*
X126488095Y-60202380D01*
X126202380Y-60202380D02*
X126202380Y-59202380D01*
X126297619Y-59345238D01*
X126392857Y-59440476D01*
X126488095Y-59488095D01*
X125297619Y-59202380D02*
X125202380Y-59202380D01*
X125107142Y-59250000D01*
X125059523Y-59297619D01*
X125011904Y-59392857D01*
X124964285Y-59583333D01*
X124964285Y-59821428D01*
X125011904Y-60011904D01*
X125059523Y-60107142D01*
X125107142Y-60154761D01*
X125202380Y-60202380D01*
X125297619Y-60202380D01*
X125392857Y-60154761D01*
X125440476Y-60107142D01*
X125488095Y-60011904D01*
X125535714Y-59821428D01*
X125535714Y-59583333D01*
X125488095Y-59392857D01*
X125440476Y-59297619D01*
X125392857Y-59250000D01*
X125297619Y-59202380D01*
X124630952Y-59202380D02*
X124011904Y-59202380D01*
X124345238Y-59583333D01*
X124202380Y-59583333D01*
X124107142Y-59630952D01*
X124059523Y-59678571D01*
X124011904Y-59773809D01*
X124011904Y-60011904D01*
X124059523Y-60107142D01*
X124107142Y-60154761D01*
X124202380Y-60202380D01*
X124488095Y-60202380D01*
X124583333Y-60154761D01*
X124630952Y-60107142D01*
%TO.C,C104*%
X126869047Y-62607142D02*
X126916666Y-62654761D01*
X127059523Y-62702380D01*
X127154761Y-62702380D01*
X127297619Y-62654761D01*
X127392857Y-62559523D01*
X127440476Y-62464285D01*
X127488095Y-62273809D01*
X127488095Y-62130952D01*
X127440476Y-61940476D01*
X127392857Y-61845238D01*
X127297619Y-61750000D01*
X127154761Y-61702380D01*
X127059523Y-61702380D01*
X126916666Y-61750000D01*
X126869047Y-61797619D01*
X125916666Y-62702380D02*
X126488095Y-62702380D01*
X126202380Y-62702380D02*
X126202380Y-61702380D01*
X126297619Y-61845238D01*
X126392857Y-61940476D01*
X126488095Y-61988095D01*
X125297619Y-61702380D02*
X125202380Y-61702380D01*
X125107142Y-61750000D01*
X125059523Y-61797619D01*
X125011904Y-61892857D01*
X124964285Y-62083333D01*
X124964285Y-62321428D01*
X125011904Y-62511904D01*
X125059523Y-62607142D01*
X125107142Y-62654761D01*
X125202380Y-62702380D01*
X125297619Y-62702380D01*
X125392857Y-62654761D01*
X125440476Y-62607142D01*
X125488095Y-62511904D01*
X125535714Y-62321428D01*
X125535714Y-62083333D01*
X125488095Y-61892857D01*
X125440476Y-61797619D01*
X125392857Y-61750000D01*
X125297619Y-61702380D01*
X124107142Y-62035714D02*
X124107142Y-62702380D01*
X124345238Y-61654761D02*
X124583333Y-62369047D01*
X123964285Y-62369047D01*
%TO.C,C105*%
X114149047Y-66807142D02*
X114196666Y-66854761D01*
X114339523Y-66902380D01*
X114434761Y-66902380D01*
X114577619Y-66854761D01*
X114672857Y-66759523D01*
X114720476Y-66664285D01*
X114768095Y-66473809D01*
X114768095Y-66330952D01*
X114720476Y-66140476D01*
X114672857Y-66045238D01*
X114577619Y-65950000D01*
X114434761Y-65902380D01*
X114339523Y-65902380D01*
X114196666Y-65950000D01*
X114149047Y-65997619D01*
X113196666Y-66902380D02*
X113768095Y-66902380D01*
X113482380Y-66902380D02*
X113482380Y-65902380D01*
X113577619Y-66045238D01*
X113672857Y-66140476D01*
X113768095Y-66188095D01*
X112577619Y-65902380D02*
X112482380Y-65902380D01*
X112387142Y-65950000D01*
X112339523Y-65997619D01*
X112291904Y-66092857D01*
X112244285Y-66283333D01*
X112244285Y-66521428D01*
X112291904Y-66711904D01*
X112339523Y-66807142D01*
X112387142Y-66854761D01*
X112482380Y-66902380D01*
X112577619Y-66902380D01*
X112672857Y-66854761D01*
X112720476Y-66807142D01*
X112768095Y-66711904D01*
X112815714Y-66521428D01*
X112815714Y-66283333D01*
X112768095Y-66092857D01*
X112720476Y-65997619D01*
X112672857Y-65950000D01*
X112577619Y-65902380D01*
X111339523Y-65902380D02*
X111815714Y-65902380D01*
X111863333Y-66378571D01*
X111815714Y-66330952D01*
X111720476Y-66283333D01*
X111482380Y-66283333D01*
X111387142Y-66330952D01*
X111339523Y-66378571D01*
X111291904Y-66473809D01*
X111291904Y-66711904D01*
X111339523Y-66807142D01*
X111387142Y-66854761D01*
X111482380Y-66902380D01*
X111720476Y-66902380D01*
X111815714Y-66854761D01*
X111863333Y-66807142D01*
%TO.C,C109*%
X126869047Y-64857142D02*
X126916666Y-64904761D01*
X127059523Y-64952380D01*
X127154761Y-64952380D01*
X127297619Y-64904761D01*
X127392857Y-64809523D01*
X127440476Y-64714285D01*
X127488095Y-64523809D01*
X127488095Y-64380952D01*
X127440476Y-64190476D01*
X127392857Y-64095238D01*
X127297619Y-64000000D01*
X127154761Y-63952380D01*
X127059523Y-63952380D01*
X126916666Y-64000000D01*
X126869047Y-64047619D01*
X125916666Y-64952380D02*
X126488095Y-64952380D01*
X126202380Y-64952380D02*
X126202380Y-63952380D01*
X126297619Y-64095238D01*
X126392857Y-64190476D01*
X126488095Y-64238095D01*
X125297619Y-63952380D02*
X125202380Y-63952380D01*
X125107142Y-64000000D01*
X125059523Y-64047619D01*
X125011904Y-64142857D01*
X124964285Y-64333333D01*
X124964285Y-64571428D01*
X125011904Y-64761904D01*
X125059523Y-64857142D01*
X125107142Y-64904761D01*
X125202380Y-64952380D01*
X125297619Y-64952380D01*
X125392857Y-64904761D01*
X125440476Y-64857142D01*
X125488095Y-64761904D01*
X125535714Y-64571428D01*
X125535714Y-64333333D01*
X125488095Y-64142857D01*
X125440476Y-64047619D01*
X125392857Y-64000000D01*
X125297619Y-63952380D01*
X124488095Y-64952380D02*
X124297619Y-64952380D01*
X124202380Y-64904761D01*
X124154761Y-64857142D01*
X124059523Y-64714285D01*
X124011904Y-64523809D01*
X124011904Y-64142857D01*
X124059523Y-64047619D01*
X124107142Y-64000000D01*
X124202380Y-63952380D01*
X124392857Y-63952380D01*
X124488095Y-64000000D01*
X124535714Y-64047619D01*
X124583333Y-64142857D01*
X124583333Y-64380952D01*
X124535714Y-64476190D01*
X124488095Y-64523809D01*
X124392857Y-64571428D01*
X124202380Y-64571428D01*
X124107142Y-64523809D01*
X124059523Y-64476190D01*
X124011904Y-64380952D01*
%TO.C,C203*%
X110619047Y-58787142D02*
X110666666Y-58834761D01*
X110809523Y-58882380D01*
X110904761Y-58882380D01*
X111047619Y-58834761D01*
X111142857Y-58739523D01*
X111190476Y-58644285D01*
X111238095Y-58453809D01*
X111238095Y-58310952D01*
X111190476Y-58120476D01*
X111142857Y-58025238D01*
X111047619Y-57930000D01*
X110904761Y-57882380D01*
X110809523Y-57882380D01*
X110666666Y-57930000D01*
X110619047Y-57977619D01*
X110238095Y-57977619D02*
X110190476Y-57930000D01*
X110095238Y-57882380D01*
X109857142Y-57882380D01*
X109761904Y-57930000D01*
X109714285Y-57977619D01*
X109666666Y-58072857D01*
X109666666Y-58168095D01*
X109714285Y-58310952D01*
X110285714Y-58882380D01*
X109666666Y-58882380D01*
X109047619Y-57882380D02*
X108952380Y-57882380D01*
X108857142Y-57930000D01*
X108809523Y-57977619D01*
X108761904Y-58072857D01*
X108714285Y-58263333D01*
X108714285Y-58501428D01*
X108761904Y-58691904D01*
X108809523Y-58787142D01*
X108857142Y-58834761D01*
X108952380Y-58882380D01*
X109047619Y-58882380D01*
X109142857Y-58834761D01*
X109190476Y-58787142D01*
X109238095Y-58691904D01*
X109285714Y-58501428D01*
X109285714Y-58263333D01*
X109238095Y-58072857D01*
X109190476Y-57977619D01*
X109142857Y-57930000D01*
X109047619Y-57882380D01*
X108380952Y-57882380D02*
X107761904Y-57882380D01*
X108095238Y-58263333D01*
X107952380Y-58263333D01*
X107857142Y-58310952D01*
X107809523Y-58358571D01*
X107761904Y-58453809D01*
X107761904Y-58691904D01*
X107809523Y-58787142D01*
X107857142Y-58834761D01*
X107952380Y-58882380D01*
X108238095Y-58882380D01*
X108333333Y-58834761D01*
X108380952Y-58787142D01*
%TO.C,D201*%
X121940476Y-44352380D02*
X121940476Y-43352380D01*
X121702380Y-43352380D01*
X121559523Y-43400000D01*
X121464285Y-43495238D01*
X121416666Y-43590476D01*
X121369047Y-43780952D01*
X121369047Y-43923809D01*
X121416666Y-44114285D01*
X121464285Y-44209523D01*
X121559523Y-44304761D01*
X121702380Y-44352380D01*
X121940476Y-44352380D01*
X120988095Y-43447619D02*
X120940476Y-43400000D01*
X120845238Y-43352380D01*
X120607142Y-43352380D01*
X120511904Y-43400000D01*
X120464285Y-43447619D01*
X120416666Y-43542857D01*
X120416666Y-43638095D01*
X120464285Y-43780952D01*
X121035714Y-44352380D01*
X120416666Y-44352380D01*
X119797619Y-43352380D02*
X119702380Y-43352380D01*
X119607142Y-43400000D01*
X119559523Y-43447619D01*
X119511904Y-43542857D01*
X119464285Y-43733333D01*
X119464285Y-43971428D01*
X119511904Y-44161904D01*
X119559523Y-44257142D01*
X119607142Y-44304761D01*
X119702380Y-44352380D01*
X119797619Y-44352380D01*
X119892857Y-44304761D01*
X119940476Y-44257142D01*
X119988095Y-44161904D01*
X120035714Y-43971428D01*
X120035714Y-43733333D01*
X119988095Y-43542857D01*
X119940476Y-43447619D01*
X119892857Y-43400000D01*
X119797619Y-43352380D01*
X118511904Y-44352380D02*
X119083333Y-44352380D01*
X118797619Y-44352380D02*
X118797619Y-43352380D01*
X118892857Y-43495238D01*
X118988095Y-43590476D01*
X119083333Y-43638095D01*
%TO.C,D202*%
X121602380Y-45309523D02*
X120602380Y-45309523D01*
X120602380Y-45547619D01*
X120650000Y-45690476D01*
X120745238Y-45785714D01*
X120840476Y-45833333D01*
X121030952Y-45880952D01*
X121173809Y-45880952D01*
X121364285Y-45833333D01*
X121459523Y-45785714D01*
X121554761Y-45690476D01*
X121602380Y-45547619D01*
X121602380Y-45309523D01*
X120697619Y-46261904D02*
X120650000Y-46309523D01*
X120602380Y-46404761D01*
X120602380Y-46642857D01*
X120650000Y-46738095D01*
X120697619Y-46785714D01*
X120792857Y-46833333D01*
X120888095Y-46833333D01*
X121030952Y-46785714D01*
X121602380Y-46214285D01*
X121602380Y-46833333D01*
X120602380Y-47452380D02*
X120602380Y-47547619D01*
X120650000Y-47642857D01*
X120697619Y-47690476D01*
X120792857Y-47738095D01*
X120983333Y-47785714D01*
X121221428Y-47785714D01*
X121411904Y-47738095D01*
X121507142Y-47690476D01*
X121554761Y-47642857D01*
X121602380Y-47547619D01*
X121602380Y-47452380D01*
X121554761Y-47357142D01*
X121507142Y-47309523D01*
X121411904Y-47261904D01*
X121221428Y-47214285D01*
X120983333Y-47214285D01*
X120792857Y-47261904D01*
X120697619Y-47309523D01*
X120650000Y-47357142D01*
X120602380Y-47452380D01*
X120697619Y-48166666D02*
X120650000Y-48214285D01*
X120602380Y-48309523D01*
X120602380Y-48547619D01*
X120650000Y-48642857D01*
X120697619Y-48690476D01*
X120792857Y-48738095D01*
X120888095Y-48738095D01*
X121030952Y-48690476D01*
X121602380Y-48119047D01*
X121602380Y-48738095D01*
%TO.C,R102*%
X112702380Y-73630952D02*
X112226190Y-73297619D01*
X112702380Y-73059523D02*
X111702380Y-73059523D01*
X111702380Y-73440476D01*
X111750000Y-73535714D01*
X111797619Y-73583333D01*
X111892857Y-73630952D01*
X112035714Y-73630952D01*
X112130952Y-73583333D01*
X112178571Y-73535714D01*
X112226190Y-73440476D01*
X112226190Y-73059523D01*
X112702380Y-74583333D02*
X112702380Y-74011904D01*
X112702380Y-74297619D02*
X111702380Y-74297619D01*
X111845238Y-74202380D01*
X111940476Y-74107142D01*
X111988095Y-74011904D01*
X111702380Y-75202380D02*
X111702380Y-75297619D01*
X111750000Y-75392857D01*
X111797619Y-75440476D01*
X111892857Y-75488095D01*
X112083333Y-75535714D01*
X112321428Y-75535714D01*
X112511904Y-75488095D01*
X112607142Y-75440476D01*
X112654761Y-75392857D01*
X112702380Y-75297619D01*
X112702380Y-75202380D01*
X112654761Y-75107142D01*
X112607142Y-75059523D01*
X112511904Y-75011904D01*
X112321428Y-74964285D01*
X112083333Y-74964285D01*
X111892857Y-75011904D01*
X111797619Y-75059523D01*
X111750000Y-75107142D01*
X111702380Y-75202380D01*
X111797619Y-75916666D02*
X111750000Y-75964285D01*
X111702380Y-76059523D01*
X111702380Y-76297619D01*
X111750000Y-76392857D01*
X111797619Y-76440476D01*
X111892857Y-76488095D01*
X111988095Y-76488095D01*
X112130952Y-76440476D01*
X112702380Y-75869047D01*
X112702380Y-76488095D01*
%TO.C,R103*%
X113952380Y-73630952D02*
X113476190Y-73297619D01*
X113952380Y-73059523D02*
X112952380Y-73059523D01*
X112952380Y-73440476D01*
X113000000Y-73535714D01*
X113047619Y-73583333D01*
X113142857Y-73630952D01*
X113285714Y-73630952D01*
X113380952Y-73583333D01*
X113428571Y-73535714D01*
X113476190Y-73440476D01*
X113476190Y-73059523D01*
X113952380Y-74583333D02*
X113952380Y-74011904D01*
X113952380Y-74297619D02*
X112952380Y-74297619D01*
X113095238Y-74202380D01*
X113190476Y-74107142D01*
X113238095Y-74011904D01*
X112952380Y-75202380D02*
X112952380Y-75297619D01*
X113000000Y-75392857D01*
X113047619Y-75440476D01*
X113142857Y-75488095D01*
X113333333Y-75535714D01*
X113571428Y-75535714D01*
X113761904Y-75488095D01*
X113857142Y-75440476D01*
X113904761Y-75392857D01*
X113952380Y-75297619D01*
X113952380Y-75202380D01*
X113904761Y-75107142D01*
X113857142Y-75059523D01*
X113761904Y-75011904D01*
X113571428Y-74964285D01*
X113333333Y-74964285D01*
X113142857Y-75011904D01*
X113047619Y-75059523D01*
X113000000Y-75107142D01*
X112952380Y-75202380D01*
X112952380Y-75869047D02*
X112952380Y-76488095D01*
X113333333Y-76154761D01*
X113333333Y-76297619D01*
X113380952Y-76392857D01*
X113428571Y-76440476D01*
X113523809Y-76488095D01*
X113761904Y-76488095D01*
X113857142Y-76440476D01*
X113904761Y-76392857D01*
X113952380Y-76297619D01*
X113952380Y-76011904D01*
X113904761Y-75916666D01*
X113857142Y-75869047D01*
%TO.C,R104*%
X115202380Y-73630952D02*
X114726190Y-73297619D01*
X115202380Y-73059523D02*
X114202380Y-73059523D01*
X114202380Y-73440476D01*
X114250000Y-73535714D01*
X114297619Y-73583333D01*
X114392857Y-73630952D01*
X114535714Y-73630952D01*
X114630952Y-73583333D01*
X114678571Y-73535714D01*
X114726190Y-73440476D01*
X114726190Y-73059523D01*
X115202380Y-74583333D02*
X115202380Y-74011904D01*
X115202380Y-74297619D02*
X114202380Y-74297619D01*
X114345238Y-74202380D01*
X114440476Y-74107142D01*
X114488095Y-74011904D01*
X114202380Y-75202380D02*
X114202380Y-75297619D01*
X114250000Y-75392857D01*
X114297619Y-75440476D01*
X114392857Y-75488095D01*
X114583333Y-75535714D01*
X114821428Y-75535714D01*
X115011904Y-75488095D01*
X115107142Y-75440476D01*
X115154761Y-75392857D01*
X115202380Y-75297619D01*
X115202380Y-75202380D01*
X115154761Y-75107142D01*
X115107142Y-75059523D01*
X115011904Y-75011904D01*
X114821428Y-74964285D01*
X114583333Y-74964285D01*
X114392857Y-75011904D01*
X114297619Y-75059523D01*
X114250000Y-75107142D01*
X114202380Y-75202380D01*
X114535714Y-76392857D02*
X115202380Y-76392857D01*
X114154761Y-76154761D02*
X114869047Y-75916666D01*
X114869047Y-76535714D01*
%TO.C,R105*%
X126702380Y-73880952D02*
X126226190Y-73547619D01*
X126702380Y-73309523D02*
X125702380Y-73309523D01*
X125702380Y-73690476D01*
X125750000Y-73785714D01*
X125797619Y-73833333D01*
X125892857Y-73880952D01*
X126035714Y-73880952D01*
X126130952Y-73833333D01*
X126178571Y-73785714D01*
X126226190Y-73690476D01*
X126226190Y-73309523D01*
X126702380Y-74833333D02*
X126702380Y-74261904D01*
X126702380Y-74547619D02*
X125702380Y-74547619D01*
X125845238Y-74452380D01*
X125940476Y-74357142D01*
X125988095Y-74261904D01*
X125702380Y-75452380D02*
X125702380Y-75547619D01*
X125750000Y-75642857D01*
X125797619Y-75690476D01*
X125892857Y-75738095D01*
X126083333Y-75785714D01*
X126321428Y-75785714D01*
X126511904Y-75738095D01*
X126607142Y-75690476D01*
X126654761Y-75642857D01*
X126702380Y-75547619D01*
X126702380Y-75452380D01*
X126654761Y-75357142D01*
X126607142Y-75309523D01*
X126511904Y-75261904D01*
X126321428Y-75214285D01*
X126083333Y-75214285D01*
X125892857Y-75261904D01*
X125797619Y-75309523D01*
X125750000Y-75357142D01*
X125702380Y-75452380D01*
X125702380Y-76690476D02*
X125702380Y-76214285D01*
X126178571Y-76166666D01*
X126130952Y-76214285D01*
X126083333Y-76309523D01*
X126083333Y-76547619D01*
X126130952Y-76642857D01*
X126178571Y-76690476D01*
X126273809Y-76738095D01*
X126511904Y-76738095D01*
X126607142Y-76690476D01*
X126654761Y-76642857D01*
X126702380Y-76547619D01*
X126702380Y-76309523D01*
X126654761Y-76214285D01*
X126607142Y-76166666D01*
%TO.C,R204*%
X128869047Y-47202380D02*
X129202380Y-46726190D01*
X129440476Y-47202380D02*
X129440476Y-46202380D01*
X129059523Y-46202380D01*
X128964285Y-46250000D01*
X128916666Y-46297619D01*
X128869047Y-46392857D01*
X128869047Y-46535714D01*
X128916666Y-46630952D01*
X128964285Y-46678571D01*
X129059523Y-46726190D01*
X129440476Y-46726190D01*
X128488095Y-46297619D02*
X128440476Y-46250000D01*
X128345238Y-46202380D01*
X128107142Y-46202380D01*
X128011904Y-46250000D01*
X127964285Y-46297619D01*
X127916666Y-46392857D01*
X127916666Y-46488095D01*
X127964285Y-46630952D01*
X128535714Y-47202380D01*
X127916666Y-47202380D01*
X127297619Y-46202380D02*
X127202380Y-46202380D01*
X127107142Y-46250000D01*
X127059523Y-46297619D01*
X127011904Y-46392857D01*
X126964285Y-46583333D01*
X126964285Y-46821428D01*
X127011904Y-47011904D01*
X127059523Y-47107142D01*
X127107142Y-47154761D01*
X127202380Y-47202380D01*
X127297619Y-47202380D01*
X127392857Y-47154761D01*
X127440476Y-47107142D01*
X127488095Y-47011904D01*
X127535714Y-46821428D01*
X127535714Y-46583333D01*
X127488095Y-46392857D01*
X127440476Y-46297619D01*
X127392857Y-46250000D01*
X127297619Y-46202380D01*
X126107142Y-46535714D02*
X126107142Y-47202380D01*
X126345238Y-46154761D02*
X126583333Y-46869047D01*
X125964285Y-46869047D01*
%TO.C,R205*%
X128869047Y-45202380D02*
X129202380Y-44726190D01*
X129440476Y-45202380D02*
X129440476Y-44202380D01*
X129059523Y-44202380D01*
X128964285Y-44250000D01*
X128916666Y-44297619D01*
X128869047Y-44392857D01*
X128869047Y-44535714D01*
X128916666Y-44630952D01*
X128964285Y-44678571D01*
X129059523Y-44726190D01*
X129440476Y-44726190D01*
X128488095Y-44297619D02*
X128440476Y-44250000D01*
X128345238Y-44202380D01*
X128107142Y-44202380D01*
X128011904Y-44250000D01*
X127964285Y-44297619D01*
X127916666Y-44392857D01*
X127916666Y-44488095D01*
X127964285Y-44630952D01*
X128535714Y-45202380D01*
X127916666Y-45202380D01*
X127297619Y-44202380D02*
X127202380Y-44202380D01*
X127107142Y-44250000D01*
X127059523Y-44297619D01*
X127011904Y-44392857D01*
X126964285Y-44583333D01*
X126964285Y-44821428D01*
X127011904Y-45011904D01*
X127059523Y-45107142D01*
X127107142Y-45154761D01*
X127202380Y-45202380D01*
X127297619Y-45202380D01*
X127392857Y-45154761D01*
X127440476Y-45107142D01*
X127488095Y-45011904D01*
X127535714Y-44821428D01*
X127535714Y-44583333D01*
X127488095Y-44392857D01*
X127440476Y-44297619D01*
X127392857Y-44250000D01*
X127297619Y-44202380D01*
X126059523Y-44202380D02*
X126535714Y-44202380D01*
X126583333Y-44678571D01*
X126535714Y-44630952D01*
X126440476Y-44583333D01*
X126202380Y-44583333D01*
X126107142Y-44630952D01*
X126059523Y-44678571D01*
X126011904Y-44773809D01*
X126011904Y-45011904D01*
X126059523Y-45107142D01*
X126107142Y-45154761D01*
X126202380Y-45202380D01*
X126440476Y-45202380D01*
X126535714Y-45154761D01*
X126583333Y-45107142D01*
%TO.C,U201*%
X114964285Y-55702380D02*
X114964285Y-56511904D01*
X114916666Y-56607142D01*
X114869047Y-56654761D01*
X114773809Y-56702380D01*
X114583333Y-56702380D01*
X114488095Y-56654761D01*
X114440476Y-56607142D01*
X114392857Y-56511904D01*
X114392857Y-55702380D01*
X113964285Y-55797619D02*
X113916666Y-55750000D01*
X113821428Y-55702380D01*
X113583333Y-55702380D01*
X113488095Y-55750000D01*
X113440476Y-55797619D01*
X113392857Y-55892857D01*
X113392857Y-55988095D01*
X113440476Y-56130952D01*
X114011904Y-56702380D01*
X113392857Y-56702380D01*
X112773809Y-55702380D02*
X112678571Y-55702380D01*
X112583333Y-55750000D01*
X112535714Y-55797619D01*
X112488095Y-55892857D01*
X112440476Y-56083333D01*
X112440476Y-56321428D01*
X112488095Y-56511904D01*
X112535714Y-56607142D01*
X112583333Y-56654761D01*
X112678571Y-56702380D01*
X112773809Y-56702380D01*
X112869047Y-56654761D01*
X112916666Y-56607142D01*
X112964285Y-56511904D01*
X113011904Y-56321428D01*
X113011904Y-56083333D01*
X112964285Y-55892857D01*
X112916666Y-55797619D01*
X112869047Y-55750000D01*
X112773809Y-55702380D01*
X111488095Y-56702380D02*
X112059523Y-56702380D01*
X111773809Y-56702380D02*
X111773809Y-55702380D01*
X111869047Y-55845238D01*
X111964285Y-55940476D01*
X112059523Y-55988095D01*
%TO.C,R106*%
X130552380Y-43630952D02*
X130076190Y-43297619D01*
X130552380Y-43059523D02*
X129552380Y-43059523D01*
X129552380Y-43440476D01*
X129600000Y-43535714D01*
X129647619Y-43583333D01*
X129742857Y-43630952D01*
X129885714Y-43630952D01*
X129980952Y-43583333D01*
X130028571Y-43535714D01*
X130076190Y-43440476D01*
X130076190Y-43059523D01*
X130552380Y-44583333D02*
X130552380Y-44011904D01*
X130552380Y-44297619D02*
X129552380Y-44297619D01*
X129695238Y-44202380D01*
X129790476Y-44107142D01*
X129838095Y-44011904D01*
X129552380Y-45202380D02*
X129552380Y-45297619D01*
X129600000Y-45392857D01*
X129647619Y-45440476D01*
X129742857Y-45488095D01*
X129933333Y-45535714D01*
X130171428Y-45535714D01*
X130361904Y-45488095D01*
X130457142Y-45440476D01*
X130504761Y-45392857D01*
X130552380Y-45297619D01*
X130552380Y-45202380D01*
X130504761Y-45107142D01*
X130457142Y-45059523D01*
X130361904Y-45011904D01*
X130171428Y-44964285D01*
X129933333Y-44964285D01*
X129742857Y-45011904D01*
X129647619Y-45059523D01*
X129600000Y-45107142D01*
X129552380Y-45202380D01*
X129552380Y-46392857D02*
X129552380Y-46202380D01*
X129600000Y-46107142D01*
X129647619Y-46059523D01*
X129790476Y-45964285D01*
X129980952Y-45916666D01*
X130361904Y-45916666D01*
X130457142Y-45964285D01*
X130504761Y-46011904D01*
X130552380Y-46107142D01*
X130552380Y-46297619D01*
X130504761Y-46392857D01*
X130457142Y-46440476D01*
X130361904Y-46488095D01*
X130123809Y-46488095D01*
X130028571Y-46440476D01*
X129980952Y-46392857D01*
X129933333Y-46297619D01*
X129933333Y-46107142D01*
X129980952Y-46011904D01*
X130028571Y-45964285D01*
X130123809Y-45916666D01*
%TD*%
M02*
